<svg width="81" height="81" viewBox="0 0 81 81" fill="none" xmlns="http://www.w3.org/2000/svg">
<path fill-rule="evenodd" clip-rule="evenodd" d="M40.5173 80.5828C62.7696 80.5828 80.8091 62.5435 80.8091 40.2914C80.8091 18.0385 62.7696 0 40.5173 0C18.2642 0 0.226318 18.0385 0.226318 40.2914C0.226318 62.5435 18.2642 80.5828 40.5173 80.5828ZM40.6582 76.2463C60.4394 76.2463 76.4727 60.2123 76.4727 40.4322C76.4727 20.6521 60.4394 4.61718 40.6582 4.61718C20.877 4.61718 4.84375 20.6521 4.84375 40.4322C4.84375 60.2123 20.877 76.2463 40.6582 76.2463Z" fill="#F7CE46"/>
<path fill-rule="evenodd" clip-rule="evenodd" d="M32.6054 18.4124C40.7113 18.6512 44.7665 21.6911 46.8873 24.951C49.7234 29.3099 49.8246 33.4511 49.4195 36.6114C48.9801 40.0414 46.9672 41.32 46.8873 39.7718C46.7861 37.8101 47.1912 34.4321 44.8613 31.4894C43.0521 29.2038 41.9127 29.6817 42.1265 30.0728C45.4692 36.1756 42.5446 36.5987 42.2279 35.7397C37.5687 23.0984 28.3362 24.7766 27.7435 25.06C26.8319 25.4958 26.9331 26.5856 29.3641 26.5856C36.7693 26.5856 40.1918 35.0878 38.4804 36.2845C36.961 36.5025 36.2519 32.0344 32.0992 30.1818C29.5112 29.0274 25.0088 30.3998 23.4892 35.3036C20.7193 44.2446 30.3742 58.3399 49.0144 55.5732C59.8313 53.9679 70.8324 48.0344 70.8973 47.9928C72.2411 47.1379 70.5834 52.8239 66.7421 57.831C65.0784 59.9996 63.5596 61.6895 61.5883 63.5668C48.3717 76.1534 20.555 73.2363 12.6544 53.2937C5.78654 35.9574 17.8172 17.9764 32.6054 18.4124Z" fill="#F7CE46"/>
</svg>
