<svg width="130" height="25" viewBox="0 0 130 25" fill="none" xmlns="http://www.w3.org/2000/svg">
<path fill-rule="evenodd" clip-rule="evenodd" d="M120.614 10.3128L117.945 24.6226V24.6238H120.715L123.416 10.314H127.029L127.468 8.09361H123.821L123.956 7.30798C124.429 4.57609 125.509 2.39011 127.738 2.39011C128.379 2.39011 128.953 2.49217 129.392 2.69747L130 0.443843C129.629 0.205307 128.886 0 127.772 0C126.354 0 124.901 0.511488 123.889 1.46801C122.402 2.79953 121.592 4.91669 121.22 7.23915L121.051 8.09242H118.857L118.452 10.3128H120.614ZM5.84135 22.5387C3.95095 22.5387 2.22835 21.924 1.01267 21.0707L0.630134 21.9477L0 23.392C0.945787 24.212 3.17414 24.9632 5.47055 24.9632C10.5691 24.9632 13.6764 21.8551 13.6764 17.8593C13.6764 15.0242 12.1227 13.2144 9.32058 11.712C6.95611 10.3805 5.8085 9.32189 5.8085 7.44327C5.8085 5.56465 7.49707 3.68603 10.2992 3.68603C12.1227 3.65162 13.5414 4.33518 14.2502 4.74461L15.2628 2.45657C14.4532 1.91066 12.7975 1.2271 10.6031 1.2271C6.41633 1.2271 2.90425 3.89134 2.90425 7.98918C2.90425 10.4825 4.52476 12.3267 7.42901 13.898C9.7923 15.2295 10.7721 16.4934 10.7721 18.2011C10.7721 21.0019 8.40765 22.5387 5.84135 22.5387ZM14.2492 24.6214L14.249 24.6226V24.6214H14.2492ZM16.9854 24.6214H14.2492L16.4445 12.9082C16.7824 11.064 17.0183 9.45837 17.1873 8.09242H19.6527L19.2138 11.2005H19.3147C20.8343 8.91247 22.8937 7.71741 25.0552 7.71741C27.5546 7.71741 28.7362 9.32308 28.8712 11.4058C30.3227 9.01571 32.4173 7.75183 34.8815 7.71741C36.7731 7.71741 38.8324 8.94688 38.8324 12.055C38.8324 12.8406 38.7315 13.9336 38.5625 14.8557L36.739 24.6226H34.0038L35.7592 15.0942C35.8942 14.4795 35.9962 13.6262 35.9962 12.9427C35.9962 11.2005 35.3544 10.0743 33.5309 10.0743C31.5043 10.0743 29.107 12.4644 28.4323 16.1528L26.8446 24.6226H24.1434L25.9669 14.9233C26.1019 14.2065 26.1699 13.5574 26.1699 12.9082C26.1699 11.5079 25.7979 10.0731 23.7386 10.0731C21.6792 10.0731 19.1457 12.805 18.505 16.3225L16.9854 24.6214ZM50.6501 20.3539C48.8606 23.7693 46.6322 24.9988 44.3018 24.9988C41.4316 24.9988 39.6081 22.6763 39.6081 19.535C39.6081 13.7971 43.7949 7.7186 50.92 7.7186C52.4736 7.7186 54.195 7.99155 55.3098 8.36775L53.6552 16.974L52.1697 24.6238H49.8005L50.6501 20.3539ZM50.2112 9.97223C51.157 9.97223 51.7648 10.1087 52.1697 10.2108L51.2251 15.1975C50.4142 19.6027 47.6461 22.6763 45.3157 22.6763C43.1542 22.6763 42.5123 20.8666 42.5123 19.0224C42.5464 14.4463 45.9904 9.97223 50.2112 9.97223ZM60.2641 10.022L60.2641 10.022L60.2641 10.0221L60.2641 10.0221L60.2641 10.0222C60.1176 10.609 59.9679 11.2086 59.885 11.833H59.9859C61.0326 9.57942 62.7881 7.87169 64.9836 7.87169C65.2194 7.87169 65.5574 7.9061 65.7604 7.94052L65.2206 10.7412C65.0516 10.7068 64.7817 10.6724 64.4778 10.6724C62.0465 10.6724 59.885 13.644 59.1763 17.5021L57.8256 24.7769H55.0223L57.9265 8.2467H60.629C60.5607 8.83381 60.4141 9.42121 60.2641 10.022ZM111.87 8.0948L111.87 8.09361V8.0948H111.87ZM109.169 8.0948H111.87C111.802 8.68151 111.655 9.26854 111.506 9.86891C111.359 10.4558 111.209 11.0554 111.126 11.68H111.227C112.274 9.42633 114.03 7.7186 116.225 7.7186C116.461 7.7186 116.799 7.75301 117.002 7.78743L116.462 10.5882C116.293 10.5537 116.023 10.5193 115.719 10.5193C113.288 10.5193 111.126 13.4909 110.418 17.349L109.067 24.6238H106.264L109.169 8.0948ZM73.0016 3.65399L72.1579 8.09361H76.0749L75.636 10.314H71.7191L70.1995 18.34C70.0305 19.2621 69.8956 20.1154 69.8956 21.0042C69.8956 21.9952 70.3685 22.5755 71.4492 22.5755C71.9221 22.5755 72.395 22.5411 72.7658 22.4734L72.6308 24.6926C72.1239 24.8979 71.2802 25 70.4694 25C67.97 25 67.0253 23.4632 67.0253 21.7899C67.0253 20.8333 67.1263 19.8768 67.3633 18.6818L68.9838 10.3152H66.6205L67.0594 8.0948H69.3898L70.0986 4.37197L73.0016 3.65399ZM81.9174 22.5387C80.027 22.5387 78.3044 21.924 77.0887 21.0707L76.076 23.392C77.0218 24.212 79.2502 24.9632 81.5466 24.9632C86.6452 24.9632 89.7524 21.8551 89.7524 17.8593C89.7524 15.0242 88.2 13.2144 85.3966 11.712C83.0322 10.3805 81.8845 9.32189 81.8845 7.44327C81.8845 5.56465 83.5731 3.68603 86.3753 3.68603C88.1988 3.65162 89.6175 4.33518 90.3262 4.74461L91.3389 2.45657C90.5292 1.91066 88.8735 1.2271 86.6792 1.2271C82.4924 1.2271 78.9803 3.89134 78.9803 7.98918C78.9803 10.4825 80.6008 12.3267 83.5051 13.898C85.8683 15.2295 86.8482 16.4934 86.8482 18.2011C86.8482 21.0019 84.4837 22.5387 81.9174 22.5387ZM106.264 8.09361L104.068 19.808C103.73 21.6522 103.494 23.2579 103.326 24.6238H100.793L101.232 21.5157H101.164C99.7113 23.6673 97.551 24.9988 95.3896 24.9988C93.2962 24.9988 91.1007 23.9747 91.1007 20.2174C91.1007 19.4318 91.2016 18.5441 91.4046 17.4511L93.16 8.09361H95.9634L94.2408 17.3146C94.0378 18.2367 93.9369 19.0224 93.9369 19.7392C93.9369 21.4469 94.6456 22.6075 96.5712 22.6075C98.5977 22.6075 101.197 20.2174 101.873 16.5622L103.46 8.09242H106.264V8.09361Z" fill="white"/>
</svg>
