<svg width="721" height="828" viewBox="0 0 721 828" fill="none" xmlns="http://www.w3.org/2000/svg">
<path d="M0.998047 0.000225898V828H720.998V1.22748e-05C720.998 1.22748e-05 296.872 0.000225898 0.998047 0.000225898Z" fill="url(#paint0_linear_327_6486)"/>
<mask id="mask0_327_6486" style="mask-type:alpha" maskUnits="userSpaceOnUse" x="0" y="0" width="721" height="829">
<path d="M0.998047 0.000225898V828H720.998V1.22748e-05C720.998 1.22748e-05 296.872 0.000225898 0.998047 0.000225898Z" fill="url(#paint1_linear_327_6486)"/>
</mask>
<g mask="url(#mask0_327_6486)">
<g filter="url(#filter0_f_327_6486)">
<path fill-rule="evenodd" clip-rule="evenodd" d="M573.505 -132.941C635.41 -131.117 666.38 -107.901 682.577 -83.0049C704.236 -49.7157 705.009 -18.0894 701.916 6.04654C698.559 32.2415 683.187 42.0065 682.577 30.1825C681.804 15.2008 684.898 -10.5971 667.104 -33.0711C653.287 -50.5259 644.585 -46.8766 646.218 -43.8892C671.746 2.7178 649.411 5.94917 646.992 -0.610916C611.41 -97.1537 540.901 -84.337 536.374 -82.173C529.412 -78.8442 530.185 -70.5219 548.751 -70.5219C605.304 -70.5219 631.442 -5.58937 618.372 3.54976C606.769 5.2146 601.353 -28.9085 569.639 -43.0573C549.874 -51.8731 515.489 -41.3924 503.884 -3.94156C482.73 64.3415 556.465 171.989 698.822 150.859C781.431 138.599 865.447 93.2848 865.943 92.9672C876.206 86.4377 863.546 129.863 834.21 168.102C821.504 184.664 809.904 197.569 794.849 211.907C693.913 308.031 481.475 285.753 421.138 133.45C368.687 1.05135 460.566 -136.27 573.505 -132.941Z" fill="#889EFF"/>
</g>
<g filter="url(#filter1_f_327_6486)">
<path fill-rule="evenodd" clip-rule="evenodd" d="M15.5047 -7.94064C77.4104 -6.11697 108.38 17.0991 124.577 41.9951C146.236 75.2843 147.009 106.911 143.916 131.047C140.559 157.242 125.187 167.007 124.577 155.182C123.804 140.201 126.898 114.403 109.104 91.9289C95.2867 74.4741 86.585 78.1234 88.2183 81.1108C113.746 127.718 91.4112 130.949 88.9924 124.389C53.4098 27.8463 -17.0993 40.663 -21.6262 42.827C-28.5879 46.1558 -27.8147 54.4781 -9.24925 54.4781C47.3044 54.4781 73.4424 119.411 60.3724 128.55C48.7687 130.215 43.3534 96.0915 11.6387 81.9427C-8.12579 73.1269 -42.5113 83.6076 -54.1161 121.058C-75.2702 189.341 -1.53513 296.989 140.822 275.859C223.431 263.599 307.447 218.285 307.943 217.967C318.206 211.438 305.546 254.863 276.21 293.102C263.504 309.664 251.904 322.569 236.849 336.907C135.913 433.031 -76.5247 410.753 -136.862 258.45C-189.313 126.051 -97.4336 -11.2703 15.5047 -7.94064Z" fill="#889EFF"/>
</g>
</g>
<path opacity="0.46" fill-rule="evenodd" clip-rule="evenodd" d="M360.702 721.417C530.645 721.417 668.414 583.649 668.414 413.709C668.414 243.762 530.645 106 360.702 106C190.754 106 52.9969 243.762 52.9969 413.709C52.9969 583.649 190.754 721.417 360.702 721.417ZM412.785 266.884C395.347 240.051 362.002 215.029 295.35 213.064C173.751 209.475 74.8268 357.478 131.299 500.174C196.263 664.323 424.991 688.334 533.667 584.733C549.876 569.281 562.365 555.371 576.045 537.521C607.63 496.307 621.261 449.505 610.211 456.542C609.678 456.885 519.22 505.724 430.276 518.937C277.003 541.71 197.614 425.69 220.39 352.096C232.885 311.733 269.907 300.437 291.187 309.938C310.682 318.644 320.947 334.367 328.492 345.923C334.163 354.608 338.297 360.94 343.658 360.17C357.73 350.32 329.588 280.338 268.697 280.338C248.708 280.338 247.876 271.368 255.371 267.78C260.245 265.448 336.161 251.634 374.472 355.686C377.076 362.756 401.124 359.274 373.639 309.042C371.88 305.822 381.249 301.889 396.126 320.701C412.229 341.061 412.443 363.951 412.597 380.323C412.626 383.429 412.653 386.3 412.785 388.874C413.442 401.618 429.993 391.094 433.607 362.861C436.938 336.848 436.105 302.762 412.785 266.884Z" fill="url(#paint2_linear_327_6486)"/>
<defs>
<filter id="filter0_f_327_6486" x="191" y="-348" width="893.463" height="832.68" filterUnits="userSpaceOnUse" color-interpolation-filters="sRGB">
<feFlood flood-opacity="0" result="BackgroundImageFix"/>
<feBlend mode="normal" in="SourceGraphic" in2="BackgroundImageFix" result="shape"/>
<feGaussianBlur stdDeviation="107.5" result="effect1_foregroundBlur_327_6486"/>
</filter>
<filter id="filter1_f_327_6486" x="-367" y="-223" width="893.463" height="832.68" filterUnits="userSpaceOnUse" color-interpolation-filters="sRGB">
<feFlood flood-opacity="0" result="BackgroundImageFix"/>
<feBlend mode="normal" in="SourceGraphic" in2="BackgroundImageFix" result="shape"/>
<feGaussianBlur stdDeviation="107.5" result="effect1_foregroundBlur_327_6486"/>
</filter>
<linearGradient id="paint0_linear_327_6486" x1="360.998" y1="0" x2="360.998" y2="828" gradientUnits="userSpaceOnUse">
<stop stop-color="#284DF3"/>
<stop offset="1" stop-color="#718BFF"/>
</linearGradient>
<linearGradient id="paint1_linear_327_6486" x1="360.998" y1="0" x2="360.998" y2="828" gradientUnits="userSpaceOnUse">
<stop stop-color="#4263F6"/>
<stop offset="1" stop-color="#4263F6" stop-opacity="0.33"/>
</linearGradient>
<linearGradient id="paint2_linear_327_6486" x1="360.705" y1="106" x2="361.12" y2="770.036" gradientUnits="userSpaceOnUse">
<stop stop-color="#172F9B"/>
<stop offset="1" stop-color="#1F3185" stop-opacity="0"/>
</linearGradient>
</defs>
</svg>
