<?xml version="1.0" standalone="no"?>
<!DOCTYPE svg PUBLIC "-//W3C//DTD SVG 20010904//EN"
 "http://www.w3.org/TR/2001/REC-SVG-20010904/DTD/svg10.dtd">
<svg version="1.0" xmlns="http://www.w3.org/2000/svg"
 width="700.000000pt" height="700.000000pt" viewBox="0 0 700.000000 700.000000"
 preserveAspectRatio="xMidYMid meet">
<metadata>
Created by potrace 1.14, written by Peter Selinger 2001-2017
</metadata>
<g transform="translate(0.000000,700.000000) scale(0.100000,-0.100000)"
fill="#000000" stroke="none">
<path d="M3278 6995 c-1 -1 -42 -5 -89 -9 -47 -4 -95 -8 -105 -10 -10 -2 -41
-7 -69 -10 -50 -7 -138 -22 -185 -31 -14 -3 -47 -10 -75 -16 -154 -30 -392
-105 -585 -183 -118 -48 -412 -196 -441 -222 -8 -8 -19 -14 -23 -14 -15 0
-343 -227 -382 -264 -6 -6 -33 -29 -60 -51 -391 -319 -770 -828 -958 -1285
-15 -36 -33 -78 -41 -95 -48 -105 -158 -478 -179 -605 -3 -19 -7 -44 -10 -55
-2 -11 -7 -40 -11 -65 -4 -25 -9 -53 -10 -62 -2 -9 -7 -48 -10 -85 -4 -37 -9
-79 -12 -93 -9 -46 -11 -514 -2 -602 16 -171 25 -236 40 -316 6 -29 12 -66 14
-83 7 -54 72 -300 109 -409 223 -670 595 -1195 1186 -1673 71 -58 271 -191
387 -258 651 -377 1432 -532 2183 -433 125 16 144 19 265 44 250 51 522 141
744 246 62 30 115 54 116 54 21 0 355 205 469 287 481 347 911 878 1138 1403
9 19 23 52 33 74 58 131 166 473 189 602 3 16 8 38 10 49 15 76 36 199 41 245
4 30 8 69 10 85 17 148 23 450 10 600 -3 44 -8 100 -10 125 -2 25 -6 59 -9 75
-3 17 -8 50 -11 75 -3 25 -10 68 -15 95 -5 28 -12 66 -15 85 -3 19 -11 53 -16
75 -6 22 -13 48 -14 57 -10 49 -60 219 -91 310 -174 502 -453 947 -828 1324
-114 114 -230 218 -301 270 -22 16 -49 37 -60 47 -75 68 -363 246 -545 338
-316 158 -704 284 -1000 324 -19 3 -46 7 -60 10 -13 2 -54 7 -90 11 -36 3 -78
8 -95 11 -33 5 -531 13 -537 8z m552 -411 c179 -19 247 -31 405 -69 433 -106
802 -281 1153 -547 139 -106 162 -126 327 -292 379 -382 644 -839 785 -1356
32 -117 67 -287 76 -370 4 -30 8 -58 10 -61 1 -3 6 -48 11 -100 15 -175 9
-520 -12 -664 -7 -48 -25 -167 -31 -205 -20 -120 -117 -452 -163 -555 -5 -11
-19 -45 -31 -75 -98 -241 -311 -584 -493 -795 -99 -114 -270 -282 -393 -385
-71 -60 -263 -194 -361 -253 -406 -243 -829 -383 -1313 -434 -145 -15 -578 -8
-678 12 -9 1 -53 8 -97 15 -221 33 -512 116 -693 196 -29 13 -55 24 -57 24 -6
0 -241 115 -265 130 -184 110 -404 258 -430 289 -3 3 -27 24 -55 46 -54 43
-52 42 -146 131 -114 110 -238 246 -312 344 -125 165 -203 287 -294 460 -185
352 -302 740 -340 1135 -10 101 -10 507 -1 602 14 136 68 439 83 463 2 4 7 22
10 41 8 46 86 282 96 294 5 5 9 15 9 22 0 28 144 329 211 441 56 93 184 284
217 323 11 13 48 58 82 99 117 143 283 305 442 432 278 224 608 404 951 519
67 23 129 43 137 45 132 34 251 60 317 69 21 4 63 10 93 15 30 5 91 12 135 16
44 4 81 8 83 9 10 9 427 0 532 -11z"/>
<path d="M2620 5403 c-198 -28 -374 -78 -521 -146 -426 -199 -786 -586 -993
-1069 -68 -161 -136 -398 -152 -531 -4 -29 -8 -54 -9 -57 -24 -41 -23 -582 0
-654 2 -6 6 -27 9 -46 3 -19 12 -67 20 -106 216 -1022 1032 -1748 2145 -1910
25 -4 54 -8 63 -10 54 -9 224 -18 363 -18 143 0 352 11 365 19 3 2 32 6 65 10
80 8 298 56 408 89 167 50 495 191 505 217 2 5 9 9 15 9 25 0 259 163 352 245
142 125 374 374 477 512 24 32 48 64 55 71 21 22 138 203 185 287 56 100 128
249 128 267 0 8 4 18 8 24 31 33 69 231 49 250 -4 4 -71 -24 -150 -63 -115
-58 -291 -138 -444 -203 -13 -6 -33 -14 -45 -20 -213 -91 -673 -244 -878 -291
-25 -6 -52 -12 -60 -15 -36 -9 -148 -33 -184 -38 -21 -4 -41 -8 -45 -10 -3 -2
-35 -7 -71 -11 -36 -4 -67 -8 -70 -10 -3 -2 -37 -6 -75 -10 -39 -4 -83 -9
-100 -11 -41 -5 -364 -5 -395 0 -14 2 -54 7 -90 11 -36 3 -96 12 -135 20 -38
8 -83 16 -100 19 -52 9 -252 75 -337 112 -353 151 -660 426 -830 744 -103 192
-157 403 -156 602 2 361 205 659 493 727 257 59 465 -63 688 -404 61 -92 87
-122 118 -133 82 -32 95 116 25 288 -50 123 -166 274 -281 367 -109 88 -275
158 -403 168 -225 18 -224 18 -264 53 -43 37 2 87 88 98 79 10 193 8 257 -6
29 -5 61 -12 72 -14 11 -3 46 -14 77 -25 325 -113 582 -389 753 -806 42 -103
43 -104 77 -110 30 -6 73 32 81 71 16 84 -15 206 -90 358 -50 104 -50 121 4
111 122 -23 287 -246 332 -448 6 -23 13 -55 16 -72 3 -16 9 -102 12 -190 3
-88 9 -170 14 -182 10 -28 45 -30 75 -5 93 76 145 257 147 512 1 123 -2 167
-19 270 -20 132 -88 321 -154 434 -22 37 -40 70 -40 73 0 9 -109 149 -142 183
-97 98 -235 198 -335 242 -26 11 -66 28 -88 38 -90 40 -297 92 -420 106 -27 3
-61 8 -75 11 -31 6 -355 11 -390 6z"/>
</g>
</svg>
