<svg width="360" height="146" viewBox="0 0 360 146" fill="none" xmlns="http://www.w3.org/2000/svg">
<path d="M100.942 4.46094V11.375H97.2858V4.46094H100.942ZM100.497 42.7344V49.0391H96.8405V42.7344H100.497ZM103.075 35.0469C103.075 34.1562 102.911 33.3984 102.583 32.7734C102.27 32.1484 101.755 31.5938 101.036 31.1094C100.333 30.625 99.3796 30.1562 98.1765 29.7031C96.1452 28.9219 94.3562 28.0938 92.8093 27.2188C91.278 26.3281 90.0827 25.2266 89.2233 23.9141C88.364 22.5859 87.9343 20.9062 87.9343 18.875C87.9343 16.9375 88.3952 15.2578 89.3171 13.8359C90.239 12.4141 91.5124 11.3203 93.1374 10.5547C94.778 9.77344 96.6843 9.38281 98.8562 9.38281C100.512 9.38281 102.012 9.63281 103.356 10.1328C104.7 10.6172 105.856 11.3359 106.825 12.2891C107.794 13.2266 108.536 14.375 109.051 15.7344C109.567 17.0938 109.825 18.6484 109.825 20.3984H103.098C103.098 19.4609 102.997 18.6328 102.794 17.9141C102.591 17.1953 102.294 16.5938 101.903 16.1094C101.528 15.625 101.075 15.2656 100.544 15.0312C100.012 14.7812 99.4265 14.6562 98.7858 14.6562C97.8327 14.6562 97.0515 14.8438 96.4421 15.2188C95.8327 15.5938 95.3874 16.1016 95.1062 16.7422C94.8405 17.3672 94.7077 18.0859 94.7077 18.8984C94.7077 19.6953 94.8483 20.3906 95.1296 20.9844C95.4265 21.5781 95.9343 22.125 96.653 22.625C97.3718 23.1094 98.3562 23.6094 99.6062 24.125C101.637 24.9062 103.419 25.75 104.95 26.6562C106.481 27.5625 107.676 28.6719 108.536 29.9844C109.395 31.2969 109.825 32.9688 109.825 35C109.825 37.0156 109.356 38.7344 108.419 40.1562C107.481 41.5625 106.169 42.6406 104.481 43.3906C102.794 44.125 100.841 44.4922 98.6218 44.4922C97.1843 44.4922 95.7546 44.3047 94.3327 43.9297C92.9108 43.5391 91.6218 42.9141 90.4655 42.0547C89.3093 41.1953 88.3874 40.0547 87.6999 38.6328C87.0124 37.1953 86.6687 35.4297 86.6687 33.3359H93.4187C93.4187 34.4766 93.5671 35.4297 93.864 36.1953C94.1608 36.9453 94.5515 37.5469 95.0358 38C95.5358 38.4375 96.0983 38.75 96.7233 38.9375C97.3483 39.125 97.9812 39.2188 98.6218 39.2188C99.6218 39.2188 100.442 39.0391 101.083 38.6797C101.739 38.3203 102.231 37.8281 102.559 37.2031C102.903 36.5625 103.075 35.8438 103.075 35.0469ZM130.048 9.80469V44H123.298V17.5859L115.189 20.1641V14.8438L129.322 9.80469H130.048ZM146.685 28.4609L141.295 27.1719L143.24 9.875H162.412V15.3359H148.795L147.951 22.9062C148.404 22.6406 149.092 22.3594 150.014 22.0625C150.935 21.75 151.967 21.5938 153.107 21.5938C154.764 21.5938 156.232 21.8516 157.514 22.3672C158.795 22.8828 159.881 23.6328 160.771 24.6172C161.678 25.6016 162.365 26.8047 162.834 28.2266C163.303 29.6484 163.537 31.2578 163.537 33.0547C163.537 34.5703 163.303 36.0156 162.834 37.3906C162.365 38.75 161.654 39.9688 160.701 41.0469C159.748 42.1094 158.553 42.9453 157.115 43.5547C155.678 44.1641 153.974 44.4688 152.006 44.4688C150.537 44.4688 149.115 44.25 147.74 43.8125C146.381 43.375 145.154 42.7266 144.06 41.8672C142.982 41.0078 142.115 39.9688 141.459 38.75C140.818 37.5156 140.482 36.1094 140.451 34.5312H147.154C147.248 35.5 147.498 36.3359 147.904 37.0391C148.326 37.7266 148.881 38.2578 149.568 38.6328C150.256 39.0078 151.06 39.1953 151.982 39.1953C152.842 39.1953 153.576 39.0312 154.185 38.7031C154.795 38.375 155.287 37.9219 155.662 37.3438C156.037 36.75 156.31 36.0625 156.482 35.2812C156.67 34.4844 156.764 33.625 156.764 32.7031C156.764 31.7812 156.654 30.9453 156.435 30.1953C156.217 29.4453 155.881 28.7969 155.428 28.25C154.974 27.7031 154.396 27.2812 153.693 26.9844C153.006 26.6875 152.201 26.5391 151.279 26.5391C150.029 26.5391 149.06 26.7344 148.373 27.125C147.701 27.5156 147.139 27.9609 146.685 28.4609ZM190.041 23.9375V29.8438C190.041 32.4062 189.768 34.6172 189.221 36.4766C188.674 38.3203 187.885 39.8359 186.854 41.0234C185.838 42.1953 184.627 43.0625 183.221 43.625C181.815 44.1875 180.252 44.4688 178.534 44.4688C177.159 44.4688 175.877 44.2969 174.69 43.9531C173.502 43.5938 172.432 43.0391 171.479 42.2891C170.541 41.5391 169.729 40.5938 169.041 39.4531C168.37 38.2969 167.854 36.9219 167.495 35.3281C167.135 33.7344 166.956 31.9062 166.956 29.8438V23.9375C166.956 21.375 167.229 19.1797 167.776 17.3516C168.338 15.5078 169.127 14 170.143 12.8281C171.174 11.6562 172.393 10.7969 173.799 10.25C175.206 9.6875 176.768 9.40625 178.487 9.40625C179.862 9.40625 181.135 9.58594 182.307 9.94531C183.495 10.2891 184.565 10.8281 185.518 11.5625C186.471 12.2969 187.284 13.2422 187.956 14.3984C188.627 15.5391 189.143 16.9062 189.502 18.5C189.862 20.0781 190.041 21.8906 190.041 23.9375ZM183.268 30.7344V23.0234C183.268 21.7891 183.198 20.7109 183.057 19.7891C182.932 18.8672 182.737 18.0859 182.471 17.4453C182.206 16.7891 181.877 16.2578 181.487 15.8516C181.096 15.4453 180.651 15.1484 180.151 14.9609C179.651 14.7734 179.096 14.6797 178.487 14.6797C177.721 14.6797 177.041 14.8281 176.448 15.125C175.87 15.4219 175.377 15.8984 174.971 16.5547C174.565 17.1953 174.252 18.0547 174.034 19.1328C173.831 20.1953 173.729 21.4922 173.729 23.0234V30.7344C173.729 31.9688 173.791 33.0547 173.916 33.9922C174.057 34.9297 174.26 35.7344 174.526 36.4062C174.807 37.0625 175.135 37.6016 175.51 38.0234C175.901 38.4297 176.346 38.7266 176.846 38.9141C177.362 39.1016 177.924 39.1953 178.534 39.1953C179.284 39.1953 179.948 39.0469 180.526 38.75C181.12 38.4375 181.62 37.9531 182.026 37.2969C182.448 36.625 182.76 35.75 182.963 34.6719C183.166 33.5938 183.268 32.2812 183.268 30.7344ZM210.84 27.6484L204.843 45.4038H202.44L208.437 27.6484H210.84ZM215.199 34.3643V44H211.953V31.8486H214.997L215.199 34.3643ZM214.75 37.4976H213.851C213.851 36.6515 213.952 35.8729 214.154 35.1616C214.364 34.4429 214.667 33.8215 215.064 33.2974C215.468 32.7658 215.966 32.354 216.558 32.062C217.149 31.77 217.834 31.624 218.613 31.624C219.152 31.624 219.646 31.7064 220.095 31.8711C220.544 32.0283 220.93 32.2791 221.252 32.6235C221.581 32.9604 221.836 33.4022 222.016 33.9487C222.195 34.4878 222.285 35.1354 222.285 35.8916V44H219.051V36.251C219.051 35.6969 218.976 35.2702 218.826 34.9707C218.676 34.6712 218.463 34.4616 218.186 34.3418C217.917 34.222 217.591 34.1621 217.209 34.1621C216.79 34.1621 216.423 34.2482 216.108 34.4204C215.801 34.5926 215.547 34.8322 215.345 35.1392C215.143 35.4386 214.993 35.7905 214.896 36.1948C214.798 36.5991 214.75 37.0334 214.75 37.4976ZM221.982 37.127L220.825 37.2729C220.825 36.4793 220.923 35.7419 221.117 35.0605C221.319 34.3792 221.615 33.7803 222.004 33.2637C222.401 32.7471 222.892 32.3465 223.476 32.062C224.06 31.77 224.733 31.624 225.497 31.624C226.081 31.624 226.613 31.7101 227.092 31.8823C227.571 32.047 227.979 32.3128 228.316 32.6797C228.66 33.0391 228.922 33.5107 229.102 34.0947C229.289 34.6787 229.383 35.3937 229.383 36.2397V44H226.137V36.2397C226.137 35.6782 226.062 35.2515 225.913 34.9595C225.77 34.66 225.561 34.4541 225.284 34.3418C225.014 34.222 224.692 34.1621 224.318 34.1621C223.929 34.1621 223.588 34.2407 223.296 34.3979C223.004 34.5477 222.761 34.7573 222.566 35.0269C222.371 35.2964 222.225 35.6108 222.128 35.9702C222.031 36.3221 221.982 36.7077 221.982 37.127ZM230.945 38.0479V37.812C230.945 36.9211 231.072 36.1012 231.327 35.3525C231.581 34.5964 231.952 33.9412 232.438 33.3872C232.925 32.8332 233.524 32.4027 234.235 32.0957C234.947 31.7812 235.763 31.624 236.684 31.624C237.604 31.624 238.424 31.7812 239.143 32.0957C239.862 32.4027 240.465 32.8332 240.951 33.3872C241.445 33.9412 241.82 34.5964 242.074 35.3525C242.329 36.1012 242.456 36.9211 242.456 37.812V38.0479C242.456 38.9313 242.329 39.7511 242.074 40.5073C241.82 41.256 241.445 41.9111 240.951 42.4727C240.465 43.0267 239.866 43.4572 239.154 43.7642C238.443 44.0711 237.627 44.2246 236.706 44.2246C235.785 44.2246 234.965 44.0711 234.247 43.7642C233.535 43.4572 232.933 43.0267 232.438 42.4727C231.952 41.9111 231.581 41.256 231.327 40.5073C231.072 39.7511 230.945 38.9313 230.945 38.0479ZM234.179 37.812V38.0479C234.179 38.557 234.224 39.0324 234.314 39.4741C234.404 39.9159 234.546 40.3052 234.741 40.6421C234.943 40.9715 235.205 41.2298 235.527 41.417C235.849 41.6042 236.242 41.6978 236.706 41.6978C237.155 41.6978 237.541 41.6042 237.863 41.417C238.185 41.2298 238.443 40.9715 238.638 40.6421C238.832 40.3052 238.975 39.9159 239.064 39.4741C239.162 39.0324 239.21 38.557 239.21 38.0479V37.812C239.21 37.3179 239.162 36.8537 239.064 36.4194C238.975 35.9777 238.829 35.5884 238.626 35.2515C238.432 34.9071 238.173 34.6375 237.852 34.4429C237.53 34.2482 237.14 34.1509 236.684 34.1509C236.227 34.1509 235.838 34.2482 235.516 34.4429C235.201 34.6375 234.943 34.9071 234.741 35.2515C234.546 35.5884 234.404 35.9777 234.314 36.4194C234.224 36.8537 234.179 37.3179 234.179 37.812ZM247.185 34.4429V44H243.951V31.8486H246.983L247.185 34.4429ZM246.713 37.4976H245.837C245.837 36.5991 245.953 35.7905 246.185 35.0718C246.418 34.3455 246.743 33.7279 247.163 33.2188C247.582 32.7021 248.08 32.3091 248.656 32.0396C249.24 31.7625 249.892 31.624 250.61 31.624C251.179 31.624 251.7 31.7064 252.171 31.8711C252.643 32.0358 253.047 32.2979 253.384 32.6572C253.729 33.0166 253.991 33.492 254.17 34.0835C254.358 34.675 254.451 35.3975 254.451 36.251V44H251.194V36.2397C251.194 35.7007 251.119 35.2814 250.97 34.9819C250.82 34.6825 250.599 34.4728 250.307 34.353C250.023 34.2257 249.671 34.1621 249.251 34.1621C248.817 34.1621 248.439 34.2482 248.117 34.4204C247.803 34.5926 247.541 34.8322 247.331 35.1392C247.129 35.4386 246.975 35.7905 246.871 36.1948C246.766 36.5991 246.713 37.0334 246.713 37.4976ZM262.437 31.8486V34.1396H255.362V31.8486H262.437ZM257.114 28.8501H260.348V40.3389C260.348 40.6908 260.393 40.9603 260.483 41.1475C260.58 41.3346 260.722 41.4657 260.91 41.5405C261.097 41.6079 261.333 41.6416 261.617 41.6416C261.819 41.6416 261.999 41.6341 262.156 41.6191C262.321 41.5967 262.459 41.5742 262.572 41.5518L262.583 43.9326C262.306 44.0225 262.006 44.0936 261.684 44.146C261.362 44.1984 261.007 44.2246 260.618 44.2246C259.906 44.2246 259.285 44.1086 258.753 43.8765C258.229 43.6369 257.825 43.255 257.54 42.731C257.256 42.2069 257.114 41.5181 257.114 40.6646V28.8501ZM267.009 26.75V44H263.774V26.75H267.009ZM266.548 37.4976H265.661C265.668 36.6515 265.781 35.8729 265.998 35.1616C266.215 34.4429 266.526 33.8215 266.93 33.2974C267.334 32.7658 267.817 32.354 268.379 32.062C268.948 31.77 269.577 31.624 270.265 31.624C270.864 31.624 271.407 31.7101 271.894 31.8823C272.388 32.047 272.811 32.3166 273.163 32.6909C273.522 33.0578 273.799 33.5407 273.994 34.1396C274.189 34.7386 274.286 35.4648 274.286 36.3184V44H271.029V36.2959C271.029 35.7568 270.951 35.3338 270.793 35.0269C270.644 34.7124 270.423 34.4915 270.131 34.3643C269.846 34.2295 269.494 34.1621 269.075 34.1621C268.611 34.1621 268.214 34.2482 267.885 34.4204C267.563 34.5926 267.304 34.8322 267.11 35.1392C266.915 35.4386 266.773 35.7905 266.683 36.1948C266.593 36.5991 266.548 37.0334 266.548 37.4976Z" fill="white"/>
<path d="M11.5674 91.4004V93H6.26953V91.4004H11.5674ZM6.93945 83.0469V93H4.88867V83.0469H6.93945ZM10.877 87.1006V88.6592H6.26953V87.1006H10.877ZM11.5605 83.0469V84.6533H6.26953V83.0469H11.5605ZM16.3653 90.9561C16.3653 90.8148 16.3243 90.6872 16.2422 90.5732C16.1602 90.4593 16.0075 90.3545 15.7842 90.2588C15.5655 90.1585 15.2488 90.0674 14.834 89.9854C14.4603 89.9033 14.1117 89.8008 13.7881 89.6777C13.4691 89.5501 13.1911 89.3975 12.9542 89.2197C12.7217 89.042 12.5395 88.8324 12.4073 88.5908C12.2751 88.3447 12.209 88.0645 12.209 87.75C12.209 87.4401 12.2751 87.1484 12.4073 86.875C12.544 86.6016 12.7377 86.36 12.9883 86.1504C13.2436 85.9362 13.5534 85.7699 13.918 85.6514C14.2872 85.5283 14.7019 85.4668 15.1622 85.4668C15.8047 85.4668 16.3562 85.5693 16.8165 85.7744C17.2813 85.9795 17.6368 86.262 17.8829 86.6221C18.1335 86.9775 18.2589 87.3831 18.2589 87.8389H16.2901C16.2901 87.6475 16.2491 87.4766 16.1671 87.3262C16.0896 87.1712 15.9665 87.0505 15.7979 86.9639C15.6339 86.8727 15.4197 86.8271 15.1553 86.8271C14.9366 86.8271 14.7475 86.8659 14.588 86.9434C14.4284 87.0163 14.3054 87.1165 14.2188 87.2441C14.1368 87.3672 14.0958 87.5039 14.0958 87.6543C14.0958 87.7682 14.1186 87.8708 14.1641 87.9619C14.2143 88.0485 14.294 88.1283 14.4034 88.2012C14.5128 88.2741 14.654 88.3424 14.8272 88.4062C15.0049 88.4655 15.2237 88.5202 15.4835 88.5703C16.0167 88.6797 16.4929 88.8232 16.9122 89.001C17.3314 89.1742 17.6641 89.4111 17.9102 89.7119C18.1563 90.0081 18.2794 90.3978 18.2794 90.8809C18.2794 91.209 18.2064 91.5098 18.0606 91.7832C17.9148 92.0566 17.7051 92.2959 17.4317 92.501C17.1583 92.7015 16.8301 92.8587 16.4473 92.9727C16.0691 93.082 15.643 93.1367 15.169 93.1367C14.4809 93.1367 13.8975 93.0137 13.419 92.7676C12.945 92.5215 12.585 92.2093 12.3389 91.8311C12.0974 91.4482 11.9766 91.0563 11.9766 90.6553H13.8428C13.852 90.9242 13.9203 91.1406 14.0479 91.3047C14.1801 91.4688 14.3464 91.5872 14.5469 91.6602C14.752 91.7331 14.973 91.7695 15.21 91.7695C15.4652 91.7695 15.6771 91.7354 15.8458 91.667C16.0144 91.5941 16.142 91.4984 16.2286 91.3799C16.3197 91.2568 16.3653 91.1156 16.3653 90.9561ZM22.9064 85.6035V86.998H18.5997V85.6035H22.9064ZM19.6661 83.7783H21.6349V90.7715C21.6349 90.9857 21.6622 91.1497 21.7169 91.2637C21.7762 91.3776 21.8628 91.4574 21.9767 91.5029C22.0906 91.5439 22.2342 91.5645 22.4074 91.5645C22.5304 91.5645 22.6398 91.5599 22.7355 91.5508C22.8357 91.5371 22.92 91.5234 22.9884 91.5098L22.9952 92.959C22.8266 93.0137 22.6443 93.057 22.4484 93.0889C22.2524 93.1208 22.0359 93.1367 21.799 93.1367C21.366 93.1367 20.9878 93.0661 20.6642 92.9248C20.3452 92.779 20.0991 92.5465 19.9259 92.2275C19.7527 91.9085 19.6661 91.4893 19.6661 90.9697V83.7783ZM25.8312 85.6035V93H23.8557V85.6035H25.8312ZM23.7326 83.6758C23.7326 83.3887 23.8329 83.1517 24.0334 82.9648C24.2339 82.778 24.5028 82.6846 24.84 82.6846C25.1727 82.6846 25.4393 82.778 25.6398 82.9648C25.8449 83.1517 25.9475 83.3887 25.9475 83.6758C25.9475 83.9629 25.8449 84.1999 25.6398 84.3867C25.4393 84.5736 25.1727 84.667 24.84 84.667C24.5028 84.667 24.2339 84.5736 24.0334 84.3867C23.8329 84.1999 23.7326 83.9629 23.7326 83.6758ZM29.1526 87.1348V93H27.177V85.6035H29.0295L29.1526 87.1348ZM28.8792 89.042H28.3323C28.3323 88.527 28.3938 88.0531 28.5169 87.6201C28.6445 87.1826 28.829 86.8044 29.0706 86.4854C29.3167 86.1618 29.6197 85.9111 29.9797 85.7334C30.3398 85.5557 30.7568 85.4668 31.2307 85.4668C31.5588 85.4668 31.8596 85.5169 32.1331 85.6172C32.4065 85.7129 32.6412 85.8656 32.8372 86.0752C33.0377 86.2803 33.1926 86.5492 33.302 86.8818C33.4114 87.21 33.4661 87.6042 33.4661 88.0645V93H31.4973V88.2832C31.4973 87.946 31.4517 87.6862 31.3606 87.5039C31.2695 87.3216 31.1396 87.194 30.971 87.1211C30.8069 87.0482 30.6086 87.0117 30.3762 87.0117C30.121 87.0117 29.8977 87.0641 29.7063 87.1689C29.5195 87.2738 29.3645 87.4196 29.2415 87.6064C29.1184 87.7887 29.0273 88.0029 28.968 88.249C28.9088 88.4951 28.8792 88.7594 28.8792 89.042ZM33.2815 88.8164L32.5774 88.9053C32.5774 88.4222 32.6366 87.9733 32.7551 87.5586C32.8782 87.1439 33.0582 86.7793 33.2952 86.4648C33.5367 86.1504 33.8352 85.9066 34.1907 85.7334C34.5461 85.5557 34.9563 85.4668 35.4211 85.4668C35.7766 85.4668 36.1002 85.5192 36.3919 85.624C36.6835 85.7243 36.9319 85.8861 37.137 86.1094C37.3466 86.3281 37.5061 86.6152 37.6155 86.9707C37.7294 87.3262 37.7864 87.7614 37.7864 88.2764V93H35.8108V88.2764C35.8108 87.9346 35.7652 87.6748 35.6741 87.4971C35.5875 87.3148 35.4599 87.1895 35.2913 87.1211C35.1272 87.0482 34.9312 87.0117 34.7034 87.0117C34.4664 87.0117 34.259 87.0596 34.0813 87.1553C33.9036 87.2464 33.7555 87.374 33.637 87.5381C33.5185 87.7021 33.4296 87.8936 33.3704 88.1123C33.3111 88.3265 33.2815 88.5612 33.2815 88.8164ZM43.0286 91.332V88.0371C43.0286 87.8001 42.9899 87.5973 42.9124 87.4287C42.8349 87.2555 42.7142 87.1211 42.5501 87.0254C42.3906 86.9297 42.1833 86.8818 41.928 86.8818C41.7093 86.8818 41.5202 86.9206 41.3607 86.998C41.2012 87.071 41.0781 87.1781 40.9915 87.3193C40.9049 87.4561 40.8616 87.6178 40.8616 87.8047H38.8929C38.8929 87.4902 38.9658 87.1917 39.1116 86.9092C39.2575 86.6266 39.4694 86.3783 39.7474 86.1641C40.0254 85.9453 40.3558 85.7744 40.7386 85.6514C41.126 85.5283 41.5589 85.4668 42.0374 85.4668C42.6116 85.4668 43.1221 85.5625 43.5687 85.7539C44.0153 85.9453 44.3662 86.2324 44.6214 86.6152C44.8812 86.998 45.0111 87.4766 45.0111 88.0508V91.2158C45.0111 91.6214 45.0361 91.9541 45.0863 92.2139C45.1364 92.4691 45.2093 92.6924 45.305 92.8838V93H43.3157C43.22 92.7995 43.1471 92.5488 43.097 92.248C43.0514 91.9427 43.0286 91.6374 43.0286 91.332ZM43.2884 88.4951L43.3021 89.6094H42.2015C41.9417 89.6094 41.7161 89.639 41.5247 89.6982C41.3333 89.7575 41.1761 89.8418 41.053 89.9512C40.93 90.056 40.8389 90.179 40.7796 90.3203C40.7249 90.4616 40.6976 90.6165 40.6976 90.7852C40.6976 90.9538 40.7363 91.1064 40.8138 91.2432C40.8913 91.3753 41.0029 91.4801 41.1488 91.5576C41.2946 91.6305 41.4655 91.667 41.6614 91.667C41.9577 91.667 42.2152 91.6077 42.4339 91.4893C42.6527 91.3708 42.8213 91.2249 42.9398 91.0518C43.0628 90.8786 43.1266 90.7145 43.1312 90.5596L43.6507 91.3936C43.5778 91.5804 43.4775 91.7741 43.3499 91.9746C43.2269 92.1751 43.0696 92.3643 42.8782 92.542C42.6868 92.7152 42.4567 92.8587 42.1878 92.9727C41.9189 93.082 41.5999 93.1367 41.2308 93.1367C40.7614 93.1367 40.3353 93.0433 39.9525 92.8564C39.5742 92.665 39.2734 92.403 39.0501 92.0703C38.8314 91.7331 38.722 91.3503 38.722 90.9219C38.722 90.5345 38.7949 90.1904 38.9407 89.8896C39.0866 89.5889 39.3008 89.3359 39.5833 89.1309C39.8704 88.9212 40.2282 88.764 40.6566 88.6592C41.0849 88.5498 41.5817 88.4951 42.1468 88.4951H43.2884ZM49.8773 85.6035V86.998H45.5707V85.6035H49.8773ZM46.6371 83.7783H48.6058V90.7715C48.6058 90.9857 48.6332 91.1497 48.6879 91.2637C48.7471 91.3776 48.8337 91.4574 48.9476 91.5029C49.0616 91.5439 49.2051 91.5645 49.3783 91.5645C49.5014 91.5645 49.6107 91.5599 49.7064 91.5508C49.8067 91.5371 49.891 91.5234 49.9594 91.5098L49.9662 92.959C49.7976 93.0137 49.6153 93.057 49.4193 93.0889C49.2234 93.1208 49.0069 93.1367 48.7699 93.1367C48.337 93.1367 47.9587 93.0661 47.6351 92.9248C47.3161 92.779 47.07 92.5465 46.8969 92.2275C46.7237 91.9085 46.6371 91.4893 46.6371 90.9697V83.7783ZM54.1284 93.1367C53.5541 93.1367 53.0392 93.0456 52.5834 92.8633C52.1277 92.6764 51.7403 92.4189 51.4213 92.0908C51.1069 91.7627 50.8653 91.3822 50.6967 90.9492C50.5281 90.5117 50.4438 90.0469 50.4438 89.5547V89.2812C50.4438 88.7207 50.5235 88.208 50.6831 87.7432C50.8426 87.2783 51.0704 86.875 51.3666 86.5332C51.6674 86.1914 52.032 85.9294 52.4604 85.7471C52.8888 85.5602 53.3719 85.4668 53.9096 85.4668C54.4337 85.4668 54.8985 85.5534 55.3041 85.7266C55.7097 85.8997 56.0493 86.1458 56.3227 86.4648C56.6007 86.7839 56.8103 87.1667 56.9516 87.6133C57.0929 88.0553 57.1635 88.5475 57.1635 89.0898V89.9102H51.2846V88.5977H55.229V88.4473C55.229 88.1738 55.1788 87.93 55.0786 87.7158C54.9829 87.4971 54.837 87.3239 54.6411 87.1963C54.4451 87.0687 54.1944 87.0049 53.8891 87.0049C53.6293 87.0049 53.406 87.0618 53.2192 87.1758C53.0323 87.2897 52.8797 87.4492 52.7612 87.6543C52.6472 87.8594 52.5607 88.1009 52.5014 88.3789C52.4467 88.6523 52.4194 88.9531 52.4194 89.2812V89.5547C52.4194 89.8509 52.4604 90.1243 52.5424 90.375C52.629 90.6257 52.7498 90.8421 52.9047 91.0244C53.0642 91.2067 53.2556 91.348 53.479 91.4482C53.7068 91.5485 53.9643 91.5986 54.2514 91.5986C54.6069 91.5986 54.9373 91.5303 55.2426 91.3936C55.5525 91.2523 55.8191 91.0404 56.0424 90.7578L56.9995 91.7969C56.8445 92.0202 56.6326 92.2344 56.3637 92.4395C56.0994 92.6445 55.7804 92.8132 55.4067 92.9453C55.033 93.0729 54.6069 93.1367 54.1284 93.1367ZM62.3784 91.3867V82.5H64.3609V93H62.5767L62.3784 91.3867ZM57.7026 89.3906V89.2471C57.7026 88.682 57.7665 88.1693 57.8941 87.709C58.0217 87.2441 58.2085 86.8454 58.4546 86.5127C58.7007 86.18 59.0038 85.9225 59.3638 85.7402C59.7238 85.5579 60.134 85.4668 60.5942 85.4668C61.0272 85.4668 61.4054 85.5579 61.729 85.7402C62.0571 85.9225 62.3351 86.1823 62.563 86.5195C62.7954 86.8522 62.9823 87.2464 63.1235 87.7021C63.2648 88.1533 63.3674 88.6478 63.4312 89.1855V89.5C63.3674 90.015 63.2648 90.4935 63.1235 90.9355C62.9823 91.3776 62.7954 91.765 62.563 92.0977C62.3351 92.4258 62.0571 92.681 61.729 92.8633C61.4009 93.0456 61.0181 93.1367 60.5806 93.1367C60.1203 93.1367 59.7101 93.0433 59.3501 92.8564C58.9946 92.6696 58.6939 92.4076 58.4478 92.0703C58.2062 91.7331 58.0217 91.3366 57.8941 90.8809C57.7665 90.4251 57.7026 89.9284 57.7026 89.3906ZM59.6714 89.2471V89.3906C59.6714 89.696 59.6942 89.9808 59.7398 90.2451C59.7899 90.5094 59.8696 90.7441 59.979 90.9492C60.0929 91.1497 60.2388 91.307 60.4165 91.4209C60.5988 91.5303 60.8198 91.585 61.0796 91.585C61.4168 91.585 61.6948 91.5098 61.9136 91.3594C62.1323 91.2044 62.2987 90.9925 62.4126 90.7236C62.5311 90.4548 62.5995 90.1449 62.6177 89.7939V88.8984C62.604 88.6113 62.563 88.3538 62.4946 88.126C62.4308 87.8936 62.3351 87.6953 62.2075 87.5312C62.0845 87.3672 61.9295 87.2396 61.7427 87.1484C61.5604 87.0573 61.3439 87.0117 61.0933 87.0117C60.8381 87.0117 60.6193 87.071 60.437 87.1895C60.2547 87.3034 60.1066 87.4606 59.9927 87.6611C59.8833 87.8617 59.8013 88.0986 59.7466 88.3721C59.6965 88.641 59.6714 88.9326 59.6714 89.2471ZM72.0153 93H69.8483L69.862 91.4004H72.0153C72.553 91.4004 73.0065 91.2796 73.3756 91.0381C73.7448 90.792 74.0228 90.4342 74.2096 89.9648C74.401 89.4954 74.4967 88.9281 74.4967 88.2627V87.7773C74.4967 87.2669 74.442 86.818 74.3327 86.4307C74.2278 86.0433 74.0706 85.7174 73.861 85.4531C73.6513 85.1888 73.3939 84.9906 73.0885 84.8584C72.7832 84.7217 72.4323 84.6533 72.0358 84.6533H69.8073V83.0469H72.0358C72.7011 83.0469 73.3095 83.1608 73.861 83.3887C74.417 83.612 74.8978 83.9333 75.3034 84.3525C75.709 84.7718 76.0211 85.2731 76.2399 85.8564C76.4632 86.4352 76.5748 87.0801 76.5748 87.791V88.2627C76.5748 88.9691 76.4632 89.6139 76.2399 90.1973C76.0211 90.7806 75.709 91.2819 75.3034 91.7012C74.9023 92.1159 74.4215 92.4372 73.861 92.665C73.305 92.8883 72.6898 93 72.0153 93ZM71.0104 83.0469V93H68.9596V83.0469H71.0104ZM81.6599 91.332V88.0371C81.6599 87.8001 81.6211 87.5973 81.5437 87.4287C81.4662 87.2555 81.3454 87.1211 81.1814 87.0254C81.0218 86.9297 80.8145 86.8818 80.5593 86.8818C80.3405 86.8818 80.1514 86.9206 79.9919 86.998C79.8324 87.071 79.7093 87.1781 79.6228 87.3193C79.5362 87.4561 79.4929 87.6178 79.4929 87.8047H77.5241C77.5241 87.4902 77.597 87.1917 77.7429 86.9092C77.8887 86.6266 78.1006 86.3783 78.3786 86.1641C78.6566 85.9453 78.987 85.7744 79.3698 85.6514C79.7572 85.5283 80.1901 85.4668 80.6687 85.4668C81.2429 85.4668 81.7533 85.5625 82.1999 85.7539C82.6465 85.9453 82.9974 86.2324 83.2526 86.6152C83.5124 86.998 83.6423 87.4766 83.6423 88.0508V91.2158C83.6423 91.6214 83.6674 91.9541 83.7175 92.2139C83.7676 92.4691 83.8405 92.6924 83.9362 92.8838V93H81.947C81.8513 92.7995 81.7784 92.5488 81.7282 92.248C81.6827 91.9427 81.6599 91.6374 81.6599 91.332ZM81.9196 88.4951L81.9333 89.6094H80.8327C80.573 89.6094 80.3474 89.639 80.156 89.6982C79.9646 89.7575 79.8073 89.8418 79.6843 89.9512C79.5612 90.056 79.4701 90.179 79.4108 90.3203C79.3562 90.4616 79.3288 90.6165 79.3288 90.7852C79.3288 90.9538 79.3675 91.1064 79.445 91.2432C79.5225 91.3753 79.6342 91.4801 79.78 91.5576C79.9258 91.6305 80.0967 91.667 80.2927 91.667C80.5889 91.667 80.8464 91.6077 81.0651 91.4893C81.2839 91.3708 81.4525 91.2249 81.571 91.0518C81.694 90.8786 81.7578 90.7145 81.7624 90.5596L82.2819 91.3936C82.209 91.5804 82.1088 91.7741 81.9812 91.9746C81.8581 92.1751 81.7009 92.3643 81.5095 92.542C81.3181 92.7152 81.0879 92.8587 80.819 92.9727C80.5502 93.082 80.2312 93.1367 79.862 93.1367C79.3926 93.1367 78.9665 93.0433 78.5837 92.8564C78.2054 92.665 77.9047 92.403 77.6814 92.0703C77.4626 91.7331 77.3532 91.3503 77.3532 90.9219C77.3532 90.5345 77.4261 90.1904 77.572 89.8896C77.7178 89.5889 77.932 89.3359 78.2146 89.1309C78.5017 88.9212 78.8594 88.764 79.2878 88.6592C79.7162 88.5498 80.2129 88.4951 80.778 88.4951H81.9196ZM86.9636 85.6035V93H84.9881V85.6035H86.9636ZM84.865 83.6758C84.865 83.3887 84.9653 83.1517 85.1658 82.9648C85.3663 82.778 85.6352 82.6846 85.9724 82.6846C86.3051 82.6846 86.5717 82.778 86.7722 82.9648C86.9773 83.1517 87.0798 83.3887 87.0798 83.6758C87.0798 83.9629 86.9773 84.1999 86.7722 84.3867C86.5717 84.5736 86.3051 84.667 85.9724 84.667C85.6352 84.667 85.3663 84.5736 85.1658 84.3867C84.9653 84.1999 84.865 83.9629 84.865 83.6758ZM90.3944 82.5V93H88.4188V82.5H90.3944ZM93.9413 92.166L95.9032 85.6035H98.0155L95.0419 94.1143C94.9781 94.3011 94.8915 94.5016 94.7821 94.7158C94.6773 94.93 94.5337 95.1328 94.3515 95.3242C94.1737 95.5202 93.9481 95.6797 93.6747 95.8027C93.4058 95.9258 93.0754 95.9873 92.6835 95.9873C92.4966 95.9873 92.344 95.9759 92.2255 95.9531C92.107 95.9303 91.9657 95.8984 91.8017 95.8574V94.415C91.8518 94.415 91.9042 94.415 91.9589 94.415C92.0136 94.4196 92.066 94.4219 92.1161 94.4219C92.3759 94.4219 92.5878 94.3923 92.7518 94.333C92.9159 94.2738 93.0481 94.1826 93.1483 94.0596C93.2486 93.9411 93.3283 93.7861 93.3876 93.5947L93.9413 92.166ZM93.121 85.6035L94.7274 90.9629L95.0077 93.0479L93.6679 93.1914L91.0087 85.6035H93.121ZM105.943 83.0469V93H103.899V83.0469H105.943ZM109.006 83.0469V84.6533H100.885V83.0469H109.006ZM111.268 87.2168V93H109.299V85.6035H111.151L111.268 87.2168ZM113.496 85.5557L113.462 87.3809C113.366 87.3672 113.25 87.3558 113.113 87.3467C112.981 87.333 112.86 87.3262 112.751 87.3262C112.473 87.3262 112.232 87.3626 112.026 87.4355C111.826 87.5039 111.657 87.6064 111.521 87.7432C111.388 87.8799 111.288 88.0462 111.22 88.2422C111.156 88.4382 111.12 88.6615 111.11 88.9121L110.714 88.7891C110.714 88.3105 110.762 87.8708 110.858 87.4697C110.953 87.0641 111.092 86.7109 111.274 86.4102C111.461 86.1094 111.689 85.877 111.958 85.7129C112.227 85.5488 112.535 85.4668 112.881 85.4668C112.99 85.4668 113.102 85.4759 113.216 85.4941C113.33 85.5078 113.423 85.5283 113.496 85.5557ZM117.911 91.332V88.0371C117.911 87.8001 117.873 87.5973 117.795 87.4287C117.718 87.2555 117.597 87.1211 117.433 87.0254C117.273 86.9297 117.066 86.8818 116.811 86.8818C116.592 86.8818 116.403 86.9206 116.243 86.998C116.084 87.071 115.961 87.1781 115.874 87.3193C115.788 87.4561 115.744 87.6178 115.744 87.8047H113.776C113.776 87.4902 113.848 87.1917 113.994 86.9092C114.14 86.6266 114.352 86.3783 114.63 86.1641C114.908 85.9453 115.238 85.7744 115.621 85.6514C116.009 85.5283 116.442 85.4668 116.92 85.4668C117.494 85.4668 118.005 85.5625 118.451 85.7539C118.898 85.9453 119.249 86.2324 119.504 86.6152C119.764 86.998 119.894 87.4766 119.894 88.0508V91.2158C119.894 91.6214 119.919 91.9541 119.969 92.2139C120.019 92.4691 120.092 92.6924 120.188 92.8838V93H118.198C118.103 92.7995 118.03 92.5488 117.98 92.248C117.934 91.9427 117.911 91.6374 117.911 91.332ZM118.171 88.4951L118.185 89.6094H117.084C116.824 89.6094 116.599 89.639 116.407 89.6982C116.216 89.7575 116.059 89.8418 115.936 89.9512C115.813 90.056 115.721 90.179 115.662 90.3203C115.608 90.4616 115.58 90.6165 115.58 90.7852C115.58 90.9538 115.619 91.1064 115.696 91.2432C115.774 91.3753 115.886 91.4801 116.031 91.5576C116.177 91.6305 116.348 91.667 116.544 91.667C116.84 91.667 117.098 91.6077 117.317 91.4893C117.535 91.3708 117.704 91.2249 117.822 91.0518C117.945 90.8786 118.009 90.7145 118.014 90.5596L118.533 91.3936C118.46 91.5804 118.36 91.7741 118.233 91.9746C118.11 92.1751 117.952 92.3643 117.761 92.542C117.569 92.7152 117.339 92.8587 117.07 92.9727C116.802 93.082 116.483 93.1367 116.113 93.1367C115.644 93.1367 115.218 93.0433 114.835 92.8564C114.457 92.665 114.156 92.403 113.933 92.0703C113.714 91.7331 113.605 91.3503 113.605 90.9219C113.605 90.5345 113.678 90.1904 113.823 89.8896C113.969 89.5889 114.183 89.3359 114.466 89.1309C114.753 88.9212 115.111 88.764 115.539 88.6592C115.968 88.5498 116.464 88.4951 117.029 88.4951H118.171ZM123.646 93H121.663V84.9473C121.663 84.3867 121.773 83.915 121.991 83.5322C122.215 83.1449 122.527 82.8532 122.928 82.6572C123.334 82.4567 123.814 82.3564 124.37 82.3564C124.553 82.3564 124.728 82.3701 124.897 82.3975C125.065 82.4202 125.229 82.4499 125.389 82.4863L125.368 83.9697C125.282 83.9469 125.191 83.931 125.095 83.9219C124.999 83.9128 124.888 83.9082 124.76 83.9082C124.523 83.9082 124.32 83.9492 124.152 84.0312C123.988 84.1087 123.862 84.2249 123.776 84.3799C123.689 84.5348 123.646 84.724 123.646 84.9473V93ZM125.143 85.6035V86.998H120.563V85.6035H125.143ZM128.075 93H126.107V85.2686C126.107 84.6396 126.234 84.1087 126.489 83.6758C126.745 83.2428 127.114 82.9147 127.597 82.6914C128.08 82.4681 128.661 82.3564 129.34 82.3564C129.727 82.3564 130.103 82.3952 130.468 82.4727C130.833 82.5456 131.209 82.6413 131.596 82.7598L131.316 84.3389C131.065 84.2614 130.794 84.1885 130.502 84.1201C130.215 84.0518 129.869 84.0176 129.463 84.0176C129.007 84.0176 128.661 84.1247 128.424 84.3389C128.192 84.5485 128.075 84.8584 128.075 85.2686V93ZM129.545 85.6035V86.998H124.999V85.6035H129.545ZM132.519 85.6035V93H130.536V85.6035H132.519ZM136.934 91.5986C137.175 91.5986 137.39 91.5531 137.576 91.4619C137.763 91.3662 137.909 91.234 138.014 91.0654C138.123 90.8923 138.18 90.6895 138.185 90.457H140.037C140.033 90.9766 139.894 91.4391 139.62 91.8447C139.347 92.2458 138.98 92.5625 138.52 92.7949C138.06 93.0228 137.545 93.1367 136.975 93.1367C136.401 93.1367 135.899 93.041 135.471 92.8496C135.047 92.6582 134.694 92.3939 134.411 92.0566C134.129 91.7148 133.917 91.3184 133.776 90.8672C133.634 90.4115 133.564 89.9238 133.564 89.4043V89.2061C133.564 88.682 133.634 88.1943 133.776 87.7432C133.917 87.2874 134.129 86.891 134.411 86.5537C134.694 86.2119 135.047 85.9453 135.471 85.7539C135.895 85.5625 136.392 85.4668 136.961 85.4668C137.567 85.4668 138.098 85.583 138.554 85.8154C139.014 86.0479 139.374 86.3805 139.634 86.8135C139.898 87.2419 140.033 87.75 140.037 88.3379H138.185C138.18 88.0918 138.128 87.8685 138.028 87.668C137.932 87.4674 137.791 87.3079 137.604 87.1895C137.421 87.0664 137.196 87.0049 136.927 87.0049C136.64 87.0049 136.405 87.0664 136.223 87.1895C136.041 87.3079 135.899 87.472 135.799 87.6816C135.699 87.8867 135.628 88.1214 135.587 88.3857C135.551 88.6455 135.533 88.9189 135.533 89.2061V89.4043C135.533 89.6914 135.551 89.9671 135.587 90.2314C135.624 90.4958 135.692 90.7305 135.792 90.9355C135.897 91.1406 136.041 91.3024 136.223 91.4209C136.405 91.5394 136.642 91.5986 136.934 91.5986Z" fill="white"/>
<rect opacity="0.231676" x="0.583984" y="112" width="358.418" height="12" rx="6" fill="white"/>
<rect x="0.583984" y="112" width="126.982" height="12" rx="6" fill="white"/>
<path d="M7.00586 141.682V143H1.16992V141.875L3.92969 138.916C4.20703 138.607 4.42578 138.336 4.58594 138.102C4.74609 137.863 4.86133 137.65 4.93164 137.463C5.00586 137.271 5.04297 137.09 5.04297 136.918C5.04297 136.66 5 136.439 4.91406 136.256C4.82812 136.068 4.70117 135.924 4.5332 135.822C4.36914 135.721 4.16602 135.67 3.92383 135.67C3.66602 135.67 3.44336 135.732 3.25586 135.857C3.07227 135.982 2.93164 136.156 2.83398 136.379C2.74023 136.602 2.69336 136.854 2.69336 137.135H1C1 136.627 1.12109 136.162 1.36328 135.74C1.60547 135.314 1.94727 134.977 2.38867 134.727C2.83008 134.473 3.35352 134.346 3.95898 134.346C4.55664 134.346 5.06055 134.443 5.4707 134.639C5.88477 134.83 6.19727 135.107 6.4082 135.471C6.62305 135.83 6.73047 136.26 6.73047 136.76C6.73047 137.041 6.68555 137.316 6.5957 137.586C6.50586 137.852 6.37695 138.117 6.20898 138.383C6.04492 138.645 5.8457 138.91 5.61133 139.18C5.37695 139.449 5.11719 139.729 4.83203 140.018L3.34961 141.682H7.00586ZM9.40152 139.115L8.05386 138.793L8.54019 134.469H13.3332V135.834H9.92886L9.71793 137.727C9.83121 137.66 10.0031 137.59 10.2336 137.516C10.464 137.438 10.7218 137.398 11.007 137.398C11.4211 137.398 11.7882 137.463 12.1086 137.592C12.4289 137.721 12.7003 137.908 12.923 138.154C13.1496 138.4 13.3214 138.701 13.4386 139.057C13.5558 139.412 13.6144 139.814 13.6144 140.264C13.6144 140.643 13.5558 141.004 13.4386 141.348C13.3214 141.688 13.1437 141.992 12.9054 142.262C12.6671 142.527 12.3683 142.736 12.0089 142.889C11.6496 143.041 11.2238 143.117 10.7316 143.117C10.3644 143.117 10.0089 143.062 9.66519 142.953C9.32535 142.844 9.01871 142.682 8.74527 142.467C8.47574 142.252 8.25894 141.992 8.09488 141.688C7.93472 141.379 7.85074 141.027 7.84293 140.633H9.51871C9.54215 140.875 9.60465 141.084 9.70621 141.26C9.81168 141.432 9.95035 141.564 10.1222 141.658C10.2941 141.752 10.4953 141.799 10.7257 141.799C10.9406 141.799 11.1242 141.758 11.2765 141.676C11.4289 141.594 11.5519 141.48 11.6457 141.336C11.7394 141.188 11.8078 141.016 11.8507 140.82C11.8976 140.621 11.9211 140.406 11.9211 140.176C11.9211 139.945 11.8937 139.736 11.839 139.549C11.7843 139.361 11.7003 139.199 11.5871 139.062C11.4738 138.926 11.3293 138.82 11.1535 138.746C10.9816 138.672 10.7804 138.635 10.55 138.635C10.2375 138.635 9.99527 138.684 9.8234 138.781C9.65543 138.879 9.5148 138.99 9.40152 139.115ZM21.3948 138.541V141.922C21.262 142.082 21.0569 142.256 20.7796 142.443C20.5023 142.627 20.1448 142.785 19.7073 142.918C19.2698 143.051 18.7405 143.117 18.1194 143.117C17.5687 143.117 17.0667 143.027 16.6136 142.848C16.1605 142.664 15.7698 142.396 15.4417 142.045C15.1175 141.693 14.8675 141.264 14.6917 140.756C14.5159 140.244 14.428 139.66 14.428 139.004V138.471C14.428 137.814 14.512 137.23 14.68 136.719C14.8519 136.207 15.096 135.775 15.4124 135.424C15.7288 135.072 16.1058 134.805 16.5433 134.621C16.9808 134.438 17.4671 134.346 18.0023 134.346C18.7444 134.346 19.3538 134.467 19.8304 134.709C20.3069 134.947 20.6702 135.279 20.9202 135.705C21.1741 136.127 21.3304 136.611 21.389 137.158H19.6839C19.6409 136.869 19.5589 136.617 19.4378 136.402C19.3167 136.188 19.1429 136.02 18.9163 135.898C18.6937 135.777 18.4046 135.717 18.0491 135.717C17.7562 135.717 17.4944 135.777 17.264 135.898C17.0374 136.016 16.846 136.189 16.6898 136.42C16.5335 136.65 16.4144 136.936 16.3323 137.275C16.2503 137.615 16.2093 138.01 16.2093 138.459V139.004C16.2093 139.449 16.2523 139.844 16.3382 140.188C16.4241 140.527 16.5511 140.814 16.7191 141.049C16.8909 141.279 17.1019 141.453 17.3519 141.57C17.6019 141.688 17.8929 141.746 18.2249 141.746C18.5023 141.746 18.7327 141.723 18.9163 141.676C19.1038 141.629 19.2542 141.572 19.3675 141.506C19.4847 141.436 19.5745 141.369 19.637 141.307V139.795H18.0316V138.541H21.3948ZM25.9057 139.256H23.7143L23.7026 138.049H25.5425C25.8667 138.049 26.1323 138.008 26.3393 137.926C26.5464 137.84 26.7007 137.717 26.8022 137.557C26.9077 137.393 26.9604 137.193 26.9604 136.959C26.9604 136.693 26.9096 136.479 26.8081 136.314C26.7104 136.15 26.5561 136.031 26.3452 135.957C26.1382 135.883 25.8706 135.846 25.5425 135.846H24.3237V143H22.5659V134.469H25.5425C26.0385 134.469 26.4819 134.516 26.8725 134.609C27.2671 134.703 27.601 134.846 27.8745 135.037C28.1479 135.229 28.3569 135.471 28.5014 135.764C28.646 136.053 28.7182 136.396 28.7182 136.795C28.7182 137.146 28.6382 137.471 28.478 137.768C28.3218 138.064 28.0737 138.307 27.7339 138.494C27.3979 138.682 26.9585 138.785 26.4155 138.805L25.9057 139.256ZM25.8296 143H23.2339L23.9194 141.629H25.8296C26.1382 141.629 26.3901 141.58 26.5854 141.482C26.7807 141.381 26.9253 141.244 27.019 141.072C27.1128 140.9 27.1596 140.703 27.1596 140.48C27.1596 140.23 27.1167 140.014 27.0307 139.83C26.9487 139.646 26.8159 139.506 26.6323 139.408C26.4487 139.307 26.2065 139.256 25.9057 139.256H24.2124L24.2241 138.049H26.3335L26.7378 138.523C27.2573 138.516 27.6753 138.607 27.9917 138.799C28.312 138.986 28.5444 139.23 28.6889 139.531C28.8374 139.832 28.9116 140.154 28.9116 140.498C28.9116 141.045 28.7925 141.506 28.5542 141.881C28.3159 142.252 27.9663 142.531 27.5053 142.719C27.0483 142.906 26.4897 143 25.8296 143Z" fill="white"/>
<path d="M106.348 139.115L105 138.793L105.486 134.469H110.279V135.834H106.875L106.664 137.727C106.777 137.66 106.949 137.59 107.18 137.516C107.41 137.438 107.668 137.398 107.953 137.398C108.367 137.398 108.734 137.463 109.055 137.592C109.375 137.721 109.646 137.908 109.869 138.154C110.096 138.4 110.268 138.701 110.385 139.057C110.502 139.412 110.561 139.814 110.561 140.264C110.561 140.643 110.502 141.004 110.385 141.348C110.268 141.688 110.09 141.992 109.852 142.262C109.613 142.527 109.314 142.736 108.955 142.889C108.596 143.041 108.17 143.117 107.678 143.117C107.311 143.117 106.955 143.062 106.611 142.953C106.271 142.844 105.965 142.682 105.691 142.467C105.422 142.252 105.205 141.992 105.041 141.688C104.881 141.379 104.797 141.027 104.789 140.633H106.465C106.488 140.875 106.551 141.084 106.652 141.26C106.758 141.432 106.896 141.564 107.068 141.658C107.24 141.752 107.441 141.799 107.672 141.799C107.887 141.799 108.07 141.758 108.223 141.676C108.375 141.594 108.498 141.48 108.592 141.336C108.686 141.188 108.754 141.016 108.797 140.82C108.844 140.621 108.867 140.406 108.867 140.176C108.867 139.945 108.84 139.736 108.785 139.549C108.73 139.361 108.646 139.199 108.533 139.062C108.42 138.926 108.275 138.82 108.1 138.746C107.928 138.672 107.727 138.635 107.496 138.635C107.184 138.635 106.941 138.684 106.77 138.781C106.602 138.879 106.461 138.99 106.348 139.115ZM117.146 137.984V139.461C117.146 140.102 117.077 140.654 116.941 141.119C116.804 141.58 116.607 141.959 116.349 142.256C116.095 142.549 115.792 142.766 115.441 142.906C115.089 143.047 114.698 143.117 114.269 143.117C113.925 143.117 113.605 143.074 113.308 142.988C113.011 142.898 112.743 142.76 112.505 142.572C112.271 142.385 112.068 142.148 111.896 141.863C111.728 141.574 111.599 141.23 111.509 140.832C111.419 140.434 111.374 139.977 111.374 139.461V137.984C111.374 137.344 111.443 136.795 111.579 136.338C111.72 135.877 111.917 135.5 112.171 135.207C112.429 134.914 112.734 134.699 113.085 134.562C113.437 134.422 113.827 134.352 114.257 134.352C114.601 134.352 114.919 134.396 115.212 134.486C115.509 134.572 115.777 134.707 116.015 134.891C116.253 135.074 116.456 135.311 116.624 135.6C116.792 135.885 116.921 136.227 117.011 136.625C117.101 137.02 117.146 137.473 117.146 137.984ZM115.452 139.684V137.756C115.452 137.447 115.435 137.178 115.4 136.947C115.368 136.717 115.319 136.521 115.253 136.361C115.187 136.197 115.105 136.064 115.007 135.963C114.909 135.861 114.798 135.787 114.673 135.74C114.548 135.693 114.409 135.67 114.257 135.67C114.066 135.67 113.896 135.707 113.747 135.781C113.603 135.855 113.48 135.975 113.378 136.139C113.277 136.299 113.198 136.514 113.144 136.783C113.093 137.049 113.068 137.373 113.068 137.756V139.684C113.068 139.992 113.083 140.264 113.114 140.498C113.15 140.732 113.2 140.934 113.267 141.102C113.337 141.266 113.419 141.4 113.513 141.506C113.611 141.607 113.722 141.682 113.847 141.729C113.976 141.775 114.116 141.799 114.269 141.799C114.456 141.799 114.622 141.762 114.767 141.688C114.915 141.609 115.04 141.488 115.142 141.324C115.247 141.156 115.325 140.938 115.376 140.668C115.427 140.398 115.452 140.07 115.452 139.684ZM124.985 138.541V141.922C124.852 142.082 124.647 142.256 124.369 142.443C124.092 142.627 123.735 142.785 123.297 142.918C122.86 143.051 122.33 143.117 121.709 143.117C121.159 143.117 120.657 143.027 120.203 142.848C119.75 142.664 119.36 142.396 119.032 142.045C118.707 141.693 118.457 141.264 118.282 140.756C118.106 140.244 118.018 139.66 118.018 139.004V138.471C118.018 137.814 118.102 137.23 118.27 136.719C118.442 136.207 118.686 135.775 119.002 135.424C119.319 135.072 119.696 134.805 120.133 134.621C120.571 134.438 121.057 134.346 121.592 134.346C122.334 134.346 122.944 134.467 123.42 134.709C123.897 134.947 124.26 135.279 124.51 135.705C124.764 136.127 124.92 136.611 124.979 137.158H123.274C123.231 136.869 123.149 136.617 123.028 136.402C122.907 136.188 122.733 136.02 122.506 135.898C122.284 135.777 121.994 135.717 121.639 135.717C121.346 135.717 121.084 135.777 120.854 135.898C120.627 136.016 120.436 136.189 120.28 136.42C120.123 136.65 120.004 136.936 119.922 137.275C119.84 137.615 119.799 138.01 119.799 138.459V139.004C119.799 139.449 119.842 139.844 119.928 140.188C120.014 140.527 120.141 140.814 120.309 141.049C120.481 141.279 120.692 141.453 120.942 141.57C121.192 141.688 121.483 141.746 121.815 141.746C122.092 141.746 122.323 141.723 122.506 141.676C122.694 141.629 122.844 141.572 122.957 141.506C123.075 141.436 123.164 141.369 123.227 141.307V139.795H121.621V138.541H124.985ZM129.496 139.256H127.304L127.292 138.049H129.132C129.457 138.049 129.722 138.008 129.929 137.926C130.136 137.84 130.291 137.717 130.392 137.557C130.498 137.393 130.55 137.193 130.55 136.959C130.55 136.693 130.499 136.479 130.398 136.314C130.3 136.15 130.146 136.031 129.935 135.957C129.728 135.883 129.46 135.846 129.132 135.846H127.914V143H126.156V134.469H129.132C129.628 134.469 130.072 134.516 130.462 134.609C130.857 134.703 131.191 134.846 131.464 135.037C131.738 135.229 131.947 135.471 132.091 135.764C132.236 136.053 132.308 136.396 132.308 136.795C132.308 137.146 132.228 137.471 132.068 137.768C131.912 138.064 131.664 138.307 131.324 138.494C130.988 138.682 130.548 138.785 130.005 138.805L129.496 139.256ZM129.419 143H126.824L127.509 141.629H129.419C129.728 141.629 129.98 141.58 130.175 141.482C130.371 141.381 130.515 141.244 130.609 141.072C130.703 140.9 130.749 140.703 130.749 140.48C130.749 140.23 130.707 140.014 130.621 139.83C130.539 139.646 130.406 139.506 130.222 139.408C130.039 139.307 129.796 139.256 129.496 139.256H127.802L127.814 138.049H129.923L130.328 138.523C130.847 138.516 131.265 138.607 131.582 138.799C131.902 138.986 132.134 139.23 132.279 139.531C132.427 139.832 132.501 140.154 132.501 140.498C132.501 141.045 132.382 141.506 132.144 141.881C131.906 142.252 131.556 142.531 131.095 142.719C130.638 142.906 130.08 143 129.419 143Z" fill="white"/>
<path opacity="0.499026" d="M220.105 134.469V135.242L216.695 143H215.207L218.611 135.594H214.193V134.469H220.105ZM222.495 139.033L221.37 138.758L221.833 134.469H226.433V135.664H223.005L222.771 137.756C222.903 137.678 223.087 137.602 223.321 137.527C223.556 137.449 223.823 137.41 224.124 137.41C224.527 137.41 224.886 137.477 225.202 137.609C225.523 137.738 225.794 137.928 226.017 138.178C226.239 138.424 226.409 138.725 226.527 139.08C226.644 139.432 226.702 139.828 226.702 140.27C226.702 140.664 226.644 141.033 226.527 141.377C226.413 141.721 226.241 142.023 226.011 142.285C225.78 142.547 225.489 142.752 225.138 142.9C224.79 143.045 224.378 143.117 223.902 143.117C223.546 143.117 223.204 143.066 222.876 142.965C222.552 142.859 222.261 142.705 222.003 142.502C221.745 142.295 221.538 142.041 221.382 141.74C221.226 141.436 221.136 141.086 221.112 140.691H222.495C222.53 140.969 222.607 141.205 222.724 141.4C222.845 141.592 223.005 141.738 223.204 141.84C223.403 141.941 223.634 141.992 223.896 141.992C224.134 141.992 224.339 141.951 224.511 141.869C224.683 141.783 224.825 141.662 224.939 141.506C225.056 141.346 225.142 141.158 225.196 140.943C225.255 140.729 225.284 140.49 225.284 140.229C225.284 139.979 225.251 139.75 225.185 139.543C225.122 139.336 225.027 139.156 224.898 139.004C224.773 138.852 224.614 138.734 224.423 138.652C224.232 138.566 224.011 138.523 223.761 138.523C223.425 138.523 223.167 138.572 222.987 138.67C222.812 138.768 222.648 138.889 222.495 139.033ZM234.36 138.641V141.898C234.239 142.059 234.049 142.234 233.791 142.426C233.537 142.613 233.2 142.775 232.778 142.912C232.356 143.049 231.83 143.117 231.201 143.117C230.666 143.117 230.176 143.027 229.731 142.848C229.285 142.664 228.901 142.396 228.576 142.045C228.256 141.693 228.008 141.266 227.832 140.762C227.657 140.254 227.569 139.676 227.569 139.027V138.436C227.569 137.791 227.649 137.217 227.809 136.713C227.973 136.205 228.207 135.775 228.512 135.424C228.817 135.072 229.184 134.807 229.614 134.627C230.047 134.443 230.537 134.352 231.084 134.352C231.784 134.352 232.362 134.469 232.819 134.703C233.28 134.934 233.635 135.254 233.885 135.664C234.135 136.074 234.293 136.543 234.36 137.07H232.918C232.871 136.773 232.78 136.508 232.643 136.273C232.51 136.039 232.319 135.855 232.069 135.723C231.823 135.586 231.502 135.518 231.108 135.518C230.768 135.518 230.469 135.582 230.211 135.711C229.953 135.84 229.739 136.029 229.567 136.279C229.399 136.529 229.272 136.834 229.186 137.193C229.1 137.553 229.057 137.963 229.057 138.424V139.027C229.057 139.496 229.106 139.912 229.203 140.275C229.305 140.639 229.45 140.945 229.637 141.195C229.828 141.445 230.061 141.635 230.334 141.764C230.608 141.889 230.916 141.951 231.26 141.951C231.596 141.951 231.871 141.924 232.086 141.869C232.301 141.811 232.471 141.742 232.596 141.664C232.725 141.582 232.825 141.504 232.895 141.43V139.736H231.119V138.641H234.36ZM238.941 139.145H236.767L236.755 138.072H238.654C238.974 138.072 239.246 138.025 239.468 137.932C239.695 137.834 239.867 137.695 239.984 137.516C240.101 137.332 240.16 137.111 240.16 136.854C240.16 136.568 240.105 136.336 239.996 136.156C239.886 135.977 239.718 135.846 239.492 135.764C239.269 135.682 238.984 135.641 238.636 135.641H237.212V143H235.742V134.469H238.636C239.105 134.469 239.523 134.514 239.89 134.604C240.261 134.693 240.576 134.834 240.833 135.025C241.095 135.213 241.292 135.451 241.425 135.74C241.562 136.029 241.63 136.373 241.63 136.771C241.63 137.123 241.546 137.445 241.378 137.738C241.21 138.027 240.962 138.264 240.634 138.447C240.306 138.631 239.898 138.74 239.41 138.775L238.941 139.145ZM238.876 143H236.304L236.966 141.834H238.876C239.208 141.834 239.486 141.779 239.708 141.67C239.931 141.557 240.097 141.402 240.207 141.207C240.32 141.008 240.376 140.775 240.376 140.51C240.376 140.232 240.328 139.992 240.23 139.789C240.132 139.582 239.978 139.424 239.767 139.314C239.556 139.201 239.281 139.145 238.941 139.145H237.289L237.3 138.072H239.451L239.785 138.477C240.253 138.492 240.638 138.596 240.939 138.787C241.244 138.979 241.47 139.227 241.619 139.531C241.767 139.836 241.841 140.164 241.841 140.516C241.841 141.059 241.722 141.514 241.484 141.881C241.249 142.248 240.912 142.527 240.47 142.719C240.029 142.906 239.498 143 238.876 143Z" fill="white"/>
<path opacity="0.499026" d="M327.918 134.439V143H326.506V136.115L324.414 136.824V135.658L327.748 134.439H327.918ZM336.196 138.02V139.414C336.196 140.082 336.13 140.652 335.997 141.125C335.868 141.594 335.681 141.975 335.435 142.268C335.189 142.561 334.894 142.775 334.55 142.912C334.21 143.049 333.829 143.117 333.407 143.117C333.071 143.117 332.759 143.074 332.47 142.988C332.185 142.902 331.927 142.768 331.696 142.584C331.466 142.4 331.269 142.164 331.105 141.875C330.944 141.582 330.819 141.232 330.73 140.826C330.644 140.42 330.601 139.949 330.601 139.414V138.02C330.601 137.348 330.667 136.781 330.8 136.32C330.933 135.855 331.122 135.479 331.368 135.189C331.614 134.896 331.907 134.684 332.247 134.551C332.591 134.418 332.974 134.352 333.396 134.352C333.736 134.352 334.048 134.395 334.333 134.48C334.622 134.562 334.88 134.693 335.107 134.873C335.337 135.053 335.532 135.287 335.693 135.576C335.857 135.861 335.982 136.207 336.068 136.613C336.153 137.016 336.196 137.484 336.196 138.02ZM334.784 139.613V137.809C334.784 137.469 334.765 137.17 334.726 136.912C334.687 136.65 334.628 136.43 334.55 136.25C334.476 136.066 334.382 135.918 334.269 135.805C334.155 135.688 334.027 135.604 333.882 135.553C333.737 135.498 333.575 135.471 333.396 135.471C333.177 135.471 332.982 135.514 332.81 135.6C332.638 135.682 332.493 135.814 332.376 135.998C332.259 136.182 332.169 136.424 332.107 136.725C332.048 137.021 332.019 137.383 332.019 137.809V139.613C332.019 139.957 332.038 140.26 332.077 140.521C332.116 140.783 332.175 141.008 332.253 141.195C332.331 141.379 332.425 141.531 332.534 141.652C332.648 141.77 332.777 141.855 332.921 141.91C333.069 141.965 333.232 141.992 333.407 141.992C333.63 141.992 333.827 141.949 333.999 141.863C334.171 141.777 334.316 141.641 334.433 141.453C334.55 141.262 334.638 141.014 334.696 140.709C334.755 140.404 334.784 140.039 334.784 139.613ZM342.77 138.02V139.414C342.77 140.082 342.703 140.652 342.571 141.125C342.442 141.594 342.254 141.975 342.008 142.268C341.762 142.561 341.467 142.775 341.123 142.912C340.784 143.049 340.403 143.117 339.981 143.117C339.645 143.117 339.332 143.074 339.043 142.988C338.758 142.902 338.5 142.768 338.27 142.584C338.039 142.4 337.842 142.164 337.678 141.875C337.518 141.582 337.393 141.232 337.303 140.826C337.217 140.42 337.174 139.949 337.174 139.414V138.02C337.174 137.348 337.241 136.781 337.373 136.32C337.506 135.855 337.696 135.479 337.942 135.189C338.188 134.896 338.481 134.684 338.821 134.551C339.164 134.418 339.547 134.352 339.969 134.352C340.309 134.352 340.621 134.395 340.907 134.48C341.196 134.562 341.453 134.693 341.68 134.873C341.91 135.053 342.106 135.287 342.266 135.576C342.43 135.861 342.555 136.207 342.641 136.613C342.727 137.016 342.77 137.484 342.77 138.02ZM341.358 139.613V137.809C341.358 137.469 341.338 137.17 341.299 136.912C341.26 136.65 341.201 136.43 341.123 136.25C341.049 136.066 340.955 135.918 340.842 135.805C340.729 135.688 340.6 135.604 340.455 135.553C340.311 135.498 340.149 135.471 339.969 135.471C339.75 135.471 339.555 135.514 339.383 135.6C339.211 135.682 339.067 135.814 338.95 135.998C338.832 136.182 338.742 136.424 338.68 136.725C338.621 137.021 338.592 137.383 338.592 137.809V139.613C338.592 139.957 338.612 140.26 338.651 140.521C338.69 140.783 338.748 141.008 338.826 141.195C338.905 141.379 338.998 141.531 339.108 141.652C339.221 141.77 339.35 141.855 339.494 141.91C339.643 141.965 339.805 141.992 339.981 141.992C340.203 141.992 340.401 141.949 340.573 141.863C340.744 141.777 340.889 141.641 341.006 141.453C341.123 141.262 341.211 141.014 341.27 140.709C341.328 140.404 341.358 140.039 341.358 139.613ZM350.556 138.641V141.898C350.435 142.059 350.246 142.234 349.988 142.426C349.734 142.613 349.396 142.775 348.974 142.912C348.552 143.049 348.027 143.117 347.398 143.117C346.863 143.117 346.373 143.027 345.927 142.848C345.482 142.664 345.097 142.396 344.773 142.045C344.453 141.693 344.205 141.266 344.029 140.762C343.853 140.254 343.765 139.676 343.765 139.027V138.436C343.765 137.791 343.845 137.217 344.005 136.713C344.169 136.205 344.404 135.775 344.708 135.424C345.013 135.072 345.38 134.807 345.81 134.627C346.244 134.443 346.734 134.352 347.281 134.352C347.98 134.352 348.558 134.469 349.015 134.703C349.476 134.934 349.832 135.254 350.082 135.664C350.332 136.074 350.49 136.543 350.556 137.07H349.115C349.068 136.773 348.976 136.508 348.839 136.273C348.707 136.039 348.515 135.855 348.265 135.723C348.019 135.586 347.699 135.518 347.304 135.518C346.964 135.518 346.666 135.582 346.408 135.711C346.15 135.84 345.935 136.029 345.763 136.279C345.595 136.529 345.468 136.834 345.382 137.193C345.296 137.553 345.253 137.963 345.253 138.424V139.027C345.253 139.496 345.302 139.912 345.4 140.275C345.501 140.639 345.646 140.945 345.833 141.195C346.025 141.445 346.257 141.635 346.531 141.764C346.804 141.889 347.113 141.951 347.457 141.951C347.792 141.951 348.068 141.924 348.283 141.869C348.498 141.811 348.667 141.742 348.792 141.664C348.921 141.582 349.021 141.504 349.091 141.43V139.736H347.316V138.641H350.556ZM355.137 139.145H352.964L352.952 138.072H354.85C355.171 138.072 355.442 138.025 355.665 137.932C355.891 137.834 356.063 137.695 356.18 137.516C356.297 137.332 356.356 137.111 356.356 136.854C356.356 136.568 356.301 136.336 356.192 136.156C356.083 135.977 355.915 135.846 355.688 135.764C355.465 135.682 355.18 135.641 354.833 135.641H353.409V143H351.938V134.469H354.833C355.301 134.469 355.719 134.514 356.087 134.604C356.458 134.693 356.772 134.834 357.03 135.025C357.292 135.213 357.489 135.451 357.622 135.74C357.758 136.029 357.827 136.373 357.827 136.771C357.827 137.123 357.743 137.445 357.575 137.738C357.407 138.027 357.159 138.264 356.831 138.447C356.503 138.631 356.094 138.74 355.606 138.775L355.137 139.145ZM355.073 143H352.501L353.163 141.834H355.073C355.405 141.834 355.682 141.779 355.905 141.67C356.128 141.557 356.294 141.402 356.403 141.207C356.516 141.008 356.573 140.775 356.573 140.51C356.573 140.232 356.524 139.992 356.426 139.789C356.329 139.582 356.174 139.424 355.964 139.314C355.753 139.201 355.477 139.145 355.137 139.145H353.485L353.497 138.072H355.647L355.981 138.477C356.45 138.492 356.835 138.596 357.135 138.787C357.44 138.979 357.667 139.227 357.815 139.531C357.964 139.836 358.038 140.164 358.038 140.516C358.038 141.059 357.919 141.514 357.68 141.881C357.446 142.248 357.108 142.527 356.667 142.719C356.225 142.906 355.694 143 355.073 143Z" fill="white"/>
</svg>
