<svg width="26" height="20" viewBox="0 0 26 20" fill="none" xmlns="http://www.w3.org/2000/svg">
<path d="M21.4922 2.49609C21.4922 2.49609 21.4922 2.49609 21.4512 2.49609C19.8926 1.75781 18.252 1.26562 16.5703 0.978516C16.5293 0.9375 16.4883 0.978516 16.4883 0.978516C16.2422 1.38867 16.0371 1.83984 15.873 2.25C14.0273 1.96289 12.1816 1.96289 10.3359 2.25C10.1719 1.83984 9.9668 1.38867 9.7207 0.978516C9.7207 0.978516 9.67969 0.9375 9.63867 0.978516C7.95703 1.26562 6.31641 1.75781 4.75781 2.49609C4.7168 2.49609 4.7168 2.49609 4.7168 2.49609C1.59961 7.17188 0.738281 11.7246 1.14844 16.2363C1.14844 16.2363 1.14844 16.2773 1.18945 16.2773C2.99414 17.6309 5.04492 18.6562 7.21875 19.3125C7.21875 19.3535 7.25977 19.3125 7.30078 19.3125C7.75195 18.6562 8.16211 18 8.53125 17.3027C8.53125 17.2617 8.53125 17.2207 8.49023 17.1797C7.83398 16.9336 7.17773 16.6465 6.60352 16.2773C6.5625 16.2773 6.52148 16.1953 6.60352 16.1543C6.72656 16.0723 6.84961 15.9902 6.97266 15.8672C6.97266 15.8672 7.01367 15.8672 7.05469 15.8672C10.9922 17.6719 15.2578 17.6719 19.1543 15.8672C19.1953 15.8672 19.1953 15.8672 19.2363 15.8672C19.3594 15.9902 19.4824 16.0723 19.6055 16.1543C19.6465 16.1953 19.6465 16.2773 19.6055 16.2773C18.9902 16.6465 18.375 16.9336 17.7188 17.1797C17.6777 17.2207 17.6777 17.2617 17.6777 17.3027C18.0469 18 18.457 18.6562 18.9082 19.3125C18.9492 19.3125 18.9492 19.3535 18.9902 19.3125C21.1641 18.6562 23.2148 17.6309 25.0195 16.2773C25.0605 16.2773 25.0605 16.2363 25.0605 16.2363C25.5527 11.0273 24.1992 6.51562 21.4922 2.49609ZM9.10547 13.4883C7.91602 13.4883 6.93164 12.3809 6.93164 11.0684C6.93164 9.71484 7.91602 8.64844 9.10547 8.64844C10.3359 8.64844 11.2793 9.71484 11.2793 11.0684C11.2793 12.3809 10.2949 13.4883 9.10547 13.4883ZM17.1035 13.4883C15.9141 13.4883 14.9707 12.3809 14.9707 11.0684C14.9707 9.71484 15.9141 8.64844 17.1035 8.64844C18.334 8.64844 19.3184 9.71484 19.2773 11.0684C19.2773 12.3809 18.334 13.4883 17.1035 13.4883Z" fill="white"/>
</svg>
