<svg width="379" height="30" viewBox="0 0 379 30" fill="none" xmlns="http://www.w3.org/2000/svg">
<path d="M0 25.0202V7.80036H10.5502V9.74063H2.13429V15.4887H9.04649V17.4289H2.13429V23.08H11.0595V25.0202H0Z" fill="white"/>
<path d="M22.2077 25.0202L19.0063 20.7274H18.9578L15.7806 25.0202H13.5493L17.8421 19.0539L13.5493 13.2089H15.8533L18.9578 17.5259H19.0063L22.0864 13.2089H24.3905L20.1219 19.0539L24.439 25.0202H22.2077Z" fill="white"/>
<path d="M31.7783 25.1657C30.0644 25.1657 28.6577 24.6079 27.5582 23.4923C26.4749 22.3604 25.9332 20.9052 25.9332 19.1267C25.9332 17.3481 26.483 15.8929 27.5825 14.7611C28.6981 13.6292 30.121 13.0633 31.8511 13.0633C32.7565 13.0633 33.6296 13.2493 34.4704 13.6212C35.3274 13.9769 36.0388 14.4943 36.6047 15.1734L35.2465 16.3618C34.4543 15.3755 33.3548 14.8823 31.9481 14.8823C30.7677 14.8823 29.7976 15.2785 29.0377 16.0707C28.2939 16.863 27.922 17.8817 27.922 19.1267C27.922 20.3878 28.2939 21.4146 29.0377 22.2068C29.7814 22.9829 30.7516 23.371 31.9481 23.371C33.3224 23.371 34.4381 22.9021 35.295 21.9643L36.6532 23.177C36.1358 23.759 35.4486 24.236 34.5917 24.6079C33.7347 24.9798 32.7969 25.1657 31.7783 25.1657Z" fill="white"/>
<path d="M50.222 18.9326C50.222 19.062 50.2139 19.2318 50.1977 19.442L50.1735 19.733H41.0785C41.2079 20.8325 41.6282 21.7137 42.3397 22.3766C43.0673 23.0395 43.9646 23.371 45.0318 23.371C46.4061 23.371 47.5137 22.8374 48.3545 21.7703L49.7369 22.9587C48.5889 24.4301 46.9963 25.1657 44.959 25.1657C43.2613 25.1657 41.8546 24.6079 40.739 23.4923C39.6395 22.3604 39.0897 20.9052 39.0897 19.1267C39.0897 17.3643 39.6233 15.9171 40.6904 14.7853C41.7738 13.6373 43.1239 13.0633 44.7407 13.0633C46.3738 13.0633 47.6916 13.6131 48.694 14.7126C49.7127 15.812 50.222 17.2187 50.222 18.9326ZM47.1418 15.7555C46.5436 15.1734 45.7756 14.8823 44.8378 14.8823C43.9 14.8823 43.0915 15.1734 42.4124 15.7555C41.7495 16.3214 41.3291 17.1056 41.1513 18.108H48.2817C48.12 17.1217 47.7401 16.3375 47.1418 15.7555Z" fill="white"/>
<path d="M53.8541 25.0202V7.16977H55.8186V25.0202H53.8541Z" fill="white"/>
<path d="M60.4025 25.0202V7.16977H62.367V25.0202H60.4025Z" fill="white"/>
<path d="M77.1858 18.9326C77.1858 19.062 77.1777 19.2318 77.1616 19.442L77.1373 19.733H68.0423C68.1717 20.8325 68.5921 21.7137 69.3035 22.3766C70.0311 23.0395 70.9285 23.371 71.9956 23.371C73.37 23.371 74.4775 22.8374 75.3183 21.7703L76.7008 22.9587C75.5528 24.4301 73.9601 25.1657 71.9229 25.1657C70.2251 25.1657 68.8184 24.6079 67.7028 23.4923C66.6033 22.3604 66.0536 20.9052 66.0536 19.1267C66.0536 17.3643 66.5871 15.9171 67.6543 14.7853C68.7376 13.6373 70.0877 13.0633 71.7046 13.0633C73.3376 13.0633 74.6554 13.6131 75.6579 14.7126C76.6765 15.812 77.1858 17.2187 77.1858 18.9326ZM74.1057 15.7555C73.5074 15.1734 72.7394 14.8823 71.8016 14.8823C70.8638 14.8823 70.0554 15.1734 69.3763 15.7555C68.7133 16.3214 68.2929 17.1056 68.1151 18.108H75.2456C75.0839 17.1217 74.7039 16.3375 74.1057 15.7555Z" fill="white"/>
<path d="M86.9298 13.0633C88.2395 13.0633 89.2743 13.4837 90.0342 14.3245C90.7942 15.1491 91.1741 16.378 91.1741 18.011V25.0202H89.2096V18.5688C89.2096 16.1112 88.2476 14.8823 86.3235 14.8823C85.1916 14.8823 84.2862 15.2623 83.6071 16.0222C82.9442 16.766 82.6127 17.8008 82.6127 19.1267V25.0202H80.6482V13.2089H82.6127V15.2704H82.6369C83.6718 13.799 85.1027 13.0633 86.9298 13.0633Z" fill="white"/>
<path d="M98.549 25.1657C96.4956 25.1657 95.4688 23.945 95.4688 21.5035V14.9066H93.9651V13.2089H95.4688V9.1828L97.4334 8.96452V13.2089H101.362V14.9066H97.4334V21.2124C97.4334 21.94 97.5385 22.4736 97.7487 22.8132C97.975 23.1527 98.355 23.3225 98.8886 23.3225C99.503 23.3225 100.166 23.1204 100.877 22.7162L101.411 24.4381C100.538 24.9232 99.5838 25.1657 98.549 25.1657Z" fill="white"/>
<path d="M125.407 25.0202V22.0856H117.67V20.6304L125.722 8.35819H127.444V20.2423H129.87V22.0856H127.444V25.0202H125.407ZM120.12 20.2908H125.456V12.0689L120.12 20.2908Z" fill="white"/>
<path d="M133.72 25.1657C133.316 25.1657 132.976 25.0364 132.701 24.7777C132.443 24.5028 132.313 24.1794 132.313 23.8076C132.313 23.4195 132.443 23.0961 132.701 22.8374C132.976 22.5626 133.316 22.4251 133.72 22.4251C134.092 22.4251 134.415 22.5626 134.69 22.8374C134.965 23.0961 135.102 23.4195 135.102 23.8076C135.102 24.1794 134.965 24.5028 134.69 24.7777C134.415 25.0364 134.092 25.1657 133.72 25.1657Z" fill="white"/>
<path d="M144.621 14.5185C146.141 14.5185 147.386 14.9955 148.356 15.9495C149.326 16.8873 149.811 18.1727 149.811 19.8058C149.811 21.3418 149.262 22.6191 148.162 23.6378C147.079 24.6564 145.713 25.1657 144.063 25.1657C142.382 25.1657 140.983 24.5675 139.867 23.371C138.752 22.1745 138.194 20.6304 138.194 18.7386C138.194 15.8605 139.019 13.4271 140.668 11.4384C142.333 9.43342 144.33 8.22075 146.658 7.80036L147.265 9.5466C145.632 9.95082 144.209 10.6946 142.996 11.7779C141.8 12.8612 140.975 14.2679 140.522 15.998H140.547C141.63 15.0117 142.988 14.5185 144.621 14.5185ZM144.039 23.2497C145.139 23.2497 146.036 22.9183 146.731 22.2553C147.426 21.5762 147.774 20.7516 147.774 19.7815C147.774 18.7629 147.443 17.9463 146.78 17.3319C146.133 16.7175 145.26 16.4103 144.16 16.4103C143.287 16.4103 142.503 16.6286 141.808 17.0651C141.129 17.5017 140.587 18.0433 140.183 18.6901V18.8599C140.183 20.1696 140.538 21.2286 141.25 22.0371C141.978 22.8455 142.907 23.2497 144.039 23.2497Z" fill="white"/>
<path d="M165.747 25.1657C163.936 25.1657 162.465 24.5917 161.333 23.4438C160.201 22.2958 159.635 20.8567 159.635 19.1267C159.635 17.3966 160.201 15.9576 161.333 14.8096C162.465 13.6454 163.936 13.0633 165.747 13.0633C167.493 13.0633 168.941 13.6292 170.089 14.7611C171.237 15.8929 171.811 17.3481 171.811 19.1267C171.811 20.9052 171.237 22.3604 170.089 23.4923C168.941 24.6079 167.493 25.1657 165.747 25.1657ZM165.747 23.371C166.895 23.371 167.857 22.9749 168.633 22.1826C169.426 21.3741 169.822 20.3555 169.822 19.1267C169.822 17.8817 169.434 16.863 168.658 16.0707C167.882 15.2785 166.911 14.8823 165.747 14.8823C164.535 14.8823 163.54 15.2946 162.764 16.1193C162.004 16.9277 161.624 17.9302 161.624 19.1267C161.624 20.3232 162.004 21.3337 162.764 22.1583C163.54 22.9668 164.535 23.371 165.747 23.371Z" fill="white"/>
<path d="M183.42 13.2089H185.385V25.0202H183.42V23.0557H183.396C182.41 24.4624 181.116 25.1657 179.515 25.1657C178.109 25.1657 177.017 24.7615 176.241 23.9531C175.465 23.1285 175.077 21.8915 175.077 20.2423V13.2089H177.041V19.6845C177.041 20.9942 177.276 21.94 177.745 22.5221C178.23 23.088 178.958 23.371 179.928 23.371C180.898 23.371 181.722 22.9749 182.401 22.1826C183.081 21.3741 183.42 20.2908 183.42 18.9326V13.2089Z" fill="white"/>
<path d="M192.841 25.1657C190.788 25.1657 189.761 23.945 189.761 21.5035V14.9066H188.258V13.2089H189.761V9.1828L191.726 8.96452V13.2089H195.655V14.9066H191.726V21.2124C191.726 21.94 191.831 22.4736 192.041 22.8132C192.267 23.1527 192.647 23.3225 193.181 23.3225C193.795 23.3225 194.458 23.1204 195.17 22.7162L195.703 24.4381C194.83 24.9232 193.876 25.1657 192.841 25.1657Z" fill="white"/>
<path d="M211.362 25.1657C209.551 25.1657 208.08 24.5917 206.948 23.4438C205.816 22.2958 205.251 20.8567 205.251 19.1267C205.251 17.3966 205.816 15.9576 206.948 14.8096C208.08 13.6454 209.551 13.0633 211.362 13.0633C213.109 13.0633 214.556 13.6292 215.704 14.7611C216.852 15.8929 217.426 17.3481 217.426 19.1267C217.426 20.9052 216.852 22.3604 215.704 23.4923C214.556 24.6079 213.109 25.1657 211.362 25.1657ZM211.362 23.371C212.51 23.371 213.472 22.9749 214.249 22.1826C215.041 21.3741 215.437 20.3555 215.437 19.1267C215.437 17.8817 215.049 16.863 214.273 16.0707C213.497 15.2785 212.527 14.8823 211.362 14.8823C210.15 14.8823 209.155 15.2946 208.379 16.1193C207.619 16.9277 207.239 17.9302 207.239 19.1267C207.239 20.3232 207.619 21.3337 208.379 22.1583C209.155 22.9668 210.15 23.371 211.362 23.371Z" fill="white"/>
<path d="M221.349 25.0202V14.9066H219.894V13.2089H221.349V10.832C221.349 9.57085 221.632 8.61689 222.198 7.97013C222.78 7.32338 223.597 7 224.648 7C225.65 7 226.572 7.25062 227.413 7.75185L226.976 9.44959C226.2 9.04536 225.513 8.84325 224.915 8.84325C223.831 8.84325 223.29 9.56277 223.29 11.0018V13.2089H226.637V14.9066H223.29V25.0202H221.349Z" fill="white"/>
<path d="M241.658 14.4458C243.194 14.4458 244.471 14.9308 245.49 15.901C246.525 16.8549 247.042 18.1404 247.042 19.7572C247.042 21.3418 246.484 22.6434 245.369 23.662C244.253 24.6807 242.879 25.19 241.246 25.19C240.098 25.19 239.03 24.9475 238.044 24.4624C237.074 23.9612 236.298 23.274 235.716 22.4009L237.244 21.2367C237.632 21.8673 238.157 22.3685 238.82 22.7404C239.499 23.0961 240.259 23.274 241.1 23.274C242.183 23.274 243.097 22.9425 243.841 22.2796C244.601 21.6005 244.981 20.7516 244.981 19.733C244.981 18.6497 244.601 17.8008 243.841 17.1864C243.097 16.5558 242.191 16.2405 241.124 16.2405C239.863 16.2405 238.885 16.5477 238.19 17.1621L237.001 16.7983L237.486 8.35819H246.29V10.2499H239.402L239.135 14.9308C240.057 14.6075 240.898 14.4458 241.658 14.4458Z" fill="white"/>
<path d="M288.698 10.5531H300.97V12.8376H296.138V25.7154H293.489V12.8376H288.678L288.698 10.5531ZM300.444 14.7379H302.708V16.8606H302.749C302.829 16.5574 302.971 16.2743 303.173 15.9913C303.375 15.7083 303.618 15.4455 303.921 15.2231C304.204 14.9805 304.528 14.7985 304.892 14.657C305.235 14.5155 305.599 14.4346 305.963 14.4346C306.246 14.4346 306.448 14.4549 306.549 14.4549C306.65 14.4751 306.772 14.4953 306.873 14.4953V16.8202C306.711 16.7797 306.529 16.7595 306.347 16.7393C306.165 16.7191 306.003 16.6989 305.821 16.6989C305.417 16.6989 305.033 16.7797 304.669 16.9415C304.305 17.1032 304.002 17.3458 303.719 17.649C303.456 17.9725 303.234 18.3566 303.072 18.8216C302.91 19.2866 302.829 19.8324 302.829 20.4389V25.6547H300.403L300.444 14.7379ZM317.992 25.7154H315.606V24.1789H315.566C315.263 24.745 314.818 25.1696 314.231 25.5132C313.645 25.8569 313.039 26.0186 312.432 26.0186C310.997 26.0186 309.946 25.675 309.299 24.9472C308.652 24.2396 308.328 23.1479 308.328 21.7125V14.7379H310.754V21.47C310.754 22.4403 310.936 23.1277 311.32 23.5118C311.684 23.9161 312.21 24.1183 312.877 24.1183C313.382 24.1183 313.807 24.0374 314.151 23.8757C314.494 23.714 314.777 23.5118 314.98 23.249C315.202 22.9862 315.343 22.6627 315.444 22.2988C315.546 21.9349 315.586 21.5306 315.586 21.1061V14.7379H318.012V25.7154H317.992ZM322.116 22.1977C322.197 22.9053 322.46 23.3905 322.925 23.6938C323.39 23.9768 323.956 24.1183 324.603 24.1183C324.825 24.1183 325.088 24.0981 325.371 24.0576C325.654 24.0172 325.937 23.9566 326.179 23.8555C326.442 23.7544 326.644 23.6129 326.806 23.4107C326.968 23.2086 327.049 22.966 327.028 22.6627C327.008 22.3595 326.907 22.0967 326.685 21.8945C326.462 21.6923 326.2 21.5508 325.876 21.4093C325.553 21.288 325.169 21.1869 324.744 21.1061C324.319 21.0252 323.895 20.9241 323.45 20.823C323.005 20.7219 322.561 20.6006 322.136 20.4591C321.712 20.3176 321.348 20.1357 321.004 19.8729C320.681 19.6303 320.397 19.327 320.216 18.9429C320.013 18.5588 319.912 18.114 319.912 17.548C319.912 16.9415 320.054 16.4563 320.357 16.052C320.64 15.6476 321.024 15.3242 321.469 15.0816C321.914 14.839 322.419 14.657 322.965 14.5559C323.511 14.4549 324.036 14.4144 324.522 14.4144C325.088 14.4144 325.634 14.4751 326.139 14.5964C326.644 14.7177 327.13 14.8996 327.534 15.1827C327.958 15.4455 328.302 15.8094 328.565 16.2339C328.848 16.6584 329.01 17.1841 329.091 17.7906H326.563C326.442 17.2043 326.179 16.8202 325.775 16.618C325.351 16.4159 324.886 16.3148 324.34 16.3148C324.178 16.3148 323.956 16.335 323.733 16.3552C323.491 16.3956 323.288 16.4361 323.066 16.5169C322.864 16.5978 322.682 16.7191 322.54 16.8606C322.399 17.0021 322.318 17.2043 322.318 17.4469C322.318 17.7501 322.419 17.9725 322.621 18.1545C322.823 18.3364 323.086 18.4779 323.43 18.6194C323.753 18.7407 324.138 18.8418 324.562 18.9227C324.987 19.0036 325.431 19.1046 325.876 19.2057C326.321 19.3068 326.745 19.4281 327.17 19.5696C327.595 19.7111 327.979 19.8931 328.302 20.1559C328.626 20.3985 328.909 20.7017 329.111 21.0656C329.313 21.4295 329.414 21.8945 329.414 22.4201C329.414 23.067 329.272 23.6129 328.969 24.0779C328.666 24.5226 328.282 24.9067 327.817 25.1898C327.352 25.4728 326.806 25.675 326.24 25.8165C325.654 25.9378 325.088 26.0186 324.522 26.0186C323.834 26.0186 323.187 25.9378 322.601 25.776C322.015 25.6143 321.489 25.3717 321.065 25.0685C320.64 24.745 320.296 24.3609 320.054 23.8757C319.811 23.4107 319.67 22.8447 319.649 22.1775H322.096V22.1977H322.116ZM330.101 14.7379H331.941V11.4224H334.367V14.7177H336.55V16.5169H334.367V22.3797C334.367 22.6425 334.387 22.8447 334.407 23.0468C334.428 23.2288 334.488 23.3905 334.549 23.5118C334.63 23.6331 334.751 23.7342 334.893 23.7948C335.054 23.8555 335.257 23.8959 335.54 23.8959C335.701 23.8959 335.883 23.8959 336.045 23.8757C336.207 23.8555 336.389 23.8353 336.55 23.7948V25.675C336.288 25.7154 336.025 25.7356 335.762 25.7558C335.499 25.7963 335.257 25.7963 334.974 25.7963C334.327 25.7963 333.821 25.7356 333.437 25.6143C333.053 25.493 332.75 25.3111 332.527 25.0887C332.305 24.8461 332.163 24.5631 332.083 24.2194C332.002 23.8757 331.961 23.4512 331.941 23.0064V16.5371H330.101V14.6975V14.7379ZM338.249 14.7379H340.533V16.2339H340.573C340.917 15.587 341.382 15.1422 341.989 14.8592C342.595 14.5762 343.242 14.4346 343.97 14.4346C344.839 14.4346 345.587 14.5762 346.234 14.8996C346.881 15.2029 347.407 15.6072 347.831 16.153C348.256 16.6787 348.579 17.3054 348.781 18.0129C348.983 18.7205 349.105 19.4887 349.105 20.2772C349.105 21.0252 349.004 21.7328 348.822 22.4201C348.62 23.1075 348.337 23.7342 347.952 24.2598C347.568 24.7854 347.083 25.21 346.477 25.5334C345.87 25.8569 345.183 26.0186 344.374 26.0186C344.03 26.0186 343.667 25.9782 343.323 25.9176C342.979 25.8569 342.636 25.7558 342.312 25.6143C341.989 25.4728 341.685 25.2908 341.423 25.0685C341.14 24.8461 340.917 24.5833 340.735 24.3002H340.695V29.7789H338.269V14.7379H338.249ZM346.719 20.2368C346.719 19.7516 346.659 19.2664 346.517 18.8014C346.396 18.3364 346.194 17.9321 345.931 17.5682C345.668 17.2043 345.345 16.9213 344.981 16.6989C344.597 16.4765 344.152 16.3754 343.667 16.3754C342.656 16.3754 341.888 16.7191 341.362 17.4267C340.856 18.1342 340.594 19.0844 340.594 20.257C340.594 20.823 340.654 21.3284 340.796 21.7934C340.937 22.2584 341.119 22.6627 341.402 23.0064C341.665 23.3501 341.989 23.6129 342.373 23.815C342.757 24.0172 343.181 24.1183 343.687 24.1183C344.253 24.1183 344.698 23.997 345.082 23.7746C345.466 23.5522 345.769 23.249 346.032 22.9053C346.274 22.5414 346.456 22.1371 346.558 21.6721C346.659 21.1869 346.719 20.7219 346.719 20.2368ZM350.985 10.5531H353.411V12.8376H350.985V10.5531ZM350.985 14.7379H353.411V25.7154H350.985V14.7379ZM355.574 10.5531H358V25.7154H355.574V10.5531ZM365.399 26.0186C364.53 26.0186 363.741 25.8771 363.054 25.5739C362.367 25.2706 361.801 24.8865 361.315 24.3811C360.851 23.8757 360.487 23.249 360.244 22.5414C360.001 21.8338 359.86 21.0454 359.86 20.2165C359.86 19.3877 359.981 18.6194 360.244 17.9119C360.487 17.2043 360.851 16.5978 361.315 16.0722C361.78 15.5668 362.367 15.1624 363.054 14.8794C363.741 14.5964 364.53 14.4346 365.399 14.4346C366.268 14.4346 367.057 14.5762 367.744 14.8794C368.432 15.1624 368.998 15.5668 369.483 16.0722C369.948 16.5776 370.312 17.2043 370.554 17.9119C370.797 18.6194 370.938 19.3877 370.938 20.2165C370.938 21.0656 370.817 21.8338 370.554 22.5414C370.292 23.249 369.948 23.8555 369.483 24.3811C369.018 24.8865 368.432 25.2908 367.744 25.5739C367.057 25.8569 366.289 26.0186 365.399 26.0186ZM365.399 24.0981C365.925 24.0981 366.41 23.9768 366.794 23.7544C367.198 23.532 367.502 23.2288 367.765 22.8649C368.027 22.501 368.209 22.0764 368.331 21.6317C368.452 21.1667 368.513 20.7017 368.513 20.2165C368.513 19.7516 368.452 19.2866 368.331 18.8216C368.209 18.3566 368.027 17.9523 367.765 17.5884C367.502 17.2245 367.178 16.9415 366.794 16.7191C366.39 16.4967 365.925 16.3754 365.399 16.3754C364.874 16.3754 364.388 16.4967 364.004 16.7191C363.6 16.9415 363.297 17.2447 363.034 17.5884C362.771 17.9523 362.589 18.3566 362.468 18.8216C362.347 19.2866 362.286 19.7516 362.286 20.2165C362.286 20.7017 362.347 21.1667 362.468 21.6317C362.589 22.0967 362.771 22.501 363.034 22.8649C363.297 23.2288 363.62 23.532 364.004 23.7544C364.409 23.997 364.874 24.0981 365.399 24.0981ZM371.666 14.7379H373.506V11.4224H375.932V14.7177H378.115V16.5169H375.932V22.3797C375.932 22.6425 375.952 22.8447 375.972 23.0468C375.993 23.2288 376.053 23.3905 376.114 23.5118C376.195 23.6331 376.316 23.7342 376.458 23.7948C376.619 23.8555 376.821 23.8959 377.104 23.8959C377.266 23.8959 377.448 23.8959 377.61 23.8757C377.772 23.8555 377.954 23.8353 378.115 23.7948V25.675C377.852 25.7154 377.59 25.7356 377.327 25.7558C377.064 25.7963 376.821 25.7963 376.538 25.7963C375.892 25.7963 375.386 25.7356 375.002 25.6143C374.618 25.493 374.315 25.3111 374.092 25.0887C373.87 24.8461 373.728 24.5631 373.647 24.2194C373.567 23.8757 373.526 23.4512 373.506 23.0064V16.5371H371.666V14.6975V14.7379Z" fill="white"/>
<path d="M285.868 10.553H274.769L271.352 0L267.916 10.553L256.817 10.5327L265.793 17.0626L262.356 27.6156L271.332 21.0857L280.308 27.6156L276.892 17.0626L285.868 10.553Z" fill="#00B67A"/>
<path d="M277.66 19.4483L276.892 17.0627L271.353 21.0858L277.66 19.4483Z" fill="#005128"/>
</svg>
