<svg width="123" height="29" viewBox="0 0 123 29" fill="none" xmlns="http://www.w3.org/2000/svg">
<path d="M32.6982 9H44.9695V11.2844H40.1378V24.1623H37.4895V11.2844H32.678L32.6982 9ZM44.4439 13.1848H46.7082V15.3075H46.7486C46.8295 15.0043 46.971 14.7212 47.1731 14.4382C47.3753 14.1552 47.6179 13.8924 47.9211 13.67C48.2042 13.4274 48.5276 13.2454 48.8915 13.1039C49.2352 12.9624 49.5991 12.8815 49.963 12.8815C50.246 12.8815 50.4482 12.9018 50.5493 12.9018C50.6504 12.922 50.7717 12.9422 50.8727 12.9422V15.2671C50.711 15.2266 50.5291 15.2064 50.3471 15.1862C50.1652 15.166 50.0034 15.1458 49.8215 15.1458C49.4171 15.1458 49.033 15.2266 48.6691 15.3884C48.3053 15.5501 48.002 15.7927 47.719 16.0959C47.4562 16.4194 47.2338 16.8035 47.0721 17.2685C46.9103 17.7335 46.8295 18.2793 46.8295 18.8858V24.1016H44.4035L44.4439 13.1848ZM61.9917 24.1623H59.6062V22.6258H59.5658C59.2625 23.1919 58.8178 23.6165 58.2315 23.9601C57.6452 24.3038 57.0387 24.4655 56.4322 24.4655C54.9969 24.4655 53.9456 24.1219 53.2987 23.3941C52.6518 22.6865 52.3283 21.5948 52.3283 20.1594V13.1848H54.7543V19.9169C54.7543 20.8872 54.9362 21.5746 55.3203 21.9587C55.6842 22.363 56.2099 22.5652 56.877 22.5652C57.3824 22.5652 57.807 22.4843 58.1506 22.3226C58.4943 22.1609 58.7773 21.9587 58.9795 21.6959C59.2019 21.4331 59.3434 21.1096 59.4445 20.7457C59.5456 20.3818 59.586 19.9775 59.586 19.553V13.1848H62.012V24.1623H61.9917ZM66.1159 20.6446C66.1968 21.3522 66.4596 21.8374 66.9245 22.1407C67.3895 22.4237 67.9556 22.5652 68.6025 22.5652C68.8249 22.5652 69.0877 22.545 69.3707 22.5045C69.6538 22.4641 69.9368 22.4035 70.1794 22.3024C70.4422 22.2013 70.6444 22.0598 70.8061 21.8576C70.9678 21.6555 71.0487 21.4129 71.0285 21.1096C71.0083 20.8064 70.9072 20.5436 70.6848 20.3414C70.4624 20.1392 70.1996 19.9977 69.8761 19.8562C69.5527 19.7349 69.1686 19.6338 68.744 19.553C68.3195 19.4721 67.8949 19.371 67.4502 19.2699C67.0054 19.1688 66.5607 19.0475 66.1361 18.906C65.7116 18.7645 65.3477 18.5826 65.004 18.3198C64.6805 18.0772 64.3975 17.7739 64.2156 17.3898C64.0134 17.0057 63.9123 16.5609 63.9123 15.9949C63.9123 15.3884 64.0538 14.9032 64.3571 14.4989C64.6401 14.0945 65.0242 13.7711 65.469 13.5285C65.9137 13.2859 66.4191 13.1039 66.965 13.0028C67.5108 12.9018 68.0364 12.8613 68.5216 12.8613C69.0877 12.8613 69.6335 12.922 70.139 13.0433C70.6444 13.1646 71.1296 13.3465 71.5339 13.6296C71.9584 13.8924 72.3021 14.2563 72.5649 14.6808C72.8479 15.1053 73.0097 15.631 73.0905 16.2375H70.5635C70.4422 15.6512 70.1794 15.2671 69.7751 15.0649C69.3505 14.8628 68.8855 14.7617 68.3397 14.7617C68.178 14.7617 67.9556 14.7819 67.7332 14.8021C67.4906 14.8425 67.2884 14.883 67.0661 14.9638C66.8639 15.0447 66.682 15.166 66.5404 15.3075C66.3989 15.449 66.3181 15.6512 66.3181 15.8938C66.3181 16.197 66.4191 16.4194 66.6213 16.6014C66.8235 16.7833 67.0863 16.9248 67.43 17.0663C67.7534 17.1876 68.1375 17.2887 68.5621 17.3696C68.9866 17.4505 69.4314 17.5515 69.8761 17.6526C70.3209 17.7537 70.7454 17.875 71.17 18.0165C71.5945 18.158 71.9786 18.34 72.3021 18.6028C72.6256 18.8454 72.9086 19.1486 73.1108 19.5125C73.3129 19.8764 73.414 20.3414 73.414 20.867C73.414 21.5139 73.2725 22.0598 72.9692 22.5248C72.666 22.9695 72.2819 23.3536 71.8169 23.6367C71.3519 23.9197 70.8061 24.1219 70.24 24.2634C69.6538 24.3847 69.0877 24.4655 68.5216 24.4655C67.8343 24.4655 67.1874 24.3847 66.6011 24.2229C66.0148 24.0612 65.4892 23.8186 65.0646 23.5154C64.6401 23.1919 64.2964 22.8078 64.0538 22.3226C63.8112 21.8576 63.6697 21.2916 63.6495 20.6244H66.0957V20.6446H66.1159ZM74.1014 13.1848H75.9411V9.8693H78.367V13.1646H80.5504V14.9638H78.367V20.8266C78.367 21.0894 78.3872 21.2916 78.4075 21.4937C78.4277 21.6757 78.4883 21.8374 78.549 21.9587C78.6298 22.08 78.7511 22.1811 78.8927 22.2417C79.0544 22.3024 79.2565 22.3428 79.5396 22.3428C79.7013 22.3428 79.8833 22.3428 80.045 22.3226C80.2067 22.3024 80.3887 22.2822 80.5504 22.2417V24.1219C80.2876 24.1623 80.0248 24.1825 79.762 24.2027C79.4991 24.2432 79.2565 24.2432 78.9735 24.2432C78.3266 24.2432 77.8212 24.1825 77.4371 24.0612C77.053 23.9399 76.7497 23.758 76.5273 23.5356C76.305 23.293 76.1634 23.01 76.0826 22.6663C76.0017 22.3226 75.9613 21.8981 75.9411 21.4533V14.984H74.1014V13.1444V13.1848ZM82.2486 13.1848H84.533V14.6808H84.5735C84.9171 14.0339 85.3821 13.5891 85.9886 13.3061C86.5951 13.0231 87.242 12.8815 87.9698 12.8815C88.8391 12.8815 89.5871 13.0231 90.234 13.3465C90.881 13.6498 91.4066 14.0541 91.8311 14.5999C92.2557 15.1256 92.5791 15.7523 92.7813 16.4598C92.9835 17.1674 93.1048 17.9356 93.1048 18.7241C93.1048 19.4721 93.0037 20.1797 92.8217 20.867C92.6196 21.5544 92.3366 22.1811 91.9524 22.7067C91.5683 23.2323 91.0831 23.6569 90.4766 23.9803C89.8702 24.3038 89.1828 24.4655 88.3741 24.4655C88.0305 24.4655 87.6666 24.4251 87.3229 24.3645C86.9792 24.3038 86.6355 24.2027 86.3121 24.0612C85.9886 23.9197 85.6854 23.7377 85.4225 23.5154C85.1395 23.293 84.9171 23.0302 84.7352 22.7471H84.6948V28.2258H82.2688V13.1848H82.2486ZM90.7192 18.6837C90.7192 18.1985 90.6586 17.7133 90.5171 17.2483C90.3958 16.7833 90.1936 16.379 89.9308 16.0151C89.668 15.6512 89.3445 15.3682 88.9806 15.1458C88.5965 14.9234 88.1518 14.8223 87.6666 14.8223C86.6557 14.8223 85.8875 15.166 85.3619 15.8736C84.8565 16.5811 84.5937 17.5313 84.5937 18.7039C84.5937 19.2699 84.6543 19.7753 84.7958 20.2403C84.9374 20.7053 85.1193 21.1096 85.4023 21.4533C85.6651 21.797 85.9886 22.0598 86.3727 22.2619C86.7568 22.4641 87.1814 22.5652 87.6868 22.5652C88.2528 22.5652 88.6976 22.4439 89.0817 22.2215C89.4658 21.9991 89.7691 21.6959 90.0319 21.3522C90.2745 20.9883 90.4564 20.584 90.5575 20.119C90.6586 19.6338 90.7192 19.1688 90.7192 18.6837V18.6837ZM94.9849 9H97.4109V11.2844H94.9849V9ZM94.9849 13.1848H97.4109V24.1623H94.9849V13.1848ZM99.574 9H102V24.1623H99.574V9ZM109.399 24.4655C108.53 24.4655 107.741 24.324 107.054 24.0208C106.367 23.7175 105.801 23.3334 105.315 22.828C104.851 22.3226 104.487 21.6959 104.244 20.9883C104.001 20.2807 103.86 19.4923 103.86 18.6634C103.86 17.8346 103.981 17.0663 104.244 16.3588C104.487 15.6512 104.851 15.0447 105.315 14.5191C105.78 14.0137 106.367 13.6093 107.054 13.3263C107.741 13.0433 108.53 12.8815 109.399 12.8815C110.268 12.8815 111.057 13.0231 111.744 13.3263C112.432 13.6093 112.998 14.0137 113.483 14.5191C113.948 15.0245 114.312 15.6512 114.554 16.3588C114.797 17.0663 114.938 17.8346 114.938 18.6634C114.938 19.5125 114.817 20.2807 114.554 20.9883C114.292 21.6959 113.948 22.3024 113.483 22.828C113.018 23.3334 112.432 23.7377 111.744 24.0208C111.057 24.3038 110.289 24.4655 109.399 24.4655ZM109.399 22.545C109.925 22.545 110.41 22.4237 110.794 22.2013C111.198 21.9789 111.502 21.6757 111.765 21.3118C112.027 20.9479 112.209 20.5233 112.331 20.0786C112.452 19.6136 112.513 19.1486 112.513 18.6634C112.513 18.1985 112.452 17.7335 112.331 17.2685C112.209 16.8035 112.027 16.3992 111.765 16.0353C111.502 15.6714 111.178 15.3884 110.794 15.166C110.39 14.9436 109.925 14.8223 109.399 14.8223C108.874 14.8223 108.388 14.9436 108.004 15.166C107.6 15.3884 107.297 15.6916 107.034 16.0353C106.771 16.3992 106.589 16.8035 106.468 17.2685C106.347 17.7335 106.286 18.1985 106.286 18.6634C106.286 19.1486 106.347 19.6136 106.468 20.0786C106.589 20.5436 106.771 20.9479 107.034 21.3118C107.297 21.6757 107.62 21.9789 108.004 22.2013C108.409 22.4439 108.874 22.545 109.399 22.545ZM115.666 13.1848H117.506V9.8693H119.932V13.1646H122.115V14.9638H119.932V20.8266C119.932 21.0894 119.952 21.2916 119.972 21.4937C119.993 21.6757 120.053 21.8374 120.114 21.9587C120.195 22.08 120.316 22.1811 120.458 22.2417C120.619 22.3024 120.821 22.3428 121.104 22.3428C121.266 22.3428 121.448 22.3428 121.61 22.3226C121.772 22.3024 121.954 22.2822 122.115 22.2417V24.1219C121.852 24.1623 121.59 24.1825 121.327 24.2027C121.064 24.2432 120.821 24.2432 120.538 24.2432C119.892 24.2432 119.386 24.1825 119.002 24.0612C118.618 23.9399 118.315 23.758 118.092 23.5356C117.87 23.293 117.728 23.01 117.647 22.6663C117.567 22.3226 117.526 21.8981 117.506 21.4533V14.984H115.666V13.1444V13.1848Z" fill="white"/>
<path d="M29.8679 10.553H18.7691L15.3525 0L11.9157 10.553L0.816895 10.5327L9.79297 17.0626L6.35619 27.6156L15.3323 21.0857L24.3083 27.6156L20.8918 17.0626L29.8679 10.553Z" fill="#00B67A"/>
<path d="M21.6601 18.4483L20.8918 16.0627L15.3525 20.0858L21.6601 18.4483Z" fill="#005128"/>
</svg>
