<svg width="123" height="30" viewBox="0 0 123 30" fill="none" xmlns="http://www.w3.org/2000/svg">
<path d="M32.6982 10.5531H44.9695V12.8376H40.1378V25.7154H37.4895V12.8376H32.678L32.6982 10.5531ZM44.4439 14.7379H46.7082V16.8606H46.7486C46.8295 16.5574 46.971 16.2743 47.1731 15.9913C47.3753 15.7083 47.6179 15.4455 47.9211 15.2231C48.2042 14.9805 48.5276 14.7985 48.8915 14.657C49.2352 14.5155 49.5991 14.4346 49.963 14.4346C50.246 14.4346 50.4482 14.4549 50.5493 14.4549C50.6504 14.4751 50.7717 14.4953 50.8727 14.4953V16.8202C50.711 16.7797 50.5291 16.7595 50.3471 16.7393C50.1652 16.7191 50.0034 16.6989 49.8215 16.6989C49.4172 16.6989 49.033 16.7797 48.6691 16.9415C48.3053 17.1032 48.002 17.3458 47.719 17.649C47.4562 17.9725 47.2338 18.3566 47.0721 18.8216C46.9103 19.2866 46.8295 19.8324 46.8295 20.4389V25.6547H44.4035L44.4439 14.7379ZM61.9917 25.7154H59.6062V24.1789H59.5658C59.2625 24.745 58.8178 25.1696 58.2315 25.5132C57.6452 25.8569 57.0387 26.0186 56.4322 26.0186C54.9969 26.0186 53.9456 25.675 53.2987 24.9472C52.6518 24.2396 52.3283 23.1479 52.3283 21.7125V14.7379H54.7543V21.47C54.7543 22.4403 54.9362 23.1277 55.3203 23.5118C55.6842 23.9161 56.2099 24.1183 56.877 24.1183C57.3824 24.1183 57.807 24.0374 58.1506 23.8757C58.4943 23.714 58.7773 23.5118 58.9795 23.249C59.2019 22.9862 59.3434 22.6627 59.4445 22.2988C59.5456 21.9349 59.586 21.5306 59.586 21.1061V14.7379H62.012V25.7154H61.9917ZM66.1159 22.1977C66.1968 22.9053 66.4596 23.3905 66.9245 23.6938C67.3895 23.9768 67.9556 24.1183 68.6025 24.1183C68.8249 24.1183 69.0877 24.0981 69.3707 24.0576C69.6538 24.0172 69.9368 23.9566 70.1794 23.8555C70.4422 23.7544 70.6444 23.6129 70.8061 23.4107C70.9678 23.2086 71.0487 22.966 71.0285 22.6627C71.0083 22.3595 70.9072 22.0967 70.6848 21.8945C70.4624 21.6923 70.1996 21.5508 69.8761 21.4093C69.5527 21.288 69.1686 21.1869 68.744 21.1061C68.3195 21.0252 67.8949 20.9241 67.4502 20.823C67.0054 20.7219 66.5607 20.6006 66.1361 20.4591C65.7116 20.3176 65.3477 20.1357 65.004 19.8729C64.6805 19.6303 64.3975 19.327 64.2156 18.9429C64.0134 18.5588 63.9123 18.114 63.9123 17.548C63.9123 16.9415 64.0538 16.4563 64.3571 16.052C64.6401 15.6476 65.0242 15.3242 65.469 15.0816C65.9137 14.839 66.4191 14.657 66.965 14.5559C67.5108 14.4549 68.0364 14.4144 68.5216 14.4144C69.0877 14.4144 69.6335 14.4751 70.139 14.5964C70.6444 14.7177 71.1296 14.8996 71.5339 15.1827C71.9584 15.4455 72.3021 15.8094 72.5649 16.2339C72.8479 16.6584 73.0097 17.1841 73.0905 17.7906H70.5635C70.4422 17.2043 70.1794 16.8202 69.7751 16.618C69.3505 16.4159 68.8855 16.3148 68.3397 16.3148C68.178 16.3148 67.9556 16.335 67.7332 16.3552C67.4906 16.3956 67.2884 16.4361 67.0661 16.5169C66.8639 16.5978 66.682 16.7191 66.5404 16.8606C66.3989 17.0021 66.3181 17.2043 66.3181 17.4469C66.3181 17.7501 66.4191 17.9725 66.6213 18.1545C66.8235 18.3364 67.0863 18.4779 67.43 18.6194C67.7534 18.7407 68.1375 18.8418 68.5621 18.9227C68.9866 19.0036 69.4314 19.1046 69.8761 19.2057C70.3209 19.3068 70.7454 19.4281 71.17 19.5696C71.5945 19.7111 71.9786 19.8931 72.3021 20.1559C72.6256 20.3985 72.9086 20.7017 73.1108 21.0656C73.3129 21.4295 73.414 21.8945 73.414 22.4201C73.414 23.067 73.2725 23.6129 72.9692 24.0779C72.666 24.5226 72.2819 24.9067 71.8169 25.1898C71.3519 25.4728 70.8061 25.675 70.24 25.8165C69.6538 25.9378 69.0877 26.0186 68.5216 26.0186C67.8343 26.0186 67.1874 25.9378 66.6011 25.776C66.0148 25.6143 65.4892 25.3717 65.0646 25.0685C64.6401 24.745 64.2964 24.3609 64.0538 23.8757C63.8112 23.4107 63.6697 22.8447 63.6495 22.1775H66.0957V22.1977H66.1159ZM74.1014 14.7379H75.9411V11.4224H78.367V14.7177H80.5504V16.5169H78.367V22.3797C78.367 22.6425 78.3872 22.8447 78.4075 23.0468C78.4277 23.2288 78.4883 23.3905 78.549 23.5118C78.6298 23.6331 78.7511 23.7342 78.8927 23.7948C79.0544 23.8555 79.2565 23.8959 79.5396 23.8959C79.7013 23.8959 79.8833 23.8959 80.045 23.8757C80.2067 23.8555 80.3887 23.8353 80.5504 23.7948V25.675C80.2876 25.7154 80.0248 25.7356 79.762 25.7558C79.4991 25.7963 79.2565 25.7963 78.9735 25.7963C78.3266 25.7963 77.8212 25.7356 77.4371 25.6143C77.053 25.493 76.7497 25.3111 76.5273 25.0887C76.305 24.8461 76.1634 24.5631 76.0826 24.2194C76.0017 23.8757 75.9613 23.4512 75.9411 23.0064V16.5371H74.1014V14.6975V14.7379ZM82.2486 14.7379H84.533V16.2339H84.5735C84.9171 15.587 85.3821 15.1422 85.9886 14.8592C86.5951 14.5762 87.242 14.4346 87.9698 14.4346C88.8391 14.4346 89.5871 14.5762 90.234 14.8996C90.881 15.2029 91.4066 15.6072 91.8311 16.153C92.2557 16.6787 92.5792 17.3054 92.7813 18.0129C92.9835 18.7205 93.1048 19.4887 93.1048 20.2772C93.1048 21.0252 93.0037 21.7328 92.8218 22.4201C92.6196 23.1075 92.3366 23.7342 91.9524 24.2598C91.5683 24.7854 91.0831 25.21 90.4766 25.5334C89.8702 25.8569 89.1828 26.0186 88.3741 26.0186C88.0305 26.0186 87.6666 25.9782 87.3229 25.9176C86.9792 25.8569 86.6355 25.7558 86.3121 25.6143C85.9886 25.4728 85.6854 25.2908 85.4225 25.0685C85.1395 24.8461 84.9171 24.5833 84.7352 24.3002H84.6948V29.7789H82.2688V14.7379H82.2486ZM90.7192 20.2368C90.7192 19.7516 90.6586 19.2664 90.5171 18.8014C90.3958 18.3364 90.1936 17.9321 89.9308 17.5682C89.668 17.2043 89.3445 16.9213 88.9806 16.6989C88.5965 16.4765 88.1518 16.3754 87.6666 16.3754C86.6558 16.3754 85.8875 16.7191 85.3619 17.4267C84.8565 18.1342 84.5937 19.0844 84.5937 20.257C84.5937 20.823 84.6543 21.3284 84.7958 21.7934C84.9374 22.2584 85.1193 22.6627 85.4023 23.0064C85.6651 23.3501 85.9886 23.6129 86.3727 23.815C86.7568 24.0172 87.1814 24.1183 87.6868 24.1183C88.2528 24.1183 88.6976 23.997 89.0817 23.7746C89.4658 23.5522 89.7691 23.249 90.0319 22.9053C90.2745 22.5414 90.4564 22.1371 90.5575 21.6721C90.6586 21.1869 90.7192 20.7219 90.7192 20.2368ZM94.9849 10.5531H97.4109V12.8376H94.9849V10.5531ZM94.9849 14.7379H97.4109V25.7154H94.9849V14.7379ZM99.574 10.5531H102V25.7154H99.574V10.5531ZM109.399 26.0186C108.53 26.0186 107.741 25.8771 107.054 25.5739C106.367 25.2706 105.801 24.8865 105.315 24.3811C104.851 23.8757 104.487 23.249 104.244 22.5414C104.001 21.8338 103.86 21.0454 103.86 20.2165C103.86 19.3877 103.981 18.6194 104.244 17.9119C104.487 17.2043 104.851 16.5978 105.315 16.0722C105.78 15.5668 106.367 15.1624 107.054 14.8794C107.741 14.5964 108.53 14.4346 109.399 14.4346C110.268 14.4346 111.057 14.5762 111.744 14.8794C112.432 15.1624 112.998 15.5668 113.483 16.0722C113.948 16.5776 114.312 17.2043 114.554 17.9119C114.797 18.6194 114.938 19.3877 114.938 20.2165C114.938 21.0656 114.817 21.8338 114.554 22.5414C114.292 23.249 113.948 23.8555 113.483 24.3811C113.018 24.8865 112.432 25.2908 111.744 25.5739C111.057 25.8569 110.289 26.0186 109.399 26.0186ZM109.399 24.0981C109.925 24.0981 110.41 23.9768 110.794 23.7544C111.198 23.532 111.502 23.2288 111.765 22.8649C112.027 22.501 112.209 22.0764 112.331 21.6317C112.452 21.1667 112.513 20.7017 112.513 20.2165C112.513 19.7516 112.452 19.2866 112.331 18.8216C112.209 18.3566 112.027 17.9523 111.765 17.5884C111.502 17.2245 111.178 16.9415 110.794 16.7191C110.39 16.4967 109.925 16.3754 109.399 16.3754C108.874 16.3754 108.388 16.4967 108.004 16.7191C107.6 16.9415 107.297 17.2447 107.034 17.5884C106.771 17.9523 106.589 18.3566 106.468 18.8216C106.347 19.2866 106.286 19.7516 106.286 20.2165C106.286 20.7017 106.347 21.1667 106.468 21.6317C106.589 22.0967 106.771 22.501 107.034 22.8649C107.297 23.2288 107.62 23.532 108.004 23.7544C108.409 23.997 108.874 24.0981 109.399 24.0981ZM115.666 14.7379H117.506V11.4224H119.932V14.7177H122.115V16.5169H119.932V22.3797C119.932 22.6425 119.952 22.8447 119.972 23.0468C119.993 23.2288 120.053 23.3905 120.114 23.5118C120.195 23.6331 120.316 23.7342 120.458 23.7948C120.619 23.8555 120.821 23.8959 121.104 23.8959C121.266 23.8959 121.448 23.8959 121.61 23.8757C121.772 23.8555 121.954 23.8353 122.115 23.7948V25.675C121.852 25.7154 121.59 25.7356 121.327 25.7558C121.064 25.7963 120.821 25.7963 120.538 25.7963C119.892 25.7963 119.386 25.7356 119.002 25.6143C118.618 25.493 118.315 25.3111 118.092 25.0887C117.87 24.8461 117.728 24.5631 117.647 24.2194C117.567 23.8757 117.526 23.4512 117.506 23.0064V16.5371H115.666V14.6975V14.7379Z" fill="black"/>
<path d="M29.8679 10.553H18.7691L15.3525 0L11.9157 10.553L0.816895 10.5327L9.79297 17.0626L6.35619 27.6156L15.3323 21.0857L24.3083 27.6156L20.8918 17.0626L29.8679 10.553Z" fill="#00B67A"/>
<path d="M21.6601 19.4483L20.8918 17.0627L15.3525 21.0858L21.6601 19.4483Z" fill="#005128"/>
</svg>
