<svg xmlns="http://www.w3.org/2000/svg" width="274" height="158" fill="none" xmlns:v="https://vecta.io/nano"><style><![CDATA[.B{fill:#8cc94a}.C{fill-rule:evenodd}]]></style><path fill="#dcdce6" d="M223.313 61.273H274v50.646h-50.687z"/><path d="M223.313 61.273h25.343v50.646h-25.343z" class="B"/><path d="M252.739 82.315h13.648l-11.038 7.999 4.202 12.968-11.039-8.024-11.04 8.024 4.227-12.968-11.039-8.024 13.65.025 4.227-12.968 4.202 12.968zm2.61 8l.946 2.931-7.758 2.012 6.812-4.944z" fill="#fff" class="C"/><path d="M167.486 61.273h50.687v50.646h-50.687z" class="B"/><path d="M196.91 82.315h13.65l-11.038 7.999 4.202 12.968-11.04-8.024-11.039 8.024 4.227-12.968-11.039-8.024 13.65.025 4.227-12.968 4.2 12.968zm2.612 8l.945 2.931-7.757 2.012 6.812-4.944z" fill="#fff" class="C"/><path d="M111.657 61.273h50.687v50.646h-50.687z" class="B"/><path d="M141.08 82.315h13.65l-11.039 7.999v.001l-6.812 4.944 7.756-2.012-.925-2.872 4.182 12.908-11.038-8.024-11.04 8.024 4.227-12.968-11.039-8.024 13.65.025 4.226-12.968 4.202 12.968z" fill="#fff" class="C"/><path d="M55.827 61.273h50.687v50.646H55.827z" class="B"/><path d="M85.251 82.315h13.65l-11.039 7.999 4.202 12.968-11.039-8.024-11.039 8.024 4.227-12.968-11.039-8.024 13.65.025 4.227-12.968 4.202 12.968zm2.61 8l.945 2.932-7.757 2.012 6.813-4.944z" fill="#fff" class="C"/><path d="M0 61.273h50.687v50.646H0z" class="B"/><g class="C"><path d="M29.424 82.315h13.65l-11.039 7.999 4.202 12.968-11.039-8.024-11.039 8.024 4.227-12.968L7.346 82.29l13.65.025 4.227-12.968 4.202 12.968zm2.61 8l.945 2.932-7.757 2.012 6.812-4.944z" fill="#fff"/><path d="M47.06 15.565h18.114v3.369h-7.132v18.994h-3.909V18.934H47.03l.03-3.369zm17.339 6.172h3.342v3.131h.06c.119-.447.328-.865.627-1.282a4.96 4.96 0 0 1 1.104-1.133c.418-.358.895-.626 1.432-.835.507-.209 1.044-.328 1.582-.328l.637.02h0l.229.009c.149.03.328.06.477.06v3.429c-.239-.06-.507-.089-.776-.119l-.073-.008-.703-.051c-.597 0-1.164.119-1.701.358s-.985.596-1.403 1.044c-.388.477-.716 1.044-.955 1.729s-.358 1.491-.358 2.385v7.693h-3.581l.06-16.101zm22.38 16.191H90.3h.03V21.737h-3.581v9.392c0 .626-.06 1.223-.209 1.759s-.358 1.014-.686 1.401c-.298.388-.716.686-1.224.924s-1.134.358-1.88.358c-.985 0-1.761-.298-2.298-.895-.567-.566-.836-1.58-.836-3.012v-9.929h-3.581v10.287c0 2.117.477 3.727 1.432 4.771.955 1.073 2.507 1.58 4.625 1.58.895 0 1.791-.239 2.656-.745s1.522-1.133 1.969-1.968h.06v2.266zm9.61-5.188c.119 1.044.507 1.759 1.194 2.206.686.417 1.522.626 2.477.626.329 0 .716-.03 1.134-.09s.836-.149 1.194-.298a2.1 2.1 0 0 0 .925-.656c.239-.298.358-.656.328-1.103s-.179-.835-.507-1.133-.716-.507-1.194-.716c-.477-.179-1.044-.328-1.671-.447l-1.545-.334h0 0l-.364-.083-1.94-.537a5.56 5.56 0 0 1-1.671-.865c-.477-.358-.895-.805-1.164-1.372-.298-.567-.448-1.223-.448-2.057 0-.894.209-1.61.657-2.206.418-.596.985-1.073 1.641-1.431s1.403-.626 2.208-.775a12.65 12.65 0 0 1 2.298-.209c.835 0 1.641.089 2.387.268s1.462.447 2.059.865c.627.388 1.134.924 1.522 1.55.418.626.657 1.401.776 2.296h-3.73c-.179-.865-.567-1.431-1.164-1.729-.627-.298-1.313-.447-2.119-.447-.239 0-.567.03-.895.06a5.28 5.28 0 0 0-.985.239c-.298.119-.567.298-.776.507s-.328.507-.328.865c0 .447.149.775.448 1.044s.686.477 1.194.686c.477.179 1.044.328 1.671.447l1.939.417c.657.149 1.283.328 1.91.537s1.194.477 1.671.865c.478.358.896.805 1.194 1.342s.448 1.222.448 1.998c0 .954-.209 1.759-.657 2.445-.448.656-1.015 1.223-1.701 1.64s-1.492.716-2.328.924c-.865.179-1.701.298-2.536.298-1.015 0-1.97-.119-2.835-.358s-1.641-.596-2.268-1.044c-.627-.477-1.134-1.044-1.492-1.759-.358-.686-.567-1.521-.597-2.505h3.611v.03h.03zm14.502-11.003h-2.715v2.654h2.715v9.542c.03.656.09 1.282.209 1.789a2.78 2.78 0 0 0 .657 1.282c.328.328.776.596 1.343.775s1.313.268 2.268.268c.417 0 .776 0 1.163-.06h.001l1.163-.119v-2.773c-.215.054-.454.083-.674.11l-.072.009c-.238.03-.507.03-.746.03-.418 0-.716-.06-.955-.149-.209-.09-.388-.239-.507-.417-.09-.179-.179-.417-.209-.686h0l-.06-.984v-8.647h3.223v-2.654h-3.223v-4.86h-3.581v4.89zm9.341 0h3.342v2.207h.06c.507-.954 1.194-1.61 2.089-2.028s1.85-.626 2.924-.626c1.284 0 2.388.209 3.343.686.955.447 1.73 1.044 2.357 1.849.627.775 1.104 1.7 1.403 2.743a12.22 12.22 0 0 1 .477 3.34 12.22 12.22 0 0 1-.418 3.161c-.298 1.014-.716 1.938-1.283 2.713s-1.283 1.401-2.178 1.879-1.91.716-3.104.716c-.507 0-1.044-.06-1.552-.149s-1.014-.239-1.492-.447-.925-.477-1.313-.805c-.417-.328-.746-.716-1.014-1.133h-.06v8.081h-3.581V21.737zm12.176 5.994c.209.686.298 1.401.298 2.117s-.089 1.401-.239 2.117c-.149.686-.417 1.282-.776 1.819-.387.507-.835.954-1.402 1.282s-1.224.507-2.059.507c-.746 0-1.373-.149-1.94-.447s-1.044-.686-1.432-1.193c-.418-.507-.687-1.103-.896-1.789s-.298-1.431-.298-2.266c0-1.729.388-3.131 1.134-4.174.776-1.044 1.91-1.55 3.402-1.55.716 0 1.373.149 1.94.477.537.328 1.014.745 1.402 1.282s.687 1.133.866 1.819zm6.594-12.166h3.581v3.369h-3.581v-3.369zm3.581 6.172h-3.581v16.191h3.581V21.737zm3.193-6.172h3.581v22.363h-3.581V15.565zm11.042 22.154c1.014.447 2.178.656 3.461.656 1.313 0 2.447-.239 3.462-.656s1.88-1.014 2.566-1.759c.687-.775 1.194-1.67 1.582-2.713s.567-2.177.567-3.429c0-1.223-.209-2.356-.567-3.399s-.895-1.968-1.582-2.713a7.43 7.43 0 0 0-2.566-1.759c-1.015-.447-2.179-.656-3.462-.656s-2.447.239-3.461.656-1.88 1.014-2.567 1.759a7.93 7.93 0 0 0-1.581 2.713c-.388 1.044-.567 2.177-.567 3.399s.208 2.385.567 3.429.895 1.968 1.581 2.713c.716.745 1.552 1.312 2.567 1.759zm3.461-2.177c.776 0 1.492-.179 2.059-.507.597-.328 1.045-.775 1.433-1.312s.656-1.163.835-1.819c.179-.686.269-1.372.269-2.087a8.12 8.12 0 0 0-.269-2.057c-.179-.686-.447-1.282-.835-1.819s-.866-.954-1.433-1.282c-.597-.328-1.283-.507-2.059-.507s-1.492.179-2.059.507c-.597.328-1.044.775-1.432 1.282-.388.537-.657 1.133-.836 1.819s-.268 1.372-.268 2.057c0 .716.089 1.401.268 2.087s.448 1.282.836 1.819.865.984 1.432 1.312c.597.358 1.283.507 2.059.507zm11.967-13.805h-2.716v2.654h2.716v9.542c.03.656.089 1.282.209 1.789s.328.924.656 1.282c.329.328.776.596 1.343.775s1.313.268 2.268.268c.418 0 .776 0 1.164-.06h0l1.164-.119v-2.773c-.215.054-.455.083-.675.11l-.071.009c-.239.03-.508.03-.746.03-.418 0-.717-.06-.955-.149a1.17 1.17 0 0 1-.508-.417 2.06 2.06 0 0 1-.208-.686h0l-.06-.984v-8.647h3.223v-2.654h-3.223v-4.86h-3.581v4.89z" fill="#000"/></g><path d="M42.883 15.565H26.499L21.456 0l-5.073 15.565L0 15.535l13.25 9.631-5.073 15.565 13.25-9.631 13.25 9.631-5.043-15.565 13.25-9.601z" fill="#00b67a"/><path d="M30.767 28.684l-1.134-3.518-8.177 5.934 9.311-2.415z" fill="#005128"/><path d="M1.62 154v-11.636h4.068c.811 0 1.479.14 2.006.42s.919.65 1.176 1.119.386.983.386 1.552c0 .5-.089.912-.267 1.238s-.405.584-.693.773-.593.329-.926.42V148c.356.023.714.148 1.074.375s.661.553.903.977.364.943.364 1.557c0 .583-.133 1.108-.398 1.574s-.684.835-1.256 1.108-1.316.409-2.233.409H1.62zm1.409-1.25h2.795c.92 0 1.574-.178 1.96-.534s.585-.796.585-1.307c0-.394-.1-.757-.301-1.091s-.487-.606-.858-.807-.811-.306-1.318-.306H3.029v4.045zm0-5.273h2.614c.424 0 .807-.083 1.148-.25a2 2 0 0 0 .818-.704c.205-.303.307-.659.307-1.068a1.77 1.77 0 0 0-.534-1.302c-.356-.359-.92-.539-1.693-.539H3.029v3.863zm11.383 6.728c-.553 0-1.055-.105-1.506-.313a2.58 2.58 0 0 1-1.074-.915c-.265-.401-.398-.886-.398-1.454 0-.5.098-.906.295-1.216a2.08 2.08 0 0 1 .79-.739c.329-.178.693-.31 1.091-.398l1.21-.215 1.29-.154c.333-.038.576-.1.727-.187s.233-.239.233-.455v-.045c0-.561-.153-.997-.46-1.307s-.763-.466-1.381-.466c-.64 0-1.142.14-1.506.42s-.619.58-.767.898l-1.273-.454c.227-.531.53-.944.909-1.239s.799-.508 1.25-.625a5.2 5.2 0 0 1 1.341-.182c.28 0 .602.034.966.102s.722.199 1.063.404.631.513.858.926.341.966.341 1.659V154h-1.341v-1.182h-.068c-.091.19-.242.392-.455.608s-.494.4-.847.551-.782.228-1.29.228zm.205-1.205c.53 0 .977-.104 1.341-.312s.644-.478.83-.807.284-.676.284-1.04v-1.227c-.057.068-.182.13-.375.187s-.409.101-.659.142l-.722.102-.562.069a5.11 5.11 0 0 0-.977.221c-.299.099-.542.248-.727.449s-.273.466-.273.807c0 .466.172.818.517 1.057s.79.352 1.324.352zm12.425-5.773l-1.204.341c-.076-.201-.187-.396-.335-.585s-.341-.352-.591-.477-.57-.188-.96-.188c-.534 0-.979.123-1.335.37s-.528.551-.528.926c0 .333.121.596.364.789s.621.355 1.136.483l1.295.319c.78.189 1.362.479 1.744.869s.574.884.574 1.494c0 .5-.144.947-.432 1.341s-.682.705-1.193.932-1.106.341-1.784.341c-.89 0-1.627-.193-2.21-.58s-.953-.95-1.108-1.693l1.273-.318c.121.47.35.822.688 1.057s.786.352 1.335.352c.625 0 1.121-.133 1.489-.398s.557-.591.557-.966c0-.303-.106-.556-.318-.761s-.538-.364-.977-.466l-1.455-.341c-.799-.189-1.386-.483-1.761-.88s-.557-.904-.557-1.506c0-.493.138-.928.415-1.307s.661-.676 1.142-.892 1.034-.324 1.648-.324c.864 0 1.542.189 2.034.568s.849.879 1.057 1.5zm5.837 6.955c-.841 0-1.566-.186-2.176-.557a3.74 3.74 0 0 1-1.403-1.568c-.326-.674-.489-1.459-.489-2.352s.163-1.682.489-2.364.788-1.22 1.375-1.602 1.28-.58 2.068-.58a4.15 4.15 0 0 1 1.347.227c.443.152.847.398 1.21.739s.653.784.869 1.341.324 1.242.324 2.057v.568h-6.727v-1.159h5.364c0-.493-.099-.932-.295-1.318a2.22 2.22 0 0 0-.83-.915c-.356-.224-.777-.335-1.261-.335-.534 0-.996.132-1.386.397s-.684.603-.892 1.023-.312.871-.312 1.352v.773c0 .659.114 1.218.341 1.676s.551.801.96 1.04.884.352 1.426.352c.352 0 .67-.049.955-.147a2.05 2.05 0 0 0 .744-.455 2.07 2.07 0 0 0 .483-.761l1.295.363c-.136.44-.366.826-.687 1.159a3.35 3.35 0 0 1-1.193.773 4.42 4.42 0 0 1-1.596.273zm8.949 0c-.727 0-1.369-.184-1.926-.551-.557-.372-.992-.894-1.307-1.569s-.472-1.479-.472-2.403c0-.917.157-1.712.472-2.386s.752-1.195 1.313-1.563 1.208-.551 1.943-.551c.568 0 1.017.095 1.347.284s.587.398.761.637l.415.579h.114v-4.295h1.341V154h-1.295v-1.341h-.159a8.54 8.54 0 0 1-.421.602c-.182.239-.441.453-.778.642s-.786.279-1.347.279zm.182-1.205c.538 0 .992-.14 1.364-.42s.653-.676.847-1.176.29-1.086.29-1.745c0-.651-.095-1.221-.284-1.71s-.47-.875-.841-1.148-.83-.414-1.375-.414c-.568 0-1.042.145-1.42.437a2.62 2.62 0 0 0-.847 1.176 4.68 4.68 0 0 0-.278 1.659c0 .622.095 1.186.284 1.694.193.503.477.905.852 1.204s.849.443 1.409.443zm14.506 1.205c-.788 0-1.479-.188-2.074-.563s-1.053-.899-1.386-1.574-.494-1.462-.494-2.363c0-.909.165-1.703.494-2.381s.795-1.204 1.386-1.579 1.286-.563 2.074-.563 1.477.188 2.068.563 1.057.901 1.386 1.579.5 1.472.5 2.381c0 .901-.167 1.689-.5 2.363s-.792 1.199-1.386 1.574-1.28.563-2.068.563zm0-1.205c.599 0 1.091-.153 1.477-.46s.672-.71.858-1.21.279-1.042.279-1.625a4.68 4.68 0 0 0-.279-1.631c-.186-.504-.471-.911-.858-1.221s-.879-.466-1.477-.466-1.091.155-1.477.466-.672.717-.858 1.221a4.68 4.68 0 0 0-.278 1.631c0 .583.093 1.125.278 1.625s.472.903.858 1.21.879.46 1.477.46zm7.342-4.227V154h-1.341v-8.727h1.295v1.363h.114c.205-.443.515-.799.932-1.068s.955-.409 1.614-.409c.591 0 1.108.121 1.551.364s.788.602 1.034 1.091.369 1.098.369 1.841V154h-1.341v-5.455c0-.685-.178-1.219-.534-1.602s-.845-.579-1.466-.579c-.428 0-.811.092-1.148.278a1.99 1.99 0 0 0-.79.813c-.193.356-.29.787-.29 1.295z" fill="#5b5863"/><path d="M80.444 142.364V154h-1.409v-10.159h-.068l-2.841 1.886v-1.432l2.909-1.931h1.409zm7.074 11.795c-.78 0-1.47-.138-2.068-.415s-1.059-.664-1.392-1.153a2.89 2.89 0 0 1-.494-1.682c-.004-.492.093-.947.29-1.364a2.98 2.98 0 0 1 .807-1.051c.345-.284.729-.464 1.153-.539v-.069a2.24 2.24 0 0 1-1.329-.937 2.84 2.84 0 0 1-.489-1.654 2.81 2.81 0 0 1 .449-1.585 3.16 3.16 0 0 1 1.25-1.102c.534-.269 1.142-.403 1.824-.403.674 0 1.277.134 1.807.403a3.16 3.16 0 0 1 1.25 1.102c.307.466.462.995.466 1.585-.004.618-.172 1.169-.506 1.654a2.24 2.24 0 0 1-1.312.937v.069a2.39 2.39 0 0 1 1.136.539 3.07 3.07 0 0 1 .807 1.051 3.16 3.16 0 0 1 .307 1.364 2.94 2.94 0 0 1-.511 1.682c-.333.489-.797.873-1.392 1.153s-1.275.415-2.051.415zm0-1.25c.527 0 .981-.085 1.364-.256a2.03 2.03 0 0 0 .886-.721c.208-.311.314-.674.318-1.091-.004-.439-.117-.828-.341-1.165a2.31 2.31 0 0 0-.915-.795c-.383-.194-.82-.29-1.312-.29s-.939.096-1.33.29a2.31 2.31 0 0 0-.915.795c-.22.337-.328.726-.324 1.165-.004.417.097.78.301 1.091s.506.551.892.721.845.256 1.375.256zm0-5.523c.417 0 .786-.083 1.108-.25a1.93 1.93 0 0 0 .767-.698c.186-.299.28-.65.284-1.052-.004-.394-.097-.736-.278-1.028s-.434-.523-.756-.682-.697-.244-1.125-.244c-.436 0-.816.081-1.142.244a1.76 1.76 0 0 0-.756.682c-.178.292-.265.634-.261 1.028-.004.402.085.752.267 1.052s.441.532.767.698.701.25 1.125.25zm9.768 6.773c-.667 0-1.267-.132-1.801-.398s-.962-.628-1.284-1.091a2.97 2.97 0 0 1-.528-1.579h1.364a1.87 1.87 0 0 0 .716 1.307c.428.341.939.511 1.534.511.477 0 .902-.112 1.273-.335s.669-.53.881-.921.324-.839.324-1.335c0-.507-.112-.96-.335-1.358a2.51 2.51 0 0 0-.909-.949c-.386-.231-.828-.348-1.324-.352a3.62 3.62 0 0 0-1.097.165c-.375.11-.684.252-.926.426l-1.318-.159.704-5.727h6.045v1.25h-4.863l-.409 3.431h.068c.239-.189.538-.346.898-.471s.735-.188 1.125-.188c.712 0 1.347.171 1.903.512a3.63 3.63 0 0 1 1.318 1.386c.318.587.483 1.258.483 2.011 0 .743-.167 1.406-.5 1.989a3.65 3.65 0 0 1-1.364 1.375c-.58.337-1.239.5-1.977.5zm10.621-.159v-8.727h1.295v1.318h.091c.159-.432.447-.782.864-1.051s.886-.404 1.409-.404l.369.006.336.017v1.364c-.046-.012-.15-.029-.313-.051s-.328-.04-.506-.04c-.424 0-.803.089-1.136.267a2.02 2.02 0 0 0-.784.727c-.189.307-.284.657-.284 1.051V154h-1.341zm9.347.182c-.841 0-1.567-.186-2.177-.557s-1.073-.898-1.403-1.568-.489-1.459-.489-2.352.163-1.682.489-2.364.788-1.22 1.375-1.602 1.28-.58 2.068-.58a4.15 4.15 0 0 1 1.347.227c.443.152.846.398 1.21.739s.653.784.869 1.341.324 1.242.324 2.057v.568h-6.727v-1.159h5.364c0-.493-.099-.932-.296-1.318s-.47-.692-.829-.915-.777-.335-1.262-.335c-.534 0-.996.132-1.386.397s-.684.603-.892 1.023-.313.871-.313 1.352v.773c0 .659.114 1.218.341 1.676s.551.801.96 1.04.885.352 1.427.352c.352 0 .67-.049.954-.147.288-.103.536-.254.744-.455a2.05 2.05 0 0 0 .483-.761l1.296.363c-.137.44-.366.826-.688 1.159s-.719.587-1.193.773-1.006.273-1.596.273zm12.524-8.909L126.55 154h-1.363l-3.227-8.727h1.454l2.409 6.954h.091l2.409-6.954h1.455zm1.77 8.727v-8.727h1.34V154h-1.34zm.681-10.182c-.261 0-.486-.089-.676-.267a.86.86 0 0 1-.278-.642.86.86 0 0 1 .278-.642c.19-.178.415-.267.676-.267s.485.089.671.267a.85.85 0 0 1 .284.642.85.85 0 0 1-.284.642c-.186.178-.409.267-.671.267zm6.775 10.364c-.841 0-1.567-.186-2.177-.557s-1.073-.898-1.403-1.568-.489-1.459-.489-2.352.163-1.682.489-2.364.788-1.22 1.375-1.602 1.28-.58 2.068-.58a4.15 4.15 0 0 1 1.347.227c.443.152.846.398 1.21.739s.653.784.869 1.341.324 1.242.324 2.057v.568h-6.727v-1.159h5.364c0-.493-.099-.932-.296-1.318s-.47-.692-.829-.915-.777-.335-1.262-.335c-.534 0-.996.132-1.386.397s-.684.603-.892 1.023-.313.871-.313 1.352v.773c0 .659.114 1.218.341 1.676s.551.801.96 1.04.885.352 1.427.352c.352 0 .67-.049.954-.147.288-.103.536-.254.744-.455a2.05 2.05 0 0 0 .483-.761l1.296.363c-.137.44-.366.826-.688 1.159s-.719.587-1.193.773-1.006.273-1.596.273zm7.63-.182l-2.659-8.727h1.409l1.887 6.682h.091l1.863-6.682h1.432l1.841 6.659h.091l1.886-6.659h1.409L153.225 154h-1.318l-1.909-6.705h-.136l-1.91 6.705h-1.318zm17.205-6.773l-1.205.341c-.076-.201-.187-.396-.335-.585a1.63 1.63 0 0 0-.591-.477c-.25-.125-.57-.188-.96-.188-.534 0-.979.123-1.335.37s-.529.551-.529.926c0 .333.121.596.364.789s.621.355 1.136.483l1.296.319c.78.189 1.361.479 1.744.869s.574.884.574 1.494c0 .5-.144.947-.432 1.341s-.682.705-1.193.932-1.106.341-1.784.341c-.89 0-1.627-.193-2.21-.58s-.953-.95-1.108-1.693l1.272-.318c.122.47.351.822.688 1.057s.786.352 1.335.352c.625 0 1.121-.133 1.489-.398s.557-.591.557-.966c0-.303-.107-.556-.319-.761s-.538-.364-.977-.466l-1.454-.341c-.8-.189-1.387-.483-1.762-.88s-.557-.904-.557-1.506a2.16 2.16 0 0 1 .415-1.307 2.82 2.82 0 0 1 1.142-.892c.485-.216 1.034-.324 1.648-.324.864 0 1.542.189 2.034.568a3.07 3.07 0 0 1 1.057 1.5zm-88.691 9.955h89.645v1.091H75.148v-1.091z" fill="#141316"/></svg>