<svg width="274" height="158" viewBox="0 0 274 158" fill="none" xmlns="http://www.w3.org/2000/svg">
<rect x="223.313" y="61.2729" width="50.6867" height="50.6456" fill="#DCDCE6"/>
<rect x="223.313" y="61.2729" width="25.3434" height="50.6456" fill="#8CC94A"/>
<path fill-rule="evenodd" clip-rule="evenodd" d="M252.739 82.3148H266.387L255.349 90.3142L259.551 103.282L248.512 95.2579L237.472 103.282L241.699 90.3142L230.66 82.29L244.31 82.3148L248.537 69.3469L252.739 82.3148ZM255.349 90.3149L256.295 93.2463L248.537 95.2586L255.349 90.3149Z" fill="white"/>
<rect x="167.486" y="61.2729" width="50.6867" height="50.6456" fill="#8CC94A"/>
<path fill-rule="evenodd" clip-rule="evenodd" d="M196.91 82.3148H210.56L199.522 90.3142L203.724 103.282L192.684 95.2579L181.645 103.282L185.872 90.3142L174.833 82.29L188.483 82.3148L192.71 69.3469L196.91 82.3148ZM199.522 90.3149L200.467 93.2463L192.71 95.2586L199.522 90.3149Z" fill="white"/>
<rect x="111.657" y="61.2729" width="50.6867" height="50.6456" fill="#8CC94A"/>
<path fill-rule="evenodd" clip-rule="evenodd" d="M141.08 82.3148H154.73L143.691 90.3142V90.3151L136.879 95.2587L144.635 93.2464L143.71 90.3742L147.892 103.282L136.854 95.2579L125.814 103.282L130.041 90.3142L119.002 82.29L132.652 82.3148L136.878 69.3469L141.08 82.3148Z" fill="white"/>
<rect x="55.8273" y="61.2729" width="50.6867" height="50.6456" fill="#8CC94A"/>
<path fill-rule="evenodd" clip-rule="evenodd" d="M85.2511 82.3149H98.9006L87.8617 90.3143L92.0634 103.282L81.0244 95.258L69.9853 103.282L74.212 90.3143L63.1729 82.2901L76.8226 82.3149L81.0492 69.347L85.2511 82.3149ZM87.8613 90.315L88.806 93.2465L81.0488 95.2587L87.8613 90.315Z" fill="white"/>
<rect y="61.2729" width="50.6867" height="50.6456" fill="#8CC94A"/>
<path fill-rule="evenodd" clip-rule="evenodd" d="M29.4239 82.3149H43.0735L32.0344 90.3143L36.2362 103.282L25.1971 95.258L14.1581 103.282L18.3848 90.3143L7.3457 82.2901L20.9954 82.3149L25.2221 69.347L29.4239 82.3149ZM32.0341 90.315L32.9789 93.2465L25.2217 95.2587L32.0341 90.315Z" fill="white"/>
<path fill-rule="evenodd" clip-rule="evenodd" d="M47.0601 15.5649H65.174V18.9343H58.0418V37.928H54.1326V18.9343H47.0303L47.0601 15.5649ZM64.3986 21.7368H67.7408V24.8676H67.8005C67.9199 24.4204 68.1288 24.0029 68.4272 23.5855C68.7256 23.1681 69.0837 22.7804 69.5313 22.4524C69.9491 22.0946 70.4266 21.8263 70.9637 21.6175C71.471 21.4088 72.0082 21.2896 72.5453 21.2896C72.8068 21.2896 73.0216 21.3012 73.1822 21.31L73.1822 21.31C73.2782 21.3152 73.3549 21.3194 73.4107 21.3194C73.5599 21.3492 73.739 21.379 73.8882 21.379V24.808C73.6495 24.7484 73.3809 24.7186 73.1123 24.6887L73.0392 24.6806C72.7997 24.6537 72.5804 24.6291 72.3364 24.6291C71.7396 24.6291 71.1726 24.7484 70.6355 24.9869C70.0983 25.2255 69.6507 25.5833 69.2329 26.0305C68.845 26.5076 68.5167 27.0741 68.278 27.7599C68.0392 28.4457 67.9199 29.2508 67.9199 30.1453V37.8382H64.3389L64.3986 21.7368ZM86.7791 37.928H90.3004H90.3303V21.7372H86.7493V31.1297C86.7493 31.7558 86.6896 32.3522 86.5404 32.8889C86.3912 33.4256 86.1823 33.9027 85.854 34.2903C85.5556 34.6779 85.1378 34.9761 84.6305 35.2146C84.1232 35.4532 83.4965 35.5725 82.7505 35.5725C81.7657 35.5725 80.9898 35.2743 80.4527 34.6779C79.8857 34.1114 79.6171 33.0976 79.6171 31.6664V21.7372H76.0361V32.0242C76.0361 34.1412 76.5136 35.7514 77.4685 36.795C78.4235 37.8684 79.9752 38.3753 82.094 38.3753C82.9892 38.3753 83.8845 38.1368 84.7499 37.6299C85.6153 37.123 86.2718 36.4968 86.7194 35.6619H86.7791V37.928ZM96.3887 32.7398C96.5081 33.7834 96.896 34.499 97.5824 34.9463C98.2688 35.3637 99.1043 35.5725 100.059 35.5725C100.388 35.5725 100.775 35.5426 101.193 35.483C101.611 35.4234 102.029 35.3339 102.387 35.1848C102.775 35.0357 103.073 34.827 103.312 34.5288C103.551 34.2307 103.67 33.8729 103.64 33.4256C103.61 32.9783 103.461 32.5907 103.133 32.2925C102.805 31.9944 102.417 31.7856 101.939 31.5769C101.462 31.398 100.895 31.2489 100.268 31.1296C99.7585 31.0326 99.2488 30.9159 98.7231 30.7955L98.7228 30.7955L98.7226 30.7954C98.6021 30.7678 98.4807 30.74 98.3583 30.7122C97.7018 30.5631 97.0452 30.3842 96.4186 30.1755C95.7919 29.9668 95.2547 29.6984 94.7474 29.3108C94.27 28.953 93.8522 28.5057 93.5836 27.9392C93.2852 27.3726 93.136 26.7167 93.136 25.8818C93.136 24.9873 93.3449 24.2716 93.7925 23.6753C94.2103 23.0789 94.7773 22.6019 95.4338 22.244C96.0903 21.8862 96.8364 21.6179 97.6421 21.4688C98.4478 21.3197 99.2237 21.2601 99.9399 21.2601C100.775 21.2601 101.581 21.3495 102.327 21.5284C103.073 21.7073 103.789 21.9757 104.386 22.3931C105.013 22.7808 105.52 23.3175 105.908 23.9436C106.326 24.5698 106.565 25.3451 106.684 26.2396H102.954C102.775 25.3749 102.387 24.8083 101.79 24.5102C101.163 24.212 100.477 24.0629 99.6713 24.0629C99.4326 24.0629 99.1043 24.0927 98.7761 24.1225C98.418 24.1822 98.1195 24.2418 97.7913 24.3611C97.4929 24.4804 97.2243 24.6593 97.0154 24.868C96.8065 25.0767 96.6871 25.3749 96.6871 25.7327C96.6871 26.18 96.8364 26.5079 97.1348 26.7763C97.4332 27.0447 97.8211 27.2534 98.3284 27.4621C98.8059 27.641 99.3729 27.7901 99.9996 27.9094C100.626 28.0286 101.283 28.1777 101.939 28.3268C102.596 28.4759 103.222 28.6548 103.849 28.8635C104.476 29.0722 105.043 29.3406 105.52 29.7282C105.998 30.086 106.416 30.5333 106.714 31.07C107.012 31.6067 107.162 32.2925 107.162 33.0678C107.162 34.0219 106.953 34.827 106.505 35.5128C106.057 36.1688 105.49 36.7353 104.804 37.1528C104.118 37.5702 103.312 37.8684 102.476 38.0771C101.611 38.256 100.775 38.3753 99.9399 38.3753C98.9253 38.3753 97.9703 38.256 97.1049 38.0175C96.2395 37.7789 95.4636 37.4211 94.837 36.9739C94.2103 36.4968 93.703 35.9303 93.3449 35.2146C92.9868 34.5288 92.7779 33.694 92.748 32.71H96.3589V32.7398H96.3887ZM110.891 21.7372H108.176V24.3909H110.891V33.9325C110.921 34.5885 110.981 35.2146 111.1 35.7215C111.22 36.2284 111.429 36.6459 111.757 37.0037C112.085 37.3317 112.533 37.6 113.1 37.7789C113.667 37.9579 114.413 38.0473 115.368 38.0473C115.785 38.0473 116.144 38.0473 116.531 37.9877L116.532 37.9877C116.919 37.9578 117.307 37.928 117.695 37.8684V35.0954C117.48 35.1491 117.241 35.1786 117.021 35.2058L116.949 35.2146C116.711 35.2445 116.442 35.2445 116.203 35.2445C115.785 35.2445 115.487 35.1848 115.248 35.0954C115.039 35.0059 114.86 34.8568 114.741 34.6779C114.651 34.499 114.562 34.2605 114.532 33.9921L114.532 33.992C114.502 33.6938 114.472 33.3957 114.472 33.0082V24.3611H117.695V21.7073H114.472V16.8471H110.891V21.7372ZM120.232 21.7368H123.574V23.9433H123.634C124.141 22.9891 124.828 22.3332 125.723 21.9157C126.618 21.4983 127.573 21.2896 128.647 21.2896C129.931 21.2896 131.035 21.4983 131.99 21.9754C132.945 22.4226 133.72 23.019 134.347 23.824C134.974 24.5993 135.451 25.5236 135.75 26.5672C136.048 27.6109 136.227 28.7439 136.227 29.9068C136.227 31.01 136.078 32.0537 135.809 33.0674C135.511 34.0812 135.093 35.0056 134.526 35.7808C133.959 36.5561 133.243 37.1823 132.348 37.6593C131.452 38.1364 130.438 38.375 129.244 38.375C128.737 38.375 128.2 38.3153 127.692 38.2259C127.185 38.1364 126.678 37.9873 126.2 37.7786C125.723 37.5699 125.275 37.3015 124.887 36.9735C124.47 36.6455 124.141 36.2579 123.873 35.8405H123.813V43.921H120.232V21.7368ZM132.408 27.7305C132.617 28.4163 132.706 29.1319 132.706 29.8475C132.706 30.5631 132.617 31.2489 132.467 31.9645C132.318 32.6504 132.05 33.2467 131.691 33.7834C131.304 34.2903 130.856 34.7376 130.289 35.0656C129.722 35.3936 129.065 35.5725 128.23 35.5725C127.484 35.5725 126.857 35.4234 126.29 35.1252C125.723 34.827 125.246 34.4394 124.858 33.9325C124.44 33.4256 124.171 32.8293 123.962 32.1435C123.754 31.4577 123.664 30.7122 123.664 29.8773C123.664 28.1479 124.052 26.7465 124.798 25.7029C125.574 24.6593 126.708 24.1524 128.2 24.1524C128.916 24.1524 129.573 24.3015 130.14 24.6295C130.677 24.9574 131.154 25.3749 131.542 25.9116C131.93 26.4483 132.229 27.0447 132.408 27.7305ZM139.002 15.5649H142.583V18.9343H139.002V15.5649ZM142.583 21.7372H139.002V37.928H142.583V21.7372ZM145.776 15.5649H149.357V37.928H145.776V15.5649ZM156.818 37.7193C157.832 38.1666 158.996 38.3753 160.279 38.3753C161.592 38.3753 162.726 38.1367 163.741 37.7193C164.755 37.3019 165.621 36.7055 166.307 35.9601C166.994 35.1848 167.501 34.2903 167.889 33.2467C168.277 32.2031 168.456 31.07 168.456 29.8177C168.456 28.5952 168.247 27.4621 167.889 26.4185C167.531 25.3749 166.994 24.4505 166.307 23.7051C165.591 22.9597 164.755 22.3633 163.741 21.9459C162.726 21.4986 161.562 21.2899 160.279 21.2899C158.996 21.2899 157.832 21.5284 156.818 21.9459C155.803 22.3633 154.938 22.9597 154.251 23.7051C153.565 24.4804 153.028 25.3749 152.67 26.4185C152.282 27.4621 152.103 28.5952 152.103 29.8177C152.103 31.0402 152.311 32.2031 152.67 33.2467C153.028 34.2903 153.565 35.2146 154.251 35.9601C154.967 36.7055 155.803 37.272 156.818 37.7193ZM160.279 35.5426C161.055 35.5426 161.771 35.3637 162.338 35.0357C162.935 34.7078 163.383 34.2605 163.771 33.7238C164.159 33.1871 164.427 32.5609 164.606 31.9049C164.785 31.2191 164.875 30.5333 164.875 29.8177C164.875 29.1319 164.785 28.4461 164.606 27.7603C164.427 27.0745 164.159 26.4781 163.771 25.9414C163.383 25.4047 162.905 24.9873 162.338 24.6593C161.741 24.3313 161.055 24.1524 160.279 24.1524C159.503 24.1524 158.787 24.3313 158.22 24.6593C157.623 24.9873 157.176 25.4345 156.788 25.9414C156.4 26.4781 156.131 27.0745 155.952 27.7603C155.773 28.4461 155.684 29.1319 155.684 29.8177C155.684 30.5333 155.773 31.2191 155.952 31.9049C156.131 32.5907 156.4 33.1871 156.788 33.7238C157.176 34.2605 157.653 34.7078 158.22 35.0357C158.817 35.3936 159.503 35.5426 160.279 35.5426ZM172.246 21.7372H169.53V24.3909H172.246V33.9325C172.276 34.5885 172.335 35.2146 172.455 35.7215C172.574 36.2284 172.783 36.6459 173.111 37.0037C173.44 37.3317 173.887 37.6 174.454 37.7789C175.021 37.9579 175.767 38.0473 176.722 38.0473C177.14 38.0473 177.498 38.0473 177.886 37.9877L177.886 37.9877C178.274 37.9578 178.662 37.928 179.05 37.8684V35.0954C178.835 35.1491 178.595 35.1786 178.375 35.2058C178.351 35.2087 178.327 35.2117 178.304 35.2146C178.065 35.2445 177.796 35.2445 177.558 35.2445C177.14 35.2445 176.841 35.1848 176.603 35.0954C176.394 35.0059 176.215 34.8568 176.095 34.6779C176.006 34.499 175.916 34.2605 175.887 33.9921L175.887 33.9918C175.857 33.6937 175.827 33.3956 175.827 33.0082V24.3611H179.05V21.7073H175.827V16.8471H172.246V21.7372Z" fill="black"/>
<path d="M42.8825 15.5647H26.4994L21.4562 0L16.3831 15.5647L0 15.5349L13.2497 25.1659L8.17661 40.7306L21.4263 31.0996L34.676 40.7306L29.6328 25.1659L42.8825 15.5647Z" fill="#00B67A"/>
<path d="M30.7667 28.6844L29.6327 25.1659L21.4561 31.0996L30.7667 28.6844Z" fill="#005128"/>
<path d="M1.62003 154V142.364H5.68821C6.49882 142.364 7.16738 142.504 7.69389 142.784C8.22041 143.061 8.61245 143.434 8.87003 143.903C9.1276 144.369 9.25639 144.886 9.25639 145.455C9.25639 145.955 9.16738 146.367 8.98935 146.693C8.8151 147.019 8.58404 147.277 8.29617 147.466C8.01207 147.655 7.70336 147.795 7.37003 147.886V148C7.72609 148.023 8.08404 148.148 8.44389 148.375C8.80374 148.602 9.10488 148.928 9.3473 149.352C9.58973 149.777 9.71094 150.295 9.71094 150.909C9.71094 151.492 9.57836 152.017 9.31321 152.483C9.04806 152.949 8.6295 153.318 8.05753 153.591C7.48556 153.864 6.74124 154 5.82457 154H1.62003ZM3.02912 152.75H5.82457C6.74503 152.75 7.39844 152.572 7.7848 152.216C8.17495 151.856 8.37003 151.42 8.37003 150.909C8.37003 150.515 8.26965 150.152 8.06889 149.818C7.86813 149.481 7.58215 149.212 7.21094 149.011C6.83973 148.807 6.40033 148.705 5.89276 148.705H3.02912V152.75ZM3.02912 147.477H5.64276C6.067 147.477 6.44957 147.394 6.79048 147.227C7.13518 147.061 7.40791 146.826 7.60866 146.523C7.81321 146.22 7.91548 145.864 7.91548 145.455C7.91548 144.943 7.73745 144.509 7.38139 144.153C7.02533 143.794 6.46094 143.614 5.68821 143.614H3.02912V147.477ZM14.4126 154.205C13.8596 154.205 13.3577 154.1 12.907 153.892C12.4562 153.68 12.0982 153.375 11.8331 152.977C11.5679 152.576 11.4354 152.091 11.4354 151.523C11.4354 151.023 11.5339 150.617 11.7308 150.307C11.9278 149.992 12.1911 149.746 12.5206 149.568C12.8501 149.39 13.2138 149.258 13.6115 149.17C14.013 149.08 14.4164 149.008 14.8217 148.955C15.352 148.886 15.782 148.835 16.1115 148.801C16.4448 148.763 16.6873 148.701 16.8388 148.614C16.9941 148.527 17.0717 148.375 17.0717 148.159V148.114C17.0717 147.553 16.9183 147.117 16.6115 146.807C16.3085 146.496 15.8482 146.341 15.2308 146.341C14.5907 146.341 14.0888 146.481 13.7251 146.761C13.3615 147.042 13.1058 147.341 12.9581 147.659L11.6854 147.205C11.9126 146.674 12.2157 146.261 12.5945 145.966C12.977 145.667 13.3937 145.458 13.8445 145.341C14.299 145.22 14.746 145.159 15.1854 145.159C15.4657 145.159 15.7876 145.193 16.1513 145.261C16.5187 145.326 16.8729 145.46 17.2138 145.665C17.5585 145.869 17.8445 146.178 18.0717 146.591C18.299 147.004 18.4126 147.557 18.4126 148.25V154H17.0717V152.818H17.0036C16.9126 153.008 16.7611 153.21 16.549 153.426C16.3369 153.642 16.0547 153.826 15.7024 153.977C15.3501 154.129 14.9202 154.205 14.4126 154.205ZM14.6172 153C15.1475 153 15.5945 152.896 15.9581 152.688C16.3255 152.479 16.602 152.21 16.7876 151.881C16.977 151.551 17.0717 151.205 17.0717 150.841V149.614C17.0149 149.682 16.8899 149.744 16.6967 149.801C16.5073 149.854 16.2876 149.902 16.0376 149.943C15.7914 149.981 15.5509 150.015 15.3161 150.045C15.085 150.072 14.8975 150.095 14.7536 150.114C14.4051 150.159 14.0793 150.233 13.7763 150.335C13.477 150.434 13.2346 150.583 13.049 150.784C12.8672 150.981 12.7763 151.25 12.7763 151.591C12.7763 152.057 12.9486 152.409 13.2933 152.648C13.6418 152.883 14.0831 153 14.6172 153ZM27.0419 147.227L25.8374 147.568C25.7616 147.367 25.6499 147.172 25.5021 146.983C25.3582 146.79 25.1612 146.631 24.9112 146.506C24.6612 146.381 24.3411 146.318 23.951 146.318C23.4169 146.318 22.9718 146.441 22.6158 146.688C22.2635 146.93 22.0874 147.239 22.0874 147.614C22.0874 147.947 22.2086 148.21 22.451 148.403C22.6934 148.597 23.0722 148.758 23.5874 148.886L24.8828 149.205C25.6631 149.394 26.2446 149.684 26.6271 150.074C27.0097 150.46 27.201 150.958 27.201 151.568C27.201 152.068 27.0571 152.515 26.7692 152.909C26.4851 153.303 26.0874 153.614 25.576 153.841C25.0646 154.068 24.4699 154.182 23.7919 154.182C22.9018 154.182 22.165 153.989 21.5817 153.602C20.9983 153.216 20.629 152.652 20.4737 151.909L21.7464 151.591C21.8677 152.061 22.0968 152.413 22.4339 152.648C22.7749 152.883 23.2199 153 23.7692 153C24.3942 153 24.8904 152.867 25.2578 152.602C25.629 152.333 25.8146 152.011 25.8146 151.636C25.8146 151.333 25.7086 151.08 25.4964 150.875C25.2843 150.667 24.9586 150.511 24.5192 150.409L23.0646 150.068C22.2654 149.879 21.6783 149.585 21.3033 149.188C20.9321 148.786 20.7464 148.284 20.7464 147.682C20.7464 147.189 20.8847 146.754 21.1612 146.375C21.4415 145.996 21.8222 145.699 22.3033 145.483C22.7881 145.267 23.3374 145.159 23.951 145.159C24.8146 145.159 25.4927 145.348 25.9851 145.727C26.4813 146.106 26.8336 146.606 27.0419 147.227ZM32.8786 154.182C32.0376 154.182 31.3123 153.996 30.7024 153.625C30.0964 153.25 29.6286 152.727 29.299 152.057C28.9732 151.383 28.8104 150.598 28.8104 149.705C28.8104 148.811 28.9732 148.023 29.299 147.341C29.6286 146.655 30.0869 146.121 30.674 145.739C31.2649 145.352 31.9543 145.159 32.7422 145.159C33.1967 145.159 33.6456 145.235 34.0888 145.386C34.532 145.538 34.9354 145.784 35.299 146.125C35.6626 146.462 35.9524 146.909 36.1683 147.466C36.3842 148.023 36.4922 148.708 36.4922 149.523V150.091H29.7649V148.932H35.1286C35.1286 148.439 35.0301 148 34.8331 147.614C34.6399 147.227 34.3634 146.922 34.0036 146.699C33.6475 146.475 33.227 146.364 32.7422 146.364C32.2081 146.364 31.746 146.496 31.3558 146.761C30.9695 147.023 30.6721 147.364 30.4638 147.784C30.2554 148.205 30.1513 148.655 30.1513 149.136V149.909C30.1513 150.568 30.2649 151.127 30.4922 151.585C30.7232 152.04 31.0433 152.386 31.4524 152.625C31.8615 152.86 32.3369 152.977 32.8786 152.977C33.2308 152.977 33.549 152.928 33.8331 152.83C34.121 152.727 34.3691 152.576 34.5774 152.375C34.7857 152.17 34.9467 151.917 35.0604 151.614L36.3558 151.977C36.2195 152.417 35.9903 152.803 35.6683 153.136C35.3464 153.466 34.9486 153.723 34.4751 153.909C34.0017 154.091 33.4695 154.182 32.8786 154.182ZM41.8274 154.182C41.1001 154.182 40.4581 153.998 39.9013 153.631C39.3445 153.259 38.9089 152.737 38.5945 152.062C38.2801 151.384 38.1229 150.583 38.1229 149.659C38.1229 148.742 38.2801 147.947 38.5945 147.273C38.9089 146.598 39.3464 146.078 39.907 145.71C40.4676 145.343 41.1153 145.159 41.8501 145.159C42.4183 145.159 42.8672 145.254 43.1967 145.443C43.5301 145.629 43.7839 145.841 43.9581 146.08C44.1361 146.314 44.2744 146.508 44.3729 146.659H44.4865V142.364H45.8274V154H44.532V152.659H44.3729C44.2744 152.818 44.1342 153.019 43.9524 153.261C43.7706 153.5 43.5111 153.714 43.174 153.903C42.8369 154.089 42.388 154.182 41.8274 154.182ZM42.0092 152.977C42.5471 152.977 43.0017 152.837 43.3729 152.557C43.7441 152.273 44.0263 151.881 44.2195 151.381C44.4126 150.877 44.5092 150.295 44.5092 149.636C44.5092 148.985 44.4145 148.415 44.2251 147.926C44.0357 147.434 43.7554 147.051 43.3842 146.778C43.013 146.502 42.5547 146.364 42.0092 146.364C41.4411 146.364 40.9676 146.509 40.5888 146.801C40.2138 147.089 39.9316 147.481 39.7422 147.977C39.5566 148.47 39.4638 149.023 39.4638 149.636C39.4638 150.258 39.5585 150.822 39.7479 151.33C39.9411 151.833 40.2251 152.235 40.6001 152.534C40.9789 152.83 41.4486 152.977 42.0092 152.977ZM56.5149 154.182C55.727 154.182 55.0357 153.994 54.4411 153.619C53.8501 153.244 53.388 152.72 53.0547 152.045C52.7251 151.371 52.5604 150.583 52.5604 149.682C52.5604 148.773 52.7251 147.979 53.0547 147.301C53.388 146.623 53.8501 146.097 54.4411 145.722C55.0357 145.347 55.727 145.159 56.5149 145.159C57.3028 145.159 57.9922 145.347 58.5831 145.722C59.1778 146.097 59.6399 146.623 59.9695 147.301C60.3028 147.979 60.4695 148.773 60.4695 149.682C60.4695 150.583 60.3028 151.371 59.9695 152.045C59.6399 152.72 59.1778 153.244 58.5831 153.619C57.9922 153.994 57.3028 154.182 56.5149 154.182ZM56.5149 152.977C57.1134 152.977 57.6058 152.824 57.9922 152.517C58.3786 152.21 58.6645 151.807 58.8501 151.307C59.0357 150.807 59.1286 150.265 59.1286 149.682C59.1286 149.098 59.0357 148.555 58.8501 148.051C58.6645 147.547 58.3786 147.14 57.9922 146.83C57.6058 146.519 57.1134 146.364 56.5149 146.364C55.9164 146.364 55.424 146.519 55.0376 146.83C54.6513 147.14 54.3653 147.547 54.1797 148.051C53.9941 148.555 53.9013 149.098 53.9013 149.682C53.9013 150.265 53.9941 150.807 54.1797 151.307C54.3653 151.807 54.6513 152.21 55.0376 152.517C55.424 152.824 55.9164 152.977 56.5149 152.977ZM63.8572 148.75V154H62.5163V145.273H63.8118V146.636H63.9254C64.13 146.193 64.4406 145.837 64.8572 145.568C65.2739 145.295 65.8118 145.159 66.4709 145.159C67.0618 145.159 67.5788 145.28 68.022 145.523C68.4652 145.761 68.8099 146.125 69.0561 146.614C69.3023 147.098 69.4254 147.712 69.4254 148.455V154H68.0845V148.545C68.0845 147.86 67.9065 147.326 67.5504 146.943C67.1944 146.557 66.7057 146.364 66.0845 146.364C65.6565 146.364 65.2739 146.456 64.9368 146.642C64.6035 146.828 64.3402 147.098 64.147 147.455C63.9538 147.811 63.8572 148.242 63.8572 148.75Z" fill="#5B5863"/>
<path d="M80.4439 142.364V154H79.0348V143.841H78.9666L76.1257 145.727V144.295L79.0348 142.364H80.4439ZM87.5178 154.159C86.7375 154.159 86.0481 154.021 85.4496 153.744C84.8549 153.464 84.3909 153.08 84.0575 152.591C83.7242 152.098 83.5594 151.538 83.5632 150.909C83.5594 150.417 83.656 149.962 83.853 149.545C84.05 149.125 84.3189 148.775 84.6598 148.494C85.0045 148.21 85.389 148.03 85.8132 147.955V147.886C85.2564 147.742 84.8132 147.43 84.4837 146.949C84.1541 146.464 83.9912 145.913 83.995 145.295C83.9912 144.705 84.1409 144.176 84.4439 143.71C84.7469 143.244 85.1636 142.877 85.6939 142.608C86.228 142.339 86.8359 142.205 87.5178 142.205C88.192 142.205 88.7943 142.339 89.3246 142.608C89.8549 142.877 90.2715 143.244 90.5746 143.71C90.8814 144.176 91.0367 144.705 91.0405 145.295C91.0367 145.913 90.8681 146.464 90.5348 146.949C90.2053 147.43 89.7678 147.742 89.2223 147.886V147.955C89.6428 148.03 90.0215 148.21 90.3587 148.494C90.6958 148.775 90.9647 149.125 91.1655 149.545C91.3662 149.962 91.4685 150.417 91.4723 150.909C91.4685 151.538 91.2981 152.098 90.9609 152.591C90.6276 153.08 90.1636 153.464 89.5689 153.744C88.978 154.021 88.2943 154.159 87.5178 154.159ZM87.5178 152.909C88.0443 152.909 88.4988 152.824 88.8814 152.653C89.264 152.483 89.5594 152.242 89.7678 151.932C89.9761 151.621 90.0821 151.258 90.0859 150.841C90.0821 150.402 89.9685 150.013 89.745 149.676C89.5215 149.339 89.2166 149.074 88.8303 148.881C88.4477 148.687 88.0102 148.591 87.5178 148.591C87.0215 148.591 86.5784 148.687 86.1882 148.881C85.8018 149.074 85.4969 149.339 85.2734 149.676C85.0537 150.013 84.9458 150.402 84.9496 150.841C84.9458 151.258 85.0462 151.621 85.2507 151.932C85.459 152.242 85.7564 152.483 86.1428 152.653C86.5291 152.824 86.9875 152.909 87.5178 152.909ZM87.5178 147.386C87.9344 147.386 88.3037 147.303 88.6257 147.136C88.9515 146.97 89.2071 146.737 89.3928 146.438C89.5784 146.138 89.6731 145.788 89.6768 145.386C89.6731 144.992 89.5803 144.65 89.3984 144.358C89.2166 144.062 88.9647 143.835 88.6428 143.676C88.3208 143.513 87.9458 143.432 87.5178 143.432C87.0821 143.432 86.7015 143.513 86.3757 143.676C86.05 143.835 85.7981 144.062 85.62 144.358C85.442 144.65 85.3549 144.992 85.3587 145.386C85.3549 145.788 85.4439 146.138 85.6257 146.438C85.8113 146.737 86.067 146.97 86.3928 147.136C86.7185 147.303 87.0935 147.386 87.5178 147.386ZM97.2862 154.159C96.6196 154.159 96.0192 154.027 95.4851 153.761C94.951 153.496 94.523 153.133 94.201 152.67C93.879 152.208 93.7029 151.682 93.6726 151.091H95.0362C95.0893 151.617 95.3279 152.053 95.7521 152.398C96.1802 152.739 96.6915 152.909 97.2862 152.909C97.7635 152.909 98.1877 152.797 98.5589 152.574C98.9339 152.35 99.2275 152.044 99.4396 151.653C99.6555 151.259 99.7635 150.814 99.7635 150.318C99.7635 149.811 99.6518 149.358 99.4283 148.96C99.2086 148.559 98.9055 148.242 98.5192 148.011C98.1328 147.78 97.6915 147.663 97.1953 147.659C96.8393 147.655 96.4737 147.71 96.0987 147.824C95.7237 147.934 95.415 148.076 95.1726 148.25L93.8544 148.091L94.5589 142.364H100.604V143.614H95.7408L95.3317 147.045H95.3999C95.6385 146.856 95.9377 146.699 96.2976 146.574C96.6574 146.449 97.0324 146.386 97.4226 146.386C98.1347 146.386 98.7692 146.557 99.326 146.898C99.8866 147.235 100.326 147.697 100.644 148.284C100.966 148.871 101.127 149.542 101.127 150.295C101.127 151.038 100.96 151.701 100.627 152.284C100.298 152.864 99.843 153.322 99.2635 153.659C98.6839 153.992 98.0249 154.159 97.2862 154.159ZM107.907 154V145.273H109.202V146.591H109.293C109.452 146.159 109.74 145.809 110.157 145.54C110.574 145.271 111.043 145.136 111.566 145.136C111.665 145.136 111.788 145.138 111.935 145.142C112.083 145.146 112.195 145.152 112.271 145.159V146.523C112.225 146.511 112.121 146.494 111.958 146.472C111.799 146.445 111.63 146.432 111.452 146.432C111.028 146.432 110.649 146.521 110.316 146.699C109.987 146.873 109.725 147.116 109.532 147.426C109.343 147.733 109.248 148.083 109.248 148.477V154H107.907ZM117.254 154.182C116.413 154.182 115.687 153.996 115.077 153.625C114.471 153.25 114.004 152.727 113.674 152.057C113.348 151.383 113.185 150.598 113.185 149.705C113.185 148.811 113.348 148.023 113.674 147.341C114.004 146.655 114.462 146.121 115.049 145.739C115.64 145.352 116.329 145.159 117.117 145.159C117.572 145.159 118.021 145.235 118.464 145.386C118.907 145.538 119.31 145.784 119.674 146.125C120.038 146.462 120.327 146.909 120.543 147.466C120.759 148.023 120.867 148.708 120.867 149.523V150.091H114.14V148.932H119.504C119.504 148.439 119.405 148 119.208 147.614C119.015 147.227 118.738 146.922 118.379 146.699C118.022 146.475 117.602 146.364 117.117 146.364C116.583 146.364 116.121 146.496 115.731 146.761C115.344 147.023 115.047 147.364 114.839 147.784C114.63 148.205 114.526 148.655 114.526 149.136V149.909C114.526 150.568 114.64 151.127 114.867 151.585C115.098 152.04 115.418 152.386 115.827 152.625C116.237 152.86 116.712 152.977 117.254 152.977C117.606 152.977 117.924 152.928 118.208 152.83C118.496 152.727 118.744 152.576 118.952 152.375C119.161 152.17 119.322 151.917 119.435 151.614L120.731 151.977C120.594 152.417 120.365 152.803 120.043 153.136C119.721 153.466 119.324 153.723 118.85 153.909C118.377 154.091 117.844 154.182 117.254 154.182ZM129.778 145.273L126.55 154H125.187L121.96 145.273H123.414L125.823 152.227H125.914L128.323 145.273H129.778ZM131.548 154V145.273H132.888V154H131.548ZM132.229 143.818C131.968 143.818 131.743 143.729 131.553 143.551C131.368 143.373 131.275 143.159 131.275 142.909C131.275 142.659 131.368 142.445 131.553 142.267C131.743 142.089 131.968 142 132.229 142C132.491 142 132.714 142.089 132.9 142.267C133.089 142.445 133.184 142.659 133.184 142.909C133.184 143.159 133.089 143.373 132.9 143.551C132.714 143.729 132.491 143.818 132.229 143.818ZM139.004 154.182C138.163 154.182 137.437 153.996 136.827 153.625C136.221 153.25 135.754 152.727 135.424 152.057C135.098 151.383 134.935 150.598 134.935 149.705C134.935 148.811 135.098 148.023 135.424 147.341C135.754 146.655 136.212 146.121 136.799 145.739C137.39 145.352 138.079 145.159 138.867 145.159C139.322 145.159 139.771 145.235 140.214 145.386C140.657 145.538 141.06 145.784 141.424 146.125C141.788 146.462 142.077 146.909 142.293 147.466C142.509 148.023 142.617 148.708 142.617 149.523V150.091H135.89V148.932H141.254C141.254 148.439 141.155 148 140.958 147.614C140.765 147.227 140.488 146.922 140.129 146.699C139.772 146.475 139.352 146.364 138.867 146.364C138.333 146.364 137.871 146.496 137.481 146.761C137.094 147.023 136.797 147.364 136.589 147.784C136.38 148.205 136.276 148.655 136.276 149.136V149.909C136.276 150.568 136.39 151.127 136.617 151.585C136.848 152.04 137.168 152.386 137.577 152.625C137.987 152.86 138.462 152.977 139.004 152.977C139.356 152.977 139.674 152.928 139.958 152.83C140.246 152.727 140.494 152.576 140.702 152.375C140.911 152.17 141.072 151.917 141.185 151.614L142.481 151.977C142.344 152.417 142.115 152.803 141.793 153.136C141.471 153.466 141.074 153.723 140.6 153.909C140.127 154.091 139.594 154.182 139.004 154.182ZM146.634 154L143.975 145.273H145.384L147.271 151.955H147.362L149.225 145.273H150.657L152.498 151.932H152.589L154.475 145.273H155.884L153.225 154H151.907L149.998 147.295H149.862L147.952 154H146.634ZM163.839 147.227L162.634 147.568C162.558 147.367 162.447 147.172 162.299 146.983C162.155 146.79 161.958 146.631 161.708 146.506C161.458 146.381 161.138 146.318 160.748 146.318C160.214 146.318 159.769 146.441 159.413 146.688C159.06 146.93 158.884 147.239 158.884 147.614C158.884 147.947 159.005 148.21 159.248 148.403C159.49 148.597 159.869 148.758 160.384 148.886L161.68 149.205C162.46 149.394 163.041 149.684 163.424 150.074C163.807 150.46 163.998 150.958 163.998 151.568C163.998 152.068 163.854 152.515 163.566 152.909C163.282 153.303 162.884 153.614 162.373 153.841C161.862 154.068 161.267 154.182 160.589 154.182C159.699 154.182 158.962 153.989 158.379 153.602C157.795 153.216 157.426 152.652 157.271 151.909L158.543 151.591C158.665 152.061 158.894 152.413 159.231 152.648C159.572 152.883 160.017 153 160.566 153C161.191 153 161.687 152.867 162.055 152.602C162.426 152.333 162.612 152.011 162.612 151.636C162.612 151.333 162.505 151.08 162.293 150.875C162.081 150.667 161.755 150.511 161.316 150.409L159.862 150.068C159.062 149.879 158.475 149.585 158.1 149.188C157.729 148.786 157.543 148.284 157.543 147.682C157.543 147.189 157.682 146.754 157.958 146.375C158.238 145.996 158.619 145.699 159.1 145.483C159.585 145.267 160.134 145.159 160.748 145.159C161.612 145.159 162.29 145.348 162.782 145.727C163.278 146.106 163.63 146.606 163.839 147.227Z" fill="#141316"/>
<path d="M75.1484 157.182H164.793V158.273H75.1484V157.182Z" fill="#141316"/>
</svg>
