<svg width="578" height="257" viewBox="0 0 578 257" fill="none" xmlns="http://www.w3.org/2000/svg">
<path fill-rule="evenodd" clip-rule="evenodd" d="M204.303 113.966C204.303 113.966 198.445 97.7842 205.272 86.6685C212.099 75.5532 236.649 59.7714 229.724 46.1302C222.794 32.4891 204.926 32.992 198.757 40.8386C192.587 48.6851 197.476 55.6551 192.826 57.1981C188.172 58.7411 160.604 63.5981 160.608 47.4226C160.617 31.2475 175.535 6.80446 199.102 3.04215C222.67 -0.720585 254.188 -4.42611 264.956 25.5268C275.728 55.4792 265.605 69.0806 249.88 79.1721C234.155 89.2631 244.244 106.345 238.489 109.603C232.734 112.86 205.712 119.254 204.303 113.966Z" fill="#242424"/>
<path fill-rule="evenodd" clip-rule="evenodd" d="M202.279 145.74C202.467 132.755 208.905 123.846 220.344 122.386C231.782 120.927 242.058 125.593 246.819 139.945C250.444 150.891 237.067 162.348 225.629 163.808C214.191 165.267 202.108 157.27 202.279 145.74Z" fill="#242424"/>
<path fill-rule="evenodd" clip-rule="evenodd" d="M301.922 188.277C301.922 188.277 300.317 174.528 307.712 167.082C315.106 159.636 337.235 151.8 334.328 139.842C331.416 127.884 317.331 124.986 311.055 129.994C304.774 135.001 307.323 141.36 303.395 141.711C299.467 142.063 276.984 140.786 279.968 128.121C282.953 115.456 299.138 99.0642 318.287 100.461C337.436 101.857 362.797 104.762 365.713 130.201C368.625 155.639 358.194 164.424 344.02 169.429C329.849 174.434 334.605 189.67 329.499 191.16C324.393 192.651 302.05 192.677 301.922 188.277Z" fill="#FFFFF8"/>
<path fill-rule="evenodd" clip-rule="evenodd" d="M294.485 212.786C297.025 202.653 303.707 196.863 312.933 197.827C322.16 198.792 329.345 204.339 330.43 216.454C331.254 225.693 318.667 232.201 309.441 231.236C300.214 230.272 292.226 221.783 294.485 212.786Z" fill="#FFFFF8"/>
<path fill-rule="evenodd" clip-rule="evenodd" d="M121.072 226.172C121.072 226.172 114.373 216.536 116.926 208.014C119.475 199.496 132.882 184.792 125.927 177.017C118.972 169.247 107.286 172.709 104.596 178.96C101.906 185.215 106.351 188.946 103.554 190.782C100.762 192.614 83.4491 200.649 80.6141 189.988C77.7834 179.331 83.3253 160.609 98.196 153.996C113.067 147.387 133.185 139.415 145.532 157.266C157.875 175.113 153.593 185.851 145.003 195.257C136.408 204.662 146.053 214.145 142.834 217.304C139.61 220.46 122.925 229.409 121.072 226.172Z" fill="#263EA9"/>
<path fill-rule="evenodd" clip-rule="evenodd" d="M125.308 247.464C123.156 238.874 125.837 231.876 133.117 228.909C140.4 225.942 147.987 227.214 153.64 235.834C157.948 242.409 151.147 252.306 143.863 255.273C136.583 258.241 127.22 255.09 125.308 247.464Z" fill="#263EA9"/>
<path opacity="0.512084" fill-rule="evenodd" clip-rule="evenodd" d="M29.969 110C29.969 110 25.1914 103.127 27.0102 97.0467C28.829 90.9677 38.397 80.4775 33.4358 74.9314C28.4704 69.3853 20.132 71.8569 18.215 76.3177C16.2937 80.7781 19.4659 83.4427 17.4721 84.75C15.4782 86.0574 3.12647 91.7896 1.10698 84.1847C-0.912506 76.5799 3.04108 63.2235 13.6509 58.5061C24.2564 53.7891 38.6105 48.1043 47.4185 60.8377C56.2308 73.5716 53.1696 81.2315 47.0428 87.9428C40.9118 94.6536 47.7943 101.421 45.4973 103.673C43.196 105.924 31.2925 112.31 29.969 110Z" fill="#FFFFF8"/>
<path opacity="0.512084" fill-rule="evenodd" clip-rule="evenodd" d="M32.9918 125.191C31.459 119.063 33.3717 114.07 38.5635 111.953C43.7595 109.835 49.1733 110.743 53.208 116.895C56.282 121.586 51.4276 128.646 46.2316 130.763C41.0355 132.879 34.3537 130.632 32.9918 125.191Z" fill="#FFFFF8"/>
<path opacity="0.195719" fill-rule="evenodd" clip-rule="evenodd" d="M503.784 208.377C503.784 208.377 506.414 200.427 512.366 198.232C518.322 196.038 532.454 197.391 533.91 190.095C535.366 182.794 528.385 177.611 523.667 178.755C518.945 179.899 518.719 184.032 516.477 183.225C514.236 182.414 502.234 175.975 507.101 169.793C511.973 163.615 525.029 158.756 535.169 164.409C545.309 170.062 558.472 178.132 553.579 192.819C548.682 207.51 540.72 209.662 531.672 208.787C522.625 207.916 521.344 217.479 518.164 216.993C514.983 216.51 502.729 210.819 503.784 208.377Z" fill="white"/>
<path fill-rule="evenodd" clip-rule="evenodd" d="M522.164 106.9C522.164 106.9 526.711 99.8701 533.026 99.2446C539.341 98.6191 552.679 103.485 555.923 96.7875C559.168 90.0908 553.716 83.3163 548.862 83.2352C544.007 83.1536 542.748 87.0995 540.779 85.7512C538.811 84.4033 528.82 75.1525 535.088 70.3954C541.356 65.6383 555.215 64.2247 563.604 72.2476C571.998 80.2708 582.706 91.3895 574.274 104.374C565.837 117.359 557.593 117.44 549.054 114.318C540.519 111.196 536.873 120.132 533.914 118.861C530.959 117.59 520.533 109.001 522.164 106.9Z" fill="#FFFFF8"/>
<path fill-rule="evenodd" clip-rule="evenodd" d="M509.262 115.466C514.347 111.719 519.692 111.591 523.624 115.593C527.557 119.594 528.773 124.949 524.611 131.014C521.438 135.641 513.066 133.831 509.134 129.829C505.201 125.827 504.744 118.792 509.262 115.466Z" fill="#FFFFF8"/>
<path opacity="0.195719" fill-rule="evenodd" clip-rule="evenodd" d="M496.262 219.466C501.347 215.719 506.692 215.591 510.624 219.593C514.557 223.594 515.773 228.949 511.611 235.014C508.438 239.641 500.066 237.831 496.134 233.829C492.201 229.827 491.744 222.792 496.262 219.466Z" fill="white"/>
<path fill-rule="evenodd" clip-rule="evenodd" d="M413.624 111.668C413.624 111.668 413.035 97.837 420.959 90.9545C428.879 84.0725 451.525 77.8851 449.501 65.7455C447.477 53.606 433.644 49.6802 427.018 54.2127C420.387 58.7452 422.458 65.2742 418.517 65.3357C414.576 65.3971 392.247 62.4717 396.153 50.0606C400.06 37.6491 417.407 22.4914 436.402 25.2913C455.397 28.0913 480.477 32.8527 481.514 58.4365C482.547 84.0204 471.498 92.0151 456.999 95.9652C442.495 99.915 446.12 115.458 440.915 116.57C435.711 117.681 413.428 116.065 413.624 111.668Z" fill="#233BA3"/>
<path fill-rule="evenodd" clip-rule="evenodd" d="M404.406 135.564C407.685 125.644 414.777 120.361 423.905 122.001C433.034 123.641 439.797 129.702 439.984 141.862C440.125 151.139 427.095 156.703 417.967 155.063C408.838 153.424 401.495 144.368 404.406 135.564Z" fill="#233BA3"/>
</svg>
