<svg width="336" height="335" viewBox="0 0 336 335" fill="none" xmlns="http://www.w3.org/2000/svg">
<path fill-rule="evenodd" clip-rule="evenodd" d="M335.074 167.351C335.074 259.631 260.187 334.44 167.812 334.44C75.4345 334.44 0.554688 259.631 0.554688 167.351C0.554688 75.0679 75.4345 0.261719 167.812 0.261719C260.187 0.261719 335.074 75.0679 335.074 167.351Z" fill="#F8C637"/>
<path fill-rule="evenodd" clip-rule="evenodd" d="M295.785 59.8001C265.101 23.4085 219.175 0.261719 167.812 0.261719C75.4345 0.261719 0.554688 75.0679 0.554688 167.351C0.554688 186.74 3.89467 205.337 9.976 222.654C104.294 166.72 199.492 112.28 295.785 59.8001Z" fill="#F5D664"/>
<path fill-rule="evenodd" clip-rule="evenodd" d="M187.152 333.293C225.525 328.878 259.952 311.525 285.909 285.666C259.791 298.205 233.742 310.888 207.66 323.493C200.839 326.79 193.983 330.019 187.152 333.293Z" fill="#F5D664"/>
<path fill-rule="evenodd" clip-rule="evenodd" d="M292.314 164.704C292.314 234.86 235.394 291.725 165.166 291.725C94.9345 291.725 38.0107 234.86 38.0107 164.704C38.0107 94.548 94.9345 37.6827 165.166 37.6827C235.394 37.6827 292.314 94.548 292.314 164.704Z" fill="#CC7C2F"/>
<path fill-rule="evenodd" clip-rule="evenodd" d="M295.906 169.998C295.906 239.209 239.748 295.313 170.462 295.313C101.176 295.313 45.0181 239.209 45.0181 169.998C45.0181 100.787 101.176 44.6794 170.462 44.6794C239.748 44.6794 295.906 100.787 295.906 169.998Z" fill="#E5A235"/>
<path opacity="0.394409" fill-rule="evenodd" clip-rule="evenodd" d="M195.195 111.381C187.153 99.0388 171.776 87.5295 141.038 86.6254C89.7807 85.1166 47.2496 138.391 60.2074 197.686C60.3251 198.224 60.4473 198.763 60.5741 199.302C61.5219 203.332 62.7269 207.388 64.204 211.454C64.5761 212.478 64.9655 213.503 65.3725 214.529C66.7033 217.884 68.1771 221.103 69.7816 224.187C69.8774 224.357 69.9736 224.527 70.0701 224.696C105.165 290.693 203.984 296.159 251.754 250.737C259.229 243.63 264.989 237.232 271.298 229.021C285.864 210.064 292.15 188.536 287.054 191.773C287.049 191.777 287.026 191.792 286.986 191.819C285.068 193.121 243.439 221.365 203.261 227.319C132.578 237.793 95.9662 184.428 106.47 150.576C112.232 132.01 129.305 126.814 139.119 131.185C148.109 135.189 152.843 142.421 156.322 147.737C158.937 151.732 160.844 154.644 163.316 154.29C169.806 149.76 156.828 117.569 128.747 117.569C119.529 117.569 119.145 113.444 122.602 111.793C124.849 110.721 159.859 104.367 177.527 152.228C178.728 155.48 189.818 153.878 177.142 130.772C176.331 129.291 180.652 127.482 187.513 136.136C194.939 145.5 195.038 156.029 195.108 163.56C195.122 164.988 195.134 166.309 195.195 167.493C195.498 173.355 203.131 168.514 204.797 155.528C206.333 143.563 205.95 127.884 195.195 111.381Z" fill="#965211"/>
<path fill-rule="evenodd" clip-rule="evenodd" d="M192.337 104.96C184.295 92.6174 168.918 81.1081 138.18 80.204C86.9227 78.6952 44.3917 131.969 57.3495 191.264C57.4672 191.803 57.5894 192.341 57.7162 192.881C58.6639 196.911 59.869 200.966 61.346 205.032C61.7182 206.057 62.1076 207.082 62.5146 208.107C63.8454 211.463 65.3192 214.682 66.9237 217.766C67.0195 217.936 67.1157 218.106 67.2122 218.274C102.307 284.271 201.126 289.738 248.896 244.316C256.371 237.208 262.131 230.81 268.44 222.6C283.006 203.643 289.292 182.115 284.196 185.352C284.191 185.355 284.168 185.371 284.128 185.398C282.21 186.699 240.582 214.944 200.403 220.897C129.72 231.372 93.1083 178.006 103.612 144.155C109.374 125.589 126.447 120.393 136.261 124.764C145.251 128.768 149.985 136 153.464 141.315C156.079 145.31 157.986 148.223 160.458 147.869C166.948 143.338 153.97 111.148 125.889 111.148C116.671 111.148 116.287 107.022 119.744 105.372C121.992 104.299 157.001 97.9453 174.669 145.806C175.87 149.058 186.96 147.456 174.284 124.351C173.473 122.87 177.794 121.061 184.655 129.714C192.081 139.079 192.18 149.608 192.25 157.138C192.264 158.567 192.276 159.888 192.337 161.072C192.64 166.934 200.273 162.093 201.939 149.107C203.476 137.141 203.092 121.463 192.337 104.96Z" fill="#F7CE46"/>
</svg>
