<svg width="1207" height="375" viewBox="0 0 1207 375" fill="none" xmlns="http://www.w3.org/2000/svg">
<path d="M0 298V-156.768H305.382V-68.1941H115.014V39.5489H280.925V128.123H115.014V298H0Z" fill="#F9F9FD"/>
<path d="M304.775 298L448.873 -156.768H605.53L750.289 298H633.953L606.852 208.765H444.907L418.467 298H304.775ZM469.364 122.174H581.734L527.532 -57.6182H522.905L469.364 122.174Z" fill="#F9F9FD"/>
<path d="M1084.16 374.015L1029.3 292.712L1130.43 263.628L1206.44 370.71V374.015H1084.16ZM987.653 303.288C949.315 303.288 917.807 301.085 893.13 296.678C868.893 291.831 849.944 284.339 836.284 274.204C822.623 263.628 812.488 249.527 805.878 231.9C799.708 213.833 795.742 191.579 793.98 165.139C792.658 138.699 791.997 107.191 791.997 70.6159C791.997 34.0405 792.658 2.53287 793.98 -23.9071C795.742 -50.3472 799.708 -72.3805 805.878 -90.0071C812.488 -108.074 822.623 -122.176 836.284 -132.311C849.944 -142.887 868.893 -150.378 893.13 -154.785C917.807 -159.632 949.315 -162.056 987.653 -162.056C1025.55 -162.056 1056.62 -159.632 1080.85 -154.785C1105.53 -150.378 1124.92 -142.887 1139.02 -132.311C1153.12 -122.176 1163.26 -108.074 1169.43 -90.0071C1175.6 -72.3805 1179.56 -50.3472 1181.33 -23.9071C1183.09 2.53287 1183.97 34.0405 1183.97 70.6159C1183.97 107.191 1183.09 138.699 1181.33 165.139C1179.56 191.579 1175.6 213.833 1169.43 231.9C1163.26 249.527 1153.12 263.628 1139.02 274.204C1124.92 284.339 1105.53 291.831 1080.85 296.678C1056.62 301.085 1025.55 303.288 987.653 303.288ZM987.653 214.714C1003.52 214.714 1016.3 214.273 1025.99 213.392C1036.13 212.07 1044.06 209.206 1049.79 204.799C1055.52 199.952 1059.7 192.46 1062.35 182.325C1064.99 172.19 1066.53 158.088 1066.97 140.021C1067.85 121.954 1068.29 98.8185 1068.29 70.6159C1068.29 42.4132 1067.85 19.2782 1066.97 1.21085C1066.53 -16.8565 1064.99 -30.9578 1062.35 -41.0931C1059.7 -51.2285 1055.52 -58.4995 1049.79 -62.9061C1044.06 -67.7535 1036.13 -70.6178 1025.99 -71.4991C1016.3 -72.8211 1003.52 -73.4821 987.653 -73.4821C972.229 -73.4821 959.45 -72.8211 949.315 -71.4991C939.179 -70.6178 931.247 -67.7535 925.519 -62.9061C919.79 -58.4995 915.604 -51.2285 912.96 -41.0931C910.316 -30.9578 908.553 -16.8565 907.672 1.21085C907.231 19.2782 907.011 42.4132 907.011 70.6159C907.011 98.8185 907.231 121.954 907.672 140.021C908.553 158.088 910.316 172.19 912.96 182.325C915.604 192.46 919.79 199.952 925.519 204.799C931.247 209.206 939.179 212.07 949.315 213.392C959.45 214.273 972.229 214.714 987.653 214.714Z" fill="#F9F9FD"/>
</svg>
