<svg width="597" height="500" viewBox="0 0 597 500" fill="none" xmlns="http://www.w3.org/2000/svg">
<g clip-path="url(#clip0_289_643)">
<path d="M172.565 119.252C172.565 119.252 169.344 100.399 158.913 85.6836C148.483 70.9687 116.884 78.3262 108.601 56.4071C100.164 34.4881 121.639 -12.4157 144.955 3.06561C168.27 18.5469 157.993 76.027 172.719 84.3041C187.444 92.5812 194.347 96.5665 194.347 96.5665C194.347 96.5665 199.869 110.055 191.126 116.646C182.382 123.237 172.872 122.164 172.565 119.252Z" fill="#EAEEF4"/>
<path d="M225.179 42.1521C225.179 57.1735 212.448 68.2097 201.71 67.4433C190.973 66.6769 185.911 55.4874 185.911 42.1521C186.065 28.8167 190.973 17.6272 201.71 16.8608C212.294 16.0944 225.179 27.1306 225.179 42.1521Z" fill="#EAEEF4"/>
<path d="M124.554 149.448C124.554 160.944 114.737 169.528 106.454 168.915C98.1708 168.302 94.336 159.718 94.1826 149.448C94.1826 139.178 98.0174 130.595 106.454 129.982C114.584 129.368 124.554 137.952 124.554 149.448Z" fill="#EAEEF4"/>
<path d="M128.542 102.698C128.542 106.99 125.014 110.515 120.719 110.515C116.424 110.515 112.896 106.99 112.896 102.698C112.896 98.4059 116.424 94.8805 120.719 94.8805C125.014 95.0338 128.542 98.4059 128.542 102.698Z" fill="#EAEEF4"/>
<path d="M595.466 308.4C583.808 283.722 538.404 301.809 538.404 301.809C538.404 301.809 572.304 283.568 553.283 245.402C537.177 213.059 490.853 214.899 477.048 216.278C491.313 214.286 537.791 205.549 515.089 174.126C490.393 140.098 450.664 173.207 444.682 178.571C460.481 165.543 474.747 111.281 436.706 107.603C398.051 103.771 392.836 150.215 392.836 150.215C392.836 150.215 348.659 56.7137 263.68 84.6107C178.854 112.354 199.869 183.17 199.869 183.17C199.869 183.17 116.117 169.375 97.557 234.365C57.9819 372.777 421.52 364.654 533.189 349.785C551.443 347.026 607.124 333.078 595.466 308.4Z" fill="#EAEEF4"/>
<path d="M76.2354 487.278H307.396C307.396 487.278 212.447 229.767 177.167 207.848C138.973 183.936 68.5658 185.469 36.3536 196.045C4.14136 206.622 20.861 436.235 76.2354 487.278Z" fill="#C0C6DD"/>
<path opacity="0.1" d="M177.167 207.695C161.214 197.731 139.586 192.213 117.344 189.914C110.749 201.717 102.926 212.906 94.9493 223.789C90.501 229.767 86.0526 235.898 81.7577 241.876C77.9229 247.241 73.6279 252.606 71.4804 258.89C69.9465 263.029 69.9465 267.474 71.0202 271.766C71.9406 275.751 73.7813 279.583 75.4686 283.415C77.1559 287.4 78.5364 291.692 78.9966 295.984C79.4568 301.502 78.5364 306.867 76.6957 311.925C74.855 316.83 71.4804 320.662 67.799 324.341C64.7312 327.407 61.3566 330.472 60.2828 334.764C57.5218 345.8 69.6397 352.238 72.5542 361.741C75.0084 369.559 71.0202 376.916 64.5778 381.055C57.6752 385.5 49.2386 387.186 41.2623 387.952C38.808 388.259 36.2004 388.259 33.7461 388.412C43.2564 431.637 57.6752 469.804 76.5423 487.124H307.703C307.397 487.278 212.294 229.767 177.167 207.695Z" fill="#0F47B7"/>
<path d="M195.421 55.0276C195.421 55.0276 200.79 43.3784 213.981 51.6555C227.173 60.0859 247.881 75.8738 249.721 104.69C251.562 133.507 243.586 133.047 260.152 147.302C276.872 161.557 291.597 159.411 286.996 184.243C282.394 209.074 273.344 203.863 272.423 231.606C271.503 259.197 211.987 258.737 201.25 246.321C190.359 233.906 177.014 231.453 164.589 214.746C152.164 198.038 166.89 189.608 154.465 174.739C140.813 158.339 130.229 160.791 132.224 123.391C134.371 85.9902 145.108 70.0491 152.625 62.9982C166.89 49.3563 189.132 39.6996 195.421 55.0276Z" fill="#171C80"/>
<path d="M228.554 110.975C227.787 117.566 224.106 122.471 220.424 122.011C216.743 121.551 214.442 115.88 215.209 109.289C215.976 102.698 219.657 97.7929 223.339 98.2528C227.02 98.7126 229.321 104.384 228.554 110.975Z" fill="#D6D9EA"/>
<path d="M226.099 110.055C225.025 118.486 220.27 124.923 215.515 124.31C210.76 123.697 207.846 116.34 208.766 107.909C209.84 99.479 214.595 93.0412 219.35 93.6543C224.258 94.1141 227.173 101.472 226.099 110.055Z" fill="#C0C6DD"/>
<path d="M265.061 219.651C279.173 233.446 295.125 255.672 295.125 255.672L389.768 203.863L400.505 218.118C400.505 218.118 324.116 326.487 294.358 320.049C272.884 315.451 239.904 268.24 227.173 244.635C232.388 240.957 263.987 220.264 265.061 219.651Z" fill="#FE947C"/>
<path d="M423.821 210.76C419.679 213.673 415.998 215.972 413.85 216.892C412.163 217.658 410.629 218.118 408.942 218.424C407.561 218.731 406.334 218.884 405.26 219.037C402.346 219.344 400.198 219.037 400.198 219.037L370.9 241.57C365.532 236.818 360.93 228.081 360.316 226.548C360.316 226.548 389.001 208.308 390.688 202.177V202.023C390.688 201.87 390.688 201.87 390.688 201.717C390.688 200.184 391.455 198.191 392.835 196.045C393.756 194.513 394.983 192.98 396.363 191.6C399.585 188.381 396.977 176.119 399.891 175.812C402.653 175.506 406.027 182.097 404.953 185.776C403.88 189.454 407.101 190.374 410.015 188.228L410.936 187.615C416.765 183.476 435.018 170.754 437.472 173.36C439.16 175.046 432.104 181.024 426.428 185.469C433.484 180.411 443.915 173.36 444.682 175.966C445.295 177.958 435.632 186.389 430.11 190.987C434.098 188.228 442.228 182.863 443.301 184.243C445.449 187.155 437.472 193.44 431.95 197.272C435.478 195.279 439.62 193.286 441 194.666C442.841 196.352 432.564 204.629 423.821 210.76Z" fill="#FE947C"/>
<path opacity="0.1" d="M402.653 218.118C401.886 218.118 401.272 218.118 400.505 217.964C398.051 217.505 395.75 215.972 394.063 214.132C392.376 212.293 390.995 209.994 390.842 207.388C390.842 206.315 390.995 205.242 391.302 204.323C392.683 208.308 396.517 210.914 396.517 210.914C398.051 214.132 400.199 216.432 402.5 217.658C402.5 218.118 402.653 218.118 402.653 218.118Z" fill="#171C80"/>
<path opacity="0.2" d="M423.054 209.841C422.44 211.68 415.998 215.972 413.851 216.892C412.163 217.658 410.629 218.118 408.942 218.424C407.561 218.731 406.334 218.884 405.261 219.037C404.34 218.884 403.42 218.424 402.5 217.965C400.199 216.585 398.051 214.286 396.517 211.22C396.517 211.22 392.683 208.461 391.302 204.629C390.995 203.863 390.842 203.096 390.842 202.177C390.842 202.023 390.842 202.023 390.842 201.87C390.842 200.337 391.609 198.345 392.989 196.199C393.91 194.666 395.137 193.133 396.517 191.754C399.739 188.535 397.131 176.272 400.045 175.966C402.806 175.659 406.181 182.25 405.107 185.929C404.033 189.608 406.641 189.761 410.169 189.761C413.237 189.761 416.918 192.367 419.986 197.578C423.207 202.943 422.901 208.001 423.054 209.841Z" fill="white"/>
<path d="M422.747 203.863C422.901 203.863 422.901 203.863 422.747 203.863L431.951 197.425L422.594 203.25C422.44 202.943 422.44 202.637 422.44 202.33C421.98 200.95 421.52 199.724 420.907 198.498L429.496 191.447L420.6 197.885C420.6 197.732 420.446 197.732 420.446 197.578C419.526 196.199 418.606 194.819 417.532 193.44C417.379 193.133 417.072 192.98 416.918 192.673L425.508 185.622L416.612 192.06C415.845 191.141 414.924 190.374 414.004 189.608C415.231 190.834 416.305 192.06 417.225 193.44C418.145 194.819 419.219 196.199 419.986 197.578C420.907 198.958 421.52 200.491 421.98 202.177C422.594 203.709 423.054 205.396 423.514 206.928C423.361 206.162 423.054 204.936 422.747 203.863Z" fill="#FE947C"/>
<path d="M288.376 239.117C277.485 247.088 271.81 250.46 262.759 260.423C257.544 266.248 252.329 272.226 246.653 277.591C241.591 270.846 238.524 266.401 238.524 266.401C238.524 266.401 180.848 160.025 210.606 161.557C229.78 179.491 289.143 238.504 288.376 239.117Z" fill="#4263F6"/>
<path d="M259.845 235.592C250.182 230.687 241.745 223.789 235.456 215.205C236.07 218.884 236.683 222.41 237.143 226.088C238.831 240.037 239.444 254.139 239.751 268.24C240.978 270.08 243.432 273.452 246.807 277.744C252.483 272.379 257.698 266.248 262.913 260.576C270.276 252.453 275.491 248.621 283.161 243.256C274.878 241.723 267.055 239.27 259.845 235.592Z" fill="#2846C8"/>
<path d="M114.89 411.711C114.89 411.711 92.8016 472.41 112.742 487.278H327.184C327.184 487.278 340.836 428.571 252.789 410.944L114.89 411.711Z" fill="#171C80"/>
<path d="M186.064 150.828C110.902 145.77 113.05 330.166 110.902 389.945C109.368 433.17 294.665 418.608 279.173 382.434C242.819 297.364 258.925 155.579 186.064 150.828Z" fill="#4263F6"/>
<path d="M154.005 217.811C151.397 212.293 148.329 207.082 145.108 201.87C142.04 208.614 139.126 215.512 136.365 222.256C129.462 239.73 123.48 257.664 119.799 276.058C117.344 288.473 115.964 301.042 115.964 313.611C123.173 310.852 130.076 307.48 136.518 303.188C144.035 298.437 150.937 292.612 155.999 285.255C160.294 278.817 163.055 271.459 163.975 263.795C165.97 248.007 160.908 231.913 154.005 217.811Z" fill="#2846C8"/>
<path d="M198.488 135.5C198.488 135.5 200.636 144.697 202.783 156.499C203.397 159.871 211.987 185.162 198.795 188.688C180.082 193.593 170.725 154.2 170.725 154.2L173.639 129.675L198.488 135.5Z" fill="#FE947C"/>
<path opacity="0.2" d="M202.783 156.652C200.635 144.85 198.488 135.653 198.488 135.653L184.683 130.288C186.677 134.273 173.178 135.346 175.786 139.178C189.284 159.411 200.022 154.506 196.034 167.995C194.807 172.134 182.995 174.739 180.081 177.805C184.683 185.163 190.972 190.987 198.795 188.995C211.986 185.163 203.396 159.871 202.783 156.652Z" fill="#E74B3E"/>
<path d="M222.724 83.2312C222.724 83.2312 221.651 150.674 203.244 149.295C183.763 147.915 165.049 133.047 161.214 122.318C157.533 111.588 158.76 112.201 158.76 112.201C158.76 112.201 152.011 111.281 151.551 100.092C151.091 88.9026 159.374 96.7198 159.374 96.7198C159.374 96.7198 182.689 64.9908 199.255 66.5236C215.668 67.9032 222.724 83.2312 222.724 83.2312Z" fill="#FE947C"/>
<path d="M158.453 99.019L157.993 109.442C157.993 109.442 155.232 104.537 154.772 100.705C154.312 97.0264 158.453 99.019 158.453 99.019Z" fill="#E2A07F"/>
<path d="M219.963 88.2895C219.35 81.5451 213.061 74.341 212.294 73.4213C217.356 79.5525 216.742 90.1288 216.589 92.2747C210.913 98.0994 201.863 103.004 190.359 93.1944C167.35 73.7278 160.141 103.004 160.141 103.004C160.141 103.004 153.698 75.7205 172.412 66.677C190.972 57.6334 210.3 62.2318 223.184 83.0779C223.184 82.9247 222.111 85.3771 219.963 88.2895Z" fill="#171C80"/>
<path d="M169.957 102.391C170.571 112.048 165.509 120.172 158.76 120.632C152.01 121.091 146.028 113.581 145.415 103.924C144.801 94.2674 149.863 86.1436 156.612 85.6837C163.361 85.2239 169.344 92.7346 169.957 102.391Z" fill="#C0C6DD"/>
<path d="M162.902 99.9387C163.362 107.449 159.527 113.734 154.312 114.041C149.096 114.347 144.495 108.522 144.035 101.165C143.574 93.6543 147.409 87.3698 152.624 87.0632C157.84 86.7566 162.441 92.5813 162.902 99.9387Z" fill="#D6D9EA"/>
<path d="M221.037 121.091C221.037 121.091 222.725 136.879 210.453 140.558L210.3 139.332C210.3 139.332 220.117 137.952 219.81 121.858C219.81 121.705 220.27 120.785 221.037 121.091Z" fill="#C0C6DD"/>
<path d="M212.907 138.412C213.06 140.098 211.68 141.631 209.993 141.631C208.766 141.784 207.538 141.018 207.078 139.945C206.925 139.638 206.771 139.178 206.771 138.719C206.618 137.033 207.999 135.5 209.686 135.5C210.606 135.5 211.527 135.806 212.14 136.419C212.6 137.033 212.907 137.646 212.907 138.412Z" fill="#D6D9EA"/>
<path d="M212.294 137.646C212.447 139.332 211.066 140.865 209.379 140.865C208.459 140.865 207.538 140.558 206.925 139.945C206.771 139.638 206.618 139.178 206.618 138.719C206.465 137.033 207.845 135.5 209.533 135.5C210.453 135.5 211.373 135.806 211.987 136.419C212.14 136.879 212.294 137.186 212.294 137.646Z" fill="#C0C6DD"/>
<path d="M160.447 88.2895C160.447 88.2895 180.235 65.7573 193.887 63.9179C207.385 62.0786 218.583 72.9615 218.583 72.9615C218.583 72.9615 214.748 59.1662 193.887 59.7794C169.804 60.5458 158.453 86.6034 158.453 86.6034L160.447 88.2895Z" fill="#D6D9EA"/>
<path d="M496.068 419.068L496.682 428.265L497.295 434.243L498.216 446.659L499.136 457.695L501.59 487.431H525.059V484.979L523.832 454.169L523.525 443.746L523.065 430.564L522.758 425.353L522.605 419.068L522.298 411.251L519.384 409.718L518.157 408.952L510.334 404.66L494.074 395.77L494.841 405.886L496.068 419.068Z" fill="#C0C6DD"/>
<path d="M159.987 487.431L162.748 450.644L163.669 437.155L164.589 423.82L165.203 416.309L166.123 402.974L167.657 405.273L139.433 398.222L139.28 402.974L138.973 413.55L138.819 420.448L138.359 434.549L137.899 447.272L136.672 487.431H159.987Z" fill="#C0C6DD"/>
<g opacity="0.1">
<path d="M496.068 419.068L496.682 428.265L497.295 434.243L498.216 446.659L499.136 457.695L501.59 487.431H525.059V484.979L523.832 454.169L523.525 443.746L523.065 430.564L522.758 425.353L522.605 419.068L522.298 411.251L519.384 409.718L518.157 408.952L510.334 404.66L494.074 395.77L494.841 405.886L496.068 419.068Z" fill="#0F47B7"/>
</g>
<g opacity="0.1">
<path d="M159.987 487.431L162.748 450.644L163.669 437.155L164.589 423.82L165.203 416.309L166.123 402.974L167.657 405.273L139.433 398.222L139.28 402.974L138.973 413.55L138.819 420.448L138.359 434.549L137.899 447.272L136.672 487.431H159.987Z" fill="#0F47B7"/>
</g>
<path d="M542.239 404.2C496.221 396.536 414.157 391.324 320.435 391.324C226.712 391.324 144.648 396.383 98.6305 404.2H59.5156V420.294H60.1292C69.0259 434.396 182.075 445.586 320.435 445.586C458.794 445.586 571.997 434.396 580.74 420.294H581.354V404.2H542.239Z" fill="#D6D9EA"/>
<path opacity="0.1" d="M542.239 404.2C527.36 401.747 508.493 399.448 486.865 397.609C482.263 399.908 477.508 401.747 472.906 403.127C464.776 405.733 456.493 407.572 448.057 408.952C433.791 411.404 419.526 413.55 405.107 415.083C390.842 416.616 376.576 417.382 362.311 417.075C355.255 416.922 348.045 416.462 341.143 415.543C334.087 414.47 327.184 413.09 320.128 412.477C313.686 411.864 307.243 412.171 300.954 413.703C294.665 415.083 288.836 417.535 283.314 420.294C272.423 425.812 262.453 433.017 253.71 440.987C252.482 442.06 251.255 443.286 250.182 444.513C272.73 445.126 296.352 445.586 320.895 445.586C459.254 445.586 572.457 434.396 581.201 420.294H581.814V404.2H542.239Z" fill="#0F47B7"/>
<path d="M320.435 433.17C464.536 433.17 581.354 421.023 581.354 406.039C581.354 391.055 464.536 378.909 320.435 378.909C176.333 378.909 59.5156 391.055 59.5156 406.039C59.5156 421.023 176.333 433.17 320.435 433.17Z" fill="#EAEEF4"/>
<g opacity="0.1">
<path d="M505.579 386.879C508.033 395.31 496.989 402.054 489.012 405.273C482.11 408.032 474.44 409.718 467.077 410.944C458.641 412.324 450.051 412.63 441.308 412.63C423.821 412.477 406.488 410.484 389.154 411.098C381.945 411.251 375.042 412.017 368.447 414.776C363.231 416.922 358.323 419.835 353.414 422.594C348.352 425.353 343.137 427.805 337.462 429.338C329.792 431.331 321.662 431.024 313.686 431.177C294.358 431.484 275.185 431.177 255.857 431.024C241.285 430.871 226.713 430.564 212.141 430.871C245.12 432.404 281.78 433.323 320.282 433.323C464.316 433.323 581.201 421.214 581.201 406.193C581.508 398.529 552.517 391.784 505.579 386.879Z" fill="#0F47B7"/>
</g>
<path d="M211.987 357.909C211.987 357.909 240.364 358.216 252.789 360.362C265.214 362.508 279.172 382.281 279.172 382.281H267.975L257.084 375.843C257.084 375.843 258.771 381.821 252.789 381.821C246.807 381.821 232.848 387.339 216.895 379.062C201.096 370.785 211.987 357.909 211.987 357.909Z" fill="#FE947C"/>
<path d="M121.486 296.137C121.486 296.137 132.991 273.912 136.672 253.372C123.787 249.08 115.504 246.321 104.153 239.117C91.7284 268.087 72.4011 303.035 89.1207 326.487C104.307 347.793 217.049 379.062 217.049 379.062L225.486 358.216L121.486 296.137Z" fill="#FE947C"/>
<path d="M82.5244 274.831C96.6364 218.884 156.152 155.579 158.453 159.258C185.297 203.25 150.017 267.934 131.917 290.619C131.15 290.313 87.7397 276.977 82.5244 274.831Z" fill="#4263F6"/>
<path d="M193.12 393.777H287.609C288.376 393.777 288.836 393.164 288.836 392.551V381.974C288.836 381.208 288.223 380.748 287.609 380.748H193.12C192.353 380.748 191.893 381.361 191.893 381.974V392.551C191.739 393.164 192.353 393.777 193.12 393.777Z" fill="#C0C6DD"/>
<path d="M290.523 374.31H452.198C457.72 374.31 462.168 378.755 462.168 384.274C462.168 389.792 457.72 394.237 452.198 394.237H290.523C285.001 394.237 280.553 389.792 280.553 384.274C280.553 378.909 285.001 374.31 290.523 374.31Z" fill="#C0C6DD"/>
<path d="M287.762 384.274H445.449C450.511 384.274 455.573 380.135 456.953 375.077L482.263 273.605C483.49 268.547 480.422 264.408 475.36 264.408H317.674C312.612 264.408 307.55 268.547 306.169 273.605L280.86 375.077C279.479 380.135 282.547 384.274 287.762 384.274Z" fill="#C0C6DD"/>
<path d="M295.432 381.821H453.118C458.18 381.821 463.242 377.682 464.623 372.624L489.932 271.153C491.16 266.094 488.092 261.956 483.03 261.956H325.497C320.435 261.956 315.373 266.094 313.992 271.153L288.683 372.624C287.302 377.682 290.37 381.821 295.432 381.821Z" fill="#D6D9EA"/>
<path d="M446.983 31.2692C435.479 31.729 418.605 33.8749 401.119 32.6487C380.258 31.1159 340.529 29.7364 320.128 31.2692C307.857 32.1889 297.733 39.2397 297.733 49.203V92.428L275.645 110.055H297.733V111.128C297.733 121.091 307.857 127.836 320.128 129.062C323.809 129.522 327.491 129.675 331.479 129.828C335.314 129.982 372.588 128.602 379.184 128.296C396.057 127.376 430.11 128.909 446.983 129.062C459.408 129.215 469.378 120.938 469.378 111.128V49.203C469.378 39.2397 459.408 30.6561 446.983 31.2692Z" fill="#D6D9EA"/>
<path d="M463.089 43.0717C463.089 49.2029 461.709 55.0276 459.254 60.2391C452.812 73.881 438.853 83.2311 422.747 83.2311C406.641 83.2311 392.836 73.7278 386.24 60.2391C383.786 55.0276 382.405 49.2029 382.405 43.0717C382.405 20.8461 400.505 2.75903 422.747 2.75903C445.142 2.75903 463.089 20.8461 463.089 43.0717Z" fill="#C0C6DD"/>
<path d="M432.342 35.1385C437.554 29.9308 437.554 21.4874 432.342 16.2797C427.131 11.0719 418.681 11.0719 413.47 16.2796C408.258 21.4874 408.258 29.9308 413.469 35.1386C418.681 40.3463 427.131 40.3463 432.342 35.1385Z" fill="white"/>
<path d="M455.266 58.3997C449.437 70.5088 437.166 78.786 422.901 78.786C408.635 78.786 396.211 70.3555 390.535 58.2464C396.824 46.7504 408.942 38.9331 422.901 38.9331C436.859 38.9331 449.131 46.9037 455.266 58.3997Z" fill="white"/>
<path d="M371.514 70.6621H318.287V79.8589H371.514V70.6621Z" fill="#C0C6DD"/>
<path d="M345.744 88.4426H318.287V96.7198H345.744V88.4426Z" fill="#C0C6DD"/>
<path d="M451.124 88.4426H423.667V96.7198H451.124V88.4426Z" fill="#C0C6DD"/>
<path d="M419.065 88.4426H367.372V96.7198H419.065V88.4426Z" fill="#C0C6DD"/>
<path d="M363.231 88.4426H349.579V96.7198H363.231V88.4426Z" fill="#C0C6DD"/>
<path d="M345.744 104.537H318.287V112.814H345.744V104.537Z" fill="#C0C6DD"/>
<path d="M421.673 104.537H398.051V112.814H421.673V104.537Z" fill="#C0C6DD"/>
<path d="M393.909 104.537H349.579V112.814H393.909V104.537Z" fill="#C0C6DD"/>
<path d="M415.231 480.84C362.158 474.402 306.17 484.212 268.589 480.687C231.008 477.161 155.846 486.205 120.412 479.307C84.979 472.563 37.8878 477.621 34.8199 486.051C29.6046 500.153 73.0144 492.643 110.595 496.934C148.176 501.073 249.415 496.781 285.155 496.934C320.895 497.088 413.544 495.708 466.004 498.774C518.464 501.839 585.036 500.766 587.03 488.197C590.251 466.278 468.305 487.278 415.231 480.84Z" fill="#EAEEF4"/>
<path fill-rule="evenodd" clip-rule="evenodd" d="M111 96.944C111 127.288 86.3751 151.888 55.9995 151.888C25.6228 151.888 1 127.288 1 96.944C1 66.5986 25.6228 42 55.9995 42C86.3751 42 111 66.5986 111 96.944Z" fill="#F8C637"/>
<path fill-rule="evenodd" clip-rule="evenodd" d="M98.0808 61.578C87.9908 49.6114 72.889 42 55.9995 42C25.6228 42 1 66.5986 1 96.944C1 103.32 2.09829 109.435 4.09802 115.129C35.1126 96.7366 66.4165 78.835 98.0808 61.578Z" fill="#F5D664"/>
<path fill-rule="evenodd" clip-rule="evenodd" d="M62.3594 151.511C74.9773 150.059 86.298 144.353 94.8337 135.85C86.2453 139.973 77.6795 144.143 69.1029 148.288C66.8601 149.372 64.6054 150.434 62.3594 151.511Z" fill="#F5D664"/>
<path fill-rule="evenodd" clip-rule="evenodd" d="M96.9392 96.0736C96.9392 119.143 78.222 137.842 55.1289 137.842C32.0347 137.842 13.3164 119.143 13.3164 96.0736C13.3164 73.0042 32.0347 54.3052 55.1289 54.3052C78.222 54.3052 96.9392 73.0042 96.9392 96.0736Z" fill="#CC7C2F"/>
<path fill-rule="evenodd" clip-rule="evenodd" d="M98.1208 97.8145C98.1208 120.573 79.6543 139.022 56.871 139.022C34.0876 139.022 15.6211 120.573 15.6211 97.8145C15.6211 75.0557 34.0876 56.606 56.871 56.606C79.6543 56.606 98.1208 75.0557 98.1208 97.8145Z" fill="#E5A235"/>
<path opacity="0.394409" fill-rule="evenodd" clip-rule="evenodd" d="M65.0036 78.5393C62.3592 74.4809 57.3026 70.6963 47.1951 70.399C28.7554 69.8562 13.7502 90.8743 22.3139 112.458C22.3701 112.599 22.427 112.74 22.4847 112.88C22.8767 113.832 23.304 114.749 23.764 115.634C23.7947 115.688 23.8256 115.742 23.8565 115.797C35.3949 137.502 67.8927 139.301 83.602 124.364C86.06 122.027 87.9539 119.923 90.0284 117.223C94.8182 110.989 96.8852 103.91 95.2095 104.975C95.2079 104.976 95.2004 104.981 95.1872 104.99C94.5564 105.418 80.8678 114.705 67.656 116.663C44.413 120.108 32.3741 102.559 35.828 91.428C37.7227 85.3229 43.3369 83.6144 46.5639 85.0515C49.5202 86.3683 51.0768 88.7464 52.221 90.4942C53.081 91.808 53.7079 92.7657 54.5208 92.6492C56.6548 91.1594 52.3872 80.5743 43.1535 80.5743C40.1223 80.5743 39.996 79.2176 41.1327 78.675C41.8718 78.3222 53.384 76.2328 59.1937 91.971C59.5886 93.0404 63.2353 92.5136 59.0673 84.9159C58.8006 84.4289 60.2213 83.834 62.4774 86.6794C64.9193 89.7588 64.9518 93.2211 64.975 95.6973C64.9794 96.1671 64.9835 96.6014 65.0036 96.9908C65.1032 98.9183 67.6131 97.3265 68.1611 93.0562C68.6662 89.1217 68.54 83.966 65.0036 78.5393Z" fill="#965211"/>
<path fill-rule="evenodd" clip-rule="evenodd" d="M64.0642 76.4279C61.4197 72.3694 56.3632 68.5848 46.2557 68.2875C29.1125 67.7829 14.9378 85.9137 19.9106 105.809C20.1818 106.894 20.5098 107.984 20.8974 109.076C21.0475 109.499 21.2064 109.923 21.3745 110.346C21.3997 110.41 21.4252 110.473 21.4508 110.537C21.8682 111.571 22.3272 112.566 22.8244 113.522C22.8556 113.577 22.8869 113.633 22.9184 113.688C34.4579 135.391 66.9539 137.189 82.6625 122.253C85.1206 119.915 87.0144 117.811 89.089 115.112C93.8787 108.878 95.9457 101.799 94.2701 102.863C94.2684 102.864 94.261 102.869 94.2478 102.878C93.617 103.306 79.9283 112.594 66.7165 114.552C43.4736 117.996 31.4347 100.448 34.8885 89.3166C36.7833 83.2114 42.3975 81.5029 45.6245 82.94C48.5807 84.2568 50.1374 86.6349 51.2816 88.3828C52.1415 89.6965 52.7684 90.6542 53.5814 90.5378C55.7153 89.0479 51.4477 78.4628 42.2141 78.4628C39.1828 78.4628 39.0566 77.1061 40.1932 76.5635C40.9324 76.2107 52.4445 74.1214 58.2542 89.8595C58.6491 90.9289 62.2959 90.4021 58.1278 82.8044C57.8611 82.3174 59.2819 81.7225 61.5379 84.5679C63.9798 87.6474 64.0123 91.1096 64.0356 93.5859C64.04 94.0556 64.0441 94.4899 64.0642 94.8793C64.1638 96.8069 66.6737 95.215 67.2217 90.9448C67.7268 87.0102 67.6005 81.8546 64.0642 76.4279Z" fill="#F7CE46"/>
</g>
<defs>
<clipPath id="clip0_289_643">
<rect width="597" height="500" fill="white"/>
</clipPath>
</defs>
</svg>
