<svg xmlns="http://www.w3.org/2000/svg" width="647" height="639" fill="none" xmlns:v="https://vecta.io/nano"><style><![CDATA[.B{fill:#fff}.C{fill-rule:evenodd}.D{color-interpolation-filters:sRGB}.E{flood-opacity:0}.F{fill:#20244f}.G{opacity:.199}.H{fill:#0c217e}.I{opacity:.502}]]></style><path d="M0 26.122c0-14.359 11.641-26 26-26h613a8 8 0 0 1 8 8v598c0 14.359-11.641 26-26 26H26c-14.359 0-26-11.641-26-26v-580z" fill="url(#F)"/><g clip-path="url(#H)"><g filter="url(#A)" class="B C"><path d="M175 62.281a6.16 6.16 0 0 1 6.159-6.159h307.682A6.16 6.16 0 0 1 495 62.281v533.682a6.16 6.16 0 0 1-6.159 6.159H181.159a6.16 6.16 0 0 1-6.159-6.159v-59.215V62.281z" fill-opacity=".97"/></g><g fill="#4263f6"><path d="M290.023 125.903c-1.225 1.372-2.675 2.477-4.35 3.316-1.675.813-3.413 1.22-5.213 1.22-3.075 0-5.55-1.004-7.425-3.012-1.875-2.033-2.813-4.828-2.813-8.386 0-4.372 1.275-8.133 3.825-11.285 2.551-3.176 5.763-4.765 9.639-4.765 3.725 0 6.762 1.919 9.113 5.757l-1.801 1.22c-1.85-3.304-4.3-4.956-7.35-4.956a9.41 9.41 0 0 0-5.888 2.02c-1.75 1.322-3.088 3.05-4.013 5.185-.925 2.109-1.387 4.371-1.387 6.785 0 2.898.725 5.198 2.175 6.901 1.475 1.677 3.488 2.516 6.038 2.516 1.375 0 2.762-.331 4.163-.992 1.4-.686 2.637-1.639 3.712-2.859l1.575 1.335zm12.744-14.334c2.251 0 4.038.66 5.363 1.982 1.35 1.322 2.025 3.177 2.025 5.566 0 3.227-.862 5.921-2.587 8.082s-4.025 3.24-6.901 3.24c-2.275 0-4.087-.673-5.437-2.02-1.326-1.373-1.988-3.279-1.988-5.719 0-3.075.875-5.693 2.625-7.853 1.75-2.186 4.05-3.278 6.9-3.278zm-.075 1.868c-2.15 0-3.937.876-5.362 2.63-1.4 1.754-2.1 3.901-2.1 6.443 0 1.88.487 3.367 1.462 4.46 1 1.067 2.338 1.601 4.013 1.601 2.175 0 3.95-.877 5.325-2.63 1.4-1.754 2.1-3.99 2.1-6.71 0-1.906-.5-3.342-1.5-4.308-1-.991-2.312-1.486-3.938-1.486zm13.195-8.425a1.47 1.47 0 0 1 1.088-.458c.425 0 .775.14 1.05.42s.413.635.413 1.067-.15.8-.45 1.105c-.275.305-.638.458-1.088.458-.4 0-.738-.14-1.013-.419s-.412-.636-.412-1.068c0-.457.137-.826.412-1.105zm-.675 6.747h1.951l-2.213 18.489H313l2.212-18.489zm16.481-.19c3.676 0 5.176 2.516 4.501 7.548l-1.426 11.131h-1.95l1.425-11.017c.5-3.863-.512-5.794-3.037-5.794-1.65 0-3.288.838-4.913 2.516a11.39 11.39 0 0 0-3.075 6.023l-.975 8.272h-1.95l2.212-18.489h1.95l-.525 4.537h.038c1-1.474 2.187-2.631 3.563-3.469s2.762-1.258 4.162-1.258zm17.02 3.774l.675.381 1.95 1.144c.425.254.962.622 1.612 1.105.675.483 1.163.928 1.463 1.334.325.407.613.915.863 1.525a4.98 4.98 0 0 1 .375 1.906c0 2.364-.788 4.245-2.363 5.642-1.55 1.373-3.55 2.059-6 2.059a10.59 10.59 0 0 1-4.801-1.144 9.32 9.32 0 0 1-3.675-3.24l1.613-1.487c.775 1.271 1.762 2.237 2.962 2.898a8.06 8.06 0 0 0 3.826.953c1.825 0 3.325-.496 4.5-1.487 1.175-1.017 1.762-2.338 1.762-3.965 0-.584-.125-1.118-.375-1.601-.25-.508-.637-.966-1.162-1.372a12.67 12.67 0 0 0-1.538-1.144l-1.987-1.144-.638-.343-1.913-1.067-1.612-1.144c-.75-.559-1.275-1.042-1.575-1.449s-.6-.927-.9-1.563c-.275-.66-.413-1.359-.413-2.096 0-2.11.738-3.812 2.213-5.109 1.5-1.296 3.425-1.944 5.775-1.944 1.35 0 2.663.292 3.938.877 1.3.585 2.388 1.398 3.263 2.44l-1.575 1.448c-1.451-1.829-3.376-2.744-5.776-2.744-1.625 0-2.988.444-4.088 1.334-1.075.889-1.6 2.033-1.575 3.431 0 .635.113 1.22.338 1.754.25.508.675 1.003 1.275 1.486l1.5 1.144 2.063 1.182zm24.296-3.584h1.95l-2.212 18.489h-1.95l.525-4.307h-.113c-.875 1.372-1.925 2.465-3.15 3.278s-2.5 1.22-3.825 1.22c-3.826 0-5.438-2.503-4.838-7.51l1.35-11.17h1.95l-1.313 11.056c-.275 2.134-.125 3.634.451 4.498.6.839 1.55 1.258 2.85 1.258 1.55 0 3.062-.839 4.537-2.516 1.501-1.677 2.426-3.66 2.776-5.947l1.012-8.349zm8.447 4.27c1.575-2.491 3.663-3.977 6.263-4.46l-.3 2.363c-1.725.178-3.2.991-4.425 2.44-1.2 1.423-1.975 3.253-2.325 5.49l-1.013 8.386h-1.95l2.213-18.489h1.95l-.525 4.27h.112zm17.759-11.246c-.75-.61-1.675-.915-2.775-.915-1.775 0-2.825 1.385-3.15 4.155l-.45 3.736h5.025l-.187 1.754h-5.063l-1.988 16.735h-1.987l2.025-16.735h-2.1l.187-1.754h2.138l.487-4.155c.425-3.736 2.05-5.604 4.876-5.604 1.375 0 2.55.33 3.525.991l-.563 1.792z"/></g><g clip-path="url(#I)" class="F"><path d="M214.61 366.458v10.664h-1.824v-10.664h1.824zm3.347 0v1.465h-8.489v-1.465h8.489zm-.552 6.79v-.169c0-.571.083-1.101.249-1.589s.406-.921.718-1.282a3.26 3.26 0 0 1 1.157-.85 3.77 3.77 0 0 1 1.553-.307c.581 0 1.099.102 1.553.307a3.23 3.23 0 0 1 1.164.85c.318.361.56.789.726 1.282s.249 1.018.249 1.589v.169c0 .571-.083 1.101-.249 1.589s-.408.915-.726 1.282c-.317.361-.703.644-1.157.849-.454.2-.969.301-1.545.301-.581 0-1.101-.101-1.56-.301-.454-.205-.84-.488-1.157-.849-.318-.367-.56-.794-.726-1.282s-.249-1.018-.249-1.589zm1.766-.169v.169c0 .356.036.693.109 1.01s.188.596.345.835.356.428.6.564.535.205.872.205c.327 0 .61-.068.849-.205a1.68 1.68 0 0 0 .601-.564c.156-.239.271-.517.344-.835.078-.317.117-.654.117-1.01v-.169c0-.351-.039-.683-.117-.996-.073-.317-.19-.598-.351-.842s-.357-.435-.601-.572-.525-.212-.857-.212-.62.071-.864.212c-.239.137-.437.328-.593.572a2.66 2.66 0 0 0-.345.842c-.073.313-.109.645-.109.996zm10.295-3.882v1.289h-4.468v-1.289h4.468zm-3.179-1.941h1.765v7.676c0 .244.035.432.103.564s.173.212.3.256.276.066.447.066a2.67 2.67 0 0 0 .352-.022l.271-.044.007 1.348c-.147.044-.317.083-.513.117a3.77 3.77 0 0 1-.659.052c-.405 0-.764-.071-1.077-.213s-.556-.383-.732-.71-.264-.762-.264-1.304v-7.786zm8.589 8.277v-3.78c0-.283-.051-.527-.154-.732a1.07 1.07 0 0 0-.468-.476c-.205-.112-.464-.169-.777-.169-.288 0-.537.049-.747.147s-.373.229-.491.395-.175.354-.175.564h-1.758a1.96 1.96 0 0 1 .227-.908c.151-.293.371-.554.659-.783s.632-.411 1.033-.542.849-.198 1.347-.198c.596 0 1.124.1 1.583.3a2.41 2.41 0 0 1 1.091.908c.268.401.403.904.403 1.509v3.523c0 .361.024.686.073.974a3.15 3.15 0 0 0 .227.74v.117h-1.809c-.083-.19-.149-.432-.198-.725s-.066-.586-.066-.864zm.257-3.23l.014 1.091h-1.267a3.54 3.54 0 0 0-.864.095c-.249.059-.457.147-.623.264s-.29.259-.373.425-.125.354-.125.564.049.403.147.578.239.305.425.403.419.147.688.147c.361 0 .676-.074.945-.22s.488-.335.644-.549c.157-.22.24-.428.249-.623l.572.784c-.059.2-.159.415-.301.644s-.327.449-.556.659a2.76 2.76 0 0 1-.813.506c-.313.132-.674.198-1.084.198-.518 0-.979-.103-1.384-.308-.406-.21-.723-.491-.953-.842a2.19 2.19 0 0 1-.344-1.209c0-.42.078-.791.234-1.113.162-.327.396-.601.704-.82s.693-.386 1.142-.498c.449-.118.962-.176 1.538-.176h1.385zm4.831-6.431v11.25h-1.772v-11.25h1.772zm10.616 8.503a1.57 1.57 0 0 0-.103-.585c-.063-.171-.178-.328-.344-.469s-.401-.279-.703-.41c-.298-.137-.679-.276-1.143-.418-.508-.156-.977-.329-1.406-.52s-.796-.42-1.113-.674-.564-.554-.74-.886-.264-.725-.264-1.164.09-.831.271-1.187a2.78 2.78 0 0 1 .784-.923c.342-.264.744-.466 1.208-.608s.977-.219 1.538-.219c.791 0 1.473.146 2.044.439s1.018.686 1.326 1.179.468 1.038.468 1.633h-1.823c0-.351-.076-.661-.228-.93-.146-.273-.371-.488-.673-.644s-.677-.235-1.136-.235c-.434 0-.796.066-1.084.198s-.503.31-.644.535-.213.478-.213.762c0 .2.047.383.14.549a1.53 1.53 0 0 0 .424.454c.191.137.43.266.718.388s.628.239 1.018.352c.591.175 1.106.371 1.546.586s.805.449 1.098.717.513.574.66.916.219.72.219 1.15a2.68 2.68 0 0 1-.271 1.216c-.18.356-.439.661-.776.915-.332.249-.733.442-1.201.579-.464.132-.982.198-1.553.198a5.69 5.69 0 0 1-1.516-.206 4.46 4.46 0 0 1-1.348-.622c-.405-.283-.727-.635-.967-1.055-.239-.425-.358-.92-.358-1.487h1.838c0 .347.058.643.176.887s.29.444.505.6.464.264.747.337c.288.073.596.11.923.11.43 0 .789-.061 1.077-.183a1.42 1.42 0 0 0 .659-.513c.146-.22.22-.473.22-.762zm7.644.879v-6.057h1.772v7.925h-1.67l-.102-1.868zm.249-1.648l.593-.014a5.83 5.83 0 0 1-.176 1.472c-.117.444-.298.832-.542 1.165-.244.327-.556.583-.937.769-.381.18-.838.271-1.37.271-.386 0-.74-.057-1.062-.169s-.601-.286-.835-.52-.408-.539-.535-.915-.19-.826-.19-1.348v-5.12h1.765v5.135a2.2 2.2 0 0 0 .103.725c.068.19.161.344.278.461s.254.2.41.249.322.073.498.073c.503 0 .899-.097 1.187-.293s.5-.468.622-.805c.127-.337.191-.716.191-1.136zm4.685-2.9v6.416h-1.765v-7.925h1.684l.081 1.509zm2.424-1.56l-.015 1.641a3.11 3.11 0 0 0-.351-.044l-.366-.015c-.303 0-.569.044-.799.132-.229.083-.422.205-.578.366s-.269.347-.352.571-.132.476-.146.755l-.403.029c0-.498.049-.959.146-1.384a3.77 3.77 0 0 1 .44-1.121c.2-.322.449-.574.747-.754.303-.181.652-.271 1.047-.271a2.24 2.24 0 0 1 .344.029c.127.02.223.042.286.066zm3.206 7.976h-1.765v-8.686c0-.591.109-1.087.329-1.487.225-.406.545-.711.96-.916.415-.21.905-.315 1.472-.315.176 0 .349.012.52.037.171.019.337.051.498.095l-.044 1.362a2.11 2.11 0 0 0-.322-.051l-.367-.015c-.268 0-.5.052-.695.154a1.02 1.02 0 0 0-.44.432c-.097.191-.146.425-.146.704v8.686zm1.633-7.925v1.289h-4.614v-1.289h4.614zm.869-3.325h1.765v9.558l-.168 1.692h-1.597v-11.25zm6.936 7.214v.154c0 .586-.066 1.126-.197 1.619a3.74 3.74 0 0 1-.586 1.274c-.259.362-.581.642-.967.843-.381.195-.823.293-1.326.293-.493 0-.923-.093-1.289-.279s-.674-.449-.923-.791c-.244-.342-.442-.749-.593-1.223s-.259-.996-.322-1.567v-.491a7.91 7.91 0 0 1 .322-1.567c.151-.474.349-.882.593-1.224a2.56 2.56 0 0 1 .916-.798c.366-.185.793-.278 1.281-.278.508 0 .955.097 1.341.293s.715.473.974.835c.259.356.452.781.579 1.274s.197 1.038.197 1.633zm-1.765.154v-.154a5.41 5.41 0 0 0-.088-1.003c-.058-.317-.156-.596-.293-.835a1.47 1.47 0 0 0-.542-.564c-.224-.142-.505-.212-.842-.212-.313 0-.581.053-.806.161a1.63 1.63 0 0 0-.564.439c-.151.186-.271.401-.359.645-.083.244-.139.508-.168.791v1.325c.044.367.137.704.278 1.011.147.303.352.547.616.733.263.18.603.271 1.018.271.327 0 .603-.066.827-.198s.403-.315.535-.549c.137-.24.234-.518.293-.835s.095-.66.095-1.026zm7.608 2.014v-6.057h1.772v7.925h-1.67l-.102-1.868zm.249-1.648l.593-.014a5.83 5.83 0 0 1-.176 1.472c-.117.444-.298.832-.542 1.165-.244.327-.557.583-.937.769-.381.18-.838.271-1.37.271-.386 0-.74-.057-1.062-.169s-.601-.286-.835-.52c-.229-.234-.408-.539-.535-.915s-.19-.826-.19-1.348v-5.12h1.765v5.135a2.2 2.2 0 0 0 .103.725c.068.19.161.344.278.461s.254.2.41.249.322.073.498.073c.503 0 .899-.097 1.187-.293s.5-.468.622-.805.191-.716.191-1.136zm6.15 2.256c.288 0 .546-.056.776-.168a1.47 1.47 0 0 0 .564-.484c.146-.205.227-.441.242-.71h1.662c-.01.513-.161.979-.454 1.399a3.15 3.15 0 0 1-1.164 1.003 3.51 3.51 0 0 1-1.604.367c-.606 0-1.133-.103-1.582-.308-.45-.21-.823-.498-1.121-.864s-.523-.789-.674-1.267a5.25 5.25 0 0 1-.22-1.538v-.257c0-.547.074-1.059.22-1.538s.376-.908.674-1.274.671-.652 1.121-.857.974-.315 1.574-.315c.635 0 1.192.127 1.67.381.479.249.855.598 1.128 1.047.278.444.422.962.432 1.553h-1.662a1.77 1.77 0 0 0-.22-.791c-.127-.24-.308-.43-.542-.572s-.505-.212-.828-.212c-.356 0-.652.073-.886.22-.234.141-.417.337-.549.586s-.227.52-.286.827a5.38 5.38 0 0 0-.08.945v.257a5.5 5.5 0 0 0 .08.952 2.74 2.74 0 0 0 .278.827c.137.24.323.432.557.579s.532.212.894.212zm5.959-9.99v11.25h-1.772v-11.25h1.772zm4.922 3.325l-3.45 3.824-1.889 1.933-.462-1.494 1.428-1.765 2.242-2.498h2.131zm-1.75 7.925l-2.571-3.721 1.113-1.237 3.501 4.958h-2.043zm6.897-2.146c0-.176-.044-.334-.132-.476s-.257-.278-.506-.396-.605-.224-1.084-.322a9.4 9.4 0 0 1-1.157-.329c-.347-.132-.644-.291-.893-.476s-.442-.406-.579-.66a1.82 1.82 0 0 1-.205-.879c0-.322.071-.627.212-.915s.345-.542.608-.762a2.98 2.98 0 0 1 .96-.52 4.01 4.01 0 0 1 1.274-.19c.664 0 1.233.112 1.707.337.478.219.844.52 1.098.901s.381.8.381 1.274h-1.765a1.13 1.13 0 0 0-.161-.586c-.103-.185-.259-.334-.469-.447s-.474-.176-.791-.176c-.303 0-.554.049-.754.147s-.342.215-.44.366-.139.318-.139.498a.87.87 0 0 0 .073.359c.054.103.142.198.264.286s.288.161.498.234c.215.073.483.144.806.213.605.126 1.125.29 1.56.49s.776.449 1.011.762.351.698.351 1.172a2.08 2.08 0 0 1-.227.967c-.146.288-.361.539-.645.754s-.622.374-1.018.491c-.39.117-.83.176-1.318.176-.718 0-1.326-.127-1.824-.381s-.876-.589-1.135-.989-.381-.825-.381-1.26h1.707c.019.327.11.589.271.784a1.46 1.46 0 0 0 .615.417c.249.083.505.125.769.125.317 0 .584-.042.798-.125a1.15 1.15 0 0 0 .491-.351.84.84 0 0 0 .169-.513z" class="I"/><path d="M219.292 330.606v4.088h-2.105v-4.088h2.105zm-.26 22.326v3.664h-2.092v-3.664h2.092zm2.065-4.416c0-.529-.11-.989-.328-1.381-.21-.401-.556-.761-1.04-1.08-.483-.328-1.13-.634-1.941-.916-1.167-.41-2.187-.871-3.062-1.381-.866-.519-1.541-1.157-2.024-1.914-.474-.766-.711-1.718-.711-2.857 0-1.122.255-2.092.766-2.913.519-.82 1.239-1.453 2.16-1.9s1.996-.67 3.227-.67c.947 0 1.8.141 2.556.424.766.283 1.418.697 1.955 1.244s.948 1.221 1.231 2.024c.291.793.437 1.704.437 2.734h-3.281c0-.583-.068-1.103-.205-1.559-.128-.465-.319-.856-.574-1.175-.256-.329-.565-.579-.93-.752-.355-.174-.761-.26-1.217-.26-.647 0-1.18.123-1.599.369-.42.237-.73.565-.93.984-.191.42-.287.898-.287 1.436 0 .519.1.975.301 1.367s.542.747 1.025 1.066c.492.31 1.167.625 2.023.944 1.176.419 2.192.889 3.049 1.408.866.51 1.531 1.144 1.996 1.9.474.748.711 1.691.711 2.831 0 1.175-.273 2.173-.82 2.994-.538.82-1.294 1.444-2.27 1.873-.966.419-2.091.629-3.377.629a9.51 9.51 0 0 1-2.419-.315 6.32 6.32 0 0 1-2.161-1.066c-.647-.492-1.162-1.144-1.545-1.955-.382-.821-.574-1.823-.574-3.008h3.309c0 .711.096 1.303.287 1.777s.451.848.779 1.121a3.02 3.02 0 0 0 1.094.588c.41.119.82.178 1.23.178.684 0 1.258-.114 1.723-.342.474-.237.83-.565 1.067-.984.246-.429.369-.916.369-1.463zm24.78-14.725v2.461l-7.437 17.446h-4.867l7.451-16.352h-9.502v-3.555h14.355zm1.802 17.746c0-.656.237-1.203.711-1.64.474-.447 1.084-.67 1.832-.67.756 0 1.367.223 1.832.67.474.437.711.984.711 1.64a2.18 2.18 0 0 1-.711 1.655c-.465.437-1.076.656-1.832.656-.748 0-1.358-.219-1.832-.656a2.18 2.18 0 0 1-.711-1.655zm11.071-6.713l-3.664-.861 1.203-10.172h11.635v3.582h-7.875l-.452 3.951c.219-.127.588-.278 1.108-.451.528-.182 1.112-.273 1.75-.273.984 0 1.855.15 2.611.451.766.292 1.413.725 1.942 1.299.528.565.925 1.262 1.189 2.092.273.829.41 1.777.41 2.843 0 .857-.141 1.687-.424 2.489a6.2 6.2 0 0 1-1.271 2.146c-.565.629-1.281 1.13-2.147 1.504-.866.365-1.891.547-3.076.547a8.3 8.3 0 0 1-2.584-.41 7.69 7.69 0 0 1-2.269-1.176 5.9 5.9 0 0 1-1.586-1.873c-.383-.738-.57-1.563-.561-2.475h4.635c.027.483.141.903.342 1.258s.469.634.806.834c.347.192.743.287 1.19.287.456 0 .834-.091 1.135-.273s.537-.433.711-.752.296-.684.369-1.094a7.72 7.72 0 0 0 .109-1.326c0-.492-.055-.934-.164-1.326-.1-.392-.264-.725-.492-.998-.228-.283-.524-.497-.889-.643-.355-.146-.784-.219-1.285-.219-.665 0-1.189.114-1.572.342s-.661.46-.834.697zm25.221 5.319v3.555H270.08v-3.008l6.399-6.727c.565-.647 1.021-1.226 1.367-1.736.346-.52.597-.989.752-1.408.164-.42.246-.798.246-1.135 0-.574-.086-1.053-.26-1.436-.164-.392-.41-.688-.738-.888-.319-.201-.715-.301-1.189-.301s-.889.137-1.245.41-.633.647-.834 1.121c-.191.474-.287 1.007-.287 1.6h-4.621c0-1.222.297-2.338.889-3.35.602-1.012 1.436-1.818 2.502-2.42 1.066-.611 2.301-.916 3.705-.916 1.467 0 2.698.228 3.691.684s1.741 1.116 2.243 1.982c.51.857.765 1.891.765 3.104 0 .692-.109 1.358-.328 1.996s-.533 1.271-.943 1.9c-.41.62-.912 1.258-1.504 1.914l-1.996 2.092-2.571 2.967h7.848zm11.577-16.352v19.907h-4.608v-14.711l-4.539 1.326v-3.5l8.723-3.022h.424z"/></g><g class="F"><path d="M396.522 330.607v4.088h-2.105v-4.088h2.105zm-.259 22.326v3.664h-2.092v-3.664h2.092zm2.064-4.416c0-.529-.109-.989-.328-1.381-.21-.401-.556-.761-1.039-1.08-.483-.328-1.13-.634-1.941-.916-1.167-.41-2.188-.871-3.063-1.381-.866-.519-1.54-1.158-2.023-1.914-.474-.766-.711-1.718-.711-2.857 0-1.122.255-2.092.765-2.913.52-.82 1.24-1.453 2.16-1.9s1.997-.67 3.227-.67c.948 0 1.8.141 2.557.424.765.283 1.417.697 1.955 1.244s.948 1.221 1.23 2.024c.292.793.438 1.704.438 2.734h-3.282c0-.583-.068-1.103-.205-1.559-.127-.465-.319-.856-.574-1.175a2.54 2.54 0 0 0-.93-.752 2.73 2.73 0 0 0-1.216-.26c-.647 0-1.181.123-1.6.369a2.21 2.21 0 0 0-.93.984c-.191.42-.287.898-.287 1.436 0 .519.101.975.301 1.367s.542.747 1.025 1.066c.493.31 1.167.625 2.024.944 1.176.419 2.192.889 3.049 1.408.866.51 1.531 1.144 1.996 1.9.474.748.711 1.691.711 2.831 0 1.175-.274 2.173-.821 2.994-.537.82-1.294 1.444-2.269 1.873-.966.419-2.092.629-3.377.629a9.52 9.52 0 0 1-2.42-.315 6.31 6.31 0 0 1-2.16-1.066c-.647-.492-1.162-1.144-1.545-1.955-.383-.821-.574-1.823-.574-3.008h3.308c0 .711.096 1.303.287 1.777s.452.848.78 1.121a3.02 3.02 0 0 0 1.093.588c.411.119.821.178 1.231.178.684 0 1.258-.114 1.723-.342.474-.237.829-.565 1.066-.984.246-.429.369-.916.369-1.463zm21.144-14.725v19.906h-4.607v-14.71l-4.539 1.326v-3.5l8.722-3.022h.424zm19.247 12.127v3.555H424.39l-.274-2.817 7.998-12.865h3.637l-3.951 6.467-3.281 5.66h10.199zm-2.01-12.127v19.906h-4.607v-19.906h4.607z"/><path d="M367.366 366.289v10.664h-1.824v-10.664h1.824zm3.347 0v1.465h-8.488v-1.465h8.488zm-.551 6.79v-.169c0-.571.083-1.101.249-1.589.166-.493.405-.92.717-1.282.318-.366.704-.649 1.158-.849s.976-.308 1.552-.308c.582 0 1.099.103 1.553.308a3.23 3.23 0 0 1 1.165.849c.317.362.559.789.725 1.282.166.488.249 1.018.249 1.589v.169c0 .571-.083 1.101-.249 1.589a3.81 3.81 0 0 1-.725 1.282c-.318.361-.703.644-1.157.85-.455.2-.97.3-1.546.3-.581 0-1.101-.1-1.56-.3-.454-.206-.84-.489-1.157-.85s-.559-.794-.725-1.282-.249-1.018-.249-1.589zm1.765-.169v.169a4.45 4.45 0 0 0 .11 1.011 2.58 2.58 0 0 0 .344.835 1.7 1.7 0 0 0 .601.564c.244.136.534.205.871.205.327 0 .61-.069.85-.205s.444-.325.6-.564a2.58 2.58 0 0 0 .345-.835 4.23 4.23 0 0 0 .117-1.011v-.169c0-.351-.039-.683-.117-.996a2.58 2.58 0 0 0-.352-.842c-.156-.244-.356-.435-.601-.571-.239-.142-.525-.213-.857-.213s-.62.071-.864.213c-.239.136-.437.327-.593.571s-.271.525-.344.842a4.32 4.32 0 0 0-.11.996zm11.496 2.403v-9.61h1.773v11.25h-1.604l-.169-1.64zm-5.156-2.234v-.154c0-.601.071-1.147.213-1.641s.346-.925.615-1.281c.268-.362.596-.638.981-.828s.821-.293 1.304-.293.898.093 1.26.278.669.452.923.799.456.752.608 1.23.258 1.001.322 1.582v.491c-.064.566-.171 1.084-.322 1.553s-.354.874-.608 1.216-.564.605-.931.791c-.361.185-.783.278-1.267.278-.478 0-.91-.1-1.296-.3s-.706-.481-.974-.843-.474-.786-.615-1.274-.213-1.028-.213-1.604zm1.765-.154v.154c0 .361.032.698.096 1.011s.173.588.315.827a1.61 1.61 0 0 0 .549.557c.229.132.503.198.82.198.401 0 .73-.088.989-.264a1.81 1.81 0 0 0 .608-.71c.151-.303.254-.64.307-1.011v-1.326c-.029-.288-.09-.557-.183-.806s-.207-.466-.359-.651c-.151-.191-.339-.337-.564-.44-.219-.107-.48-.161-.783-.161-.322 0-.596.068-.821.205s-.41.325-.556.564-.247.518-.315.835a4.85 4.85 0 0 0-.103 1.018zm11.058 2.439v-3.779c0-.283-.052-.528-.154-.733s-.259-.363-.469-.476c-.205-.112-.464-.168-.776-.168-.288 0-.537.049-.747.146a1.21 1.21 0 0 0-.491.396c-.117.166-.176.354-.176.564h-1.758c0-.313.076-.616.227-.908s.371-.555.659-.784a3.3 3.3 0 0 1 1.033-.542c.401-.132.85-.198 1.348-.198.596 0 1.123.1 1.582.3s.828.503 1.091.909c.269.4.403.903.403 1.508v3.523a5.84 5.84 0 0 0 .073.974 3.18 3.18 0 0 0 .227.74v.117h-1.809c-.083-.19-.149-.432-.198-.725-.043-.298-.065-.586-.065-.864zm.256-3.23l.015 1.091h-1.268c-.327 0-.615.032-.864.096-.249.058-.456.146-.622.263s-.291.259-.374.425-.124.354-.124.564a1.17 1.17 0 0 0 .146.579 1.02 1.02 0 0 0 .425.402c.19.098.42.147.688.147.362 0 .677-.073.945-.22a1.94 1.94 0 0 0 .645-.549c.156-.22.239-.427.249-.623l.571.784c-.059.2-.159.415-.3.645s-.327.449-.557.659a2.78 2.78 0 0 1-.813.505c-.312.132-.674.198-1.084.198-.517 0-.979-.103-1.384-.308s-.723-.49-.952-.842a2.18 2.18 0 0 1-.345-1.209c0-.419.079-.791.235-1.113a2.18 2.18 0 0 1 .703-.82c.312-.22.693-.386 1.143-.498s.961-.176 1.538-.176h1.384zm5.124 3.955l2.154-7.06h1.889l-3.178 9.133a6.41 6.41 0 0 1-.286.637c-.117.23-.271.447-.461.652s-.418.378-.696.505-.615.198-1.011.198a2.34 2.34 0 0 1-.454-.044l-.403-.08-.007-1.348.176.015.175.007c.293 0 .538-.037.733-.11s.354-.181.476-.337.234-.366.322-.63l.571-1.538zm-1.215-7.06l1.882 5.932.315 1.861-1.223.314-2.879-8.107h1.905zm7.644-3.326v1.033c0 .308-.056.628-.169.96-.107.327-.258.642-.454.944s-.42.557-.674.777l-.886-.557a4.59 4.59 0 0 0 .484-.959c.126-.342.19-.725.19-1.15v-1.048h1.509zm4.443 9.104c0-.175-.044-.334-.132-.476s-.256-.278-.505-.395c-.244-.117-.605-.225-1.084-.322-.42-.093-.806-.203-1.157-.33s-.645-.291-.894-.476-.442-.405-.578-.659-.205-.547-.205-.879c0-.322.07-.628.212-.916a2.31 2.31 0 0 1 .608-.761c.264-.22.583-.394.959-.52.381-.127.806-.191 1.275-.191.664 0 1.233.112 1.706.337.479.22.845.52 1.099.901.254.376.381.801.381 1.274h-1.765c0-.21-.054-.405-.162-.586-.102-.185-.258-.334-.468-.446-.21-.118-.474-.176-.791-.176-.303 0-.554.049-.755.146-.195.093-.341.215-.439.366s-.139.318-.139.499a.85.85 0 0 0 .073.358c.054.103.142.198.264.286.122.083.288.161.498.234s.483.144.805.213c.606.127 1.126.29 1.56.491.44.195.777.449 1.011.761s.352.699.352 1.172a2.08 2.08 0 0 1-.227.967c-.147.288-.362.54-.645.754s-.622.374-1.018.491a4.59 4.59 0 0 1-1.318.176c-.718 0-1.326-.127-1.824-.381s-.876-.588-1.135-.989-.381-.825-.381-1.26h1.706c.02.328.11.589.271.784a1.45 1.45 0 0 0 .616.418c.249.083.505.124.769.124.317 0 .583-.041.798-.124.215-.088.378-.205.491-.352a.84.84 0 0 0 .168-.513zm9.663 2.293c-.586 0-1.115-.095-1.589-.286s-.869-.466-1.201-.813a3.6 3.6 0 0 1-.755-1.223 4.3 4.3 0 0 1-.263-1.516v-.293c0-.62.09-1.182.271-1.685a3.82 3.82 0 0 1 .754-1.289c.322-.361.703-.637 1.143-.827a3.54 3.54 0 0 1 1.428-.286c.566 0 1.062.095 1.487.286a2.8 2.8 0 0 1 1.055.805c.283.342.493.75.629 1.224.142.473.213.996.213 1.567v.754h-6.123v-1.267h4.38v-.139c-.01-.317-.074-.615-.191-.893a1.51 1.51 0 0 0-.52-.674c-.234-.171-.547-.257-.937-.257a1.59 1.59 0 0 0-.784.191c-.225.122-.413.3-.564.534s-.269.518-.352.85-.117.696-.117 1.106v.293a3.26 3.26 0 0 0 .139.967 2.33 2.33 0 0 0 .425.769c.186.22.41.393.674.52s.564.183.901.183c.425 0 .803-.086 1.135-.256s.62-.413.864-.726l.931.901c-.171.249-.393.489-.667.718s-.608.408-1.003.549-.845.213-1.363.213zm8.597-1.736v-3.779c0-.283-.052-.528-.154-.733s-.259-.363-.469-.476c-.205-.112-.464-.168-.776-.168-.288 0-.537.049-.747.146a1.21 1.21 0 0 0-.491.396c-.117.166-.176.354-.176.564h-1.758c0-.313.076-.616.227-.908s.371-.555.66-.784.632-.41 1.032-.542.85-.198 1.348-.198c.596 0 1.123.1 1.582.3s.828.503 1.091.909c.269.4.403.903.403 1.508v3.523a5.95 5.95 0 0 0 .073.974 3.18 3.18 0 0 0 .227.74v.117h-1.809c-.083-.19-.149-.432-.197-.725s-.066-.586-.066-.864zm.256-3.23l.015 1.091h-1.267c-.328 0-.616.032-.865.096-.249.058-.456.146-.622.263s-.291.259-.374.425-.124.354-.124.564a1.18 1.18 0 0 0 .146.579 1.02 1.02 0 0 0 .425.402c.19.098.42.147.688.147.362 0 .677-.073.945-.22a1.93 1.93 0 0 0 .645-.549c.156-.22.239-.427.249-.623l.571.784c-.058.2-.159.415-.3.645s-.327.449-.557.659c-.224.205-.495.373-.813.505-.312.132-.674.198-1.084.198-.517 0-.979-.103-1.384-.308s-.723-.49-.952-.842-.344-.759-.344-1.209c0-.419.078-.791.234-1.113a2.18 2.18 0 0 1 .703-.82c.313-.22.693-.386 1.143-.498s.962-.176 1.538-.176h1.384zm4.714-1.597v6.416h-1.765v-7.924h1.685l.08 1.508zm2.425-1.56l-.015 1.641c-.107-.02-.225-.034-.351-.044l-.367-.015a2.22 2.22 0 0 0-.798.132 1.51 1.51 0 0 0-.579.366 1.62 1.62 0 0 0-.351.572c-.083.224-.132.476-.147.754l-.403.029c0-.498.049-.959.147-1.384s.244-.798.439-1.121c.201-.322.45-.573.747-.754.303-.181.652-.271 1.048-.271a2.25 2.25 0 0 1 .344.029c.127.02.222.042.286.066zm2.436 1.743v6.233h-1.765v-7.924h1.663l.102 1.691zm-.315 1.978l-.571-.007c.005-.562.083-1.077.234-1.546.157-.468.372-.871.645-1.208.278-.337.61-.596.996-.777s.816-.278 1.289-.278c.381 0 .725.054 1.033.161a1.88 1.88 0 0 1 .798.506c.225.234.396.539.513.915s.176.828.176 1.37v5.119h-1.773v-5.127c0-.38-.056-.681-.168-.9-.108-.225-.266-.384-.476-.477s-.462-.146-.769-.146-.574.063-.813.19a1.83 1.83 0 0 0-.608.52 2.53 2.53 0 0 0-.374.762c-.088.288-.132.596-.132.923zm8.384-3.669v7.924h-1.772v-7.924h1.772zm-1.889-2.081c0-.268.087-.49.263-.666.181-.181.43-.271.747-.271s.559.09.74.271a.89.89 0 0 1 .271.666.88.88 0 0 1-.271.66c-.181.175-.427.263-.74.263s-.566-.088-.747-.263c-.176-.176-.263-.396-.263-.66zm5.153 3.772v6.233h-1.765v-7.924h1.663l.102 1.691zm-.314 1.978l-.572-.007a5.14 5.14 0 0 1 .235-1.546c.156-.468.371-.871.644-1.208s.61-.596.996-.777.816-.278 1.289-.278c.381 0 .725.054 1.033.161a1.87 1.87 0 0 1 .798.506c.225.234.396.539.513.915s.176.828.176 1.37v5.119h-1.773v-5.127c0-.38-.056-.681-.168-.9-.108-.225-.266-.384-.476-.477-.205-.097-.462-.146-.769-.146s-.574.063-.813.19a1.84 1.84 0 0 0-.608.52 2.53 2.53 0 0 0-.374.762c-.088.288-.131.596-.131.923zm11.569-3.669h1.604v7.705c0 .713-.151 1.318-.454 1.816a2.91 2.91 0 0 1-1.267 1.135c-.542.264-1.169.396-1.882.396-.303 0-.64-.044-1.011-.132a4.15 4.15 0 0 1-1.069-.425c-.342-.19-.628-.442-.857-.754l.828-1.04c.283.337.595.583.937.739a2.55 2.55 0 0 0 1.077.235c.405 0 .749-.076 1.032-.227a1.54 1.54 0 0 0 .667-.652c.156-.288.234-.64.234-1.055v-5.947l.161-1.794zm-5.383 4.05v-.154c0-.601.073-1.147.22-1.641s.356-.925.63-1.281a2.73 2.73 0 0 1 .996-.828c.39-.195.832-.293 1.325-.293.513 0 .95.093 1.312.278a2.48 2.48 0 0 1 .915.799c.244.342.435.752.571 1.23a9.28 9.28 0 0 1 .315 1.582v.491a7.93 7.93 0 0 1-.322 1.553c-.151.468-.352.874-.601 1.216s-.556.605-.922.791-.789.278-1.282.278a2.83 2.83 0 0 1-1.311-.3 2.98 2.98 0 0 1-.996-.843c-.274-.361-.484-.786-.63-1.274s-.22-1.028-.22-1.604zm1.765-.154v.154c0 .361.034.698.103 1.011a2.8 2.8 0 0 0 .329.827 1.73 1.73 0 0 0 .572.557c.234.132.51.198.827.198.415 0 .755-.088 1.018-.264.269-.176.474-.413.616-.71.146-.303.249-.64.307-1.011v-1.326c-.029-.288-.09-.557-.183-.806s-.207-.466-.359-.651a1.5 1.5 0 0 0-.571-.44c-.23-.107-.501-.161-.813-.161-.317 0-.593.068-.828.205s-.427.325-.578.564a2.77 2.77 0 0 0-.33.835c-.073.317-.11.657-.11 1.018zm11.079 1.882c0-.175-.044-.334-.131-.476s-.257-.278-.506-.395-.605-.225-1.084-.322c-.42-.093-.805-.203-1.157-.33-.347-.132-.645-.291-.894-.476s-.441-.405-.578-.659-.205-.547-.205-.879a2.06 2.06 0 0 1 .212-.916 2.31 2.31 0 0 1 .608-.761c.264-.22.584-.394.96-.52s.805-.191 1.274-.191c.664 0 1.233.112 1.706.337.479.22.845.52 1.099.901.254.376.381.801.381 1.274h-1.765a1.13 1.13 0 0 0-.161-.586c-.103-.185-.259-.334-.469-.446-.21-.118-.474-.176-.791-.176-.303 0-.554.049-.754.146s-.342.215-.44.366c-.093.152-.139.318-.139.499a.85.85 0 0 0 .073.358c.054.103.142.198.264.286.122.083.288.161.498.234a7.09 7.09 0 0 0 .806.213c.605.127 1.125.29 1.56.491.439.195.776.449 1.01.761s.352.699.352 1.172a2.08 2.08 0 0 1-.227.967c-.147.288-.361.54-.645.754s-.622.374-1.018.491c-.39.117-.83.176-1.318.176-.718 0-1.326-.127-1.824-.381s-.876-.588-1.135-.989c-.254-.405-.381-.825-.381-1.26h1.707c.019.328.109.589.271.784s.371.33.615.418c.249.083.505.124.769.124.317 0 .583-.041.798-.124.215-.088.379-.205.491-.352a.84.84 0 0 0 .168-.513z" class="I"/></g><g clip-path="url(#J)"><g class="F"><path d="M247.029 423.678h1.312l2.467 6.581 2.461-6.581h1.313l-3.258 8.532h-1.043l-3.252-8.532zm-.598 0h1.248l.217 5.696v2.836h-1.465v-8.532zm7.5 0h1.254v8.532h-1.471v-2.836l.217-5.696zm3.96 2.192v6.34h-1.418v-6.34h1.418zm-1.512-1.664a.72.72 0 0 1 .211-.533c.144-.145.344-.217.598-.217s.447.072.591.217a.71.71 0 0 1 .217.533.7.7 0 0 1-.217.527c-.144.141-.341.211-.591.211s-.454-.07-.598-.211-.211-.316-.211-.527zm4.047 3.017v4.987h-1.412v-6.34h1.33l.082 1.353zm-.251 1.582l-.458-.005a4.13 4.13 0 0 1 .188-1.237c.125-.375.297-.697.516-.967s.488-.476.796-.621.653-.222 1.032-.222c.304 0 .58.043.826.129a1.5 1.5 0 0 1 .639.404c.179.187.316.432.41.732s.14.662.14 1.096v4.096h-1.418v-4.102c0-.305-.045-.545-.134-.721s-.213-.306-.381-.38-.369-.118-.615-.118-.459.051-.651.153a1.46 1.46 0 0 0-.486.416 2.01 2.01 0 0 0-.299.609 2.53 2.53 0 0 0-.105.738zm6.631-2.935v6.34h-1.418v-6.34h1.418zm-1.512-1.664c0-.215.071-.393.211-.533s.344-.217.598-.217.447.072.592.217.216.318.216.533-.072.387-.216.527-.342.211-.592.211-.453-.07-.598-.211-.211-.316-.211-.527zm4.059 2.953v5.051h-1.412v-6.34h1.33l.082 1.289zm-.228 1.646l-.481-.005c0-.438.055-.842.164-1.213s.27-.694.481-.967.473-.49.785-.639.682-.228 1.096-.228c.289 0 .553.043.791.129s.451.212.627.392.316.41.41.692.146.621.146 1.019v4.225h-1.412v-4.102c0-.308-.047-.551-.14-.726a.78.78 0 0 0-.393-.375c-.168-.079-.369-.118-.603-.118-.266 0-.493.051-.68.153s-.334.24-.451.416a1.88 1.88 0 0 0-.258.609 3.18 3.18 0 0 0-.082.738zm3.932-.375l-.663.147a3.62 3.62 0 0 1 .159-1.084c.109-.344.267-.645.474-.902a2.23 2.23 0 0 1 .78-.616c.308-.148.662-.222 1.06-.222.324 0 .613.045.867.134a1.59 1.59 0 0 1 .657.411c.179.187.316.431.41.732s.14.656.14 1.078v4.102h-1.418v-4.108c0-.32-.047-.568-.14-.744s-.219-.297-.387-.363-.369-.106-.604-.106c-.218 0-.412.041-.58.123a1.17 1.17 0 0 0-.416.334c-.113.141-.199.303-.257.487a2.07 2.07 0 0 0-.082.597zm8.74 2.286v-4.846h1.418v6.34h-1.336l-.082-1.494zm.2-1.319l.474-.012c0 .426-.047.819-.14 1.178s-.239.666-.434.932-.445.467-.75.615-.67.217-1.096.217c-.308 0-.592-.045-.849-.135s-.481-.228-.668-.416-.327-.432-.428-.732-.152-.66-.152-1.078v-4.096h1.412v4.107a1.76 1.76 0 0 0 .082.58c.054.153.129.276.222.37s.204.16.329.199.257.058.398.058c.402 0 .719-.078.949-.234s.401-.375.498-.645c.102-.269.153-.572.153-.908zm3.666-2.238v5.051h-1.412v-6.34h1.33l.082 1.289zm-.228 1.646l-.481-.005c0-.438.055-.842.164-1.213s.27-.694.481-.967.472-.49.785-.639.682-.228 1.096-.228a2.32 2.32 0 0 1 .791.129c.242.082.451.212.627.392s.316.41.41.692.146.621.146 1.019v4.225h-1.412v-4.102c0-.308-.047-.551-.141-.726s-.22-.301-.392-.375-.369-.118-.604-.118c-.265 0-.492.051-.679.153a1.28 1.28 0 0 0-.452.416c-.117.176-.203.379-.257.609a3.18 3.18 0 0 0-.082.738zm3.931-.375l-.662.147c0-.383.053-.744.158-1.084s.268-.645.475-.902.471-.467.779-.616.662-.222 1.061-.222c.324 0 .613.045.867.134a1.58 1.58 0 0 1 .656.411c.18.187.317.431.41.732a3.6 3.6 0 0 1 .141 1.078v4.102h-1.418v-4.108c0-.32-.047-.568-.141-.744a.72.72 0 0 0-.386-.363c-.168-.07-.369-.106-.604-.106-.219 0-.412.041-.58.123s-.303.19-.416.334-.199.303-.258.487c-.054.183-.082.383-.082.597zm8.921-1.341v7.558h-1.412v-8.777h1.301l.111 1.219zm4.131 1.892v.123a4.76 4.76 0 0 1-.164 1.283c-.105.391-.264.733-.474 1.026s-.463.514-.768.674-.656.24-1.055.24-.74-.072-1.037-.217-.541-.357-.744-.627-.367-.586-.492-.949a6.12 6.12 0 0 1-.258-1.207v-.475c.051-.465.137-.886.258-1.265a3.44 3.44 0 0 1 .492-.979 2.11 2.11 0 0 1 .744-.633c.293-.148.635-.222 1.026-.222.398 0 .752.078 1.06.234s.568.371.779.656.37.621.475 1.02a5.12 5.12 0 0 1 .158 1.318zm-1.412.123v-.123c0-.293-.027-.564-.082-.814s-.141-.477-.258-.668a1.26 1.26 0 0 0-.451-.446 1.23 1.23 0 0 0-.65-.164c-.25 0-.465.043-.645.129s-.33.198-.451.346a1.62 1.62 0 0 0-.281.521c-.067.196-.114.409-.141.639v1.137a2.85 2.85 0 0 0 .24.773 1.41 1.41 0 0 0 .481.563c.211.137.48.205.808.205.254 0 .471-.055.651-.164s.326-.26.439-.451a2.22 2.22 0 0 0 .258-.674 3.82 3.82 0 0 0 .082-.809zm5.776 1.834v-3.023c0-.227-.041-.422-.123-.586s-.207-.291-.375-.381a1.28 1.28 0 0 0-.621-.135c-.231 0-.43.039-.598.117s-.299.184-.392.317a.76.76 0 0 0-.141.451h-1.406a1.57 1.57 0 0 1 .181-.727c.122-.234.297-.443.528-.627s.506-.328.826-.433.68-.158 1.078-.158c.477 0 .899.08 1.266.24s.662.402.873.726.322.723.322 1.208v2.818a4.69 4.69 0 0 0 .059.779 2.52 2.52 0 0 0 .181.592v.094h-1.447c-.066-.153-.119-.346-.158-.58a4.77 4.77 0 0 1-.053-.692zm.205-2.584l.012.873h-1.014c-.262 0-.492.026-.691.076a1.44 1.44 0 0 0-.498.211c-.133.094-.233.207-.299.34a1 1 0 0 0-.1.451c0 .168.039.323.118.463s.191.244.339.323c.153.078.336.117.551.117.289 0 .541-.059.756-.176a1.56 1.56 0 0 0 .516-.439c.125-.176.191-.342.199-.499l.457.627c-.047.161-.127.332-.24.516a2.5 2.5 0 0 1-.446.527c-.179.164-.396.299-.65.405s-.539.158-.867.158c-.414 0-.783-.082-1.108-.246s-.578-.393-.761-.674-.276-.607-.276-.967c0-.336.063-.633.188-.89s.316-.481.562-.657.555-.308.914-.398.77-.141 1.231-.141h1.107zm4.024 3.164l1.723-5.648h1.512l-2.543 7.307c-.059.156-.135.326-.229.509s-.217.358-.369.522-.334.302-.557.404-.492.158-.808.158a1.82 1.82 0 0 1-.364-.035l-.322-.064-.006-1.078.141.011.141.006c.234 0 .429-.029.585-.088a.8.8 0 0 0 .381-.269c.102-.125.188-.293.258-.504l.457-1.231zm-.972-5.648l1.505 4.746.252 1.488-.978.252-2.303-6.486h1.524zm4.24 3.24v-.135c0-.457.067-.881.2-1.271s.324-.736.574-1.026.562-.519.926-.679.781-.246 1.242-.246.879.082 1.242.246a2.58 2.58 0 0 1 .932.679c.253.29.447.631.58 1.026s.199.814.199 1.271v.135c0 .457-.067.881-.199 1.272s-.327.732-.58 1.025-.563.516-.926.68a3.04 3.04 0 0 1-1.237.24 3.1 3.1 0 0 1-1.248-.24 2.69 2.69 0 0 1-.925-.68 3.03 3.03 0 0 1-.58-1.025c-.133-.391-.2-.815-.2-1.272zm1.412-.135v.135c0 .285.03.555.088.809a2.07 2.07 0 0 0 .276.668 1.37 1.37 0 0 0 .48.451c.196.109.428.164.697.164a1.35 1.35 0 0 0 .68-.164c.195-.11.356-.26.481-.451a2.07 2.07 0 0 0 .275-.668c.063-.254.094-.524.094-.809v-.135c0-.281-.031-.547-.094-.797s-.152-.478-.281-.673a1.33 1.33 0 0 0-.481-.457c-.191-.114-.42-.17-.685-.17a1.35 1.35 0 0 0-.692.17c-.191.109-.349.261-.474.457s-.217.42-.276.673a3.52 3.52 0 0 0-.088.797zm9.069 1.741v-4.846h1.418v6.34h-1.336l-.082-1.494zm.2-1.319l.474-.012c0 .426-.047.819-.14 1.178s-.239.666-.434.932-.445.467-.75.615-.67.217-1.096.217c-.308 0-.591-.045-.849-.135s-.481-.228-.668-.416-.326-.432-.428-.732-.152-.66-.152-1.078v-4.096h1.412v4.107a1.76 1.76 0 0 0 .082.58c.054.153.129.276.222.37s.204.16.329.199.257.058.398.058c.402 0 .719-.078.949-.234s.401-.375.498-.645.153-.572.153-.908zm5.16-3.527v1.031h-3.574v-1.031h3.574zm-2.543-1.553h1.412v6.141c0 .195.028.345.083.451s.138.17.24.205a1.09 1.09 0 0 0 .357.053c.098 0 .192-.006.281-.018l.217-.035.006 1.078a3.56 3.56 0 0 1-.41.094 3.04 3.04 0 0 1-.527.041c-.325 0-.612-.057-.862-.17a1.27 1.27 0 0 1-.586-.568c-.14-.262-.211-.61-.211-1.043v-6.229zm8.705 1.553v1.031h-3.575v-1.031h3.575zm-2.543-1.553h1.412v6.141c0 .195.027.345.082.451a.44.44 0 0 0 .24.205 1.1 1.1 0 0 0 .358.053 2.13 2.13 0 0 0 .281-.018l.217-.035.005 1.078a3.51 3.51 0 0 1-.41.094 3.04 3.04 0 0 1-.527.041 2.07 2.07 0 0 1-.861-.17c-.25-.117-.446-.307-.586-.568s-.211-.61-.211-1.043v-6.229zm4.616-1.107v9h-1.407v-9h1.407zm-.247 5.595l-.457-.005a4.14 4.14 0 0 1 .182-1.213c.121-.371.289-.694.504-.967s.48-.49.785-.639a2.24 2.24 0 0 1 1.014-.228c.312 0 .594.043.844.129s.472.224.656.416.322.433.416.738.146.668.146 1.101v4.073h-1.418v-4.084c0-.305-.045-.547-.134-.727s-.213-.308-.381-.387-.373-.123-.616-.123c-.253 0-.478.051-.673.153s-.352.24-.481.416-.226.379-.293.609-.094.477-.094.738zm6.526-1.728v5.133h-1.412v-6.34h1.348l.064 1.207zm1.94-1.248l-.012 1.312-.281-.035-.293-.012a1.79 1.79 0 0 0-.639.106c-.183.066-.338.164-.463.293s-.214.277-.281.457a2.07 2.07 0 0 0-.117.603l-.322.024a4.95 4.95 0 0 1 .117-1.108c.078-.339.195-.638.351-.896s.36-.459.598-.604.522-.216.838-.216a1.69 1.69 0 0 1 .275.023 1.17 1.17 0 0 1 .229.053zm3.151 6.498a3.37 3.37 0 0 1-1.272-.229 2.81 2.81 0 0 1-.961-.65c-.261-.277-.462-.604-.603-.979s-.211-.779-.211-1.212v-.235c0-.496.072-.945.217-1.347s.345-.747.603-1.032a2.61 2.61 0 0 1 .914-.662c.352-.152.733-.228 1.143-.228.453 0 .85.076 1.189.228a2.24 2.24 0 0 1 .844.645c.227.273.395.599.504.978s.17.797.17 1.254v.604h-4.899v-1.014h3.504v-.111a1.96 1.96 0 0 0-.152-.715c-.09-.223-.228-.403-.416-.539s-.437-.205-.75-.205a1.27 1.27 0 0 0-.627.152c-.18.098-.33.24-.451.428a2.24 2.24 0 0 0-.281.679c-.063.262-.094.557-.094.885v.235c0 .277.037.535.111.773a1.86 1.86 0 0 0 .34.615c.149.176.328.315.539.416s.451.147.721.147c.34 0 .642-.069.908-.205s.496-.33.691-.58l.745.72a2.9 2.9 0 0 1-.534.575 2.67 2.67 0 0 1-.802.439c-.313.113-.676.17-1.09.17zm6.784-1.834a.71.71 0 0 0-.106-.381c-.07-.117-.205-.223-.404-.316s-.485-.18-.867-.258c-.336-.074-.645-.162-.926-.264s-.516-.232-.715-.381a1.61 1.61 0 0 1-.463-.527c-.109-.203-.164-.438-.164-.703 0-.258.057-.502.17-.733s.275-.433.486-.609.467-.314.768-.416.644-.152 1.019-.152c.532 0 .987.09 1.366.269s.675.416.879.721a1.78 1.78 0 0 1 .304 1.019h-1.412c0-.168-.043-.324-.129-.468s-.207-.268-.375-.358-.379-.14-.633-.14c-.242 0-.443.039-.603.117s-.274.172-.352.293a.75.75 0 0 0-.111.398c0 .106.02.201.059.287a.67.67 0 0 0 .211.229 1.71 1.71 0 0 0 .398.187 5.5 5.5 0 0 0 .645.17c.484.102.9.233 1.248.393s.621.359.808.609.281.559.281.938c0 .281-.06.539-.181.773s-.289.432-.516.604-.498.299-.814.392a3.66 3.66 0 0 1-1.055.141c-.574 0-1.061-.102-1.459-.305s-.701-.47-.908-.791-.305-.66-.305-1.008h1.365c.016.262.088.471.217.627a1.16 1.16 0 0 0 .492.334c.2.067.405.1.616.1.254 0 .466-.033.638-.1s.303-.164.393-.281a.67.67 0 0 0 .135-.41zm3.602-7.283v9h-1.406v-9h1.406zm-.246 5.595l-.457-.005a4.14 4.14 0 0 1 .181-1.213c.121-.371.289-.694.504-.967a2.26 2.26 0 0 1 .785-.639 2.24 2.24 0 0 1 1.014-.228c.313 0 .594.043.844.129s.472.224.656.416.322.433.416.738.147.668.147 1.101v4.073h-1.418v-4.084c0-.305-.045-.547-.135-.727s-.213-.308-.381-.387-.373-.123-.615-.123c-.254 0-.479.051-.674.153s-.352.24-.481.416-.226.379-.293.609-.093.477-.093.738zm4.838.305v-.135c0-.457.067-.881.199-1.271s.325-.736.575-1.026a2.58 2.58 0 0 1 .925-.679 3.02 3.02 0 0 1 1.243-.246c.464 0 .878.082 1.242.246s.677.386.931.679a2.96 2.96 0 0 1 .58 1.026c.133.39.2.814.2 1.271v.135c0 .457-.067.881-.2 1.272a3.03 3.03 0 0 1-.58 1.025 2.69 2.69 0 0 1-.925.68c-.364.16-.776.24-1.237.24s-.881-.08-1.248-.24-.672-.391-.926-.68-.447-.635-.58-1.025-.199-.815-.199-1.272zm1.412-.135v.135c0 .285.03.555.088.809a2.07 2.07 0 0 0 .276.668 1.37 1.37 0 0 0 .48.451c.195.109.428.164.697.164a1.35 1.35 0 0 0 .68-.164 1.37 1.37 0 0 0 .48-.451 2.07 2.07 0 0 0 .276-.668c.062-.254.094-.524.094-.809v-.135c0-.281-.032-.547-.094-.797s-.153-.478-.281-.673a1.34 1.34 0 0 0-.481-.457c-.191-.114-.42-.17-.685-.17s-.497.056-.692.17-.349.261-.474.457-.217.42-.276.673a3.52 3.52 0 0 0-.088.797zm6.766-5.765v9h-1.418v-9h1.418zm5.003 7.687v-7.687h1.418v9h-1.283l-.135-1.313zm-4.125-1.787v-.123c0-.48.057-.918.17-1.312s.277-.741.492-1.026.477-.51.785-.662.657-.234 1.043-.234.719.074 1.008.222.535.362.738.639.366.602.487.984.207.801.257 1.266v.393a6.29 6.29 0 0 1-.257 1.242c-.121.375-.284.699-.487.972a2.09 2.09 0 0 1-.744.633c-.289.149-.627.223-1.013.223s-.729-.08-1.038-.24a2.3 2.3 0 0 1-.779-.674c-.215-.289-.379-.629-.492-1.02a4.64 4.64 0 0 1-.17-1.283zm1.412-.123v.123a4.05 4.05 0 0 0 .076.809c.055.25.139.47.252.662a1.3 1.3 0 0 0 .44.445c.183.106.402.158.656.158.32 0 .584-.07.791-.211s.369-.33.486-.568.203-.512.246-.809v-1.06c-.023-.231-.072-.445-.146-.645s-.166-.373-.287-.521a1.22 1.22 0 0 0-.451-.352c-.176-.086-.385-.129-.627-.129-.258 0-.477.055-.657.164s-.328.26-.445.452-.197.414-.252.668a3.84 3.84 0 0 0-.082.814zm9.284-3.117v6.34h-1.418v-6.34h1.418zm-1.511-1.664a.72.72 0 0 1 .211-.533c.144-.145.343-.217.597-.217s.448.072.592.217a.71.71 0 0 1 .217.533.7.7 0 0 1-.217.527c-.144.141-.342.211-.592.211s-.453-.07-.597-.211-.211-.316-.211-.527zm6.203 6.287a.71.71 0 0 0-.105-.381c-.07-.117-.205-.223-.404-.316s-.485-.18-.868-.258c-.335-.074-.644-.162-.925-.264s-.516-.232-.715-.381-.354-.324-.463-.527-.164-.438-.164-.703c0-.258.057-.502.17-.733s.275-.433.486-.609.467-.314.768-.416.644-.152 1.019-.152c.532 0 .987.09 1.366.269s.675.416.878.721.305.641.305 1.019h-1.412c0-.168-.043-.324-.129-.468s-.207-.268-.375-.358-.379-.14-.633-.14c-.242 0-.443.039-.603.117s-.274.172-.352.293a.75.75 0 0 0-.111.398c0 .106.019.201.058.287a.68.68 0 0 0 .211.229 1.74 1.74 0 0 0 .399.187c.172.059.387.116.644.17a5.89 5.89 0 0 1 1.248.393c.352.156.622.359.809.609s.281.559.281.938c0 .281-.06.539-.181.773s-.289.432-.516.604-.498.299-.814.392-.665.141-1.055.141c-.574 0-1.061-.102-1.459-.305s-.701-.47-.908-.791-.305-.66-.305-1.008h1.365c.016.262.088.471.217.627a1.16 1.16 0 0 0 .492.334c.199.067.404.1.615.1.254 0 .467-.033.639-.1s.303-.164.393-.281a.67.67 0 0 0 .134-.41zm8.095-8.18v1.752h-.902v-1.752h.902zm-.111 9.569v1.57h-.896v-1.57h.896zm.885-1.893c0-.227-.047-.424-.141-.592s-.238-.326-.445-.463-.485-.271-.832-.392c-.5-.176-.938-.373-1.313-.592s-.66-.496-.867-.82-.305-.737-.305-1.225c0-.48.11-.896.329-1.248a2.2 2.2 0 0 1 .925-.814c.395-.192.856-.288 1.383-.288.406 0 .772.061 1.096.182s.607.299.838.533.406.524.527.867.188.731.188 1.172h-1.407c0-.25-.029-.472-.088-.668-.054-.199-.136-.367-.246-.504s-.242-.248-.398-.322-.326-.111-.522-.111c-.277 0-.505.053-.685.158s-.313.242-.399.422-.123.385-.123.615c0 .223.043.418.129.586s.233.32.44.457.5.268.867.404c.504.18.939.381 1.307.604a2.42 2.42 0 0 1 .855.814c.203.321.305.725.305 1.213 0 .504-.117.932-.352 1.283s-.554.62-.972.803-.897.27-1.448.27c-.347 0-.693-.045-1.037-.135a2.71 2.71 0 0 1-.926-.457 2.22 2.22 0 0 1-.662-.838c-.164-.351-.246-.781-.246-1.289h1.418c0 .305.041.559.123.762s.194.363.334.48a1.31 1.31 0 0 0 .469.252 1.88 1.88 0 0 0 .527.076c.293 0 .539-.049.739-.146.203-.102.355-.242.457-.422s.158-.393.158-.627zm7.961 1.096v1.125h-5.718v-.967l2.777-3.029.721-.891c.175-.25.298-.475.369-.674s.111-.4.111-.592c0-.269-.051-.505-.152-.709a1.11 1.11 0 0 0-.434-.486c-.191-.121-.424-.182-.697-.182-.317 0-.582.069-.797.205a1.28 1.28 0 0 0-.486.569c-.11.238-.164.512-.164.82h-1.412c0-.496.113-.949.339-1.359s.555-.742.985-.985.947-.369 1.552-.369c.571 0 1.055.096 1.454.287s.701.463.908.815.316.767.316 1.248a2.52 2.52 0 0 1-.129.791c-.086.262-.209.523-.369.785a6.72 6.72 0 0 1-.556.779l-.709.786-1.846 2.033h3.937zm6.251-3.856v1.395c0 .668-.067 1.238-.199 1.711s-.317.849-.563 1.142a2.21 2.21 0 0 1-.885.645c-.339.137-.72.205-1.142.205-.336 0-.649-.043-.938-.129s-.543-.221-.773-.404-.428-.42-.592-.709-.285-.643-.375-1.049-.129-.877-.129-1.412v-1.395c0-.672.067-1.238.199-1.699s.323-.842.569-1.131.539-.506.879-.639.726-.199 1.148-.199c.34 0 .652.043.938.129s.546.213.773.393.426.414.586.703.289.631.375 1.037.129.871.129 1.406zm-1.412 1.594v-1.805c0-.34-.02-.638-.059-.896s-.097-.483-.176-.662-.168-.332-.281-.446a.99.99 0 0 0-.387-.252c-.144-.054-.306-.082-.486-.082a1.29 1.29 0 0 0-.586.129 1.05 1.05 0 0 0-.433.399c-.118.183-.207.426-.27.726s-.088.659-.088 1.084v1.805a6.22 6.22 0 0 0 .059.908c.039.262.097.487.176.674a1.6 1.6 0 0 0 .281.457c.113.117.242.203.387.258s.31.082.486.082c.222 0 .42-.043.592-.129s.316-.223.433-.41.205-.44.264-.744.088-.67.088-1.096z" class="I"/><rect opacity=".097" x="209.051" y="449.521" width="252.308" height="8.615" rx="4.307"/></g><rect x="209.051" y="449.521" width="167.385" height="8.615" rx="4.307" fill="#ffcb20"/><g opacity=".358" filter="url(#B)"><rect x="209.051" y="449.521" width="167.385" height="8.615" rx="4.307" fill="#ffcb20"/></g></g><path opacity=".495" d="M262.802 570.355l-2.32 7.073h-1.869l3.17-8.532h1.189l-.17 1.459zm1.928 7.073l-2.326-7.073-.188-1.459h1.202l3.187 8.532h-1.875zm-.105-3.176v1.377h-4.506v-1.377h4.506zm4.86 1.975c.207 0 .39-.039.55-.118s.285-.195.375-.339.143-.323.147-.522h1.588c-.004.445-.123.842-.358 1.19a2.46 2.46 0 0 1-.943.814 2.95 2.95 0 0 1-1.324.293c-.492 0-.922-.082-1.289-.246a2.52 2.52 0 0 1-.909-.68c-.242-.293-.423-.633-.544-1.019-.122-.391-.182-.809-.182-1.254v-.17a4.15 4.15 0 0 1 .182-1.254c.121-.391.302-.731.544-1.02a2.49 2.49 0 0 1 .909-.685c.363-.164.789-.246 1.277-.246.52 0 .975.099 1.365.299s.703.484.926.855.342.803.346 1.307h-1.588c-.004-.211-.049-.403-.135-.575a.98.98 0 0 0-.363-.41c-.156-.105-.35-.158-.58-.158-.246 0-.448.053-.604.158s-.277.242-.363.422-.147.377-.182.604a5.09 5.09 0 0 0-.047.703v.17c0 .246.016.482.047.709s.09.427.176.603.213.315.369.416.36.153.61.153zm5.832 0a1.23 1.23 0 0 0 .551-.118c.16-.082.285-.195.375-.339s.142-.323.146-.522h1.588a2.12 2.12 0 0 1-.357 1.19 2.47 2.47 0 0 1-.943.814 2.95 2.95 0 0 1-1.325.293c-.492 0-.922-.082-1.289-.246s-.666-.391-.908-.68-.424-.633-.545-1.019a4.22 4.22 0 0 1-.182-1.254v-.17a4.18 4.18 0 0 1 .182-1.254c.121-.391.303-.731.545-1.02s.545-.521.908-.685.789-.246 1.278-.246c.519 0 .974.099 1.365.299a2.23 2.23 0 0 1 .926.855c.226.367.341.803.345 1.307h-1.588c-.004-.211-.048-.403-.134-.575s-.203-.308-.364-.41-.349-.158-.58-.158c-.246 0-.447.053-.603.158s-.278.242-.364.422-.146.377-.181.604a5.09 5.09 0 0 0-.047.703v.17c0 .246.016.482.047.709a1.98 1.98 0 0 0 .176.603 1.05 1.05 0 0 0 .369.416c.156.102.359.153.609.153zm2.944-1.905v-.123c0-.465.066-.892.199-1.283s.326-.736.58-1.025.567-.514.938-.674.797-.246 1.277-.246.908.082 1.283.246a2.59 2.59 0 0 1 .944.674c.258.289.453.63.586 1.025s.199.818.199 1.283v.123c0 .461-.067.889-.199 1.283a2.99 2.99 0 0 1-.586 1.026c-.254.289-.567.514-.938.674s-.797.24-1.277.24a3.24 3.24 0 0 1-1.283-.24 2.66 2.66 0 0 1-.944-.674c-.254-.293-.447-.635-.58-1.026a3.99 3.99 0 0 1-.199-1.283zm1.688-.123v.123c0 .266.023.514.07.744a2.03 2.03 0 0 0 .222.61 1.17 1.17 0 0 0 .411.404c.168.098.373.147.615.147.234 0 .435-.049.603-.147a1.12 1.12 0 0 0 .405-.404 2.03 2.03 0 0 0 .222-.61c.051-.23.077-.478.077-.744v-.123c0-.258-.026-.5-.077-.726s-.123-.434-.228-.61-.236-.32-.404-.422-.372-.152-.61-.152-.441.051-.609.152-.299.243-.405.422a2.03 2.03 0 0 0-.222.61c-.047.226-.07.468-.07.726zm8.68 1.711v-4.822h1.687v6.34h-1.588l-.099-1.518zm.187-1.301l.498-.011c0 .422-.049.814-.146 1.177s-.244.672-.44.938a2.04 2.04 0 0 1-.738.615c-.297.145-.646.217-1.049.217-.308 0-.594-.043-.855-.129s-.481-.228-.668-.416a2.02 2.02 0 0 1-.434-.732c-.101-.301-.152-.663-.152-1.084v-4.096h1.687v4.107c0 .188.022.346.065.475a.85.85 0 0 0 .193.316c.082.082.178.141.287.176s.239.053.375.053c.348 0 .621-.07.821-.211s.345-.332.427-.574.129-.52.129-.821zm4.016-2.168v4.987h-1.687v-6.34h1.582l.105 1.353zm-.246 1.594h-.457c0-.469.061-.89.182-1.265a2.87 2.87 0 0 1 .51-.967c.218-.27.478-.475.779-.615s.645-.217 1.02-.217c.296 0 .568.043.814.129s.457.222.633.41.316.435.41.744.146.685.146 1.131v4.043h-1.699v-4.049c0-.281-.039-.5-.117-.656a.65.65 0 0 0-.346-.328c-.148-.067-.332-.1-.55-.1-.227 0-.424.045-.592.135s-.301.215-.41.375-.186.34-.241.55-.082.438-.082.68zm8.001-2.947v1.195h-3.692v-1.195h3.692zm-2.777-1.565h1.687v5.995c0 .183.023.324.07.421s.125.166.223.206a1.11 1.11 0 0 0 .369.052l.281-.011.217-.036.006 1.243c-.145.046-.301.084-.469.111a3.51 3.51 0 0 1-.556.041c-.371 0-.696-.061-.973-.182s-.484-.324-.633-.597-.222-.633-.222-1.078v-6.165zm3.377 7.09a.84.84 0 0 1 .258-.627c.176-.168.408-.252.697-.252s.52.084.691.252a.83.83 0 0 1 .264.627.83.83 0 0 1-.264.627c-.171.168-.402.252-.691.252s-.521-.084-.697-.252a.84.84 0 0 1-.258-.627zm0-4.834a.84.84 0 0 1 .258-.627c.176-.168.408-.252.697-.252s.52.084.691.252a.83.83 0 0 1 .264.627.83.83 0 0 1-.264.627c-.171.168-.402.252-.691.252s-.521-.084-.697-.252a.84.84 0 0 1-.258-.627zm5.554-.691h1.693v6.721c0 .468-.086.865-.258 1.189a1.72 1.72 0 0 1-.744.738c-.324.168-.717.252-1.178.252-.144 0-.285-.008-.421-.023a3.7 3.7 0 0 1-.434-.076l.006-1.295.275.035a1.91 1.91 0 0 0 .264.017c.176 0 .322-.029.439-.087s.205-.151.264-.276.094-.279.094-.474v-6.721zm-.135-1.652c0-.247.086-.45.258-.61s.406-.24.691-.24.52.08.692.24.257.363.257.61-.085.449-.257.609-.403.24-.692.24-.515-.08-.691-.24-.258-.363-.258-.609zm2.475 4.886v-.123c0-.465.067-.892.199-1.283a2.98 2.98 0 0 1 .58-1.025c.254-.289.567-.514.938-.674s.797-.246 1.277-.246.909.082 1.284.246.689.385.943.674.453.63.586 1.025.199.818.199 1.283v.123a3.99 3.99 0 0 1-.199 1.283 2.99 2.99 0 0 1-.586 1.026c-.254.289-.567.514-.938.674s-.796.24-1.277.24-.908-.08-1.283-.24a2.66 2.66 0 0 1-.944-.674 3.06 3.06 0 0 1-.58-1.026c-.132-.394-.199-.822-.199-1.283zm1.688-.123v.123c0 .266.023.514.07.744s.121.434.223.61.242.306.41.404.373.147.615.147a1.18 1.18 0 0 0 .604-.147c.168-.098.302-.232.404-.404a2.03 2.03 0 0 0 .223-.61 3.5 3.5 0 0 0 .076-.744v-.123c0-.258-.026-.5-.076-.726s-.124-.434-.229-.61-.236-.32-.404-.422-.371-.152-.61-.152-.441.051-.609.152-.299.243-.404.422-.176.379-.223.61-.07.468-.07.726zm6.576-5.771v9h-1.687v-9h1.687zm-.24 5.607h-.463c.004-.441.063-.847.176-1.219s.275-.699.486-.972c.211-.278.463-.492.756-.645a2.13 2.13 0 0 1 .985-.228c.312 0 .595.045.849.134a1.58 1.58 0 0 1 .662.422c.188.192.332.444.434.756s.152.692.152 1.137v4.008h-1.699v-4.02c0-.281-.041-.502-.123-.662a.68.68 0 0 0-.346-.346c-.148-.07-.332-.105-.55-.105-.243 0-.45.045-.622.135a1.07 1.07 0 0 0-.404.375 1.68 1.68 0 0 0-.223.55 3.19 3.19 0 0 0-.07.68zm6.548-1.594v4.987h-1.688v-6.34h1.582l.106 1.353zm-.247 1.594h-.457c0-.469.061-.89.182-1.265a2.87 2.87 0 0 1 .51-.967c.219-.27.478-.475.779-.615s.645-.217 1.02-.217a2.45 2.45 0 0 1 .814.129c.246.086.457.222.633.41s.316.435.41.744.147.685.147 1.131v4.043h-1.7v-4.049c0-.281-.039-.5-.117-.656a.65.65 0 0 0-.346-.328c-.148-.067-.332-.1-.55-.1-.227 0-.424.045-.592.135s-.301.215-.41.375-.186.34-.24.55a2.69 2.69 0 0 0-.083.68zm8.64 2.01v-7.617h1.699v9h-1.529l-.17-1.383zm-4.008-1.711v-.123c0-.484.055-.924.164-1.318s.269-.741.48-1.026.471-.506.78-.662.66-.234 1.054-.234c.371 0 .696.078.973.234s.52.379.715.668.359.623.48 1.014a7.04 7.04 0 0 1 .264 1.271v.27c-.055.441-.143.851-.264 1.23s-.281.711-.48.996a2.12 2.12 0 0 1-.715.657c-.281.156-.609.234-.984.234-.395 0-.746-.08-1.055-.24s-.563-.385-.773-.674a3.22 3.22 0 0 1-.475-1.02c-.109-.39-.164-.816-.164-1.277zm1.687-.123v.123c0 .262.02.506.059.732s.111.428.205.604.223.307.375.404.346.141.568.141c.289 0 .528-.065.715-.194a1.24 1.24 0 0 0 .428-.544 2.26 2.26 0 0 0 .176-.797v-.768c-.012-.246-.047-.467-.106-.662-.054-.199-.136-.369-.246-.51s-.238-.25-.398-.328-.342-.117-.557-.117a1.01 1.01 0 0 0-.562.152 1.11 1.11 0 0 0-.381.405c-.094.171-.164.375-.211.609s-.065.48-.065.75zm4.643.111v-.123c0-.465.067-.892.2-1.283s.326-.736.58-1.025a2.6 2.6 0 0 1 .937-.674c.371-.164.797-.246 1.278-.246s.908.082 1.283.246.689.385.943.674.453.63.586 1.025.199.818.199 1.283v.123a3.99 3.99 0 0 1-.199 1.283 2.99 2.99 0 0 1-.586 1.026 2.6 2.6 0 0 1-.937.674c-.371.16-.797.24-1.278.24s-.908-.08-1.283-.24-.685-.385-.943-.674-.447-.635-.58-1.026a3.99 3.99 0 0 1-.2-1.283zm1.688-.123v.123c0 .266.023.514.07.744s.121.434.223.61.242.306.41.404.373.147.615.147c.235 0 .436-.049.604-.147a1.11 1.11 0 0 0 .404-.404c.102-.176.176-.379.223-.61s.076-.478.076-.744v-.123c0-.258-.025-.5-.076-.726a1.91 1.91 0 0 0-.229-.61 1.14 1.14 0 0 0-.404-.422c-.168-.101-.371-.152-.609-.152s-.442.051-.61.152-.299.243-.404.422-.176.379-.223.61-.07.468-.07.726zm7.848 3.346c-.492 0-.933-.078-1.324-.234-.391-.161-.723-.381-.996-.663s-.477-.607-.621-.978-.217-.774-.217-1.195v-.235a4.03 4.03 0 0 1 .205-1.318c.137-.399.332-.744.586-1.037a2.57 2.57 0 0 1 .937-.674c.368-.16.782-.24 1.243-.24.449 0 .847.074 1.195.222s.639.36.873.633a2.74 2.74 0 0 1 .539.985c.121.378.182.8.182 1.265v.703h-5.039v-1.125h3.381v-.129c0-.234-.043-.443-.129-.627s-.207-.336-.375-.445-.383-.164-.645-.164c-.223 0-.414.049-.574.147a1.13 1.13 0 0 0-.393.41 2.22 2.22 0 0 0-.222.621c-.047.234-.071.492-.071.773v.235a2.23 2.23 0 0 0 .106.703c.074.215.178.4.31.556a1.41 1.41 0 0 0 .493.364c.195.086.416.129.662.129.304 0 .588-.059.849-.176.266-.121.494-.303.686-.545l.82.89c-.133.192-.314.375-.545.551s-.5.321-.82.434-.686.164-1.096.164zm12.729-3.252a5.41 5.41 0 0 1-.176 1.178c-.101.386-.255.736-.462 1.049a2.36 2.36 0 0 1-.78.75c-.316.187-.699.281-1.148.281-.254 0-.483-.045-.686-.135a1.43 1.43 0 0 1-.515-.381c-.141-.168-.244-.369-.311-.603s-.09-.498-.07-.791l.299-3.375h1.171l-.292 3.375c-.024.203-.022.369.005.498s.079.228.141.299.141.121.223.152a.84.84 0 0 0 .767-.135c.156-.117.291-.279.405-.486a2.92 2.92 0 0 0 .269-.727 4.38 4.38 0 0 0 .111-.908 6.32 6.32 0 0 0-.076-1.441c-.074-.442-.203-.836-.386-1.184s-.415-.648-.704-.891-.632-.433-1.031-.562-.853-.199-1.365-.199c-.481 0-.924.074-1.33.222a3.49 3.49 0 0 0-1.084.639 4.07 4.07 0 0 0-.82.996 5.35 5.35 0 0 0-.54 1.283c-.128.469-.205.973-.228 1.512-.027.566.002 1.082.088 1.547s.232.873.428 1.224.447.653.744.891.642.418 1.037.539.834.182 1.318.182c.34 0 .686-.039 1.037-.117s.655-.17.897-.287l.222.873c-.273.175-.615.306-1.025.392a5.58 5.58 0 0 1-1.154.129c-.621 0-1.188-.076-1.699-.228a4.13 4.13 0 0 1-1.348-.668 3.81 3.81 0 0 1-.979-1.09 5.07 5.07 0 0 1-.574-1.5c-.121-.567-.168-1.196-.14-1.887.027-.641.126-1.244.298-1.811a6.14 6.14 0 0 1 .703-1.541c.297-.461.653-.857 1.067-1.189s.887-.594 1.406-.773a5.16 5.16 0 0 1 1.699-.27c.61 0 1.162.08 1.659.24a4.04 4.04 0 0 1 1.312.692 3.86 3.86 0 0 1 .938 1.084 4.69 4.69 0 0 1 .544 1.429c.114.532.159 1.106.135 1.723zm-5.918.615c-.019.258-.017.487.006.686a1.58 1.58 0 0 0 .135.504c.066.136.152.24.258.31s.238.1.386.1c.082 0 .172-.02.27-.059a1.05 1.05 0 0 0 .299-.211c.101-.097.197-.232.287-.404s.172-.396.234-.662l.498.592c-.09.293-.201.55-.334.773s-.285.402-.457.551-.351.26-.55.334-.415.111-.645.111c-.285 0-.539-.06-.762-.181s-.408-.303-.556-.534-.256-.506-.323-.826-.074-.685-.035-1.084a5.25 5.25 0 0 1 .235-1.107 4.11 4.11 0 0 1 .421-.908c.168-.27.36-.498.575-.686s.455-.336.709-.434.519-.146.797-.146c.449 0 .802.064 1.06.193s.502.278.732.446l-.597.802a2.13 2.13 0 0 0-.445-.293c-.18-.097-.395-.146-.645-.146-.23 0-.434.049-.609.146a1.35 1.35 0 0 0-.452.44c-.125.191-.228.43-.31.715s-.143.607-.182.978zm10.673-3.82h1.529v6.129c0 .578-.129 1.068-.387 1.471s-.609.712-1.066.919-.988.317-1.594.317a3.63 3.63 0 0 1-.844-.106 3.33 3.33 0 0 1-.843-.328c-.266-.148-.489-.336-.668-.562l.744-.996c.195.226.422.402.679.527s.543.193.856.193c.305 0 .562-.056.773-.17.211-.109.373-.271.487-.486s.17-.467.17-.767v-4.676l.164-1.465zm-4.266 3.246v-.123c0-.484.059-.924.176-1.318a3.18 3.18 0 0 1 .51-1.026 2.31 2.31 0 0 1 .808-.662c.317-.156.674-.234 1.072-.234.422 0 .776.078 1.061.234a1.91 1.91 0 0 1 .703.668c.184.285.326.623.428 1.014a9.4 9.4 0 0 1 .246 1.271v.27c-.059.441-.147.851-.264 1.23a3.75 3.75 0 0 1-.463.996c-.191.282-.429.5-.714.657s-.618.234-1.008.234a2.32 2.32 0 0 1-1.061-.24c-.312-.16-.58-.385-.803-.674a3.22 3.22 0 0 1-.515-1.02 4.43 4.43 0 0 1-.176-1.277zm1.688-.123v.123c0 .262.025.506.076.732s.129.428.234.604.244.307.404.404.358.141.58.141c.309 0 .561-.065.756-.194a1.21 1.21 0 0 0 .44-.544c.097-.231.154-.497.17-.797v-.768a2.58 2.58 0 0 0-.1-.662c-.059-.199-.141-.369-.246-.51s-.242-.25-.41-.328-.367-.117-.598-.117c-.222 0-.416.051-.58.152a1.25 1.25 0 0 0-.404.405c-.106.171-.186.375-.24.609s-.082.48-.082.75zm6.682-1.811v5.028h-1.694v-6.34h1.588l.106 1.312zm-.235 1.635h-.468c0-.441.052-.847.158-1.219s.267-.699.474-.972a2.18 2.18 0 0 1 .78-.645c.308-.152.666-.228 1.072-.228.281 0 .539.043.773.129a1.48 1.48 0 0 1 .604.392c.172.176.305.406.398.692s.141.619.141 1.013v4.231h-1.688v-4.043c0-.289-.039-.512-.117-.668a.66.66 0 0 0-.334-.328c-.14-.063-.31-.094-.509-.094-.219 0-.411.045-.575.135a1.14 1.14 0 0 0-.398.375 1.65 1.65 0 0 0-.234.55 2.89 2.89 0 0 0-.077.68zm3.774-.193l-.604.076c0-.414.051-.799.153-1.154s.259-.668.463-.938a2.14 2.14 0 0 1 .767-.627c.305-.152.656-.228 1.055-.228a2.47 2.47 0 0 1 .832.134c.25.086.463.225.638.416.18.188.317.434.411.739s.146.678.146 1.119v4.049h-1.693v-4.049c0-.293-.039-.516-.117-.668s-.184-.264-.329-.322a1.22 1.22 0 0 0-.503-.094 1.11 1.11 0 0 0-.534.123c-.152.078-.279.187-.381.328s-.177.305-.228.492-.076.385-.076.604zm8.164 2.156v-2.824c0-.203-.033-.377-.099-.522s-.17-.263-.311-.345-.314-.123-.533-.123c-.187 0-.35.033-.486.099s-.242.155-.317.276a.76.76 0 0 0-.111.416h-1.688a1.65 1.65 0 0 1 .188-.768c.125-.242.307-.455.545-.639s.521-.334.849-.439a3.66 3.66 0 0 1 1.114-.158c.492 0 .929.082 1.312.246s.684.41.903.738.334.738.334 1.231v2.712c0 .348.021.633.064.856a2.25 2.25 0 0 0 .188.574v.1h-1.706c-.082-.172-.144-.387-.187-.645a5.32 5.32 0 0 1-.059-.785zm.223-2.432l.012.955h-.944c-.222 0-.416.026-.58.077s-.299.123-.404.216-.184.196-.234.317a1.09 1.09 0 0 0-.071.398c0 .145.034.276.1.393s.162.203.287.269.272.094.44.094a1.38 1.38 0 0 0 .662-.152c.187-.102.332-.227.433-.375s.16-.289.164-.422l.446.715a2.97 2.97 0 0 1-.258.498c-.106.172-.24.334-.405.486a2.06 2.06 0 0 1-.591.369 2.17 2.17 0 0 1-.821.141c-.402 0-.767-.08-1.095-.24a2 2 0 0 1-.774-.674c-.187-.289-.281-.617-.281-.985a2 2 0 0 1 .187-.884 1.73 1.73 0 0 1 .551-.651c.246-.179.553-.314.92-.404a5.18 5.18 0 0 1 1.278-.141h.978zm4.133-2.478v6.34h-1.693v-6.34h1.693zm-1.798-1.652c0-.247.085-.45.257-.61s.403-.24.692-.24.513.08.685.24.264.363.264.61-.088.449-.264.609-.4.24-.685.24-.52-.08-.692-.24-.257-.363-.257-.609zm4.549-1.008v9h-1.693v-9h1.693zm1.051 8.185a.84.84 0 0 1 .258-.627c.176-.168.408-.252.697-.252s.52.084.692.252a.83.83 0 0 1 .263.627.83.83 0 0 1-.263.627c-.172.168-.403.252-.692.252s-.521-.084-.697-.252a.84.84 0 0 1-.258-.627zm5.593-.386c.207 0 .39-.039.55-.118a.92.92 0 0 0 .375-.339c.094-.149.143-.323.147-.522h1.588c-.004.445-.123.842-.358 1.19a2.46 2.46 0 0 1-.943.814 2.95 2.95 0 0 1-1.324.293c-.492 0-.922-.082-1.289-.246a2.52 2.52 0 0 1-.909-.68c-.242-.293-.423-.633-.544-1.019-.122-.391-.182-.809-.182-1.254v-.17a4.15 4.15 0 0 1 .182-1.254c.121-.391.302-.731.544-1.02a2.49 2.49 0 0 1 .909-.685c.363-.164.789-.246 1.277-.246.52 0 .975.099 1.365.299s.703.484.926.855.342.803.346 1.307h-1.588c-.004-.211-.049-.403-.135-.575a.98.98 0 0 0-.363-.41c-.156-.105-.35-.158-.58-.158-.246 0-.448.053-.604.158s-.277.242-.363.422-.147.377-.182.604a5.09 5.09 0 0 0-.047.703v.17c0 .246.016.482.047.709s.09.427.176.603.213.315.369.416.36.153.61.153zm2.943-1.905v-.123c0-.465.067-.892.2-1.283s.326-.736.58-1.025a2.6 2.6 0 0 1 .937-.674c.371-.164.797-.246 1.278-.246s.908.082 1.283.246.689.385.943.674.453.63.586 1.025.199.818.199 1.283v.123a3.99 3.99 0 0 1-.199 1.283 2.99 2.99 0 0 1-.586 1.026 2.6 2.6 0 0 1-.937.674c-.371.16-.797.24-1.278.24s-.908-.08-1.283-.24-.685-.385-.943-.674-.448-.635-.58-1.026a3.99 3.99 0 0 1-.2-1.283zm1.688-.123v.123c0 .266.023.514.07.744s.121.434.223.61.242.306.41.404.373.147.615.147c.235 0 .436-.049.604-.147a1.11 1.11 0 0 0 .404-.404c.102-.176.176-.379.223-.61s.076-.478.076-.744v-.123c0-.258-.025-.5-.076-.726a1.91 1.91 0 0 0-.229-.61 1.14 1.14 0 0 0-.404-.422c-.168-.101-.371-.152-.609-.152s-.442.051-.61.152-.299.243-.404.422-.176.379-.223.61-.07.468-.07.726zm6.618-1.799v5.028h-1.694v-6.34h1.588l.106 1.312zm-.235 1.635h-.468c0-.441.052-.847.158-1.219s.267-.699.474-.972a2.18 2.18 0 0 1 .78-.645c.308-.152.666-.228 1.072-.228.281 0 .539.043.773.129a1.48 1.48 0 0 1 .604.392c.172.176.305.406.398.692s.141.619.141 1.013v4.231h-1.688v-4.043c0-.289-.039-.512-.117-.668a.66.66 0 0 0-.334-.328c-.14-.063-.31-.094-.509-.094-.219 0-.411.045-.575.135a1.14 1.14 0 0 0-.398.375c-.106.156-.184.34-.235.55s-.076.438-.076.68zm3.774-.193l-.604.076c0-.414.051-.799.153-1.154s.259-.668.462-.938.463-.478.768-.627.656-.228 1.055-.228a2.47 2.47 0 0 1 .832.134c.25.086.463.225.638.416s.317.434.411.739.146.678.146 1.119v4.049h-1.693v-4.049c0-.293-.039-.516-.117-.668s-.184-.264-.329-.322-.308-.094-.504-.094a1.11 1.11 0 0 0-.533.123c-.152.078-.279.187-.381.328s-.177.305-.228.492-.076.385-.076.604z" class="F"/><g clip-path="url(#K)"><rect x="197.564" y="490.543" width="274.872" height="45.124" rx="4.106" fill="#4263f6"/><path d="M288.323 513.67v4.344c-.162.213-.414.448-.758.703s-.789.466-1.352.648-1.263.274-2.101.274c-.714 0-1.367-.12-1.961-.359a4.29 4.29 0 0 1-1.539-1.071c-.427-.469-.758-1.039-.992-1.711-.235-.677-.352-1.448-.352-2.312v-.789c0-.86.107-1.625.32-2.297.219-.677.532-1.25.938-1.719s.896-.823 1.469-1.062c.578-.245 1.231-.368 1.961-.368.932 0 1.703.157 2.312.469a3.4 3.4 0 0 1 1.422 1.281c.333.547.544 1.172.633 1.875h-1.922a3.04 3.04 0 0 0-.367-1.062c-.177-.313-.433-.557-.766-.734-.328-.183-.755-.274-1.281-.274-.453 0-.852.086-1.196.258s-.63.424-.859.758-.393.739-.508 1.218-.172 1.027-.172 1.641v.805a6.44 6.44 0 0 0 .196 1.664c.135.484.328.893.578 1.226s.565.586.93.758.776.25 1.234.25c.448 0 .815-.036 1.101-.109s.513-.169.68-.274.305-.213.399-.312v-2.258h-2.368v-1.461h4.321zm1.145 1.68v-.18c0-.609.088-1.174.265-1.695.177-.526.433-.982.766-1.367.338-.391.75-.693 1.234-.907.49-.218 1.042-.328 1.656-.328.62 0 1.172.11 1.657.328a3.45 3.45 0 0 1 1.242.907 3.96 3.96 0 0 1 .773 1.367c.177.521.266 1.086.266 1.695v.18c0 .609-.089 1.174-.266 1.695s-.435.977-.773 1.367-.75.688-1.234.907c-.485.213-1.034.32-1.649.32s-1.174-.107-1.664-.32c-.484-.219-.896-.521-1.234-.907a4.04 4.04 0 0 1-.774-1.367c-.177-.521-.265-1.086-.265-1.695zm1.882-.18v.18c0 .38.039.739.118 1.078s.2.635.367.891.38.455.64.601.571.219.93.219c.349 0 .651-.073.906-.219.261-.146.474-.346.641-.601s.289-.552.367-.891c.084-.339.125-.698.125-1.078v-.18a4.33 4.33 0 0 0-.125-1.062c-.078-.339-.203-.638-.375-.899-.166-.26-.38-.463-.64-.609-.256-.151-.56-.227-.915-.227s-.661.076-.921.227c-.256.146-.467.349-.633.609s-.289.56-.367.899a4.59 4.59 0 0 0-.118 1.062zm14.454-4.14v1.375h-4.765v-1.375h4.765zm-3.39-2.071h1.882v8.188c0 .26.037.461.11.601s.185.227.32.274.294.07.477.07a3.02 3.02 0 0 0 .375-.023l.289-.047.008 1.437c-.157.047-.339.089-.547.125-.203.037-.438.055-.703.055-.433 0-.816-.076-1.149-.227a1.69 1.69 0 0 1-.781-.757c-.188-.349-.281-.813-.281-1.391v-8.305zm3.816 6.391v-.18c0-.609.089-1.174.266-1.695.177-.526.432-.982.766-1.367.338-.391.75-.693 1.234-.907.49-.218 1.042-.328 1.656-.328.62 0 1.172.11 1.657.328a3.45 3.45 0 0 1 1.242.907 3.96 3.96 0 0 1 .773 1.367c.177.521.266 1.086.266 1.695v.18c0 .609-.089 1.174-.266 1.695s-.435.977-.773 1.367a3.58 3.58 0 0 1-1.235.907c-.484.213-1.034.32-1.648.32-.62 0-1.175-.107-1.664-.32a3.58 3.58 0 0 1-1.235-.907c-.338-.39-.596-.846-.773-1.367s-.266-1.086-.266-1.695zm1.883-.18v.18c0 .38.039.739.117 1.078a2.76 2.76 0 0 0 .368.891c.166.255.38.455.64.601s.571.219.93.219c.349 0 .651-.073.906-.219.261-.146.474-.346.641-.601s.289-.552.367-.891c.083-.339.125-.698.125-1.078v-.18a4.38 4.38 0 0 0-.125-1.062c-.078-.339-.203-.638-.375-.899-.167-.26-.38-.463-.641-.609-.255-.151-.56-.227-.914-.227s-.661.076-.922.227a1.81 1.81 0 0 0-.632.609c-.167.261-.289.56-.368.899-.078.333-.117.687-.117 1.062zm15.735 2.563v-10.25h1.891v12h-1.711l-.18-1.75zm-5.5-2.383v-.164c0-.641.076-1.224.227-1.75.151-.531.37-.987.656-1.367.287-.386.636-.68 1.047-.883.411-.209.875-.313 1.391-.313.51 0 .958.099 1.343.297a2.79 2.79 0 0 1 .985.852c.271.364.487.802.648 1.312s.276 1.068.344 1.688v.523c-.068.604-.182 1.156-.344 1.656s-.377.933-.648 1.297-.602.646-.992.844-.836.297-1.352.297c-.51 0-.971-.107-1.383-.32-.406-.214-.752-.513-1.039-.899a4.23 4.23 0 0 1-.656-1.359c-.151-.526-.227-1.097-.227-1.711zm1.883-.164v.164c0 .385.034.745.102 1.078a2.97 2.97 0 0 0 .336.883c.151.25.346.448.586.594.244.14.536.21.875.21.427 0 .778-.093 1.054-.281s.492-.44.649-.758.27-.682.328-1.078v-1.414c-.031-.307-.097-.594-.196-.859-.093-.266-.221-.498-.382-.695-.162-.204-.362-.36-.602-.469-.234-.115-.513-.172-.836-.172-.344 0-.635.073-.875.219a1.78 1.78 0 0 0-.594.601 2.96 2.96 0 0 0-.336.891c-.072.338-.109.7-.109 1.086zm11.762 2.601v-4.031c0-.302-.055-.562-.164-.781s-.276-.388-.5-.508-.495-.18-.828-.18c-.307 0-.573.052-.797.157s-.398.244-.523.421a1.02 1.02 0 0 0-.188.602h-1.875c0-.333.081-.656.242-.969s.396-.591.703-.836.675-.437 1.102-.578a4.6 4.6 0 0 1 1.438-.211c.635 0 1.197.107 1.687.321a2.56 2.56 0 0 1 1.164.968c.287.427.43.964.43 1.61v3.758c0 .385.026.731.078 1.039a3.35 3.35 0 0 0 .242.789v.125h-1.93c-.088-.203-.158-.461-.211-.774a6.43 6.43 0 0 1-.07-.922zm.274-3.445l.015 1.164h-1.351c-.349 0-.657.034-.922.102a1.88 1.88 0 0 0-.664.281c-.177.125-.31.276-.399.453s-.133.378-.133.602.053.429.157.617c.104.182.255.325.453.429s.448.157.734.157c.386 0 .722-.078 1.008-.235a2.06 2.06 0 0 0 .688-.586c.166-.234.255-.455.265-.664l.61.836c-.063.214-.17.443-.321.688a3.32 3.32 0 0 1-.594.703c-.239.219-.528.398-.867.539-.333.141-.718.211-1.156.211-.552 0-1.044-.109-1.477-.328-.432-.224-.77-.524-1.015-.899s-.367-.81-.367-1.289c0-.448.083-.843.25-1.187.172-.349.422-.641.75-.875.333-.235.739-.412 1.218-.531.48-.125 1.026-.188 1.641-.188h1.477zm7.848 2.852a.94.94 0 0 0-.141-.508c-.094-.156-.273-.297-.539-.422-.26-.125-.646-.24-1.156-.344-.448-.099-.86-.216-1.235-.351-.369-.141-.687-.31-.953-.508s-.471-.433-.617-.703-.219-.584-.219-.938a2.18 2.18 0 0 1 .227-.976c.151-.308.367-.579.648-.813s.623-.419 1.024-.555a4.29 4.29 0 0 1 1.359-.203c.708 0 1.315.12 1.82.36.511.234.901.554 1.172.961a2.37 2.37 0 0 1 .406 1.359h-1.882a1.21 1.21 0 0 0-.172-.625c-.11-.198-.276-.357-.5-.477s-.505-.187-.844-.187c-.323 0-.591.052-.805.156-.208.099-.364.229-.468.391s-.149.338-.149.531c0 .141.026.268.078.383a.91.91 0 0 0 .282.305c.13.088.307.171.531.25s.515.153.859.226c.646.136 1.201.31 1.664.524.469.208.828.479 1.078.812s.375.745.375 1.25c0 .375-.08.719-.242 1.031-.156.308-.385.576-.687.805a3.45 3.45 0 0 1-1.086.523c-.417.125-.886.188-1.407.188-.765 0-1.414-.136-1.945-.406-.531-.276-.935-.628-1.211-1.055s-.406-.88-.406-1.344h1.82c.021.349.117.628.289.836s.396.352.657.445a2.56 2.56 0 0 0 .82.133c.338 0 .622-.044.851-.133a1.21 1.21 0 0 0 .524-.375.89.89 0 0 0 .18-.546zm4.871-9.711v12h-1.875v-12h1.875zm-.328 7.461l-.609-.008a5.47 5.47 0 0 1 .242-1.617c.161-.495.385-.925.672-1.289.291-.37.64-.654 1.046-.852s.857-.305 1.352-.305a3.46 3.46 0 0 1 1.125.172c.339.115.63.3.875.555s.43.578.555.984.195.891.195 1.469v5.43h-1.891v-5.446c0-.406-.059-.729-.179-.968a1.04 1.04 0 0 0-.508-.516c-.224-.109-.497-.164-.82-.164-.339 0-.638.068-.899.203-.255.135-.469.32-.64.555a2.54 2.54 0 0 0-.391.812 3.77 3.77 0 0 0-.125.985zm6.887-7.461h1.883v10.195l-.18 1.805h-1.703v-12zm7.398 7.695v.164c0 .625-.07 1.201-.21 1.727-.136.52-.344.974-.625 1.359s-.62.685-1.032.898c-.406.209-.877.313-1.414.313-.526 0-.984-.099-1.375-.297a2.73 2.73 0 0 1-.984-.844c-.261-.364-.472-.799-.633-1.304s-.276-1.063-.344-1.672v-.524c.068-.614.183-1.172.344-1.672s.372-.94.633-1.304c.265-.37.591-.654.976-.852.391-.198.847-.297 1.368-.297.541 0 1.018.104 1.429.313a2.8 2.8 0 0 1 1.039.89c.276.381.482.834.618 1.36s.21 1.107.21 1.742zm-1.882.164v-.164c0-.38-.032-.737-.094-1.07-.063-.339-.167-.636-.313-.891-.14-.255-.333-.456-.578-.602-.239-.151-.539-.226-.898-.226-.334 0-.62.057-.86.172s-.44.271-.601.469-.289.427-.383.687c-.088.26-.148.542-.18.844v1.414a3.59 3.59 0 0 0 .297 1.078c.157.323.375.583.657.781s.643.289 1.085.289c.349 0 .644-.07.883-.211a1.54 1.54 0 0 0 .571-.586c.145-.255.25-.552.312-.89.068-.339.102-.703.102-1.094zm2.637.008v-.18c0-.609.088-1.174.265-1.695.177-.526.433-.982.766-1.367.338-.391.75-.693 1.234-.907.49-.218 1.042-.328 1.657-.328s1.171.11 1.656.328a3.45 3.45 0 0 1 1.242.907c.339.385.596.841.773 1.367a5.21 5.21 0 0 1 .266 1.695v.18a5.21 5.21 0 0 1-.266 1.695c-.177.521-.434.977-.773 1.367s-.75.688-1.234.907c-.485.213-1.034.32-1.649.32s-1.174-.107-1.664-.32c-.484-.219-.896-.521-1.234-.907a4.04 4.04 0 0 1-.774-1.367c-.177-.521-.265-1.086-.265-1.695zm1.883-.18v.18c0 .38.039.739.117 1.078s.2.635.367.891.38.455.641.601.57.219.929.219c.349 0 .651-.073.906-.219.261-.146.474-.346.641-.601s.289-.552.367-.891c.084-.339.125-.698.125-1.078v-.18a4.33 4.33 0 0 0-.125-1.062c-.078-.339-.203-.638-.375-.899-.166-.26-.38-.463-.64-.609-.256-.151-.56-.227-.914-.227s-.662.076-.922.227c-.256.146-.466.349-.633.609s-.289.56-.367.899c-.078.333-.117.687-.117 1.062zm11.84 2.617v-4.031c0-.302-.055-.562-.164-.781a1.15 1.15 0 0 0-.5-.508c-.219-.12-.495-.18-.828-.18-.308 0-.573.052-.797.157s-.399.244-.524.421a1.02 1.02 0 0 0-.187.602h-1.875c0-.333.08-.656.242-.969s.396-.591.703-.836.674-.437 1.102-.578.906-.211 1.437-.211c.635 0 1.198.107 1.688.321a2.57 2.57 0 0 1 1.164.968c.286.427.429.964.429 1.61v3.758c0 .385.026.731.078 1.039a3.35 3.35 0 0 0 .243.789v.125h-1.93c-.089-.203-.159-.461-.211-.774a6.29 6.29 0 0 1-.07-.922zm.273-3.445l.016 1.164h-1.352a3.74 3.74 0 0 0-.922.102c-.265.062-.487.156-.664.281s-.31.276-.398.453-.133.378-.133.602a1.25 1.25 0 0 0 .156.617c.104.182.255.325.453.429.204.105.448.157.735.157.385 0 .721-.078 1.008-.235s.52-.356.687-.586.255-.455.266-.664l.609.836c-.062.214-.169.443-.32.688a3.32 3.32 0 0 1-.594.703c-.24.219-.529.398-.867.539s-.719.211-1.156.211a3.22 3.22 0 0 1-1.477-.328c-.432-.224-.771-.524-1.016-.899s-.367-.81-.367-1.289c0-.448.084-.843.25-1.187.172-.349.422-.641.75-.875a3.61 3.61 0 0 1 1.219-.531c.479-.125 1.026-.188 1.641-.188h1.476zm4.997-1.703v6.844h-1.883v-8.453h1.797l.086 1.609zm2.586-1.664l-.016 1.75a3.55 3.55 0 0 0-.375-.047l-.391-.016c-.323 0-.606.047-.851.141s-.451.219-.617.391c-.162.166-.287.369-.375.609s-.141.508-.157.805l-.429.031a6.6 6.6 0 0 1 .156-1.477c.104-.453.26-.851.469-1.195s.479-.612.796-.805c.323-.192.696-.289 1.118-.289.114 0 .237.011.367.032.135.02.237.044.305.07zm5.699 6.758v-10.25h1.891v12h-1.711l-.18-1.75zm-5.5-2.383v-.164c0-.641.076-1.224.227-1.75.151-.531.369-.987.656-1.367a2.87 2.87 0 0 1 1.047-.883c.411-.209.875-.313 1.39-.313s.959.099 1.344.297a2.79 2.79 0 0 1 .985.852c.27.364.487.802.648 1.312s.276 1.068.344 1.688v.523c-.068.604-.183 1.156-.344 1.656a4.45 4.45 0 0 1-.648 1.297 2.8 2.8 0 0 1-.993.844c-.385.198-.836.297-1.351.297a2.96 2.96 0 0 1-1.383-.32c-.406-.214-.753-.513-1.039-.899a4.21 4.21 0 0 1-.656-1.359c-.151-.526-.227-1.097-.227-1.711zm1.883-.164v.164a5.47 5.47 0 0 0 .101 1.078 2.97 2.97 0 0 0 .336.883c.151.25.347.448.586.594.245.14.537.21.875.21.427 0 .779-.093 1.055-.281s.492-.44.648-.758c.162-.323.271-.682.329-1.078v-1.414c-.032-.307-.097-.594-.196-.859-.093-.266-.221-.498-.383-.695a1.59 1.59 0 0 0-.601-.469c-.234-.115-.513-.172-.836-.172-.344 0-.635.073-.875.219a1.76 1.76 0 0 0-.594.601 2.96 2.96 0 0 0-.336.891 5.14 5.14 0 0 0-.109 1.086z" class="B"/></g><g opacity=".504"><path d="M480.641 71.637l-1.157-1.157-4.587 4.586-4.586-4.586-1.157 1.157 4.586 4.586-4.586 4.586 1.157 1.157 4.586-4.586 4.587 4.586 1.157-1.157-4.587-4.586 4.587-4.586z" fill="#000"/></g><g class="C"><path d="M395.307 217.151c0 33.201-26.917 60.116-60.121 60.116s-60.12-26.915-60.12-60.116 26.916-60.115 60.12-60.115 60.121 26.914 60.121 60.115z" fill="#f8c637"/><g fill="#f5d664"><path d="M381.186 178.456c-11.03-13.093-27.538-21.42-46-21.42-33.204 0-60.12 26.914-60.12 60.115 0 6.976 1.201 13.667 3.387 19.897 33.902-20.124 68.12-39.71 102.733-58.592zm-39.048 98.398c13.793-1.588 26.168-7.832 35.498-17.135l-28.126 13.609-7.372 3.526z"/></g><path d="M379.938 216.199c0 25.241-20.46 45.7-45.703 45.7s-45.705-20.459-45.705-45.7 20.461-45.7 45.705-45.7 45.703 20.459 45.703 45.7z" fill="#cc7c2f"/><path d="M381.229 218.104c0 24.901-20.186 45.086-45.09 45.086s-45.091-20.185-45.091-45.086 20.186-45.088 45.091-45.088 45.09 20.187 45.09 45.088z" fill="#e5a235"/><path opacity=".394" d="M345.029 197.014c-2.891-4.44-8.418-8.581-19.467-8.906-18.384-.542-33.646 18.542-29.083 39.82l.137.616c.344 1.484.785 2.977 1.329 4.475l.42 1.106a37.33 37.33 0 0 0 1.585 3.475l.103.183c12.615 23.744 48.135 25.711 65.306 9.369a63.88 63.88 0 0 0 7.025-7.813c5.235-6.82 7.495-14.566 5.663-13.401-.002.001-.01.007-.024.016-.69.469-15.653 10.631-30.095 12.772-25.407 3.769-38.566-15.431-34.791-27.61 2.071-6.68 8.208-8.549 11.735-6.977 3.232 1.441 4.934 4.043 6.184 5.955.94 1.438 1.626 2.486 2.514 2.358 2.333-1.63-2.332-13.211-12.425-13.211-3.314 0-3.452-1.485-2.209-2.078.808-.386 13.392-2.672 19.742 14.547.432 1.17 4.418.594-.138-7.719-.292-.533 1.261-1.184 3.727 1.93 2.67 3.369 2.705 7.157 2.731 9.866l.031 1.415c.109 2.109 2.852.368 3.451-4.304.553-4.305.415-9.946-3.451-15.884z" fill="#965211"/><path d="M344.002 194.704c-2.891-4.441-8.418-8.581-19.467-8.907-18.385-.541-33.646 18.543-29.084 39.821l.138.615c.344 1.484.785 2.978 1.328 4.475l.42 1.107a37.86 37.86 0 0 0 1.585 3.475l.104.183c12.615 23.744 48.135 25.711 65.305 9.369 2.687-2.557 4.758-4.859 7.025-7.813 5.236-6.821 7.495-14.566 5.664-13.401a.43.43 0 0 0-.025.016c-.69.469-15.652 10.63-30.094 12.772-25.407 3.769-38.567-15.431-34.791-27.61 2.071-6.68 8.208-8.549 11.735-6.977 3.232 1.441 4.933 4.043 6.184 5.955.94 1.437 1.625 2.485 2.514 2.358 2.332-1.63-2.332-13.212-12.426-13.212-3.313 0-3.451-1.484-2.209-2.078.808-.386 13.392-2.672 19.743 14.548.431 1.17 4.418.594-.138-7.719-.292-.533 1.261-1.184 3.727 1.929 2.669 3.369 2.705 7.158 2.73 9.867l.032 1.415c.108 2.109 2.852.367 3.451-4.305.552-4.305.414-9.946-3.451-15.883z" fill="#f7ce46"/></g><g style="mix-blend-mode:color" class="C"><path d="M293.807 173.442l.964-.851c2.938-2.536 19.047-15.555 40.229-15.555 23.086 0 40.327 15.466 40.881 15.968l.037.034c.426.392 6.436 5.977 10.606 12.748 4.366 7.09-1.662 15.143-9.988 15.143h-82.679c-8.505 0-14.394-7.881-9.967-15.143 4.179-6.856 8.498-11.054 9.917-12.344z" fill="#d8d8d8"/></g><g filter="url(#C)"><rect x="291.103" y="281.024" width="91.077" height="4" rx="2" fill="#f8c637"/></g><path d="M189.359 70.782c0-.167.135-.303.302-.303h14.165c.167 0 .302.136.302.303v1.403c0 .167-.135.302-.302.302h-14.165c-.167 0-.302-.135-.302-.302v-1.403zm0 4.534c0-.167.135-.303.302-.303h14.165c.167 0 .302.135.302.303v1.403c0 .167-.135.303-.302.303h-14.165c-.167 0-.302-.135-.302-.303v-1.403zm.302 4.231c-.167 0-.302.135-.302.302v1.403c0 .167.135.302.302.302h14.165c.167 0 .302-.135.302-.302V79.85c0-.167-.135-.302-.302-.302h-14.165z" fill="#8688a2" class="C"/></g><g clip-path="url(#L)"><path d="M0 .122h639a8 8 0 0 1 8 8v35H0v-43z" fill="url(#G)"/><g class="G C H"><path d="M373.814 30.018a.54.54 0 0 1-.454-.094.55.55 0 0 1-.251-.404.69.69 0 0 1 .133-.49c.402-.595.751-1.242 1.046-1.939a11.82 11.82 0 0 0 .685-2.209 11.79 11.79 0 0 0 .243-2.417 11.83 11.83 0 0 0-.243-2.425 11.62 11.62 0 0 0-.685-2.201c-.295-.692-.644-1.338-1.046-1.939-.109-.162-.154-.326-.133-.494a.55.55 0 0 1 .251-.399.55.55 0 0 1 .454-.098c.167.034.303.132.407.294.45.663.839 1.38 1.168 2.15s.582 1.584.76 2.44a13.17 13.17 0 0 1 .266 2.671c0 .924-.088 1.815-.263 2.671s-.425 1.67-.752 2.44-.719 1.487-1.179 2.15c-.104.157-.24.253-.407.29zm-9.342-.885c-.164.167-.377.251-.638.251a1.17 1.17 0 0 1-.517-.118c-.162-.078-.332-.204-.509-.376l-3.337-3.165c-.053-.047-.118-.071-.196-.071h-2.249c-.527 0-.932-.144-1.214-.431s-.423-.715-.423-1.285v-2.914c0-.564.141-.991.423-1.281s.687-.435 1.214-.435h2.249c.078 0 .143-.024.196-.07l3.337-3.134c.198-.193.37-.332.517-.415s.31-.125.493-.125c.267 0 .483.09.65.27s.251.398.251.654v12.017c0 .251-.082.46-.247.627zm3.482-3.239c-.161.029-.31-.001-.446-.09-.157-.11-.246-.251-.266-.423s.028-.342.148-.509a3.78 3.78 0 0 0 .525-1.101c.126-.415.188-.85.188-1.304a4.61 4.61 0 0 0-.184-1.308 3.51 3.51 0 0 0-.529-1.097.66.66 0 0 1-.152-.505.6.6 0 0 1 .27-.427c.136-.094.285-.125.446-.094s.296.123.4.274c.303.397.539.872.709 1.426s.255 1.131.255 1.731-.085 1.178-.255 1.731-.406 1.029-.709 1.426c-.104.151-.238.241-.4.27zm2.468 1.954c.146.094.3.127.462.098s.295-.119.4-.27c.501-.689.892-1.488 1.171-2.397a9.53 9.53 0 0 0 .419-2.812 9.67 9.67 0 0 0-.415-2.82c-.277-.914-.669-1.71-1.175-2.389a.62.62 0 0 0-.4-.274c-.162-.031-.316.003-.462.102s-.223.231-.247.396.023.328.137.49c.429.606.76 1.298.995 2.076s.353 1.585.353 2.421a8.19 8.19 0 0 1-.357 2.417c-.237.776-.568 1.469-.991 2.08-.109.162-.154.325-.133.49a.55.55 0 0 0 .243.396z"/></g><g class="G C H"><path d="M405.234 18.19L400 12.955h-.917v6.958l-4.207-4.208-1.293 1.293 5.125 5.124-5.125 5.124 1.293 1.292 4.207-4.207v6.958H400l5.234-5.234-3.941-3.933 3.941-3.933zm-4.317-1.723l1.723 1.723-1.723 1.723v-3.447zm0 11.312l1.723-1.723-1.723-1.723v3.447z"/></g><g clip-path="url(#M)" class="G"><rect opacity=".35" x="459.108" y="14.789" width="27.605" height="13.667" rx="2.889" stroke="#000" stroke-width="1.333"/><g fill="#000"><path opacity=".4" d="M488.694 18.975v5.294c1.058-.448 1.747-1.491 1.747-2.647s-.689-2.199-1.747-2.647z"/><rect x="461.072" y="16.769" width="23.676" height="9.706" rx="1.778"/></g><path d="M428.441 17.237c2.902 0 5.693 1.165 7.796 3.253a.39.39 0 0 0 .568-.005l1.514-1.596a.45.45 0 0 0 .122-.313.45.45 0 0 0-.126-.311 13.83 13.83 0 0 0-19.748 0 .45.45 0 0 0-.126.311.45.45 0 0 0 .122.313l1.514 1.596a.39.39 0 0 0 .568.005c2.103-2.089 4.894-3.253 7.796-3.253zm0 5.192c1.595 0 3.132.619 4.314 1.737.16.159.412.155.568-.008l1.512-1.596a.45.45 0 0 0 .122-.315.45.45 0 0 0-.128-.313c-3.599-3.497-9.173-3.497-12.772 0a.45.45 0 0 0-.128.313.45.45 0 0 0 .123.315l1.511 1.596c.156.163.408.166.568.008 1.181-1.117 2.717-1.736 4.31-1.737zm3.029 3.493c.003.118-.042.233-.123.315l-2.615 2.757a.4.4 0 0 1-.291.127.4.4 0 0 1-.29-.127l-2.616-2.757a.44.44 0 0 1 .013-.625c1.67-1.476 4.117-1.476 5.787 0 .084.079.133.192.135.31z" class="C H"/></g><g fill="#000" class="C"><path d="M328 32.122a10 10 0 1 0-10-10 10 10 0 0 0 10 10zm.158-1.486a8.36 8.36 0 0 0 8.356-8.355 8.36 8.36 0 0 0-8.356-8.355 8.36 8.36 0 0 0-8.355 8.355c0 4.615 3.741 8.355 8.355 8.355zm1.308-11.784c-.481-.739-1.4-1.427-3.238-1.482-3.065-.09-5.607 3.098-4.833 6.647l.024.102a6.5 6.5 0 0 0 .215.722l.07.184a6.35 6.35 0 0 0 .264.578l.017.03c2.098 3.95 8.006 4.277 10.862 1.559a10.61 10.61 0 0 0 1.169-1.3c.871-1.134 1.247-2.423.942-2.229-.119.081-2.608 1.771-5.01 2.127-4.226.627-6.415-2.567-5.787-4.593.345-1.111 1.366-1.422 1.952-1.16.538.24.821.672 1.029.991.156.239.27.413.418.392.388-.271-.388-2.198-2.067-2.198-.551 0-.574-.247-.367-.346.134-.064 2.227-.444 3.284 2.42.071.195.734.099-.023-1.284-.049-.089.209-.197.62.321.444.56.45 1.191.454 1.641l.005.235c.018.351.474.061.574-.716.092-.716.069-1.654-.574-2.642z"/></g><g class="G H"><path d="M509.802 15.716h1.464l3.737 9.299 3.729-9.299h1.473l-4.638 11.406h-1.144l-4.621-11.406zm-.478 0h1.292l.212 6.956v4.45h-1.504V15.716zm10.058 0h1.293v11.406h-1.504v-4.45l.211-6.956zm3.125 7.262v-.18c0-.611.089-1.178.267-1.7.177-.527.433-.984.767-1.371a3.42 3.42 0 0 1 1.214-.909c.476-.219 1.008-.329 1.599-.329s1.13.11 1.605.329a3.41 3.41 0 0 1 1.223.909c.339.387.597.843.775 1.371.178.522.266 1.089.266 1.7v.18c0 .611-.088 1.178-.266 1.7a4.08 4.08 0 0 1-.775 1.371 3.56 3.56 0 0 1-1.215.909c-.47.214-1.002.321-1.598.321a3.87 3.87 0 0 1-1.606-.321 3.64 3.64 0 0 1-1.222-.909 4.14 4.14 0 0 1-.767-1.371c-.177-.522-.267-1.089-.267-1.7zm1.449-.18v.18a4.69 4.69 0 0 0 .149 1.199c.099.371.248.7.447.987a2.23 2.23 0 0 0 .76.682c.303.162.655.243 1.057.243s.744-.081 1.042-.243c.303-.167.554-.394.752-.682a3.16 3.16 0 0 0 .447-.987 4.48 4.48 0 0 0 .156-1.199v-.18c0-.418-.052-.812-.156-1.183-.1-.376-.251-.708-.455-.995-.198-.293-.449-.522-.752-.689-.297-.167-.647-.251-1.049-.251s-.747.084-1.05.251a2.2 2.2 0 0 0-.752.689c-.199.287-.348.619-.447.995a4.57 4.57 0 0 0-.149 1.183zm9.314-2.342v6.666h-1.449v-8.476h1.371l.078 1.81zm-.345 2.107l-.603-.023c.005-.58.091-1.115.259-1.606s.402-.927.705-1.293a3.14 3.14 0 0 1 1.081-.846c.423-.204.89-.305 1.402-.305.418 0 .794.057 1.128.172.334.11.619.287.854.533s.423.564.548.956.188.859.188 1.418v5.554h-1.457v-5.57c0-.444-.065-.799-.196-1.065a1.2 1.2 0 0 0-.572-.587c-.25-.125-.558-.188-.924-.188-.36 0-.689.076-.987.227a2.35 2.35 0 0 0-.76.627 3.04 3.04 0 0 0-.493.917c-.115.339-.173.7-.173 1.081zm15.909-6.909v11.469h-1.449v-9.659l-2.922 1.065V17.22l4.144-1.567h.227zm8.655.062h1.465l3.737 9.299 3.728-9.299h1.473l-4.637 11.406h-1.144l-4.622-11.406zm-.478 0h1.293l.211 6.956v4.45h-1.504V15.716zm10.059 0h1.292v11.406h-1.504v-4.45l.212-6.956zm8.506 9.957V21.31c0-.334-.068-.624-.203-.869-.131-.251-.329-.444-.596-.58s-.595-.204-.987-.204c-.365 0-.687.063-.963.188a1.68 1.68 0 0 0-.643.494c-.151.204-.227.423-.227.658h-1.449c0-.303.078-.603.235-.901s.381-.567.674-.807c.297-.245.652-.439 1.065-.58.418-.146.883-.219 1.394-.219.617 0 1.16.104 1.63.313a2.44 2.44 0 0 1 1.112.948c.272.418.408.943.408 1.575v3.948a6.19 6.19 0 0 0 .07.901 3.52 3.52 0 0 0 .227.823v.125h-1.512c-.073-.167-.13-.389-.172-.666a5.34 5.34 0 0 1-.063-.783zm.251-3.69l.016 1.018h-1.465c-.413 0-.781.034-1.105.102a2.53 2.53 0 0 0-.815.29 1.38 1.38 0 0 0-.501.494c-.115.193-.172.42-.172.682s.06.509.18.729a1.31 1.31 0 0 0 .54.525c.246.125.546.188.901.188.444 0 .836-.094 1.175-.282s.609-.418.807-.689c.204-.272.314-.535.329-.791l.619.697c-.036.219-.136.462-.298.728s-.378.522-.65.768a3.51 3.51 0 0 1-.955.603c-.366.157-.779.235-1.238.235-.575 0-1.079-.112-1.512-.337s-.763-.525-1.003-.901-.352-.807-.352-1.277c0-.454.088-.854.266-1.199a2.31 2.31 0 0 1 .768-.869c.334-.235.736-.413 1.206-.533s.995-.18 1.575-.18h1.684zm4.707-2.005v7.144h-1.449v-8.476h1.41l.039 1.332zm2.648-1.379l-.008 1.347a2.08 2.08 0 0 0-.344-.047 3.51 3.51 0 0 0-.361-.016c-.334 0-.629.052-.885.157s-.473.251-.65.439-.319.413-.423.674-.165.538-.196.846l-.407.235a6.68 6.68 0 0 1 .148-1.441 3.94 3.94 0 0 1 .478-1.191 2.34 2.34 0 0 1 .815-.815c.334-.198.731-.298 1.191-.298a1.93 1.93 0 0 1 .36.039c.136.021.23.044.282.07zm13.245-2.945v11.469h-1.45v-9.659l-2.921 1.065V17.22l4.144-1.567h.227zm11.201 4.857v1.739c0 .935-.083 1.723-.25 2.366s-.408 1.159-.721 1.551a2.74 2.74 0 0 1-1.136.854c-.439.172-.935.259-1.488.259a4.27 4.27 0 0 1-1.215-.165 2.88 2.88 0 0 1-1.002-.525c-.293-.245-.544-.564-.752-.956s-.369-.867-.478-1.426-.165-1.212-.165-1.958v-1.739c0-.935.084-1.718.251-2.35s.415-1.139.728-1.52.69-.663 1.128-.83c.444-.167.941-.251 1.489-.251.444 0 .851.055 1.222.165a2.76 2.76 0 0 1 1.003.509 2.84 2.84 0 0 1 .744.924c.209.381.368.849.478 1.402s.164 1.204.164 1.951zm-1.457 1.974v-2.217a8.46 8.46 0 0 0-.094-1.347 4.21 4.21 0 0 0-.258-1.003 1.98 1.98 0 0 0-.439-.674c-.172-.172-.373-.298-.603-.376a2.17 2.17 0 0 0-.76-.125c-.345 0-.65.065-.917.196-.266.125-.491.326-.673.603s-.314.64-.408 1.089-.141.995-.141 1.637v2.217c0 .512.029.963.086 1.355.063.392.155.731.275 1.018s.266.514.438.697.371.319.596.407a2.22 2.22 0 0 0 .76.125c.355 0 .665-.068.932-.204a1.68 1.68 0 0 0 .666-.634c.182-.293.318-.666.407-1.12.089-.46.133-1.008.133-1.645zm3.196 3.869c0-.245.075-.452.227-.619.156-.172.381-.259.673-.259s.515.086.666.259a.87.87 0 0 1 .235.619.86.86 0 0 1-.235.611c-.151.167-.373.251-.666.251s-.517-.084-.673-.251-.227-.371-.227-.611zm.007-6.917c0-.245.076-.452.228-.619.156-.172.381-.259.673-.259s.515.086.666.259a.87.87 0 0 1 .235.619.86.86 0 0 1-.235.611c-.151.167-.373.251-.666.251s-.517-.084-.673-.251-.228-.371-.228-.611zm10.724 1.074v1.739c0 .935-.083 1.723-.251 2.366s-.407 1.159-.72 1.551a2.74 2.74 0 0 1-1.136.854c-.439.172-.935.259-1.489.259-.438 0-.843-.055-1.214-.165s-.705-.285-1.003-.525c-.292-.245-.543-.564-.752-.956s-.368-.867-.477-1.426-.165-1.212-.165-1.958v-1.739c0-.935.084-1.718.251-2.35s.415-1.139.728-1.52.69-.663 1.128-.83c.444-.167.94-.251 1.489-.251.444 0 .851.055 1.222.165.376.104.71.274 1.002.509s.541.538.745.924.368.849.478 1.402.164 1.204.164 1.951zm-1.457 1.974v-2.217a8.46 8.46 0 0 0-.094-1.347c-.057-.392-.144-.726-.259-1.003s-.261-.501-.438-.674a1.56 1.56 0 0 0-.603-.376 2.17 2.17 0 0 0-.76-.125c-.345 0-.65.065-.917.196a1.65 1.65 0 0 0-.674.603c-.177.277-.313.64-.407 1.089s-.141.995-.141 1.637v2.217c0 .512.029.963.086 1.355a4.51 4.51 0 0 0 .274 1.018 2.37 2.37 0 0 0 .439.697c.172.183.371.319.596.407.229.083.483.125.759.125.356 0 .666-.068.933-.204s.488-.347.665-.634c.183-.293.319-.666.408-1.12.089-.46.133-1.008.133-1.645zm4.543 3.423h.149c.835 0 1.514-.117 2.036-.353s.925-.551 1.207-.948.475-.843.58-1.34a7.58 7.58 0 0 0 .156-1.543v-1.747c0-.517-.06-.977-.18-1.379s-.277-.739-.486-1.011a2.15 2.15 0 0 0-.697-.619 1.72 1.72 0 0 0-.83-.212c-.334 0-.635.068-.901.204a1.9 1.9 0 0 0-.666.556c-.183.24-.313.522-.407.846a3.78 3.78 0 0 0-.141 1.058 3.86 3.86 0 0 0 .125.987c.084.319.211.606.384.862a1.99 1.99 0 0 0 .642.611c.261.146.567.219.917.219.324 0 .626-.063.908-.188a2.57 2.57 0 0 0 .76-.525 2.64 2.64 0 0 0 .533-.76c.131-.282.214-.577.235-.885h.689c0 .433-.086.862-.258 1.285a3.93 3.93 0 0 1-.705 1.144 3.58 3.58 0 0 1-1.066.83c-.407.204-.851.305-1.331.305-.564 0-1.053-.11-1.465-.329s-.752-.512-1.019-.877a4 4 0 0 1-.587-1.222c-.125-.454-.188-.914-.188-1.379 0-.543.076-1.052.227-1.527a3.72 3.72 0 0 1 .674-1.253 3.07 3.07 0 0 1 1.104-.854c.444-.204.956-.306 1.536-.306.653 0 1.209.13 1.668.392a3.24 3.24 0 0 1 1.121 1.05c.288.439.506.932.642 1.481a7 7 0 0 1 .204 1.692v.525a14.23 14.23 0 0 1-.118 1.802 7.18 7.18 0 0 1-.431 1.739 4.66 4.66 0 0 1-.916 1.488c-.402.433-.927.778-1.575 1.034-.642.251-1.436.376-2.381.376h-.149v-1.23z"/></g></g><g filter="url(#D)"><rect x="64" y="320" width="159.924" height="159.924" rx="79.962" class="B"/><path d="M175.517 377.294c.231-12.007-9.677-21.224-23.3-21.224h-28.173c-.657 0-1.292.234-1.791.661a2.76 2.76 0 0 0-.932 1.667l-11.291 70.543c-.05.32-.031.647.057.958s.242.6.453.846a2.23 2.23 0 0 0 1.702.785h16.693l-2.611 16.337a2.25 2.25 0 0 0 .057.959c.088.311.243.6.453.846s.472.444.766.579.614.206.938.205h13.597c.658 0 1.243-.237 1.741-.662s.58-1.016.682-1.666l3.991-23.485c.102-.647.432-1.488.932-1.916s.935-.66 1.591-.662h8.323c13.341 0 24.661-9.48 26.73-22.669 1.463-9.364-2.55-17.88-10.606-22.102h-.002z" fill="#001c64"/><path d="M132.546 405.514l-4.157 26.366-2.611 16.535c-.051.32-.031.647.057.959s.242.6.453.846.472.444.766.579.614.206.938.205h14.391a2.75 2.75 0 0 0 1.789-.662c.499-.427.829-1.017.931-1.666l3.793-24.035a2.76 2.76 0 0 1 .931-1.665c.499-.426 1.134-.66 1.79-.661h8.473c13.34 0 24.658-9.73 26.728-22.919 1.467-9.362-3.245-17.878-11.302-22.103-.021.997-.108 1.992-.261 2.978-2.069 13.187-13.39 22.92-26.73 22.92h-13.258c-.656 0-1.29.234-1.789.66s-.829 1.016-.932 1.663z" fill="#0070e0"/><path d="M128.387 431.88h-16.743a2.25 2.25 0 0 1-.938-.205c-.294-.136-.555-.333-.765-.58a2.23 2.23 0 0 1-.508-1.804l11.288-71.593c.102-.648.433-1.239.932-1.665s1.134-.661 1.791-.66h28.775c13.621 0 23.528 9.914 23.298 21.92-3.39-1.777-7.373-2.794-11.738-2.794h-23.99a2.76 2.76 0 0 0-1.789.662c-.498.426-.829 1.016-.931 1.664l-4.52 28.689-4.164 26.366h.002z" fill="#003087"/></g><rect x="415" y="479" width="159.924" height="159.924" rx="79.962" class="B"/><path d="M494.686 503.658l-.694 2.359v68.463l.694.693 31.78-18.785-31.78-52.73z" fill="#343434"/><path d="M494.686 503.658l-31.779 52.73 31.779 18.785v-33.23-38.285z" fill="#8c8c8c"/><path d="M494.686 581.19l-.391.477v24.388l.391 1.143 31.799-44.783-31.799 18.775z" fill="#3c3c3b"/><path d="M494.686 607.197V581.19l-31.779-18.775 31.779 44.782z" fill="#8c8c8c"/><path d="M494.686 575.173l31.779-18.785-31.779-14.444v33.229z" fill="#141414"/><path d="M462.907 556.388l31.779 18.785v-33.229l-31.779 14.444z" fill="#393939"/><g filter="url(#E)"><rect x="423" y="186" width="159.924" height="159.924" rx="79.962" class="B"/><path d="M553.183 277.785c-6.916 27.74-35.013 44.622-62.756 37.705-27.732-6.916-44.615-35.014-37.695-62.753 6.912-27.744 35.009-44.628 62.744-37.712 27.742 6.916 44.623 35.018 37.707 62.76z" fill="#f7931a"/><path d="M525.787 257.881c1.031-6.89-4.215-10.594-11.389-13.065l2.327-9.334-5.681-1.415-2.265 9.087-4.552-1.071 2.281-9.148-5.678-1.415-2.328 9.33-3.628-.853.006-.029-7.835-1.956-1.511 6.068s4.215.966 4.126 1.026c2.301.574 2.717 2.097 2.647 3.304l-2.65 10.633a4.72 4.72 0 0 1 .59.189l-.6-.149-3.715 14.896c-.282.699-.996 1.747-2.604 1.349.057.083-4.13-1.03-4.13-1.03l-2.82 6.503 7.393 1.843 4.051 1.045-2.352 9.441 5.675 1.416 2.329-9.34 4.528 1.174-2.321 9.297 5.682 1.416 2.351-9.423c9.688 1.833 16.973 1.094 20.039-7.668 2.471-7.056-.123-11.125-5.22-13.779 3.712-.856 6.508-3.298 7.254-8.342zm-12.981 18.203c-1.756 7.055-13.635 3.241-17.486 2.285l3.12-12.507c3.851.961 16.201 2.864 14.366 10.222zm1.758-18.305c-1.602 6.418-11.489 3.157-14.697 2.358l2.829-11.343c3.207.799 13.536 2.291 11.868 8.985z" class="B"/></g><defs><filter id="A" x="110" y="18.066" width="450" height="681.056" filterUnits="userSpaceOnUse" class="D"><feFlood class="E"/><feGaussianBlur in="BackgroundImage" stdDeviation="19.028"/><feComposite in2="SourceAlpha" operator="in" result="B"/><feColorMatrix in="SourceAlpha" values="0 0 0 0 0 0 0 0 0 0 0 0 0 0 0 0 0 0 127 0"/><feOffset dy="32"/><feGaussianBlur stdDeviation="32.5"/><feColorMatrix values="0 0 0 0 0.336163 0 0 0 0 0.336163 0 0 0 0 0.55622 0 0 0 0.344734 0"/><feBlend in2="B"/><feBlend in="SourceGraphic"/></filter><filter id="B" x="181.149" y="421.618" width="223.189" height="64.419" filterUnits="userSpaceOnUse" class="D"><feFlood class="E"/><feBlend in="SourceGraphic"/><feGaussianBlur stdDeviation="13.951"/></filter><filter id="C" x="252.04" y="241.961" width="169.203" height="82.126" filterUnits="userSpaceOnUse" class="D"><feFlood class="E"/><feBlend in="SourceGraphic"/><feGaussianBlur stdDeviation="19.531"/></filter><filter id="D" x="36" y="309" width="215.924" height="215.924" filterUnits="userSpaceOnUse" class="D"><feFlood result="A" class="E"/><feColorMatrix in="SourceAlpha" values="0 0 0 0 0 0 0 0 0 0 0 0 0 0 0 0 0 0 127 0" result="B"/><feOffset dy="17"/><feGaussianBlur stdDeviation="14"/><feComposite in2="B" operator="out"/><feColorMatrix values="0 0 0 0 0.11776 0 0 0 0 0.197768 0 0 0 0 0.554167 0 0 0 0.2 0"/><feBlend in2="A"/><feBlend in="SourceGraphic"/></filter><filter id="E" x="395" y="175" width="215.924" height="215.924" filterUnits="userSpaceOnUse" class="D"><feFlood result="A" class="E"/><feColorMatrix in="SourceAlpha" values="0 0 0 0 0 0 0 0 0 0 0 0 0 0 0 0 0 0 127 0" result="B"/><feOffset dy="17"/><feGaussianBlur stdDeviation="14"/><feComposite in2="B" operator="out"/><feColorMatrix values="0 0 0 0 0.11776 0 0 0 0 0.197768 0 0 0 0 0.554167 0 0 0 0.2 0"/><feBlend in2="A"/><feBlend in="SourceGraphic"/></filter><linearGradient id="F" x1="0" y1="591.334" x2="647" y2="591.334" gradientUnits="userSpaceOnUse"><stop stop-color="#4263f6" stop-opacity=".01"/><stop offset="1" stop-color="#fff" stop-opacity=".284"/></linearGradient><linearGradient id="G" x1="0" y1="43.122" x2="647" y2="43.122" gradientUnits="userSpaceOnUse"><stop stop-color="#4263f6" stop-opacity=".502"/><stop offset="1" stop-color="#fbfbfb" stop-opacity=".91"/></linearGradient><clipPath id="H"><path transform="translate(175 56.122)" d="M0 0h320v546H0z" class="B"/></clipPath><clipPath id="I"><path transform="translate(209 327.698)" d="M0 0h100v53.425H0z" class="B"/></clipPath><clipPath id="J"><path transform="translate(209.051 421.21)" d="M0 0h252.308v36.925H0z" class="B"/></clipPath><clipPath id="K"><path transform="translate(197.564 490.543)" d="M0 0h274.872v45.124H0z" class="B"/></clipPath><clipPath id="L"><path transform="translate(0 .122)" d="M0 0h647v43H0z" class="B"/></clipPath><clipPath id="M"><path transform="translate(418.441 14.122)" d="M0 0h72v15H0z" class="B"/></clipPath></defs></svg>