<svg width="626" height="627" viewBox="0 0 626 627" fill="none" xmlns="http://www.w3.org/2000/svg">
<path fill-rule="evenodd" clip-rule="evenodd" d="M239.714 619.461C198.504 611.071 118.845 594.857 61.2525 526.979C-25.8798 424.283 -12.3121 262.489 55.2735 155.689C60.5637 147.327 75.5515 122.688 101.364 95.8721C102.64 94.6321 102.64 94.6321 103.576 93.5964C127.513 69.204 160.354 43.3561 202.961 26.5222C199.168 28.8174 365.994 20.1286 396.333 34.9829C434.053 53.451 475.009 61.1052 506.045 88.763C559.41 136.318 592.331 203.674 593.173 202.845C631.94 308.69 617.401 433.57 566.433 511.262C565.784 511.284 565.13 511.295 564.477 511.295C553.653 511.295 542.435 508.476 530.715 505.659C518.992 502.84 506.763 500.02 493.914 500.02C485.433 500.02 476.68 501.25 467.623 504.516C420.334 521.577 426.852 585.91 429.507 603.127C429.881 605.553 431.742 607.451 434.124 607.907C391.964 622.674 350.773 627 316.864 627C279.569 627 251.078 621.773 239.714 619.461ZM300.879 620.995C301.106 621.08 301.336 621.165 301.568 621.25C307.216 623.295 327.953 623.349 335.868 623.349C336.323 623.349 336.735 623.349 337.099 623.349C368.191 623.349 385.423 595.781 385.423 564.621M561.38 248.301C556.192 298.781 517.188 316.421 431.14 402.335C340.499 492.837 408.605 591.846 417.972 604.498C418.614 605.365 419.571 605.931 420.64 606.076C420.829 606.103 421.014 606.114 421.197 606.114C423.754 606.114 425.71 603.679 425.045 601.099C419.669 580.195 410.554 506.638 521.758 439.535C622.569 378.704 592.106 286.025 572.554 246.307C571.441 244.047 569.366 243.005 567.299 243.005C564.506 243.005 561.728 244.914 561.38 248.301ZM439.906 602.503C438.607 593.33 444.911 585.74 497.275 577.193C478.064 589.541 458.383 599.013 438.875 606.201C439.68 605.211 440.104 603.903 439.906 602.503ZM478.678 66.7899C470.098 56.5555 460.067 47.7255 449.045 40.2723C469.824 50.3979 489.528 62.942 507.427 77.9714C521.369 89.6789 533.846 102.553 544.926 116.354L506.044 117.56C500.151 99.1085 491.188 81.7122 478.678 66.7899Z" fill="#E7E7F2"/>
<path fill-rule="evenodd" clip-rule="evenodd" d="M420.64 606.076C419.571 605.931 418.614 605.365 417.972 604.498C408.605 591.846 340.499 492.837 431.14 402.335C517.188 316.421 556.192 298.781 561.381 248.301C561.985 242.408 569.938 240.993 572.554 246.307C592.107 286.025 622.569 378.704 521.759 439.535C410.555 506.638 419.669 580.195 425.045 601.099C425.757 603.863 423.462 606.461 420.64 606.076Z" fill="#4263F6"/>
<path opacity="0.741611" fill-rule="evenodd" clip-rule="evenodd" d="M434.432 607.958C431.903 607.612 429.897 605.656 429.507 603.127C426.852 585.91 420.334 521.577 467.623 504.516C490.399 496.3 511.254 500.979 530.715 505.659C555.737 511.673 578.452 517.689 599.979 496.296C601.991 494.295 605.377 496.039 604.897 498.84C601.489 518.706 586.32 564.724 518.823 573.982C446.578 583.893 438.447 592.199 439.906 602.503C440.357 605.68 437.604 608.39 434.432 607.958Z" fill="#4263F6"/>
<path opacity="0.312457" fill-rule="evenodd" clip-rule="evenodd" d="M413.614 589.838C413.081 589.838 412.575 589.532 412.334 589.031C406.034 575.63 401.33 561.384 398.724 546.675C397.392 539.329 396.605 531.866 396.38 524.376C396.201 516.887 396.516 509.366 397.457 501.912C399.266 486.993 403.467 472.378 409.514 458.619C415.58 444.854 423.592 431.997 432.952 420.268C442.31 408.524 453.165 398.016 465.035 388.836C470.982 384.257 477.199 380.021 483.69 376.213C490.043 372.56 496.075 368.847 501.92 364.621C513.58 356.273 524.356 346.635 533.629 335.635C538.323 330.184 542.572 324.349 546.456 318.268C550.262 312.173 553.82 305.743 556.378 299.094L556.412 299.007C556.608 298.498 557.097 298.182 557.612 298.182C557.766 298.182 557.922 298.211 558.074 298.27C558.681 298.504 559.008 299.15 558.863 299.767C557.98 303.512 556.807 307.027 555.406 310.515C554.032 314 552.448 317.398 550.721 320.723C547.304 327.394 543.204 333.706 538.711 339.717C529.67 351.712 518.73 362.249 506.673 371.185C500.659 375.627 494.23 379.71 487.877 383.399C481.689 386.996 475.735 391.02 470.034 395.378C458.619 404.093 448.271 414.205 439.134 425.292C420.927 447.486 408.006 474.267 403.752 502.781C401.582 517.007 401.555 531.571 403.511 545.915C405.443 560.277 409.528 574.34 414.913 587.9C415.205 588.624 414.857 589.444 414.134 589.737C413.965 589.807 413.788 589.838 413.614 589.838Z" fill="#C5D7FC"/>
<path opacity="0.312457" fill-rule="evenodd" clip-rule="evenodd" d="M432.431 597.723C432.045 597.723 431.675 597.513 431.485 597.146C431.345 596.874 431.331 596.57 431.425 596.301L431.434 596.281C431.655 595.658 431.586 595.078 431.566 594.484L431.51 592.709L431.47 589.163C431.472 586.797 431.523 584.434 431.626 582.073C431.838 577.349 432.237 572.63 432.868 567.937C434.153 558.563 436.275 549.215 440.049 540.413C443.783 531.669 449.436 523.314 457.643 517.857C461.73 515.176 466.34 513.269 471.119 512.299C474.271 511.635 477.478 511.342 480.675 511.342C482.324 511.342 483.965 511.42 485.598 511.563C504.406 513.75 522.838 517.363 541.32 520.298C547.849 521.273 554.443 522.174 560.95 522.174C563.618 522.174 566.27 522.022 568.9 521.662C571.147 521.333 573.359 520.842 575.508 520.148C577.636 519.404 579.726 518.534 581.678 517.387C585.608 515.138 589.064 512.062 592.153 508.65L592.162 508.639C592.387 508.391 592.7 508.263 593.012 508.263C593.286 508.263 593.561 508.362 593.782 508.561C594.243 508.981 594.284 509.694 593.878 510.166C590.748 513.777 587.172 517.115 582.992 519.628C580.917 520.906 578.677 521.904 576.395 522.753C574.091 523.551 571.722 524.13 569.333 524.533C566.255 524.984 563.183 525.168 560.127 525.168C553.626 525.168 547.186 524.334 540.853 523.464C531.515 522.132 522.294 520.397 513.041 518.896C503.817 517.392 494.483 515.936 485.297 514.857C483.611 514.693 481.918 514.606 480.229 514.606C477.376 514.606 474.534 514.857 471.757 515.418C467.329 516.276 463.095 517.989 459.307 520.419C451.671 525.293 446.132 533.046 442.371 541.441C438.566 549.877 436.304 559.01 434.869 568.225C434.162 572.842 433.68 577.497 433.388 582.167C433.243 584.501 433.149 586.838 433.103 589.178L433.078 592.686L433.1 594.437C433.116 595.018 433.089 595.613 433.375 596.165C433.645 596.688 433.442 597.332 432.92 597.603C432.764 597.683 432.596 597.723 432.431 597.723Z" fill="#C5D7FC"/>
<mask id="mask0_0_2095" style="mask-type:alpha" maskUnits="userSpaceOnUse" x="182" y="12" width="328" height="477">
<path fill-rule="evenodd" clip-rule="evenodd" d="M352.761 488.658C352.745 488.658 352.73 488.658 352.716 488.658C342.036 488.538 313.016 488.214 302.771 488.097C301.156 488.079 282.422 483.657 275.846 480.997C275.848 480.997 275.848 480.997 275.85 480.997C286.094 481.113 315.113 481.437 325.794 481.556C325.809 481.558 325.823 481.558 325.838 481.558C328.016 481.558 329.8 479.807 329.825 477.621C330.585 409.858 351.382 345.253 404.028 299.743C423.183 283.183 443.813 269.697 458.707 248.795C467.614 236.298 474.63 223.881 479.547 210.963L509.394 209.512C504.528 225.555 496.484 240.664 485.63 255.896C470.735 276.798 450.105 290.284 430.95 306.843C378.305 352.354 357.508 416.957 356.747 484.721C356.723 486.908 354.938 488.658 352.761 488.658ZM224.808 238.755C210.942 238.755 193.926 236.269 186.083 232.839C184.789 232.273 183.587 231.656 182.467 230.988C186.828 232.249 191.372 232.839 195.938 232.839C202.104 232.839 208.31 231.764 214.161 229.816C245.969 219.233 266.875 190.264 249.576 158.142C244.037 147.855 236.865 138.458 232.083 127.796C227.3 117.135 225.118 104.48 229.995 93.8606C239.165 73.8973 268.724 66.9744 289.325 66.9744C290.235 66.9744 291.123 66.9878 291.995 67.0144C302.658 67.3377 312.879 69.8338 322.106 74.2771C321.048 74.2015 319.986 74.1474 318.918 74.115C318.046 74.0886 317.158 74.0752 316.248 74.0752C295.647 74.0752 266.088 80.9981 256.917 100.961C252.041 111.581 254.22 124.235 259.005 134.897C263.788 145.559 270.96 154.956 276.499 165.242C293.798 197.367 272.891 226.333 241.084 236.917C237.236 238.198 231.378 238.755 224.808 238.755ZM481.433 118.323C475.684 96.9636 466.028 76.7154 451.755 59.6893C433.334 37.7131 408.209 22.2131 380.99 12.9121C382.382 13.1822 383.765 13.463 385.144 13.7541C407.801 18.5425 429.912 27.3327 449.045 40.2723C460.067 47.7255 470.099 56.5555 478.678 66.7899C491.188 81.7122 500.151 99.1085 506.044 117.56L481.433 118.323Z" fill="white"/>
</mask>
<g mask="url(#mask0_0_2095)">
<path fill-rule="evenodd" clip-rule="evenodd" d="M352.761 488.658C352.745 488.658 352.73 488.658 352.716 488.658C342.036 488.538 313.016 488.214 302.771 488.097C301.156 488.079 282.422 483.657 275.846 480.997C275.848 480.997 275.848 480.997 275.85 480.997C286.094 481.113 315.113 481.437 325.794 481.556C325.809 481.558 325.823 481.558 325.838 481.558C328.016 481.558 329.8 479.807 329.825 477.621C330.585 409.858 351.382 345.253 404.028 299.743C423.183 283.183 443.813 269.697 458.707 248.795C467.614 236.298 474.63 223.881 479.547 210.963L509.394 209.512C504.528 225.555 496.484 240.664 485.63 255.896C470.735 276.798 450.105 290.284 430.95 306.843C378.305 352.354 357.508 416.957 356.747 484.721C356.723 486.908 354.938 488.658 352.761 488.658ZM224.808 238.755C210.942 238.755 193.926 236.269 186.083 232.839C184.789 232.273 183.587 231.656 182.467 230.988C186.828 232.249 191.372 232.839 195.938 232.839C202.104 232.839 208.31 231.764 214.161 229.816C245.969 219.233 266.875 190.264 249.576 158.142C244.037 147.855 236.865 138.458 232.083 127.796C227.3 117.135 225.118 104.48 229.995 93.8606C239.165 73.8973 268.724 66.9744 289.325 66.9744C290.235 66.9744 291.123 66.9878 291.995 67.0144C302.658 67.3377 312.879 69.8338 322.106 74.2771C321.048 74.2015 319.986 74.1474 318.918 74.115C318.046 74.0886 317.158 74.0752 316.248 74.0752C295.647 74.0752 266.088 80.9981 256.917 100.961C252.041 111.581 254.22 124.235 259.005 134.897C263.788 145.559 270.96 154.956 276.499 165.242C293.798 197.367 272.891 226.333 241.084 236.917C237.236 238.198 231.378 238.755 224.808 238.755ZM481.433 118.323C475.684 96.9636 466.028 76.7154 451.755 59.6893C433.334 37.7131 408.209 22.2131 380.99 12.9121C382.382 13.1822 383.765 13.463 385.144 13.7541C407.801 18.5425 429.912 27.3327 449.045 40.2723C460.067 47.7255 470.099 56.5555 478.678 66.7899C491.188 81.7122 500.151 99.1085 506.044 117.56L481.433 118.323Z" fill="#0D0F29"/>
</g>
<mask id="mask1_0_2095" style="mask-type:alpha" maskUnits="userSpaceOnUse" x="300" y="510" width="86" height="114">
<path fill-rule="evenodd" clip-rule="evenodd" d="M335.868 623.349C327.953 623.349 307.216 623.295 301.568 621.25C301.336 621.165 301.106 621.08 300.879 620.995C303.591 621.397 306.364 621.605 309.188 621.605C340.28 621.605 365.483 596.344 365.483 565.183C365.483 538.839 347.468 516.71 323.108 510.501C353.687 511.32 385.423 534.03 385.423 564.621C385.423 595.78 368.191 623.349 337.099 623.349C336.736 623.349 336.323 623.349 335.868 623.349Z" fill="white"/>
</mask>
<g mask="url(#mask1_0_2095)">
<path fill-rule="evenodd" clip-rule="evenodd" d="M335.868 623.349C327.953 623.349 307.216 623.295 301.568 621.25C301.336 621.165 301.106 621.08 300.879 620.995C303.591 621.397 306.364 621.605 309.188 621.605C340.28 621.605 365.483 596.344 365.483 565.183C365.483 538.839 347.468 516.71 323.108 510.501C353.687 511.32 385.423 534.03 385.423 564.621C385.423 595.78 368.191 623.349 337.099 623.349C336.736 623.349 336.323 623.349 335.868 623.349Z" fill="#0D0F29"/>
</g>
<path fill-rule="evenodd" clip-rule="evenodd" d="M325.794 481.556C315.114 481.437 286.094 481.113 275.851 480.997C275.849 480.997 275.849 480.997 275.846 480.997C273.886 480.974 272.306 479.385 272.291 477.417C272.188 463.489 270.562 412.971 270.655 408.133C271.135 383.173 274.604 357.894 285.218 335.078C296.777 310.226 315.932 289.91 333.328 268.747C353.531 244.163 367.012 219.693 369.57 187.646C371.959 157.699 367.824 126.318 351.497 100.52C344.135 88.8861 333.943 79.9786 322.107 74.2771C312.881 69.8338 302.66 67.3377 291.997 67.0144C291.125 66.9878 290.237 66.9744 289.327 66.9744C268.726 66.9744 239.167 73.8973 229.996 93.8606C225.12 104.48 227.301 117.135 232.084 127.796C236.867 138.458 244.038 147.855 249.577 158.142C266.877 190.264 245.97 219.233 214.162 229.816C208.311 231.764 202.105 232.839 195.94 232.839C191.373 232.839 186.829 232.249 182.468 230.988C180.67 230.469 178.906 229.834 177.181 229.081C160.25 221.678 147.515 203.147 139.797 185.08C139.495 184.093 139.372 183.86 138.498 181.923C137.048 178.268 135.81 174.664 134.786 171.2C123.541 133.144 135.295 95.5492 158.512 65.8176C158.499 65.8753 158.633 65.6792 159.061 65.1198C171.179 49.7866 186.345 36.5771 202.962 26.5222C209.783 22.394 216.853 18.7961 224.053 15.8022C248.741 5.53559 276.569 1 304.243 1C304.913 1 305.582 1.00268 306.251 1.00805C323.961 1.148 341.572 3.13421 358.223 6.65345C365.907 8.27747 373.527 10.3616 380.992 12.9121C408.211 22.2131 433.335 37.7131 451.757 59.6893C466.029 76.7154 475.686 96.9636 481.434 118.323L418.401 120.278C410.631 120.519 404.454 126.902 404.454 134.693V192.775L373.855 224.144L410.56 214.318L410.475 214.017C411.053 214.153 411.655 214.225 412.273 214.225C412.4 214.225 412.529 214.222 412.659 214.216L479.547 210.963C474.631 223.881 467.615 236.298 458.708 248.795C443.813 269.697 423.183 283.183 404.028 299.743C351.383 345.253 330.586 409.858 329.825 477.621C329.801 479.807 328.016 481.558 325.839 481.558C325.823 481.558 325.81 481.558 325.794 481.556Z" fill="#20244F" stroke="#20244F" stroke-width="1.78857"/>
<path fill-rule="evenodd" clip-rule="evenodd" d="M309.189 621.605C306.365 621.605 303.592 621.397 300.88 620.995C273.729 616.968 252.895 593.513 252.895 565.183C252.895 534.023 278.097 508.762 309.189 508.762C313.994 508.762 318.656 509.366 323.109 510.501C347.468 516.71 365.484 538.839 365.484 565.183C365.484 596.344 340.281 621.605 309.189 621.605Z" fill="#20244F"/>
<path d="M309.189 621.605C306.365 621.605 303.592 621.397 300.88 620.995C273.729 616.968 252.895 593.513 252.895 565.183C252.895 534.023 278.097 508.762 309.189 508.762C313.994 508.762 318.656 509.366 323.109 510.501C347.468 516.71 365.484 538.839 365.484 565.183C365.484 596.344 340.281 621.605 309.189 621.605" stroke="#20244F" stroke-width="1.78857"/>
<path fill-rule="evenodd" clip-rule="evenodd" d="M404.454 192.775L373.855 224.144L410.56 214.318L404.454 192.775Z" fill="#4263F6"/>
<g filter="url(#filter0_f_0_2095)">
<path fill-rule="evenodd" clip-rule="evenodd" d="M586.525 223.646L412.658 232.101C408.192 232.318 404.453 228.75 404.453 224.27V152.579C404.453 144.788 410.63 138.405 418.4 138.164L575.099 133.304C586.768 133.304 596.228 142.785 596.228 154.48V213.438C596.228 218.888 591.959 223.38 586.525 223.646Z" fill="#1E3DC3" fill-opacity="0.59123"/>
</g>
<path fill-rule="evenodd" clip-rule="evenodd" d="M586.525 205.76L412.658 214.216C408.192 214.432 404.453 210.864 404.453 206.384V134.693C404.453 126.902 410.63 120.519 418.4 120.278L575.099 115.418C586.768 115.418 596.228 124.899 596.228 136.594V195.552C596.228 201.003 591.959 205.494 586.525 205.76Z" fill="#4263F6"/>
<path d="M452.596 175.684C451.287 177.222 449.718 178.478 447.889 179.452C446.059 180.399 444.145 180.907 442.146 180.975C438.732 181.092 435.946 180.095 433.79 177.984C431.632 175.846 430.488 172.843 430.356 168.977C430.194 164.227 431.47 160.092 434.185 156.571C436.899 153.023 440.408 151.175 444.71 151.028C448.847 150.887 452.291 152.857 455.042 156.938L453.089 158.332C450.912 154.812 448.13 153.11 444.744 153.225C442.328 153.308 440.174 154.114 438.281 155.644C436.387 157.146 434.965 159.074 434.017 161.429C433.068 163.756 432.639 166.231 432.728 168.855C432.835 172.003 433.726 174.475 435.399 176.27C437.099 178.037 439.365 178.872 442.196 178.776C443.723 178.724 445.251 178.312 446.782 177.541C448.311 176.742 449.65 175.66 450.798 174.294L452.596 175.684Z" fill="white"/>
<path d="M466.216 159.626C468.714 159.541 470.724 160.192 472.244 161.577C473.792 162.962 474.61 164.953 474.699 167.548C474.818 171.056 473.96 174.016 472.125 176.428C470.29 178.841 467.776 180.101 464.583 180.21C462.057 180.296 460.019 179.633 458.47 178.221C456.948 176.78 456.142 174.734 456.052 172.083C455.938 168.741 456.812 165.864 458.675 163.45C460.538 161.009 463.051 159.734 466.216 159.626ZM466.202 161.659C463.814 161.74 461.862 162.761 460.345 164.72C458.855 166.679 458.157 169.039 458.251 171.8C458.321 173.844 458.918 175.441 460.041 176.591C461.191 177.713 462.696 178.243 464.556 178.179C466.971 178.097 468.909 177.077 470.371 175.119C471.861 173.161 472.555 170.704 472.454 167.749C472.384 165.678 471.775 164.137 470.629 163.125C469.482 162.086 468.006 161.597 466.202 161.659Z" fill="white"/>
<path d="M480.541 152.005C480.863 151.662 481.26 151.483 481.732 151.467C482.203 151.451 482.597 151.589 482.913 151.883C483.229 152.176 483.395 152.557 483.411 153.027C483.427 153.496 483.274 153.902 482.952 154.245C482.658 154.587 482.261 154.766 481.761 154.783C481.317 154.798 480.937 154.659 480.621 154.366C480.306 154.073 480.14 153.691 480.124 153.222C480.107 152.725 480.246 152.319 480.541 152.005ZM480.041 159.362L482.207 159.289L480.435 179.463L478.269 179.536L480.041 159.362Z" fill="white"/>
<path d="M498.334 158.531C502.415 158.392 504.174 161.069 503.61 166.563L502.44 178.712L500.275 178.786L501.449 166.761C501.861 162.544 500.666 160.484 497.862 160.58C496.03 160.642 494.242 161.615 492.5 163.499C490.758 165.384 489.694 167.604 489.309 170.161L488.532 179.186L486.367 179.26L488.139 159.086L490.304 159.012L489.889 163.962L489.931 163.96C490.987 162.321 492.263 161.019 493.758 160.056C495.254 159.093 496.779 158.584 498.334 158.531Z" fill="white"/>
<path d="M517.371 161.988C517.541 162.065 517.795 162.195 518.135 162.377C519.124 162.868 519.86 163.258 520.343 163.546C520.824 163.806 521.434 164.186 522.174 164.686C522.941 165.185 523.499 165.65 523.847 166.08C524.223 166.51 524.562 167.051 524.862 167.704C525.162 168.358 525.324 169.043 525.349 169.761C525.436 172.33 524.632 174.403 522.934 175.982C521.264 177.531 519.069 178.353 516.348 178.446C514.488 178.509 512.697 178.155 510.976 177.385C509.254 176.614 507.854 175.487 506.775 174.003L508.51 172.326C509.418 173.678 510.55 174.69 511.907 175.362C513.263 176.007 514.691 176.304 516.19 176.253C518.216 176.184 519.864 175.589 521.132 174.467C522.399 173.318 523.002 171.86 522.942 170.092C522.92 169.457 522.762 168.882 522.466 168.367C522.17 167.824 521.723 167.341 521.125 166.92C520.553 166.469 519.97 166.074 519.375 165.735C518.78 165.396 518.03 165.007 517.126 164.568C516.815 164.412 516.574 164.296 516.405 164.219C515.33 163.675 514.609 163.312 514.242 163.131C513.901 162.922 513.29 162.528 512.409 161.95C511.555 161.371 510.954 160.866 510.606 160.435C510.258 160.005 509.906 159.45 509.549 158.771C509.219 158.063 509.041 157.309 509.013 156.508C508.935 154.216 509.691 152.338 511.281 150.874C512.898 149.409 515.012 148.632 517.622 148.543C519.121 148.492 520.589 148.76 522.026 149.346C523.491 149.932 524.729 150.775 525.739 151.874L524.044 153.508C522.366 151.574 520.195 150.653 517.53 150.744C515.725 150.805 514.229 151.34 513.04 152.348C511.88 153.356 511.339 154.618 511.419 156.136C511.442 156.827 511.589 157.457 511.858 158.029C512.155 158.572 512.645 159.094 513.329 159.596C514.013 160.098 514.583 160.493 515.037 160.782C515.518 161.042 516.297 161.444 517.371 161.988Z" fill="white"/>
<path d="M544.216 157.174L546.382 157.101L544.61 177.275L542.444 177.348L542.868 172.648L542.743 172.652C541.822 174.176 540.697 175.404 539.366 176.334C538.036 177.264 536.636 177.754 535.164 177.804C530.917 177.949 529.034 175.29 529.514 169.827L530.6 157.639L532.765 157.565L531.717 169.627C531.491 171.957 531.713 173.581 532.383 174.498C533.081 175.387 534.151 175.806 535.595 175.757C537.316 175.699 538.964 174.73 540.54 172.852C542.144 170.972 543.097 168.783 543.401 166.284L544.216 157.174Z" fill="white"/>
<path d="M553.754 161.494C555.41 158.728 557.673 157.034 560.543 156.41L560.297 158.99C558.388 159.249 556.78 160.188 555.474 161.809C554.194 163.401 553.401 165.418 553.095 167.862L552.282 177.013L550.116 177.087L551.888 156.913L554.054 156.839L553.629 161.498L553.754 161.494Z" fill="white"/>
<path d="M573.056 148.602C572.2 147.968 571.162 147.671 569.94 147.713C567.969 147.78 566.855 149.325 566.597 152.347L566.235 156.424L571.815 156.234L571.672 158.146L566.05 158.338L564.463 176.598L562.256 176.673L563.885 158.412L561.553 158.491L561.696 156.579L564.07 156.498L564.457 151.964C564.791 147.888 566.526 145.797 569.663 145.69C571.19 145.638 572.507 145.953 573.614 146.634L573.056 148.602Z" fill="white"/>
<mask id="mask2_0_2095" style="mask-type:alpha" maskUnits="userSpaceOnUse" x="138" y="601" width="50" height="24">
<path fill-rule="evenodd" clip-rule="evenodd" d="M140.457 601.166C140.457 601.166 139.025 609.298 138.322 617.346C138.046 620.492 140.466 623.224 143.616 623.356C154.31 623.803 177.188 624.67 185.397 624.304C186.631 624.248 187.438 622.982 186.981 621.831C186.597 620.867 185.859 620.087 184.92 619.656L147.129 602.248L140.457 601.166Z" fill="white"/>
</mask>
<g mask="url(#mask2_0_2095)">
<path fill-rule="evenodd" clip-rule="evenodd" d="M140.457 601.166C140.457 601.166 139.025 609.298 138.322 617.346C138.046 620.492 140.466 623.224 143.616 623.356C154.31 623.803 177.188 624.67 185.397 624.304C186.631 624.248 187.438 622.982 186.981 621.831C186.597 620.867 185.859 620.087 184.92 619.656L147.129 602.248L140.457 601.166Z" fill="url(#paint0_linear_0_2095)"/>
</g>
<mask id="mask3_0_2095" style="mask-type:alpha" maskUnits="userSpaceOnUse" x="139" y="594" width="13" height="14">
<path fill-rule="evenodd" clip-rule="evenodd" d="M139.283 596.389L140.434 606.114C140.434 606.114 147.053 609.204 151.574 605.725L148.833 594.886L139.283 596.389Z" fill="white"/>
</mask>
<g mask="url(#mask3_0_2095)">
<path fill-rule="evenodd" clip-rule="evenodd" d="M139.283 596.389L140.434 606.114C140.434 606.114 147.053 609.204 151.574 605.725L148.833 594.886L139.283 596.389Z" fill="url(#paint1_linear_0_2095)"/>
</g>
<mask id="mask4_0_2095" style="mask-type:alpha" maskUnits="userSpaceOnUse" x="110" y="413" width="41" height="188">
<path fill-rule="evenodd" clip-rule="evenodd" d="M140.148 413.534C139.65 416.074 137.478 540.283 150.726 595.944C150.94 596.854 150.48 597.788 149.619 598.141C147.587 598.973 143.603 600.178 138.829 600.339C137.353 600.388 136.025 599.427 135.608 598.005C131.823 585.089 113.677 520.383 111.31 458.572C108.665 389.505 111.31 456.22 111.31 456.22L112.862 413.527L140.148 413.534Z" fill="white"/>
</mask>
<g mask="url(#mask4_0_2095)">
<path fill-rule="evenodd" clip-rule="evenodd" d="M140.148 413.534C139.65 416.074 137.478 540.283 150.726 595.944C150.94 596.854 150.48 597.788 149.619 598.141C147.587 598.973 143.603 600.178 138.829 600.339C137.353 600.388 136.025 599.427 135.608 598.005C131.823 585.089 113.677 520.383 111.31 458.572C108.665 389.505 111.31 456.22 111.31 456.22L112.862 413.527L140.148 413.534Z" fill="url(#paint2_linear_0_2095)"/>
</g>
<mask id="mask5_0_2095" style="mask-type:alpha" maskUnits="userSpaceOnUse" x="92" y="605" width="21" height="21">
<path fill-rule="evenodd" clip-rule="evenodd" d="M96.9867 605.407C96.9867 605.407 94.7054 609.514 92.4967 620.423C92.0981 622.392 93.4713 624.277 95.4674 624.474C98.9988 624.822 104.436 625.27 108.79 625.238C110.798 625.225 112.365 623.474 112.123 621.476C111.641 617.494 110.138 610.961 105.495 605.87L96.9867 605.407Z" fill="white"/>
</mask>
<g mask="url(#mask5_0_2095)">
<path fill-rule="evenodd" clip-rule="evenodd" d="M96.9867 605.407C96.9867 605.407 94.7054 609.514 92.4967 620.423C92.0981 622.392 93.4713 624.277 95.4674 624.474C98.9988 624.822 104.436 625.27 108.79 625.238C110.798 625.225 112.365 623.474 112.123 621.476C111.641 617.494 110.138 610.961 105.495 605.87L96.9867 605.407Z" fill="url(#paint3_linear_0_2095)"/>
</g>
<mask id="mask6_0_2095" style="mask-type:alpha" maskUnits="userSpaceOnUse" x="94" y="592" width="12" height="17">
<path fill-rule="evenodd" clip-rule="evenodd" d="M94.9824 592.899L97.6729 607.607C97.6729 607.607 100.333 609.59 105.596 608.153L104.311 592.326L94.9824 592.899Z" fill="white"/>
</mask>
<g mask="url(#mask6_0_2095)">
<path fill-rule="evenodd" clip-rule="evenodd" d="M94.9824 592.899L97.6729 607.607C97.6729 607.607 100.333 609.59 105.596 608.153L104.311 592.326L94.9824 592.899Z" fill="url(#paint4_linear_0_2095)"/>
</g>
<mask id="mask7_0_2095" style="mask-type:alpha" maskUnits="userSpaceOnUse" x="83" y="410" width="59" height="191">
<path fill-rule="evenodd" clip-rule="evenodd" d="M87.7139 417.346C76.8793 482.879 90.0642 579.317 94.5107 598.193C94.7828 599.349 95.7135 600.234 96.8822 600.426C98.8671 600.757 102.135 601.025 105.357 600.089C106.466 599.765 107.246 598.761 107.292 597.605C107.888 582.344 106.814 488.661 116.91 451.637C117.421 449.762 118.566 448.125 120.147 446.998L139.74 433.038L141.243 410.471L87.7139 417.346Z" fill="white"/>
</mask>
<g mask="url(#mask7_0_2095)">
<path fill-rule="evenodd" clip-rule="evenodd" d="M87.7139 417.346C76.8793 482.879 90.0642 579.317 94.5107 598.193C94.7828 599.349 95.7135 600.234 96.8822 600.426C98.8671 600.757 102.135 601.025 105.357 600.089C106.466 599.765 107.246 598.761 107.292 597.605C107.888 582.344 106.814 488.661 116.91 451.637C117.421 449.762 118.566 448.125 120.147 446.998L139.74 433.038L141.243 410.471L87.7139 417.346Z" fill="url(#paint5_linear_0_2095)"/>
</g>
<mask id="mask8_0_2095" style="mask-type:alpha" maskUnits="userSpaceOnUse" x="83" y="287" width="121" height="139">
<path fill-rule="evenodd" clip-rule="evenodd" d="M156.751 293.172C124.283 292.633 88.4567 301.715 88.4567 301.715C78.7784 358.314 86.7644 423.599 86.7644 423.599C111.901 430.206 140.257 419.559 140.257 419.559C144.435 395.901 163.927 329.324 163.927 329.324C179.792 327.349 192.86 322.762 203.623 316.696C195.414 307.161 191.544 295.025 189.862 287.851C178.382 291.428 166.767 293.338 156.751 293.172Z" fill="white"/>
</mask>
<g mask="url(#mask8_0_2095)">
<path fill-rule="evenodd" clip-rule="evenodd" d="M156.751 293.172C124.283 292.633 88.4567 301.715 88.4567 301.715C78.7784 358.314 86.7644 423.599 86.7644 423.599C111.901 430.206 140.257 419.559 140.257 419.559C144.435 395.901 163.927 329.324 163.927 329.324C179.792 327.349 192.86 322.762 203.623 316.696C195.414 307.161 191.544 295.025 189.862 287.851C178.382 291.428 166.767 293.338 156.751 293.172Z" fill="url(#paint6_linear_0_2095)"/>
</g>
<mask id="mask9_0_2095" style="mask-type:alpha" maskUnits="userSpaceOnUse" x="189" y="242" width="64" height="75">
<path fill-rule="evenodd" clip-rule="evenodd" d="M252.658 245.238C249.471 241.377 245.433 243.204 245.433 243.204C240.655 263.433 215.602 279.834 189.861 287.851C191.543 295.026 195.414 307.161 203.623 316.696C246.339 292.627 252.658 245.238 252.658 245.238Z" fill="white"/>
</mask>
<g mask="url(#mask9_0_2095)">
<path fill-rule="evenodd" clip-rule="evenodd" d="M252.658 245.238C249.471 241.377 245.433 243.204 245.433 243.204C240.655 263.433 215.602 279.834 189.861 287.851C191.543 295.026 195.414 307.161 203.623 316.696C246.339 292.627 252.658 245.238 252.658 245.238Z" fill="url(#paint7_linear_0_2095)"/>
</g>
<mask id="mask10_0_2095" style="mask-type:alpha" maskUnits="userSpaceOnUse" x="245" y="211" width="22" height="37">
<path fill-rule="evenodd" clip-rule="evenodd" d="M251.886 246.22C252.221 247.284 248.355 248.903 246.08 244.554C246.002 242.471 244.737 233.541 245.979 231.842C252.598 222.798 265.429 211.461 265.429 211.461C267.599 213.607 265.813 215.714 265.813 215.714L259.587 222.213C260.889 224.571 262.478 226.561 263.221 229.414C263.785 231.574 263.439 233.883 262.351 235.848C261.26 237.822 259.767 240.387 258.36 242.395C255.692 246.193 251.886 246.22 251.886 246.22Z" fill="white"/>
</mask>
<g mask="url(#mask10_0_2095)">
<path fill-rule="evenodd" clip-rule="evenodd" d="M251.886 246.22C252.221 247.284 248.355 248.903 246.08 244.554C246.002 242.471 244.737 233.541 245.979 231.842C252.598 222.798 265.429 211.461 265.429 211.461C267.599 213.607 265.813 215.714 265.813 215.714L259.587 222.213C260.889 224.571 262.478 226.561 263.221 229.414C263.785 231.574 263.439 233.883 262.351 235.848C261.26 237.822 259.767 240.387 258.36 242.395C255.692 246.193 251.886 246.22 251.886 246.22Z" fill="url(#paint8_linear_0_2095)"/>
</g>
<mask id="mask11_0_2095" style="mask-type:alpha" maskUnits="userSpaceOnUse" x="249" y="226" width="10" height="16">
<path fill-rule="evenodd" clip-rule="evenodd" d="M256.863 226.429L251.19 231.25L249.41 236.047L254.467 241.672C254.467 241.672 256.169 232.151 257.432 230.089C258.697 228.03 258.041 227.033 256.863 226.429Z" fill="white"/>
</mask>
<g mask="url(#mask11_0_2095)">
<path fill-rule="evenodd" clip-rule="evenodd" d="M256.863 226.429L251.19 231.25L249.41 236.047L254.467 241.672C254.467 241.672 256.169 232.151 257.432 230.089C258.697 228.03 258.041 227.033 256.863 226.429Z" fill="url(#paint9_linear_0_2095)"/>
</g>
<mask id="mask12_0_2095" style="mask-type:alpha" maskUnits="userSpaceOnUse" x="53" y="301" width="48" height="55">
<path fill-rule="evenodd" clip-rule="evenodd" d="M100.91 333.225L88.4563 301.715C88.4563 301.715 58.1283 322.368 53.1406 348.553C58.8711 348.978 69.2989 350.471 79.5056 355.636C81.7485 343.272 100.91 333.225 100.91 333.225Z" fill="white"/>
</mask>
<g mask="url(#mask12_0_2095)">
<path fill-rule="evenodd" clip-rule="evenodd" d="M100.91 333.225L88.4563 301.715C88.4563 301.715 58.1283 322.368 53.1406 348.553C58.8711 348.978 69.2989 350.471 79.5056 355.636C81.7485 343.272 100.91 333.225 100.91 333.225Z" fill="url(#paint10_linear_0_2095)"/>
</g>
<mask id="mask13_0_2095" style="mask-type:alpha" maskUnits="userSpaceOnUse" x="52" y="348" width="80" height="42">
<path fill-rule="evenodd" clip-rule="evenodd" d="M127.414 362.875C127.414 362.875 93.3629 382.162 81.8735 365.694C79.488 362.274 78.9178 358.875 79.5054 355.636C69.2987 350.471 58.871 348.978 53.1405 348.553C51.6368 356.447 52.432 364.845 57.0603 373.329C77.1855 410.225 131.921 371.29 131.921 371.29L127.414 362.875Z" fill="white"/>
</mask>
<g mask="url(#mask13_0_2095)">
<path fill-rule="evenodd" clip-rule="evenodd" d="M127.414 362.875C127.414 362.875 93.3629 382.162 81.8735 365.694C79.488 362.274 78.9178 358.875 79.5054 355.636C69.2987 350.471 58.871 348.978 53.1405 348.553C51.6368 356.447 52.432 364.845 57.0603 373.329C77.1855 410.225 131.921 371.29 131.921 371.29L127.414 362.875Z" fill="url(#paint11_linear_0_2095)"/>
</g>
<path fill-rule="evenodd" clip-rule="evenodd" d="M123.322 387.276L141.906 322.232C142.118 321.494 142.745 320.955 143.508 320.866C146.874 320.472 156.631 319.368 167.894 318.413C181.464 317.262 197.221 316.33 206.637 317.123C207.976 317.235 208.785 318.655 208.19 319.862C202.834 330.719 180.81 374.883 169.781 389.35C169.415 389.831 168.849 390.11 168.249 390.104L125.131 389.704C123.875 389.69 122.978 388.485 123.322 387.276Z" fill="#91B3FA"/>
<path fill-rule="evenodd" clip-rule="evenodd" d="M169.824 312.773L183.297 310.524C184.013 310.403 184.602 311.091 184.373 311.782L183.041 315.833C182.925 316.187 182.617 316.441 182.249 316.491L169.284 318.228C168.615 318.317 168.061 317.705 168.215 317.045L169.041 313.508C169.13 313.128 169.438 312.837 169.824 312.773Z" fill="#BDD0FB"/>
<path fill-rule="evenodd" clip-rule="evenodd" d="M159.733 324.206L160.844 318.411C160.956 317.83 161.433 317.392 162.02 317.331L189.235 314.563C190.149 314.469 190.883 315.312 190.669 316.209L188.938 323.428C188.8 324.007 188.298 324.425 187.707 324.454L161.114 325.796C160.249 325.84 159.57 325.058 159.733 324.206Z" fill="#BDD0FB"/>
<mask id="mask14_0_2095" style="mask-type:alpha" maskUnits="userSpaceOnUse" x="126" y="349" width="25" height="23">
<path fill-rule="evenodd" clip-rule="evenodd" d="M127.813 371.561C127.813 371.561 125.226 360.892 126.27 357.107C127.314 353.322 129.337 348.457 136.08 349.537C142.824 350.619 150.779 353.467 150.779 353.467C150.779 353.467 150.377 358.397 145.253 356.805L148.43 359.271C148.43 359.271 147.977 363.217 143.647 361.109L146.603 364.377C146.603 364.377 144.745 367.619 141.559 365.54C138.374 363.461 136.846 372.846 127.813 371.561Z" fill="white"/>
</mask>
<g mask="url(#mask14_0_2095)">
<path fill-rule="evenodd" clip-rule="evenodd" d="M127.813 371.561C127.813 371.561 125.226 360.892 126.27 357.107C127.314 353.322 129.337 348.457 136.08 349.537C142.824 350.619 150.779 353.467 150.779 353.467C150.779 353.467 150.377 358.397 145.253 356.805L148.43 359.271C148.43 359.271 147.977 363.217 143.647 361.109L146.603 364.377C146.603 364.377 144.745 367.619 141.559 365.54C138.374 363.461 136.846 372.846 127.813 371.561Z" fill="url(#paint12_linear_0_2095)"/>
</g>
<mask id="mask15_0_2095" style="mask-type:alpha" maskUnits="userSpaceOnUse" x="113" y="266" width="32" height="35">
<path fill-rule="evenodd" clip-rule="evenodd" d="M123.864 266.753L113.533 296.696C113.362 297.192 113.565 297.742 114.023 297.997C116.839 299.557 126.985 304.067 139.212 296.298C140.485 295.488 141.353 294.167 141.547 292.669L144.893 266.753H123.864Z" fill="white"/>
</mask>
<g mask="url(#mask15_0_2095)">
<path fill-rule="evenodd" clip-rule="evenodd" d="M123.864 266.753L113.533 296.696C113.362 297.192 113.565 297.742 114.023 297.997C116.839 299.557 126.985 304.067 139.212 296.298C140.485 295.488 141.353 294.167 141.547 292.669L144.893 266.753H123.864Z" fill="url(#paint13_linear_0_2095)"/>
</g>
<mask id="mask16_0_2095" style="mask-type:alpha" maskUnits="userSpaceOnUse" x="119" y="239" width="38" height="37">
<path fill-rule="evenodd" clip-rule="evenodd" d="M146.342 239.023C146.342 239.023 157.688 260.426 156.233 269.073C154.779 277.719 140.719 277.097 128.441 270.075L119.861 246.964L146.342 239.023Z" fill="white"/>
</mask>
<g mask="url(#mask16_0_2095)">
<path fill-rule="evenodd" clip-rule="evenodd" d="M146.342 239.023C146.342 239.023 157.688 260.426 156.233 269.073C154.779 277.719 140.719 277.097 128.441 270.075L119.861 246.964L146.342 239.023Z" fill="url(#paint14_linear_0_2095)"/>
</g>
<mask id="mask17_0_2095" style="mask-type:alpha" maskUnits="userSpaceOnUse" x="104" y="223" width="49" height="49">
<path fill-rule="evenodd" clip-rule="evenodd" d="M128.984 258.726C129.483 258.505 129.666 257.893 129.369 257.434C128.459 256.044 126.755 253.204 126.213 250.718C126.213 250.718 124.172 249.41 131.404 247.675C138.634 245.94 149.415 243.249 151.681 237.08C153.892 231.066 148.085 215.944 138.823 227.994C138.471 228.453 137.781 228.462 137.429 228.003C135.91 226.022 131.919 221.911 126.376 224.404C121.189 226.736 120.605 230.545 120.676 232.466C120.699 233.029 120.194 233.47 119.639 233.362C117.018 232.861 110.725 232.432 107.788 238.9C105.369 244.23 106.941 247.246 108.373 248.722C108.837 249.2 108.634 249.987 107.998 250.182C106.274 250.711 104.049 252.176 104.271 256.222C104.58 261.816 110.82 261.324 112.597 261.069C112.888 261.027 113.182 261.128 113.379 261.344C114.902 263.035 121.767 270.209 129.195 271.074C129.84 271.15 130.338 270.513 130.128 269.898L126.911 260.533C126.762 260.097 126.969 259.621 127.391 259.433L128.984 258.726Z" fill="white"/>
</mask>
<g mask="url(#mask17_0_2095)">
<path fill-rule="evenodd" clip-rule="evenodd" d="M128.984 258.726C129.483 258.505 129.666 257.893 129.369 257.434C128.459 256.044 126.755 253.204 126.213 250.718C126.213 250.718 124.172 249.41 131.404 247.675C138.634 245.94 149.415 243.249 151.681 237.08C153.892 231.066 148.085 215.944 138.823 227.994C138.471 228.453 137.781 228.462 137.429 228.003C135.91 226.022 131.919 221.911 126.376 224.404C121.189 226.736 120.605 230.545 120.676 232.466C120.699 233.029 120.194 233.47 119.639 233.362C117.018 232.861 110.725 232.432 107.788 238.9C105.369 244.23 106.941 247.246 108.373 248.722C108.837 249.2 108.634 249.987 107.998 250.182C106.274 250.711 104.049 252.176 104.271 256.222C104.58 261.816 110.82 261.324 112.597 261.069C112.888 261.027 113.182 261.128 113.379 261.344C114.902 263.035 121.767 270.209 129.195 271.074C129.84 271.15 130.338 270.513 130.128 269.898L126.911 260.533C126.762 260.097 126.969 259.621 127.391 259.433L128.984 258.726Z" fill="url(#paint15_linear_0_2095)"/>
</g>
<mask id="mask18_0_2095" style="mask-type:alpha" maskUnits="userSpaceOnUse" x="121" y="257" width="12" height="8">
<path fill-rule="evenodd" clip-rule="evenodd" d="M130.278 260.054C130.278 260.054 122.201 254.501 121.609 259.178C121.021 263.855 128.884 265.955 132.779 264.211L130.278 260.054Z" fill="white"/>
</mask>
<g mask="url(#mask18_0_2095)">
<path fill-rule="evenodd" clip-rule="evenodd" d="M130.278 260.054C130.278 260.054 122.201 254.501 121.609 259.178C121.021 263.855 128.884 265.955 132.779 264.211L130.278 260.054Z" fill="url(#paint16_linear_0_2095)"/>
</g>
<defs>
<filter id="filter0_f_0_2095" x="374.843" y="103.694" width="250.995" height="158.027" filterUnits="userSpaceOnUse" color-interpolation-filters="sRGB">
<feFlood flood-opacity="0" result="BackgroundImageFix"/>
<feBlend mode="normal" in="SourceGraphic" in2="BackgroundImageFix" result="shape"/>
<feGaussianBlur stdDeviation="14.805" result="effect1_foregroundBlur_0_2095"/>
</filter>
<linearGradient id="paint0_linear_0_2095" x1="25.6798" y1="557.003" x2="-10.0803" y2="729.177" gradientUnits="userSpaceOnUse">
<stop stop-color="#08005D"/>
<stop offset="1" stop-color="#1A0F91"/>
</linearGradient>
<linearGradient id="paint1_linear_0_2095" x1="139.283" y1="607.379" x2="151.575" y2="607.379" gradientUnits="userSpaceOnUse">
<stop stop-color="#FDBAB9"/>
<stop offset="1" stop-color="#FF928E"/>
</linearGradient>
<linearGradient id="paint2_linear_0_2095" x1="177.695" y1="148.706" x2="50.1868" y2="156.904" gradientUnits="userSpaceOnUse">
<stop stop-color="#08005D"/>
<stop offset="1" stop-color="#1A0F91"/>
</linearGradient>
<linearGradient id="paint3_linear_0_2095" x1="78.1546" y1="491.737" x2="-61.0798" y2="641.807" gradientUnits="userSpaceOnUse">
<stop stop-color="#08005D"/>
<stop offset="1" stop-color="#1A0F91"/>
</linearGradient>
<linearGradient id="paint4_linear_0_2095" x1="94.9824" y1="608.675" x2="105.595" y2="608.675" gradientUnits="userSpaceOnUse">
<stop stop-color="#FDBAB9"/>
<stop offset="1" stop-color="#FF928E"/>
</linearGradient>
<linearGradient id="paint5_linear_0_2095" x1="149.854" y1="209.667" x2="14.2363" y2="226.61" gradientUnits="userSpaceOnUse">
<stop stop-color="#08005D"/>
<stop offset="1" stop-color="#1A0F91"/>
</linearGradient>
<linearGradient id="paint6_linear_0_2095" x1="273.45" y1="440.543" x2="499.259" y2="145.544" gradientUnits="userSpaceOnUse">
<stop stop-color="#4F52FF"/>
<stop offset="1" stop-color="#4042E1"/>
</linearGradient>
<linearGradient id="paint7_linear_0_2095" x1="216.6" y1="193.641" x2="188.133" y2="252.463" gradientUnits="userSpaceOnUse">
<stop stop-color="#FDBAB9"/>
<stop offset="1" stop-color="#FF928E"/>
</linearGradient>
<linearGradient id="paint8_linear_0_2095" x1="243.319" y1="194.402" x2="201.245" y2="235.77" gradientUnits="userSpaceOnUse">
<stop stop-color="#FDBAB9"/>
<stop offset="1" stop-color="#FF928E"/>
</linearGradient>
<linearGradient id="paint9_linear_0_2095" x1="254.287" y1="266.882" x2="280.851" y2="249.354" gradientUnits="userSpaceOnUse">
<stop stop-color="#FDBAB9"/>
<stop offset="1" stop-color="#FF928E"/>
</linearGradient>
<linearGradient id="paint10_linear_0_2095" x1="237.012" y1="415.866" x2="458.055" y2="116.3" gradientUnits="userSpaceOnUse">
<stop stop-color="#4F52FF"/>
<stop offset="1" stop-color="#4042E1"/>
</linearGradient>
<linearGradient id="paint11_linear_0_2095" x1="52.4492" y1="389.215" x2="131.92" y2="389.215" gradientUnits="userSpaceOnUse">
<stop stop-color="#FDBAB9"/>
<stop offset="1" stop-color="#FF928E"/>
</linearGradient>
<linearGradient id="paint12_linear_0_2095" x1="126.022" y1="371.684" x2="150.78" y2="371.684" gradientUnits="userSpaceOnUse">
<stop stop-color="#FDBAB9"/>
<stop offset="1" stop-color="#FF928E"/>
</linearGradient>
<linearGradient id="paint13_linear_0_2095" x1="113.473" y1="300.718" x2="144.892" y2="300.718" gradientUnits="userSpaceOnUse">
<stop stop-color="#FDBAB9"/>
<stop offset="1" stop-color="#FF928E"/>
</linearGradient>
<linearGradient id="paint14_linear_0_2095" x1="162.945" y1="246.465" x2="128.437" y2="225.285" gradientUnits="userSpaceOnUse">
<stop stop-color="#FDBAB9"/>
<stop offset="1" stop-color="#FF928E"/>
</linearGradient>
<linearGradient id="paint15_linear_0_2095" x1="81.765" y1="242.51" x2="126.194" y2="278.089" gradientUnits="userSpaceOnUse">
<stop stop-color="#08005D"/>
<stop offset="1" stop-color="#1A0F91"/>
</linearGradient>
<linearGradient id="paint16_linear_0_2095" x1="157.451" y1="261.15" x2="137.448" y2="233.99" gradientUnits="userSpaceOnUse">
<stop stop-color="#FDBAB9"/>
<stop offset="1" stop-color="#FF928E"/>
</linearGradient>
</defs>
</svg>
