<svg xmlns="http://www.w3.org/2000/svg" xmlns:xlink="http://www.w3.org/1999/xlink" width="626" height="627" fill="none" xmlns:v="https://vecta.io/nano"><style><![CDATA[.B{fill-rule:evenodd}.C{fill:#fff}.D{fill:#4263f6}.E{stroke-width:1.789}]]></style><g class="B"><path d="M239.714 619.461c-41.21-8.39-120.869-24.604-178.461-92.482-87.132-102.696-73.565-264.49-5.979-371.29 5.29-8.362 20.278-33.001 46.091-59.817 1.276-1.24 1.276-1.24 2.212-2.276 23.937-24.392 56.778-50.24 99.385-67.074-3.793 2.295 163.033-6.394 193.372 8.461 37.72 18.468 78.676 26.122 109.712 53.78 53.365 47.555 86.286 114.911 87.128 114.082 38.767 105.845 24.228 230.725-26.74 308.417a57.82 57.82 0 0 1-1.956.033c-10.824 0-22.042-2.819-33.762-5.636s-23.952-5.639-36.801-5.639c-8.481 0-17.234 1.23-26.291 4.496-47.289 17.061-40.771 81.394-38.116 98.611a5.76 5.76 0 0 0 4.617 4.78C391.964 622.674 350.773 627 316.864 627c-37.295 0-65.786-5.227-77.15-7.539zm61.165 1.534l.689.255c5.648 2.045 26.385 2.099 34.3 2.099h1.231c31.092 0 48.324-27.568 48.324-58.728m175.957-316.32c-5.188 50.48-44.192 68.12-130.24 154.034-90.641 90.502-22.535 189.511-13.168 202.163.642.867 1.599 1.433 2.668 1.578a3.92 3.92 0 0 0 .557.038c2.557 0 4.513-2.435 3.848-5.015-5.376-20.904-14.491-94.461 96.713-161.564 100.811-60.831 70.348-153.51 50.796-193.228-1.113-2.26-3.188-3.302-5.255-3.302-2.793 0-5.571 1.909-5.919 5.296zM439.906 602.503c-1.299-9.173 5.005-16.763 57.369-25.31-19.211 12.348-38.892 21.82-58.4 29.008.805-.99 1.229-2.298 1.031-3.698zM478.678 66.79c-8.58-10.234-18.611-19.064-29.633-26.518 20.779 10.126 40.483 22.67 58.382 37.699 13.942 11.707 26.419 24.582 37.499 38.383l-38.882 1.206c-5.893-18.451-14.856-35.848-27.366-50.77z" fill="#e7e7f2"/><g class="D"><path d="M420.64 606.076c-1.069-.145-2.026-.711-2.668-1.578-9.367-12.652-77.473-111.661 13.168-202.163 86.048-85.914 125.052-103.554 130.241-154.034.604-5.893 8.557-7.308 11.173-1.994 19.553 39.718 50.015 132.397-50.795 193.228-111.204 67.103-102.09 140.66-96.714 161.564.712 2.764-1.583 5.362-4.405 4.977z"/><path opacity=".742" d="M434.432 607.958c-2.529-.346-4.535-2.302-4.925-4.831-2.655-17.217-9.173-81.55 38.116-98.611 22.776-8.216 43.631-3.537 63.092 1.143 25.022 6.014 47.737 12.03 69.264-9.363 2.012-2.001 5.398-.257 4.918 2.544-3.408 19.866-18.577 65.884-86.074 75.142-72.245 9.911-80.376 18.217-78.917 28.521.451 3.177-2.302 5.887-5.474 5.455z"/></g><path opacity=".312" d="M413.614 589.838c-.533 0-1.039-.306-1.28-.807-6.3-13.401-11.004-27.647-13.61-42.356a150.37 150.37 0 0 1-2.344-22.299c-.179-7.489.136-15.01 1.077-22.464 1.809-14.919 6.01-29.534 12.057-43.293 6.066-13.765 14.078-26.622 23.438-38.351 9.358-11.744 20.213-22.252 32.083-31.432 5.947-4.579 12.164-8.815 18.655-12.623 6.353-3.653 12.385-7.366 18.23-11.592 11.66-8.348 22.436-17.986 31.709-28.986 4.694-5.451 8.943-11.286 12.827-17.367 3.806-6.095 7.364-12.525 9.922-19.174l.034-.087a1.29 1.29 0 0 1 1.2-.825c.154 0 .31.029.462.088a1.29 1.29 0 0 1 .789 1.497c-.883 3.745-2.056 7.26-3.457 10.748-1.374 3.485-2.958 6.883-4.685 10.208-3.417 6.671-7.517 12.983-12.01 18.994-9.041 11.995-19.981 22.532-32.038 31.468-6.014 4.442-12.443 8.525-18.796 12.214-6.188 3.597-12.142 7.621-17.843 11.979-11.415 8.715-21.763 18.827-30.9 29.914-18.207 22.194-31.128 48.975-35.382 77.489-2.17 14.226-2.197 28.79-.241 43.134 1.932 14.362 6.017 28.425 11.402 41.985a1.41 1.41 0 0 1-.779 1.837c-.169.07-.346.101-.52.101zm18.817 7.885c-.386 0-.756-.21-.946-.577a1.07 1.07 0 0 1-.06-.845l.009-.02c.221-.623.152-1.203.132-1.797l-.056-1.775-.04-3.546.156-7.09c.212-4.724.611-9.443 1.242-14.136 1.285-9.374 3.407-18.722 7.181-27.524 3.734-8.744 9.387-17.099 17.594-22.556 4.087-2.681 8.697-4.588 13.476-5.558 3.152-.664 6.359-.957 9.556-.957a56.41 56.41 0 0 1 4.923.221c18.808 2.187 37.24 5.8 55.722 8.735 6.529.975 13.123 1.876 19.63 1.876 2.668 0 5.32-.152 7.95-.512 2.247-.329 4.459-.82 6.608-1.514 2.128-.744 4.218-1.614 6.17-2.761 3.93-2.249 7.386-5.325 10.475-8.737l.009-.011a1.15 1.15 0 0 1 1.62-.078c.461.42.502 1.133.096 1.605-3.13 3.611-6.706 6.949-10.886 9.462-2.075 1.278-4.315 2.276-6.597 3.125-2.304.798-4.673 1.377-7.062 1.78-3.078.451-6.15.635-9.206.635-6.501 0-12.941-.834-19.274-1.704-9.338-1.332-18.559-3.067-27.812-4.568-9.224-1.504-18.558-2.96-27.744-4.039a52.38 52.38 0 0 0-5.068-.251c-2.853 0-5.695.251-8.472.812-4.428.858-8.662 2.571-12.45 5.001-7.636 4.874-13.175 12.627-16.936 21.022-3.805 8.436-6.067 17.569-7.502 26.784-.707 4.617-1.189 9.272-1.481 13.942-.145 2.334-.239 4.671-.285 7.011l-.025 3.508.022 1.751c.016.581-.011 1.176.275 1.728a1.07 1.07 0 0 1-.455 1.438c-.156.08-.324.12-.489.12z" fill="#c5d7fc"/></g><mask id="A" maskUnits="userSpaceOnUse" x="182" y="12" width="328" height="477" mask-type="alpha"><path d="M352.761 488.658h-.045l-49.945-.561c-1.615-.018-20.349-4.44-26.925-7.1l49.948.559c.015.002.029.002.044.002 2.178 0 3.962-1.751 3.987-3.937.76-67.763 21.557-132.368 74.203-177.878 19.155-16.56 39.785-30.046 54.679-50.948 8.907-12.497 15.923-24.914 20.84-37.832l29.847-1.451c-4.866 16.043-12.91 31.152-23.764 46.384-14.895 20.902-35.525 34.388-54.68 50.947-52.645 45.511-73.442 110.114-74.203 177.878-.024 2.187-1.809 3.937-3.986 3.937zM224.808 238.755c-13.866 0-30.882-2.486-38.725-5.916a32.36 32.36 0 0 1-3.616-1.851c4.361 1.261 8.905 1.851 13.471 1.851 6.166 0 12.372-1.075 18.223-3.023 31.808-10.583 52.714-39.552 35.415-71.674-5.539-10.287-12.711-19.684-17.493-30.346s-6.965-23.316-2.088-33.935c9.17-19.963 38.729-26.886 59.33-26.886.91 0 1.798.013 2.67.04 10.663.323 20.884 2.819 30.111 7.263-1.058-.076-2.12-.13-3.188-.162-.872-.026-1.76-.04-2.67-.04-20.601 0-50.16 6.923-59.331 26.886-4.876 10.62-2.697 23.274 2.088 33.936s11.955 20.059 17.494 30.345c17.299 32.125-3.608 61.091-35.415 71.675-3.848 1.281-9.706 1.838-16.276 1.838zm256.625-120.432c-5.749-21.359-15.405-41.608-29.678-58.634-18.421-21.976-43.546-37.476-70.765-46.777l4.154.842c22.657 4.788 44.768 13.579 63.901 26.518 11.022 7.453 21.054 16.283 29.633 26.518 12.51 14.922 21.473 32.319 27.366 50.77l-24.611.763z" class="B C"/></mask><g mask="url(#A)" class="B"><path d="M352.761 488.658h-.045l-49.945-.561c-1.615-.018-20.349-4.44-26.925-7.1l49.948.559c.015.002.029.002.044.002 2.178 0 3.962-1.751 3.987-3.937.76-67.763 21.557-132.368 74.203-177.878 19.155-16.56 39.785-30.046 54.679-50.948 8.907-12.497 15.923-24.914 20.84-37.832l29.847-1.451c-4.866 16.043-12.91 31.152-23.764 46.384-14.895 20.902-35.525 34.388-54.68 50.947-52.645 45.511-73.442 110.114-74.203 177.878-.024 2.187-1.809 3.937-3.986 3.937zM224.808 238.755c-13.866 0-30.882-2.486-38.725-5.916a32.36 32.36 0 0 1-3.616-1.851c4.361 1.261 8.905 1.851 13.471 1.851 6.166 0 12.372-1.075 18.223-3.023 31.808-10.583 52.714-39.552 35.415-71.674-5.539-10.287-12.711-19.684-17.493-30.346s-6.965-23.316-2.088-33.935c9.17-19.963 38.729-26.886 59.33-26.886.91 0 1.798.013 2.67.04 10.663.323 20.884 2.819 30.111 7.263-1.058-.076-2.12-.13-3.188-.162-.872-.026-1.76-.04-2.67-.04-20.601 0-50.16 6.923-59.331 26.886-4.876 10.62-2.697 23.274 2.088 33.936s11.955 20.059 17.494 30.345c17.299 32.125-3.608 61.091-35.415 71.675-3.848 1.281-9.706 1.838-16.276 1.838zm256.625-120.432c-5.749-21.359-15.405-41.608-29.678-58.634-18.421-21.976-43.546-37.476-70.765-46.777l4.154.842c22.657 4.788 44.768 13.579 63.901 26.518 11.022 7.453 21.054 16.283 29.633 26.518 12.51 14.922 21.473 32.319 27.366 50.77l-24.611.763z" fill="#0d0f29"/></g><mask id="B" maskUnits="userSpaceOnUse" x="300" y="510" width="86" height="114" mask-type="alpha"><path d="M335.868 623.349c-7.915 0-28.652-.054-34.3-2.099l-.689-.255c2.712.402 5.485.61 8.309.61 31.092 0 56.295-25.261 56.295-56.422 0-26.344-18.015-48.473-42.375-54.682 30.579.819 62.315 23.529 62.315 54.12 0 31.159-17.232 58.728-48.324 58.728h-1.231z" class="B C"/></mask><g mask="url(#B)" class="B"><path d="M335.868 623.349c-7.915 0-28.652-.054-34.3-2.099l-.689-.255c2.712.402 5.485.61 8.309.61 31.092 0 56.295-25.261 56.295-56.422 0-26.344-18.015-48.473-42.375-54.682 30.579.819 62.315 23.529 62.315 54.12 0 31.159-17.232 58.728-48.324 58.728h-1.231z" fill="#0d0f29"/></g><g fill="#20244f" class="B"><path d="M325.794 481.556l-49.943-.559a3.6 3.6 0 0 1-3.56-3.58c-.103-13.928-1.729-64.446-1.636-69.284.48-24.96 3.949-50.239 14.563-73.055 11.559-24.852 30.714-45.168 48.11-66.331 20.203-24.584 33.684-49.054 36.242-81.101 2.389-29.947-1.746-61.328-18.073-87.126-7.362-11.634-17.554-20.541-29.39-26.243-9.226-4.443-19.447-6.939-30.11-7.263-.872-.027-1.76-.04-2.67-.04-20.601 0-50.16 6.923-59.331 26.886-4.876 10.619-2.695 23.274 2.088 33.935s11.954 20.059 17.493 30.346c17.3 32.122-3.607 61.091-35.415 71.674-5.851 1.948-12.057 3.023-18.222 3.023-4.567 0-9.111-.59-13.472-1.851-1.798-.519-3.562-1.154-5.287-1.907-16.931-7.403-29.666-25.934-37.384-44.001-.302-.987-.425-1.22-1.299-3.157-1.45-3.655-2.688-7.259-3.712-10.723-11.245-38.056.509-75.651 23.726-105.382-.013.058.121-.138.549-.698 12.118-15.333 27.284-28.543 43.901-38.598 6.821-4.128 13.891-7.726 21.091-10.72C248.741 5.536 276.569 1 304.243 1l2.008.008c17.71.14 35.321 2.126 51.972 5.645a195.54 195.54 0 0 1 22.769 6.259c27.219 9.301 52.343 24.801 70.765 46.777 14.272 17.026 23.929 37.274 29.677 58.634l-63.033 1.955c-7.77.241-13.947 6.624-13.947 14.415v58.082l-30.599 31.369 36.705-9.826-.085-.301c.578.136 1.18.208 1.798.208.127 0 .256-.003.386-.009l66.888-3.253c-4.916 12.918-11.932 25.335-20.839 37.832-14.895 20.902-35.525 34.388-54.68 50.948-52.645 45.51-73.442 110.115-74.203 177.878-.024 2.186-1.809 3.937-3.986 3.937-.016 0-.029 0-.045-.002z" stroke="#20244f" class="E"/><path d="M309.189 621.605c-2.824 0-5.597-.208-8.309-.61-27.151-4.027-47.985-27.482-47.985-55.812 0-31.16 25.202-56.421 56.294-56.421 4.805 0 9.467.604 13.92 1.739 24.359 6.209 42.375 28.338 42.375 54.682 0 31.161-25.203 56.422-56.295 56.422z"/></g><path d="M309.189 621.605c-2.824 0-5.597-.208-8.309-.61-27.151-4.027-47.985-27.482-47.985-55.812 0-31.16 25.202-56.421 56.294-56.421 4.805 0 9.467.604 13.92 1.739 24.359 6.209 42.375 28.338 42.375 54.682 0 31.161-25.203 56.422-56.295 56.422" stroke="#20244f" class="E"/><path d="M404.454 192.775l-30.599 31.369 36.705-9.826-6.106-21.543z" class="B D"/><g filter="url(#T)" class="B"><path d="M586.525 223.646l-173.867 8.455c-4.466.217-8.205-3.351-8.205-7.831v-71.691c0-7.791 6.177-14.174 13.947-14.415l156.699-4.86c11.669 0 21.129 9.481 21.129 21.176v58.958c0 5.45-4.269 9.942-9.703 10.208z" fill="#1e3dc3" fill-opacity=".591"/></g><path d="M586.525 205.76l-173.867 8.456c-4.466.216-8.205-3.352-8.205-7.832v-71.691c0-7.791 6.177-14.174 13.947-14.415l156.699-4.86c11.669 0 21.129 9.481 21.129 21.176v58.958c0 5.451-4.269 9.942-9.703 10.208z" class="B D"/><path d="M452.596 175.684c-1.309 1.538-2.878 2.794-4.707 3.768-1.83.947-3.744 1.455-5.743 1.523-3.414.117-6.2-.88-8.356-2.991-2.158-2.138-3.302-5.141-3.434-9.007-.162-4.75 1.114-8.885 3.829-12.406 2.714-3.548 6.223-5.396 10.525-5.543 4.137-.141 7.581 1.829 10.332 5.91l-1.953 1.394c-2.177-3.52-4.959-5.222-8.345-5.107-2.416.083-4.57.889-6.463 2.419-1.894 1.502-3.316 3.43-4.264 5.785-.949 2.327-1.378 4.802-1.289 7.426.107 3.148.998 5.62 2.671 7.415 1.7 1.767 3.966 2.602 6.797 2.506 1.527-.052 3.055-.464 4.586-1.235 1.529-.799 2.868-1.881 4.016-3.247l1.798 1.39zm13.62-16.058c2.498-.085 4.508.566 6.028 1.951 1.548 1.385 2.366 3.376 2.455 5.971.119 3.508-.739 6.468-2.574 8.88s-4.349 3.673-7.542 3.782c-2.526.086-4.564-.577-6.113-1.989-1.522-1.441-2.328-3.487-2.418-6.138-.114-3.342.76-6.219 2.623-8.633 1.863-2.441 4.376-3.716 7.541-3.824zm-.014 2.033c-2.388.081-4.34 1.102-5.857 3.061-1.49 1.959-2.188 4.319-2.094 7.08.07 2.044.667 3.641 1.79 4.791 1.15 1.122 2.655 1.652 4.515 1.588 2.415-.082 4.353-1.102 5.815-3.06 1.49-1.958 2.184-4.415 2.083-7.37-.07-2.071-.679-3.612-1.825-4.624-1.147-1.039-2.623-1.528-4.427-1.466zm14.339-9.654a1.65 1.65 0 0 1 1.191-.538c.471-.016.865.122 1.181.416s.482.674.498 1.144a1.63 1.63 0 0 1-.459 1.218c-.294.342-.691.521-1.191.538-.444.015-.824-.124-1.14-.417s-.481-.675-.497-1.144c-.017-.497.122-.903.417-1.217zm-.5 7.357l2.166-.073-1.772 20.174-2.166.073 1.772-20.174zm18.293-.831c4.081-.139 5.84 2.538 5.276 8.032l-1.17 12.149-2.165.074 1.174-12.025c.412-4.217-.783-6.277-3.587-6.181-1.832.062-3.62 1.035-5.362 2.919a12.29 12.29 0 0 0-3.191 6.662l-.777 9.025-2.165.074 1.772-20.174 2.165-.074-.415 4.95.042-.002c1.056-1.639 2.332-2.941 3.827-3.904s3.021-1.472 4.576-1.525zm19.037 3.457l.764.389 2.208 1.169c.481.26 1.091.64 1.831 1.14.767.499 1.325.964 1.673 1.394.376.43.715.971 1.015 1.624a5.33 5.33 0 0 1 .487 2.057c.087 2.569-.717 4.642-2.415 6.221-1.67 1.549-3.865 2.371-6.586 2.464-1.86.063-3.651-.291-5.372-1.061a10.29 10.29 0 0 1-4.201-3.382l1.735-1.677c.908 1.352 2.04 2.364 3.397 3.036a9.11 9.11 0 0 0 4.283.891c2.026-.069 3.674-.664 4.942-1.786 1.267-1.149 1.87-2.607 1.81-4.375a3.66 3.66 0 0 0-.476-1.725c-.296-.543-.743-1.026-1.341-1.447a14.11 14.11 0 0 0-1.75-1.185l-2.249-1.167-.721-.349-2.163-1.088-1.833-1.181c-.854-.579-1.455-1.084-1.803-1.515s-.7-.985-1.057-1.664c-.33-.708-.508-1.462-.536-2.263-.078-2.292.678-4.17 2.268-5.634 1.617-1.465 3.731-2.242 6.341-2.331 1.499-.051 2.967.217 4.404.803 1.465.586 2.703 1.429 3.713 2.528l-1.695 1.634c-1.678-1.934-3.849-2.855-6.514-2.764-1.805.061-3.301.596-4.49 1.604-1.16 1.008-1.701 2.27-1.621 3.788a4.77 4.77 0 0 0 .439 1.893c.297.543.787 1.065 1.471 1.567l1.708 1.186 2.334 1.206zm26.845-4.814l2.166-.073-1.772 20.174-2.166.073.424-4.7-.125.004c-.921 1.524-2.046 2.752-3.377 3.682s-2.73 1.42-4.202 1.47c-4.247.145-6.13-2.514-5.65-7.977l1.086-12.188 2.165-.074-1.048 12.062c-.226 2.33-.004 3.954.666 4.871.698.889 1.768 1.308 3.212 1.259 1.721-.058 3.369-1.027 4.945-2.905 1.604-1.88 2.557-4.069 2.861-6.568l.815-9.11zm9.538 4.32c1.656-2.766 3.919-4.46 6.789-5.084l-.246 2.58c-1.909.259-3.517 1.198-4.823 2.819-1.28 1.592-2.073 3.609-2.379 6.053l-.813 9.151-2.166.074 1.772-20.174 2.166-.074-.425 4.659.125-.004zm19.302-12.892c-.856-.634-1.894-.931-3.116-.889-1.971.067-3.085 1.612-3.343 4.634l-.362 4.077 5.58-.19-.143 1.912-5.622.192-1.587 18.26-2.207.075 1.629-18.261-2.332.079.143-1.912 2.374-.081.387-4.534c.334-4.076 2.069-6.167 5.206-6.274 1.527-.052 2.844.263 3.951.944l-.558 1.968z" class="C"/><mask id="C" maskUnits="userSpaceOnUse" x="138" y="601" width="50" height="24" mask-type="alpha"><path d="M140.457 601.166s-1.432 8.132-2.135 16.18c-.276 3.146 2.144 5.878 5.294 6.01 10.694.447 33.572 1.314 41.781.948 1.234-.056 2.041-1.322 1.584-2.473-.384-.964-1.122-1.744-2.061-2.175l-37.791-17.408-6.672-1.082z" class="B C"/></mask><g mask="url(#C)" class="B"><path d="M140.457 601.166s-1.432 8.132-2.135 16.18c-.276 3.146 2.144 5.878 5.294 6.01 10.694.447 33.572 1.314 41.781.948 1.234-.056 2.041-1.322 1.584-2.473-.384-.964-1.122-1.744-2.061-2.175l-37.791-17.408-6.672-1.082z" fill="url(#U)"/></g><mask id="D" maskUnits="userSpaceOnUse" x="139" y="594" width="13" height="14" mask-type="alpha"><path d="M139.283 596.389l1.151 9.725s6.619 3.09 11.14-.389l-2.741-10.839-9.55 1.503z" class="B C"/></mask><g mask="url(#D)" class="B"><path d="M139.283 596.389l1.151 9.725s6.619 3.09 11.14-.389l-2.741-10.839-9.55 1.503z" fill="url(#V)"/></g><mask id="E" maskUnits="userSpaceOnUse" x="110" y="413" width="41" height="188" mask-type="alpha"><path d="M140.148 413.534c-.498 2.54-2.67 126.749 10.578 182.41.214.91-.246 1.844-1.107 2.197-2.032.832-6.016 2.037-10.79 2.198a3.25 3.25 0 0 1-3.221-2.334c-3.785-12.916-21.931-77.622-24.298-139.433-2.645-69.067 0-2.352 0-2.352l1.552-42.693 27.286.007z" class="B C"/></mask><g mask="url(#E)" class="B"><path d="M140.148 413.534c-.498 2.54-2.67 126.749 10.578 182.41.214.91-.246 1.844-1.107 2.197-2.032.832-6.016 2.037-10.79 2.198a3.25 3.25 0 0 1-3.221-2.334c-3.785-12.916-21.931-77.622-24.298-139.433-2.645-69.067 0-2.352 0-2.352l1.552-42.693 27.286.007z" fill="url(#W)"/></g><mask id="F" maskUnits="userSpaceOnUse" x="92" y="605" width="21" height="21" mask-type="alpha"><path d="M96.987 605.407s-2.281 4.107-4.49 15.016c-.399 1.969.975 3.854 2.971 4.051 3.531.348 8.969.796 13.323.764 2.008-.013 3.575-1.764 3.333-3.762-.482-3.982-1.985-10.515-6.628-15.606l-8.508-.463z" class="B C"/></mask><g mask="url(#F)" class="B"><path d="M96.987 605.407s-2.281 4.107-4.49 15.016c-.399 1.969.975 3.854 2.971 4.051 3.531.348 8.969.796 13.323.764 2.008-.013 3.575-1.764 3.333-3.762-.482-3.982-1.985-10.515-6.628-15.606l-8.508-.463z" fill="url(#X)"/></g><mask id="G" maskUnits="userSpaceOnUse" x="94" y="592" width="12" height="17" mask-type="alpha"><path d="M94.982 592.899l2.691 14.708s2.66 1.983 7.923.546l-1.285-15.827-9.329.573z" class="B C"/></mask><g mask="url(#G)" class="B"><path d="M94.982 592.899l2.691 14.708s2.66 1.983 7.923.546l-1.285-15.827-9.329.573z" fill="url(#Y)"/></g><mask id="H" maskUnits="userSpaceOnUse" x="83" y="410" width="59" height="191" mask-type="alpha"><path d="M87.714 417.346c-10.835 65.533 2.35 161.971 6.797 180.847.272 1.156 1.203 2.041 2.371 2.233 1.985.331 5.253.599 8.475-.337a2.7 2.7 0 0 0 1.935-2.484c.596-15.261-.478-108.944 9.618-145.968.511-1.875 1.656-3.512 3.237-4.639l19.593-13.96 1.503-22.567-53.529 6.875z" class="B C"/></mask><g mask="url(#H)" class="B"><path d="M87.714 417.346c-10.835 65.533 2.35 161.971 6.797 180.847.272 1.156 1.203 2.041 2.371 2.233 1.985.331 5.253.599 8.475-.337a2.7 2.7 0 0 0 1.935-2.484c.596-15.261-.478-108.944 9.618-145.968.511-1.875 1.656-3.512 3.237-4.639l19.593-13.96 1.503-22.567-53.529 6.875z" fill="url(#Z)"/></g><mask id="I" maskUnits="userSpaceOnUse" x="83" y="287" width="121" height="139" mask-type="alpha"><path d="M156.751 293.172c-32.468-.539-68.294 8.543-68.294 8.543-9.678 56.599-1.692 121.884-1.692 121.884 25.137 6.607 53.493-4.04 53.493-4.04 4.178-23.658 23.67-90.235 23.67-90.235 15.865-1.975 28.933-6.562 39.696-12.628-8.209-9.535-12.079-21.671-13.761-28.845-11.48 3.577-23.095 5.487-33.111 5.321z" class="B C"/></mask><g mask="url(#I)" class="B"><path d="M156.751 293.172c-32.468-.539-68.294 8.543-68.294 8.543-9.678 56.599-1.692 121.884-1.692 121.884 25.137 6.607 53.493-4.04 53.493-4.04 4.178-23.658 23.67-90.235 23.67-90.235 15.865-1.975 28.933-6.562 39.696-12.628-8.209-9.535-12.079-21.671-13.761-28.845-11.48 3.577-23.095 5.487-33.111 5.321z" fill="url(#a)"/></g><mask id="J" maskUnits="userSpaceOnUse" x="189" y="242" width="64" height="75" mask-type="alpha"><path d="M252.658 245.238c-3.187-3.861-7.225-2.034-7.225-2.034-4.778 20.229-29.831 36.63-55.572 44.647 1.682 7.175 5.553 19.31 13.762 28.845 42.716-24.069 49.035-71.458 49.035-71.458z" class="B C"/></mask><g mask="url(#J)" class="B"><path d="M252.658 245.238c-3.187-3.861-7.225-2.034-7.225-2.034-4.778 20.229-29.831 36.63-55.572 44.647 1.682 7.175 5.553 19.31 13.762 28.845 42.716-24.069 49.035-71.458 49.035-71.458z" fill="url(#b)"/></g><mask id="K" maskUnits="userSpaceOnUse" x="245" y="211" width="22" height="37" mask-type="alpha"><path d="M251.886 246.22c.335 1.064-3.531 2.683-5.806-1.666-.078-2.083-1.343-11.013-.101-12.712 6.619-9.044 19.45-20.381 19.45-20.381 2.17 2.146.384 4.253.384 4.253l-6.226 6.499c1.302 2.358 2.891 4.348 3.634 7.201.564 2.16.218 4.469-.87 6.434-1.091 1.974-2.584 4.539-3.991 6.547-2.668 3.798-6.474 3.825-6.474 3.825z" class="B C"/></mask><g mask="url(#K)" class="B"><path d="M251.886 246.22c.335 1.064-3.531 2.683-5.806-1.666-.078-2.083-1.343-11.013-.101-12.712 6.619-9.044 19.45-20.381 19.45-20.381 2.17 2.146.384 4.253.384 4.253l-6.226 6.499c1.302 2.358 2.891 4.348 3.634 7.201.564 2.16.218 4.469-.87 6.434-1.091 1.974-2.584 4.539-3.991 6.547-2.668 3.798-6.474 3.825-6.474 3.825z" fill="url(#c)"/></g><mask id="L" maskUnits="userSpaceOnUse" x="249" y="226" width="10" height="16" mask-type="alpha"><path d="M256.863 226.429l-5.673 4.821-1.78 4.797 5.057 5.625s1.702-9.521 2.965-11.583.609-3.056-.569-3.66z" class="B C"/></mask><g mask="url(#L)" class="B"><path d="M256.863 226.429l-5.673 4.821-1.78 4.797 5.057 5.625s1.702-9.521 2.965-11.583.609-3.056-.569-3.66z" fill="url(#d)"/></g><mask id="M" maskUnits="userSpaceOnUse" x="53" y="301" width="48" height="55" mask-type="alpha"><path d="M100.91 333.225l-12.454-31.51s-30.328 20.653-35.316 46.838c5.73.425 16.158 1.918 26.365 7.083 2.243-12.364 21.404-22.411 21.404-22.411z" class="B C"/></mask><g mask="url(#M)" class="B"><path d="M100.91 333.225l-12.454-31.51s-30.328 20.653-35.316 46.838c5.73.425 16.158 1.918 26.365 7.083 2.243-12.364 21.404-22.411 21.404-22.411z" fill="url(#e)"/></g><mask id="N" maskUnits="userSpaceOnUse" x="52" y="348" width="80" height="42" mask-type="alpha"><path d="M127.414 362.875s-34.051 19.287-45.54 2.819c-2.386-3.42-2.956-6.819-2.368-10.058-10.207-5.165-20.634-6.658-26.365-7.083-1.504 7.894-.709 16.292 3.92 24.776 20.125 36.896 74.861-2.039 74.861-2.039l-4.507-8.415z" class="B C"/></mask><g mask="url(#N)" class="B"><path d="M127.414 362.875s-34.051 19.287-45.54 2.819c-2.386-3.42-2.956-6.819-2.368-10.058-10.207-5.165-20.634-6.658-26.365-7.083-1.504 7.894-.709 16.292 3.92 24.776 20.125 36.896 74.861-2.039 74.861-2.039l-4.507-8.415z" fill="url(#f)"/></g><g class="B"><path d="M123.322 387.276l18.584-65.044c.212-.738.839-1.277 1.602-1.366 3.366-.394 13.123-1.498 24.386-2.453 13.57-1.151 29.327-2.083 38.743-1.29 1.339.112 2.148 1.532 1.553 2.739-5.356 10.857-27.38 55.021-38.409 69.488a1.9 1.9 0 0 1-1.532.754l-43.118-.4c-1.256-.014-2.153-1.219-1.809-2.428z" fill="#91b3fa"/><g fill="#bdd0fb"><path d="M169.824 312.773l13.473-2.249a.97.97 0 0 1 1.076 1.258l-1.332 4.051a.97.97 0 0 1-.792.658l-12.965 1.737a.97.97 0 0 1-1.069-1.183l.826-3.537a.97.97 0 0 1 .783-.735z"/><path d="M159.733 324.206l1.111-5.795a1.34 1.34 0 0 1 1.176-1.08l27.215-2.768a1.34 1.34 0 0 1 1.434 1.646l-1.731 7.219c-.138.579-.64.997-1.231 1.026l-26.593 1.342a1.34 1.34 0 0 1-1.381-1.59z"/></g></g><mask id="O" maskUnits="userSpaceOnUse" x="126" y="349" width="25" height="23" mask-type="alpha"><path d="M127.813 371.561s-2.587-10.669-1.543-14.454 3.067-8.65 9.81-7.57 14.699 3.93 14.699 3.93-.402 4.93-5.526 3.338l3.177 2.466s-.453 3.946-4.783 1.838l2.956 3.268s-1.858 3.242-5.044 1.163-4.713 7.306-13.746 6.021z" class="B C"/></mask><g mask="url(#O)" class="B"><path d="M127.813 371.561s-2.587-10.669-1.543-14.454 3.067-8.65 9.81-7.57 14.699 3.93 14.699 3.93-.402 4.93-5.526 3.338l3.177 2.466s-.453 3.946-4.783 1.838l2.956 3.268s-1.858 3.242-5.044 1.163-4.713 7.306-13.746 6.021z" fill="url(#g)"/></g><mask id="P" maskUnits="userSpaceOnUse" x="113" y="266" width="32" height="35" mask-type="alpha"><path d="M123.864 266.753l-10.331 29.943c-.171.496.032 1.046.49 1.301 2.816 1.56 12.962 6.07 25.189-1.699 1.273-.81 2.141-2.131 2.335-3.629l3.346-25.916h-21.029z" class="B C"/></mask><g mask="url(#P)" class="B"><path d="M123.864 266.753l-10.331 29.943c-.171.496.032 1.046.49 1.301 2.816 1.56 12.962 6.07 25.189-1.699 1.273-.81 2.141-2.131 2.335-3.629l3.346-25.916h-21.029z" fill="url(#h)"/></g><mask id="Q" maskUnits="userSpaceOnUse" x="119" y="239" width="38" height="37" mask-type="alpha"><path d="M146.342 239.023s11.346 21.403 9.891 30.05-15.514 8.024-27.792 1.002l-8.58-23.111 26.481-7.941z" class="B C"/></mask><g mask="url(#Q)" class="B"><path d="M146.342 239.023s11.346 21.403 9.891 30.05-15.514 8.024-27.792 1.002l-8.58-23.111 26.481-7.941z" fill="url(#i)"/></g><mask id="R" maskUnits="userSpaceOnUse" x="104" y="223" width="49" height="49" mask-type="alpha"><path d="M128.984 258.726c.499-.221.682-.833.385-1.292-.91-1.39-2.614-4.23-3.156-6.716 0 0-2.041-1.308 5.191-3.043s18.011-4.426 20.277-10.595c2.211-6.014-3.596-21.136-12.858-9.086-.352.459-1.042.468-1.394.009-1.519-1.981-5.51-6.092-11.053-3.599-5.187 2.332-5.771 6.141-5.7 8.062.023.563-.482 1.004-1.037.896-2.621-.501-8.914-.93-11.851 5.538-2.419 5.33-.847 8.346.585 9.822a.88.88 0 0 1-.375 1.46c-1.724.529-3.949 1.994-3.727 6.04.309 5.594 6.549 5.102 8.326 4.847.291-.042.585.059.782.275 1.523 1.691 8.388 8.865 15.816 9.73.645.076 1.143-.561.933-1.176l-3.217-9.365a.89.89 0 0 1 .48-1.1l1.593-.707z" class="B C"/></mask><g mask="url(#R)" class="B"><path d="M128.984 258.726c.499-.221.682-.833.385-1.292-.91-1.39-2.614-4.23-3.156-6.716 0 0-2.041-1.308 5.191-3.043s18.011-4.426 20.277-10.595c2.211-6.014-3.596-21.136-12.858-9.086-.352.459-1.042.468-1.394.009-1.519-1.981-5.51-6.092-11.053-3.599-5.187 2.332-5.771 6.141-5.7 8.062.023.563-.482 1.004-1.037.896-2.621-.501-8.914-.93-11.851 5.538-2.419 5.33-.847 8.346.585 9.822a.88.88 0 0 1-.375 1.46c-1.724.529-3.949 1.994-3.727 6.04.309 5.594 6.549 5.102 8.326 4.847.291-.042.585.059.782.275 1.523 1.691 8.388 8.865 15.816 9.73.645.076 1.143-.561.933-1.176l-3.217-9.365a.89.89 0 0 1 .48-1.1l1.593-.707z" fill="url(#j)"/></g><mask id="S" maskUnits="userSpaceOnUse" x="121" y="257" width="12" height="8" mask-type="alpha"><path d="M130.278 260.054s-8.077-5.553-8.669-.876 7.275 6.777 11.17 5.033l-2.501-4.157z" class="B C"/></mask><g mask="url(#S)" class="B"><path d="M130.278 260.054s-8.077-5.553-8.669-.876 7.275 6.777 11.17 5.033l-2.501-4.157z" fill="url(#k)"/></g><defs><filter id="T" x="374.843" y="103.694" width="250.995" height="158.027" filterUnits="userSpaceOnUse" color-interpolation-filters="sRGB"><feFlood flood-opacity="0"/><feBlend in="SourceGraphic"/><feGaussianBlur stdDeviation="14.805"/></filter><linearGradient id="U" x1="25.68" y1="557.003" x2="-10.08" y2="729.177" xlink:href="#l"><stop stop-color="#08005d"/><stop offset="1" stop-color="#1a0f91"/></linearGradient><linearGradient id="V" x1="139.283" y1="607.379" x2="151.575" y2="607.379" xlink:href="#l"><stop stop-color="#fdbab9"/><stop offset="1" stop-color="#ff928e"/></linearGradient><linearGradient id="W" x1="177.695" y1="148.706" x2="50.187" y2="156.904" xlink:href="#l"><stop stop-color="#08005d"/><stop offset="1" stop-color="#1a0f91"/></linearGradient><linearGradient id="X" x1="78.155" y1="491.737" x2="-61.08" y2="641.807" xlink:href="#l"><stop stop-color="#08005d"/><stop offset="1" stop-color="#1a0f91"/></linearGradient><linearGradient id="Y" x1="94.982" y1="608.675" x2="105.595" y2="608.675" xlink:href="#l"><stop stop-color="#fdbab9"/><stop offset="1" stop-color="#ff928e"/></linearGradient><linearGradient id="Z" x1="149.854" y1="209.667" x2="14.236" y2="226.61" xlink:href="#l"><stop stop-color="#08005d"/><stop offset="1" stop-color="#1a0f91"/></linearGradient><linearGradient id="a" x1="273.45" y1="440.543" x2="499.259" y2="145.544" xlink:href="#l"><stop stop-color="#4f52ff"/><stop offset="1" stop-color="#4042e1"/></linearGradient><linearGradient id="b" x1="216.6" y1="193.641" x2="188.133" y2="252.463" xlink:href="#l"><stop stop-color="#fdbab9"/><stop offset="1" stop-color="#ff928e"/></linearGradient><linearGradient id="c" x1="243.319" y1="194.402" x2="201.245" y2="235.77" xlink:href="#l"><stop stop-color="#fdbab9"/><stop offset="1" stop-color="#ff928e"/></linearGradient><linearGradient id="d" x1="254.287" y1="266.882" x2="280.851" y2="249.354" xlink:href="#l"><stop stop-color="#fdbab9"/><stop offset="1" stop-color="#ff928e"/></linearGradient><linearGradient id="e" x1="237.012" y1="415.866" x2="458.055" y2="116.3" xlink:href="#l"><stop stop-color="#4f52ff"/><stop offset="1" stop-color="#4042e1"/></linearGradient><linearGradient id="f" x1="52.449" y1="389.215" x2="131.92" y2="389.215" xlink:href="#l"><stop stop-color="#fdbab9"/><stop offset="1" stop-color="#ff928e"/></linearGradient><linearGradient id="g" x1="126.022" y1="371.684" x2="150.78" y2="371.684" xlink:href="#l"><stop stop-color="#fdbab9"/><stop offset="1" stop-color="#ff928e"/></linearGradient><linearGradient id="h" x1="113.473" y1="300.718" x2="144.892" y2="300.718" xlink:href="#l"><stop stop-color="#fdbab9"/><stop offset="1" stop-color="#ff928e"/></linearGradient><linearGradient id="i" x1="162.945" y1="246.465" x2="128.437" y2="225.285" xlink:href="#l"><stop stop-color="#fdbab9"/><stop offset="1" stop-color="#ff928e"/></linearGradient><linearGradient id="j" x1="81.765" y1="242.51" x2="126.194" y2="278.089" xlink:href="#l"><stop stop-color="#08005d"/><stop offset="1" stop-color="#1a0f91"/></linearGradient><linearGradient id="k" x1="157.451" y1="261.15" x2="137.448" y2="233.99" xlink:href="#l"><stop stop-color="#fdbab9"/><stop offset="1" stop-color="#ff928e"/></linearGradient><linearGradient id="l" gradientUnits="userSpaceOnUse"/></defs></svg>