<svg width="1021" height="409" viewBox="0 0 1021 409" fill="none" xmlns="http://www.w3.org/2000/svg">
<path opacity="0.298007" d="M72.5654 401.159V392.203H74.7627V401.159C74.7627 402.009 74.5811 402.732 74.2178 403.33C73.8545 403.928 73.3594 404.385 72.7324 404.701C72.1055 405.018 71.3936 405.176 70.5967 405.176C69.7822 405.176 69.0586 405.038 68.4258 404.763C67.7988 404.487 67.3066 404.065 66.9492 403.497C66.5918 402.929 66.4131 402.208 66.4131 401.335H68.6279C68.6279 401.839 68.707 402.246 68.8652 402.557C69.0293 402.861 69.2578 403.084 69.5508 403.225C69.8496 403.359 70.1982 403.427 70.5967 403.427C70.9775 403.427 71.3145 403.342 71.6074 403.172C71.9062 402.996 72.1406 402.741 72.3105 402.407C72.4805 402.067 72.5654 401.651 72.5654 401.159ZM82.2062 403.093V398.558C82.2062 398.218 82.1447 397.925 82.0216 397.679C81.8986 397.433 81.7111 397.242 81.4591 397.107C81.213 396.973 80.9025 396.905 80.5275 396.905C80.1818 396.905 79.883 396.964 79.631 397.081C79.3791 397.198 79.1828 397.356 79.0421 397.556C78.9015 397.755 78.8312 397.98 78.8312 398.232H76.7218C76.7218 397.857 76.8127 397.494 76.9943 397.143C77.1759 396.791 77.4396 396.478 77.7853 396.202C78.131 395.927 78.5441 395.71 79.0246 395.552C79.505 395.394 80.0441 395.314 80.6418 395.314C81.3566 395.314 81.9894 395.435 82.5402 395.675C83.0968 395.915 83.5334 396.278 83.8498 396.765C84.172 397.245 84.3332 397.849 84.3332 398.575V402.803C84.3332 403.236 84.3625 403.626 84.4211 403.972C84.4855 404.312 84.5763 404.607 84.6935 404.859V405H82.5226C82.423 404.771 82.3439 404.481 82.2853 404.13C82.2326 403.772 82.2062 403.427 82.2062 403.093ZM82.5138 399.217L82.5314 400.526H81.0109C80.6183 400.526 80.2726 400.564 79.9738 400.641C79.675 400.711 79.4259 400.816 79.2267 400.957C79.0275 401.098 78.8781 401.268 78.7785 401.467C78.6789 401.666 78.6291 401.892 78.6291 402.144C78.6291 402.396 78.6877 402.627 78.8048 402.838C78.922 403.043 79.092 403.204 79.3146 403.321C79.5431 403.438 79.8185 403.497 80.1408 403.497C80.5744 403.497 80.9523 403.409 81.2746 403.233C81.6027 403.052 81.8605 402.832 82.048 402.574C82.2355 402.311 82.3351 402.062 82.3468 401.827L83.0324 402.768C82.9621 403.008 82.842 403.266 82.672 403.541C82.5021 403.816 82.2795 404.08 82.0041 404.332C81.7345 404.578 81.4093 404.78 81.0285 404.938C80.6535 405.097 80.2199 405.176 79.7277 405.176C79.1066 405.176 78.5529 405.053 78.0666 404.807C77.5802 404.555 77.1994 404.218 76.924 403.796C76.6486 403.368 76.5109 402.885 76.5109 402.346C76.5109 401.842 76.6046 401.396 76.7921 401.01C76.9855 400.617 77.2668 400.289 77.6359 400.025C78.0109 399.762 78.4679 399.562 79.007 399.428C79.5461 399.287 80.1613 399.217 80.8527 399.217H82.5138ZM88.4017 397.521V405H86.2835V395.49H88.2786L88.4017 397.521ZM88.0237 399.894L87.3382 399.885C87.3441 399.211 87.4378 398.593 87.6194 398.03C87.8069 397.468 88.0648 396.984 88.3929 396.58C88.7269 396.176 89.1253 395.865 89.5882 395.648C90.0511 395.426 90.5667 395.314 91.1351 395.314C91.5921 395.314 92.0052 395.379 92.3743 395.508C92.7493 395.631 93.0687 395.833 93.3323 396.114C93.6019 396.396 93.8069 396.762 93.9476 397.213C94.0882 397.658 94.1585 398.206 94.1585 398.856V405H92.0316V398.848C92.0316 398.391 91.9642 398.03 91.8294 397.767C91.7005 397.497 91.5101 397.307 91.2581 397.195C91.012 397.078 90.7044 397.02 90.3353 397.02C89.972 397.02 89.6468 397.096 89.3597 397.248C89.0726 397.4 88.8294 397.608 88.6302 397.872C88.4368 398.136 88.2874 398.44 88.1819 398.786C88.0765 399.132 88.0237 399.501 88.0237 399.894Z" fill="#20244F"/>
<path opacity="0.298007" d="M153.507 392.203V405H151.301V392.203H153.507ZM158.728 397.802V399.551H152.944V397.802H158.728ZM159.457 392.203V393.961H152.944V392.203H159.457ZM164.756 405.176C164.053 405.176 163.417 405.062 162.849 404.833C162.286 404.599 161.806 404.273 161.407 403.857C161.015 403.441 160.713 402.952 160.502 402.39C160.291 401.827 160.186 401.221 160.186 400.57V400.219C160.186 399.475 160.294 398.801 160.511 398.197C160.728 397.594 161.029 397.078 161.416 396.65C161.803 396.217 162.26 395.886 162.787 395.657C163.315 395.429 163.886 395.314 164.501 395.314C165.181 395.314 165.776 395.429 166.285 395.657C166.795 395.886 167.217 396.208 167.551 396.624C167.891 397.034 168.143 397.523 168.307 398.092C168.477 398.66 168.562 399.287 168.562 399.973V400.878H161.214V399.357H166.47V399.19C166.458 398.81 166.382 398.452 166.241 398.118C166.107 397.784 165.899 397.515 165.617 397.31C165.336 397.104 164.961 397.002 164.492 397.002C164.141 397.002 163.827 397.078 163.552 397.23C163.282 397.377 163.057 397.591 162.875 397.872C162.694 398.153 162.553 398.493 162.453 398.892C162.36 399.284 162.313 399.727 162.313 400.219V400.57C162.313 400.986 162.368 401.373 162.48 401.73C162.597 402.082 162.767 402.39 162.989 402.653C163.212 402.917 163.482 403.125 163.798 403.277C164.114 403.424 164.475 403.497 164.879 403.497C165.389 403.497 165.843 403.395 166.241 403.189C166.64 402.984 166.986 402.694 167.278 402.319L168.395 403.4C168.19 403.699 167.923 403.986 167.595 404.262C167.267 404.531 166.865 404.751 166.391 404.921C165.922 405.091 165.377 405.176 164.756 405.176ZM169.976 391.5H172.094V402.97L171.892 405H169.976V391.5ZM178.299 400.157V400.342C178.299 401.045 178.22 401.692 178.062 402.284C177.909 402.87 177.675 403.38 177.359 403.813C177.048 404.247 176.661 404.584 176.199 404.824C175.742 405.059 175.211 405.176 174.608 405.176C174.016 405.176 173.5 405.064 173.061 404.842C172.621 404.619 172.252 404.303 171.953 403.893C171.66 403.482 171.423 402.993 171.242 402.425C171.06 401.856 170.931 401.229 170.855 400.544V399.955C170.931 399.264 171.06 398.637 171.242 398.074C171.423 397.506 171.66 397.017 171.953 396.606C172.252 396.19 172.618 395.871 173.052 395.648C173.492 395.426 174.004 395.314 174.59 395.314C175.2 395.314 175.736 395.432 176.199 395.666C176.667 395.9 177.057 396.234 177.367 396.668C177.678 397.096 177.909 397.605 178.062 398.197C178.22 398.789 178.299 399.442 178.299 400.157ZM176.181 400.342V400.157C176.181 399.729 176.146 399.328 176.076 398.953C176.005 398.572 175.888 398.238 175.724 397.951C175.566 397.664 175.349 397.438 175.074 397.274C174.804 397.104 174.467 397.02 174.063 397.02C173.688 397.02 173.366 397.084 173.096 397.213C172.826 397.342 172.601 397.518 172.419 397.74C172.238 397.963 172.094 398.221 171.989 398.514C171.889 398.807 171.822 399.123 171.786 399.463V401.054C171.839 401.493 171.951 401.897 172.12 402.267C172.296 402.63 172.542 402.923 172.859 403.146C173.175 403.362 173.582 403.471 174.08 403.471C174.473 403.471 174.804 403.392 175.074 403.233C175.343 403.075 175.557 402.855 175.715 402.574C175.879 402.287 175.996 401.953 176.067 401.572C176.143 401.191 176.181 400.781 176.181 400.342Z" fill="#20244F"/>
<path opacity="0.298007" d="M236.197 392.203H238.166L241.866 402.073L245.558 392.203H247.526L242.64 405H241.075L236.197 392.203ZM235.301 392.203H237.173L237.498 400.746V405H235.301V392.203ZM246.551 392.203H248.432V405H246.226V400.746L246.551 392.203ZM255.954 403.093V398.558C255.954 398.218 255.893 397.925 255.77 397.679C255.647 397.433 255.459 397.242 255.207 397.107C254.961 396.973 254.651 396.905 254.276 396.905C253.93 396.905 253.631 396.964 253.379 397.081C253.127 397.198 252.931 397.356 252.79 397.556C252.65 397.755 252.579 397.98 252.579 398.232H250.47C250.47 397.857 250.561 397.494 250.742 397.143C250.924 396.791 251.188 396.478 251.533 396.202C251.879 395.927 252.292 395.71 252.773 395.552C253.253 395.394 253.792 395.314 254.39 395.314C255.105 395.314 255.737 395.435 256.288 395.675C256.845 395.915 257.281 396.278 257.598 396.765C257.92 397.245 258.081 397.849 258.081 398.575V402.803C258.081 403.236 258.111 403.626 258.169 403.972C258.234 404.312 258.324 404.607 258.442 404.859V405H256.271C256.171 404.771 256.092 404.481 256.033 404.13C255.981 403.772 255.954 403.427 255.954 403.093ZM256.262 399.217L256.279 400.526H254.759C254.366 400.526 254.021 400.564 253.722 400.641C253.423 400.711 253.174 400.816 252.975 400.957C252.776 401.098 252.626 401.268 252.527 401.467C252.427 401.666 252.377 401.892 252.377 402.144C252.377 402.396 252.436 402.627 252.553 402.838C252.67 403.043 252.84 403.204 253.063 403.321C253.291 403.438 253.567 403.497 253.889 403.497C254.322 403.497 254.7 403.409 255.023 403.233C255.351 403.052 255.609 402.832 255.796 402.574C255.984 402.311 256.083 402.062 256.095 401.827L256.78 402.768C256.71 403.008 256.59 403.266 256.42 403.541C256.25 403.816 256.027 404.08 255.752 404.332C255.483 404.578 255.157 404.78 254.777 404.938C254.402 405.097 253.968 405.176 253.476 405.176C252.855 405.176 252.301 405.053 251.815 404.807C251.328 404.555 250.947 404.218 250.672 403.796C250.397 403.368 250.259 402.885 250.259 402.346C250.259 401.842 250.353 401.396 250.54 401.01C250.734 400.617 251.015 400.289 251.384 400.025C251.759 399.762 252.216 399.562 252.755 399.428C253.294 399.287 253.909 399.217 254.601 399.217H256.262ZM262.176 397.301V405H260.058V395.49H262.079L262.176 397.301ZM265.085 395.429L265.068 397.397C264.939 397.374 264.798 397.356 264.646 397.345C264.499 397.333 264.353 397.327 264.206 397.327C263.843 397.327 263.524 397.38 263.248 397.485C262.973 397.585 262.742 397.731 262.554 397.925C262.372 398.112 262.232 398.341 262.132 398.61C262.033 398.88 261.974 399.182 261.956 399.516L261.473 399.551C261.473 398.953 261.532 398.399 261.649 397.89C261.766 397.38 261.942 396.932 262.176 396.545C262.416 396.158 262.715 395.856 263.073 395.64C263.436 395.423 263.855 395.314 264.329 395.314C264.458 395.314 264.596 395.326 264.742 395.35C264.895 395.373 265.009 395.399 265.085 395.429Z" fill="#20244F"/>
<path opacity="0.298007" d="M324.284 393.908L320.461 405H318.149L322.966 392.203H324.442L324.284 393.908ZM327.483 405L323.651 393.908L323.484 392.203H324.97L329.804 405H327.483ZM327.299 400.254V402.003H320.338V400.254H327.299ZM332.747 397.318V408.656H330.629V395.49H332.58L332.747 397.318ZM338.944 400.157V400.342C338.944 401.033 338.861 401.675 338.697 402.267C338.539 402.853 338.302 403.365 337.986 403.805C337.675 404.238 337.291 404.575 336.834 404.815C336.377 405.056 335.85 405.176 335.252 405.176C334.66 405.176 334.142 405.067 333.696 404.851C333.257 404.628 332.885 404.314 332.58 403.91C332.276 403.506 332.029 403.031 331.842 402.486C331.66 401.936 331.531 401.332 331.455 400.676V399.964C331.531 399.267 331.66 398.634 331.842 398.065C332.029 397.497 332.276 397.008 332.58 396.598C332.885 396.188 333.257 395.871 333.696 395.648C334.136 395.426 334.649 395.314 335.235 395.314C335.832 395.314 336.362 395.432 336.825 395.666C337.288 395.895 337.678 396.223 337.994 396.65C338.311 397.072 338.548 397.582 338.706 398.18C338.864 398.771 338.944 399.431 338.944 400.157ZM336.825 400.342V400.157C336.825 399.718 336.784 399.311 336.702 398.936C336.62 398.555 336.491 398.221 336.316 397.934C336.14 397.646 335.914 397.424 335.639 397.266C335.369 397.102 335.044 397.02 334.663 397.02C334.288 397.02 333.966 397.084 333.696 397.213C333.427 397.336 333.201 397.509 333.02 397.731C332.838 397.954 332.697 398.215 332.598 398.514C332.498 398.807 332.428 399.126 332.387 399.472V401.177C332.457 401.599 332.577 401.985 332.747 402.337C332.917 402.688 333.157 402.97 333.468 403.181C333.784 403.386 334.189 403.488 334.681 403.488C335.062 403.488 335.387 403.406 335.656 403.242C335.926 403.078 336.146 402.853 336.316 402.565C336.491 402.272 336.62 401.936 336.702 401.555C336.784 401.174 336.825 400.77 336.825 400.342ZM342.625 397.301V405H340.507V395.49H342.529L342.625 397.301ZM345.534 395.429L345.517 397.397C345.388 397.374 345.247 397.356 345.095 397.345C344.949 397.333 344.802 397.327 344.656 397.327C344.292 397.327 343.973 397.38 343.698 397.485C343.422 397.585 343.191 397.731 343.003 397.925C342.822 398.112 342.681 398.341 342.581 398.61C342.482 398.88 342.423 399.182 342.406 399.516L341.922 399.551C341.922 398.953 341.981 398.399 342.098 397.89C342.215 397.38 342.391 396.932 342.625 396.545C342.866 396.158 343.164 395.856 343.522 395.64C343.885 395.423 344.304 395.314 344.779 395.314C344.908 395.314 345.045 395.326 345.192 395.35C345.344 395.373 345.458 395.399 345.534 395.429Z" fill="#20244F"/>
<path opacity="0.298007" d="M404.197 392.203H406.166L409.866 402.073L413.558 392.203H415.526L410.64 405H409.075L404.197 392.203ZM403.301 392.203H405.173L405.498 400.746V405H403.301V392.203ZM414.551 392.203H416.432V405H414.226V400.746L414.551 392.203ZM423.954 403.093V398.558C423.954 398.218 423.893 397.925 423.77 397.679C423.647 397.433 423.459 397.242 423.207 397.107C422.961 396.973 422.651 396.905 422.276 396.905C421.93 396.905 421.631 396.964 421.379 397.081C421.127 397.198 420.931 397.356 420.79 397.556C420.65 397.755 420.579 397.98 420.579 398.232H418.47C418.47 397.857 418.561 397.494 418.742 397.143C418.924 396.791 419.188 396.478 419.533 396.202C419.879 395.927 420.292 395.71 420.773 395.552C421.253 395.394 421.792 395.314 422.39 395.314C423.105 395.314 423.737 395.435 424.288 395.675C424.845 395.915 425.281 396.278 425.598 396.765C425.92 397.245 426.081 397.849 426.081 398.575V402.803C426.081 403.236 426.111 403.626 426.169 403.972C426.234 404.312 426.324 404.607 426.442 404.859V405H424.271C424.171 404.771 424.092 404.481 424.033 404.13C423.981 403.772 423.954 403.427 423.954 403.093ZM424.262 399.217L424.279 400.526H422.759C422.366 400.526 422.021 400.564 421.722 400.641C421.423 400.711 421.174 400.816 420.975 400.957C420.776 401.098 420.626 401.268 420.527 401.467C420.427 401.666 420.377 401.892 420.377 402.144C420.377 402.396 420.436 402.627 420.553 402.838C420.67 403.043 420.84 403.204 421.063 403.321C421.291 403.438 421.567 403.497 421.889 403.497C422.322 403.497 422.7 403.409 423.023 403.233C423.351 403.052 423.609 402.832 423.796 402.574C423.984 402.311 424.083 402.062 424.095 401.827L424.78 402.768C424.71 403.008 424.59 403.266 424.42 403.541C424.25 403.816 424.027 404.08 423.752 404.332C423.483 404.578 423.157 404.78 422.777 404.938C422.402 405.097 421.968 405.176 421.476 405.176C420.855 405.176 420.301 405.053 419.815 404.807C419.328 404.555 418.947 404.218 418.672 403.796C418.397 403.368 418.259 402.885 418.259 402.346C418.259 401.842 418.353 401.396 418.54 401.01C418.734 400.617 419.015 400.289 419.384 400.025C419.759 399.762 420.216 399.562 420.755 399.428C421.294 399.287 421.909 399.217 422.601 399.217H424.262ZM430.668 403.963L433.252 395.49H435.52L431.705 406.45C431.617 406.685 431.503 406.939 431.363 407.215C431.222 407.49 431.037 407.751 430.809 407.997C430.586 408.249 430.308 408.451 429.974 408.604C429.64 408.762 429.236 408.841 428.761 408.841C428.574 408.841 428.392 408.823 428.216 408.788C428.046 408.759 427.885 408.727 427.733 408.691L427.724 407.074C427.783 407.08 427.853 407.086 427.935 407.092C428.023 407.098 428.093 407.101 428.146 407.101C428.497 407.101 428.79 407.057 429.025 406.969C429.259 406.887 429.45 406.752 429.596 406.564C429.748 406.377 429.877 406.125 429.983 405.809L430.668 403.963ZM429.209 395.49L431.468 402.609L431.846 404.842L430.378 405.22L426.924 395.49H429.209Z" fill="#20244F"/>
<path opacity="0.298007" d="M492.565 401.159V392.203H494.763V401.159C494.763 402.009 494.581 402.732 494.218 403.33C493.854 403.928 493.359 404.385 492.732 404.701C492.105 405.018 491.394 405.176 490.597 405.176C489.782 405.176 489.059 405.038 488.426 404.763C487.799 404.487 487.307 404.065 486.949 403.497C486.592 402.929 486.413 402.208 486.413 401.335H488.628C488.628 401.839 488.707 402.246 488.865 402.557C489.029 402.861 489.258 403.084 489.551 403.225C489.85 403.359 490.198 403.427 490.597 403.427C490.978 403.427 491.314 403.342 491.607 403.172C491.906 402.996 492.141 402.741 492.311 402.407C492.48 402.067 492.565 401.651 492.565 401.159ZM502.567 402.759V395.49H504.694V405H502.69L502.567 402.759ZM502.865 400.781L503.577 400.764C503.577 401.402 503.507 401.991 503.366 402.53C503.226 403.063 503.009 403.529 502.716 403.928C502.423 404.32 502.048 404.628 501.591 404.851C501.134 405.067 500.586 405.176 499.947 405.176C499.485 405.176 499.06 405.108 498.673 404.974C498.286 404.839 497.952 404.631 497.671 404.35C497.396 404.068 497.182 403.702 497.029 403.251C496.877 402.8 496.801 402.261 496.801 401.634V395.49H498.919V401.651C498.919 401.997 498.96 402.287 499.042 402.521C499.124 402.75 499.236 402.935 499.376 403.075C499.517 403.216 499.681 403.315 499.868 403.374C500.056 403.433 500.255 403.462 500.466 403.462C501.069 403.462 501.544 403.345 501.89 403.11C502.241 402.87 502.49 402.548 502.637 402.144C502.789 401.739 502.865 401.285 502.865 400.781ZM508.718 397.521V405H506.6V395.49H508.595L508.718 397.521ZM508.34 399.894L507.655 399.885C507.66 399.211 507.754 398.593 507.936 398.03C508.123 397.468 508.381 396.984 508.709 396.58C509.043 396.176 509.442 395.865 509.905 395.648C510.367 395.426 510.883 395.314 511.451 395.314C511.909 395.314 512.322 395.379 512.691 395.508C513.066 395.631 513.385 395.833 513.649 396.114C513.918 396.396 514.123 396.762 514.264 397.213C514.405 397.658 514.475 398.206 514.475 398.856V405H512.348V398.848C512.348 398.391 512.281 398.03 512.146 397.767C512.017 397.497 511.826 397.307 511.575 397.195C511.328 397.078 511.021 397.02 510.652 397.02C510.288 397.02 509.963 397.096 509.676 397.248C509.389 397.4 509.146 397.608 508.947 397.872C508.753 398.136 508.604 398.44 508.498 398.786C508.393 399.132 508.34 399.501 508.34 399.894Z" fill="#20244F"/>
<path opacity="0.298007" d="M576.565 401.159V392.203H578.763V401.159C578.763 402.009 578.581 402.732 578.218 403.33C577.854 403.928 577.359 404.385 576.732 404.701C576.105 405.018 575.394 405.176 574.597 405.176C573.782 405.176 573.059 405.038 572.426 404.763C571.799 404.487 571.307 404.065 570.949 403.497C570.592 402.929 570.413 402.208 570.413 401.335H572.628C572.628 401.839 572.707 402.246 572.865 402.557C573.029 402.861 573.258 403.084 573.551 403.225C573.85 403.359 574.198 403.427 574.597 403.427C574.978 403.427 575.314 403.342 575.607 403.172C575.906 402.996 576.141 402.741 576.311 402.407C576.48 402.067 576.565 401.651 576.565 401.159ZM586.567 402.759V395.49H588.694V405H586.69L586.567 402.759ZM586.865 400.781L587.577 400.764C587.577 401.402 587.507 401.991 587.366 402.53C587.226 403.063 587.009 403.529 586.716 403.928C586.423 404.32 586.048 404.628 585.591 404.851C585.134 405.067 584.586 405.176 583.947 405.176C583.485 405.176 583.06 405.108 582.673 404.974C582.286 404.839 581.952 404.631 581.671 404.35C581.396 404.068 581.182 403.702 581.029 403.251C580.877 402.8 580.801 402.261 580.801 401.634V395.49H582.919V401.651C582.919 401.997 582.96 402.287 583.042 402.521C583.124 402.75 583.236 402.935 583.376 403.075C583.517 403.216 583.681 403.315 583.868 403.374C584.056 403.433 584.255 403.462 584.466 403.462C585.069 403.462 585.544 403.345 585.89 403.11C586.241 402.87 586.49 402.548 586.637 402.144C586.789 401.739 586.865 401.285 586.865 400.781ZM592.885 391.5V405H590.758V391.5H592.885Z" fill="#20244F"/>
<path opacity="0.298007" d="M660.284 393.908L656.461 405H654.149L658.966 392.203H660.442L660.284 393.908ZM663.483 405L659.651 393.908L659.484 392.203H660.97L665.804 405H663.483ZM663.299 400.254V402.003H656.338V400.254H663.299ZM672.395 402.759V395.49H674.522V405H672.518L672.395 402.759ZM672.694 400.781L673.405 400.764C673.405 401.402 673.335 401.991 673.194 402.53C673.054 403.063 672.837 403.529 672.544 403.928C672.251 404.32 671.876 404.628 671.419 404.851C670.962 405.067 670.414 405.176 669.776 405.176C669.313 405.176 668.888 405.108 668.501 404.974C668.114 404.839 667.78 404.631 667.499 404.35C667.224 404.068 667.01 403.702 666.858 403.251C666.705 402.8 666.629 402.261 666.629 401.634V395.49H668.747V401.651C668.747 401.997 668.788 402.287 668.87 402.521C668.952 402.75 669.064 402.935 669.204 403.075C669.345 403.216 669.509 403.315 669.696 403.374C669.884 403.433 670.083 403.462 670.294 403.462C670.898 403.462 671.372 403.345 671.718 403.11C672.069 402.87 672.319 402.548 672.465 402.144C672.617 401.739 672.694 401.285 672.694 400.781ZM682.536 395.49H684.461V404.736C684.461 405.592 684.28 406.318 683.916 406.916C683.553 407.514 683.046 407.968 682.396 408.278C681.745 408.595 680.992 408.753 680.137 408.753C679.774 408.753 679.369 408.7 678.924 408.595C678.485 408.489 678.057 408.319 677.641 408.085C677.231 407.856 676.888 407.555 676.613 407.18L677.606 405.932C677.946 406.336 678.321 406.632 678.731 406.819C679.141 407.007 679.572 407.101 680.023 407.101C680.509 407.101 680.922 407.01 681.262 406.828C681.608 406.652 681.874 406.392 682.062 406.046C682.249 405.7 682.343 405.278 682.343 404.78V397.644L682.536 395.49ZM676.076 400.351V400.166C676.076 399.445 676.164 398.789 676.34 398.197C676.516 397.6 676.768 397.087 677.096 396.659C677.424 396.226 677.823 395.895 678.291 395.666C678.76 395.432 679.29 395.314 679.882 395.314C680.497 395.314 681.022 395.426 681.455 395.648C681.895 395.871 682.261 396.19 682.554 396.606C682.847 397.017 683.076 397.509 683.24 398.083C683.409 398.651 683.535 399.284 683.617 399.981V400.57C683.541 401.25 683.412 401.871 683.231 402.434C683.049 402.996 682.809 403.482 682.51 403.893C682.211 404.303 681.842 404.619 681.403 404.842C680.969 405.064 680.456 405.176 679.865 405.176C679.284 405.176 678.76 405.056 678.291 404.815C677.828 404.575 677.43 404.238 677.096 403.805C676.768 403.371 676.516 402.861 676.34 402.275C676.164 401.684 676.076 401.042 676.076 400.351ZM678.195 400.166V400.351C678.195 400.784 678.236 401.188 678.318 401.563C678.406 401.938 678.537 402.27 678.713 402.557C678.895 402.838 679.123 403.061 679.399 403.225C679.68 403.383 680.011 403.462 680.392 403.462C680.89 403.462 681.297 403.356 681.614 403.146C681.936 402.935 682.182 402.65 682.352 402.293C682.528 401.93 682.651 401.525 682.721 401.08V399.489C682.686 399.144 682.613 398.821 682.501 398.522C682.396 398.224 682.252 397.963 682.071 397.74C681.889 397.512 681.66 397.336 681.385 397.213C681.11 397.084 680.784 397.02 680.409 397.02C680.029 397.02 679.698 397.102 679.416 397.266C679.135 397.43 678.904 397.655 678.722 397.942C678.546 398.229 678.414 398.563 678.326 398.944C678.239 399.325 678.195 399.732 678.195 400.166Z" fill="#20244F"/>
<path opacity="0.298007" d="M746.033 401.704C746.033 401.44 745.992 401.206 745.91 401.001C745.834 400.796 745.696 400.608 745.497 400.438C745.298 400.269 745.017 400.104 744.653 399.946C744.296 399.782 743.839 399.615 743.282 399.445C742.673 399.258 742.11 399.05 741.595 398.821C741.085 398.587 740.64 398.317 740.259 398.013C739.878 397.702 739.582 397.348 739.371 396.949C739.16 396.545 739.055 396.079 739.055 395.552C739.055 395.03 739.163 394.556 739.38 394.128C739.603 393.7 739.916 393.331 740.32 393.021C740.73 392.704 741.214 392.461 741.771 392.291C742.327 392.115 742.942 392.027 743.616 392.027C744.565 392.027 745.383 392.203 746.068 392.555C746.76 392.906 747.29 393.378 747.659 393.97C748.034 394.562 748.222 395.215 748.222 395.93H746.033C746.033 395.508 745.942 395.136 745.761 394.813C745.585 394.485 745.315 394.228 744.952 394.04C744.595 393.853 744.141 393.759 743.59 393.759C743.068 393.759 742.635 393.838 742.289 393.996C741.943 394.154 741.686 394.368 741.516 394.638C741.346 394.907 741.261 395.212 741.261 395.552C741.261 395.792 741.316 396.012 741.428 396.211C741.539 396.404 741.709 396.586 741.938 396.756C742.166 396.92 742.453 397.075 742.799 397.222C743.145 397.368 743.552 397.509 744.021 397.644C744.729 397.854 745.348 398.089 745.875 398.347C746.402 398.599 746.842 398.886 747.193 399.208C747.545 399.53 747.809 399.896 747.984 400.307C748.16 400.711 748.248 401.171 748.248 401.687C748.248 402.226 748.14 402.712 747.923 403.146C747.706 403.573 747.396 403.939 746.991 404.244C746.593 404.543 746.112 404.774 745.55 404.938C744.993 405.097 744.372 405.176 743.687 405.176C743.071 405.176 742.465 405.094 741.867 404.93C741.275 404.766 740.736 404.517 740.25 404.183C739.764 403.843 739.377 403.421 739.09 402.917C738.803 402.407 738.659 401.812 738.659 401.133H740.865C740.865 401.549 740.936 401.903 741.076 402.196C741.223 402.489 741.425 402.729 741.683 402.917C741.94 403.099 742.239 403.233 742.579 403.321C742.925 403.409 743.294 403.453 743.687 403.453C744.202 403.453 744.633 403.38 744.979 403.233C745.33 403.087 745.594 402.882 745.77 402.618C745.945 402.354 746.033 402.05 746.033 401.704ZM753.934 405.176C753.231 405.176 752.595 405.062 752.027 404.833C751.464 404.599 750.984 404.273 750.585 403.857C750.193 403.441 749.891 402.952 749.68 402.39C749.469 401.827 749.363 401.221 749.363 400.57V400.219C749.363 399.475 749.472 398.801 749.689 398.197C749.905 397.594 750.207 397.078 750.594 396.65C750.981 396.217 751.438 395.886 751.965 395.657C752.492 395.429 753.064 395.314 753.679 395.314C754.359 395.314 754.953 395.429 755.463 395.657C755.973 395.886 756.395 396.208 756.729 396.624C757.069 397.034 757.32 397.523 757.485 398.092C757.654 398.66 757.739 399.287 757.739 399.973V400.878H750.392V399.357H755.648V399.19C755.636 398.81 755.56 398.452 755.419 398.118C755.284 397.784 755.076 397.515 754.795 397.31C754.514 397.104 754.139 397.002 753.67 397.002C753.319 397.002 753.005 397.078 752.73 397.23C752.46 397.377 752.235 397.591 752.053 397.872C751.871 398.153 751.731 398.493 751.631 398.892C751.537 399.284 751.49 399.727 751.49 400.219V400.57C751.49 400.986 751.546 401.373 751.657 401.73C751.775 402.082 751.944 402.39 752.167 402.653C752.39 402.917 752.659 403.125 752.976 403.277C753.292 403.424 753.652 403.497 754.057 403.497C754.567 403.497 755.021 403.395 755.419 403.189C755.818 402.984 756.163 402.694 756.456 402.319L757.572 403.4C757.367 403.699 757.101 403.986 756.773 404.262C756.444 404.531 756.043 404.751 755.569 404.921C755.1 405.091 754.555 405.176 753.934 405.176ZM761.272 397.318V408.656H759.154V395.49H761.105L761.272 397.318ZM767.468 400.157V400.342C767.468 401.033 767.386 401.675 767.222 402.267C767.064 402.853 766.826 403.365 766.51 403.805C766.2 404.238 765.816 404.575 765.359 404.815C764.902 405.056 764.374 405.176 763.777 405.176C763.185 405.176 762.666 405.067 762.221 404.851C761.782 404.628 761.409 404.314 761.105 403.91C760.8 403.506 760.554 403.031 760.367 402.486C760.185 401.936 760.056 401.332 759.98 400.676V399.964C760.056 399.267 760.185 398.634 760.367 398.065C760.554 397.497 760.8 397.008 761.105 396.598C761.409 396.188 761.782 395.871 762.221 395.648C762.66 395.426 763.173 395.314 763.759 395.314C764.357 395.314 764.887 395.432 765.35 395.666C765.813 395.895 766.202 396.223 766.519 396.65C766.835 397.072 767.073 397.582 767.231 398.18C767.389 398.771 767.468 399.431 767.468 400.157ZM765.35 400.342V400.157C765.35 399.718 765.309 399.311 765.227 398.936C765.145 398.555 765.016 398.221 764.84 397.934C764.664 397.646 764.439 397.424 764.163 397.266C763.894 397.102 763.569 397.02 763.188 397.02C762.813 397.02 762.491 397.084 762.221 397.213C761.951 397.336 761.726 397.509 761.544 397.731C761.363 397.954 761.222 398.215 761.122 398.514C761.023 398.807 760.952 399.126 760.911 399.472V401.177C760.982 401.599 761.102 401.985 761.272 402.337C761.442 402.688 761.682 402.97 761.992 403.181C762.309 403.386 762.713 403.488 763.205 403.488C763.586 403.488 763.911 403.406 764.181 403.242C764.451 403.078 764.67 402.853 764.84 402.565C765.016 402.272 765.145 401.936 765.227 401.555C765.309 401.174 765.35 400.77 765.35 400.342Z" fill="#20244F"/>
<path opacity="0.298007" d="M833.505 398.25V398.953C833.505 399.92 833.379 400.787 833.127 401.555C832.875 402.322 832.515 402.976 832.046 403.515C831.583 404.054 831.026 404.467 830.376 404.754C829.726 405.035 829.005 405.176 828.214 405.176C827.429 405.176 826.711 405.035 826.061 404.754C825.416 404.467 824.856 404.054 824.382 403.515C823.907 402.976 823.538 402.322 823.274 401.555C823.017 400.787 822.888 399.92 822.888 398.953V398.25C822.888 397.283 823.017 396.419 823.274 395.657C823.532 394.89 823.896 394.236 824.364 393.697C824.839 393.152 825.398 392.739 826.043 392.458C826.693 392.171 827.411 392.027 828.196 392.027C828.987 392.027 829.708 392.171 830.358 392.458C831.009 392.739 831.568 393.152 832.037 393.697C832.506 394.236 832.866 394.89 833.118 395.657C833.376 396.419 833.505 397.283 833.505 398.25ZM831.299 398.953V398.232C831.299 397.518 831.229 396.888 831.088 396.343C830.953 395.792 830.751 395.332 830.481 394.963C830.218 394.588 829.893 394.307 829.506 394.119C829.119 393.926 828.683 393.829 828.196 393.829C827.71 393.829 827.276 393.926 826.896 394.119C826.515 394.307 826.189 394.588 825.92 394.963C825.656 395.332 825.454 395.792 825.313 396.343C825.173 396.888 825.103 397.518 825.103 398.232V398.953C825.103 399.668 825.173 400.301 825.313 400.852C825.454 401.402 825.659 401.868 825.929 402.249C826.204 402.624 826.532 402.908 826.913 403.102C827.294 403.289 827.728 403.383 828.214 403.383C828.706 403.383 829.143 403.289 829.523 403.102C829.904 402.908 830.227 402.624 830.49 402.249C830.754 401.868 830.953 401.402 831.088 400.852C831.229 400.301 831.299 399.668 831.299 398.953ZM839.138 403.488C839.484 403.488 839.794 403.421 840.069 403.286C840.351 403.146 840.576 402.952 840.746 402.706C840.922 402.46 841.019 402.176 841.036 401.854H843.031C843.02 402.469 842.838 403.028 842.486 403.532C842.135 404.036 841.669 404.438 841.089 404.736C840.509 405.029 839.867 405.176 839.164 405.176C838.438 405.176 837.805 405.053 837.266 404.807C836.727 404.555 836.278 404.209 835.921 403.77C835.564 403.33 835.294 402.823 835.112 402.249C834.937 401.675 834.849 401.06 834.849 400.403V400.096C834.849 399.439 834.937 398.824 835.112 398.25C835.294 397.67 835.564 397.16 835.921 396.721C836.278 396.281 836.727 395.938 837.266 395.692C837.805 395.44 838.435 395.314 839.155 395.314C839.917 395.314 840.585 395.467 841.159 395.771C841.734 396.07 842.185 396.489 842.513 397.028C842.847 397.562 843.02 398.183 843.031 398.892H841.036C841.019 398.54 840.931 398.224 840.773 397.942C840.62 397.655 840.403 397.427 840.122 397.257C839.847 397.087 839.516 397.002 839.129 397.002C838.701 397.002 838.347 397.09 838.066 397.266C837.784 397.436 837.565 397.67 837.406 397.969C837.248 398.262 837.134 398.593 837.064 398.962C836.999 399.325 836.967 399.703 836.967 400.096V400.403C836.967 400.796 836.999 401.177 837.064 401.546C837.128 401.915 837.239 402.246 837.398 402.539C837.562 402.826 837.784 403.058 838.066 403.233C838.347 403.403 838.704 403.488 839.138 403.488ZM848.77 395.49V397.037H843.409V395.49H848.77ZM844.955 393.161H847.074V402.372C847.074 402.665 847.115 402.891 847.197 403.049C847.284 403.201 847.405 403.304 847.557 403.356C847.709 403.409 847.888 403.436 848.093 403.436C848.24 403.436 848.38 403.427 848.515 403.409C848.65 403.392 848.758 403.374 848.84 403.356L848.849 404.974C848.673 405.026 848.468 405.073 848.234 405.114C848.005 405.155 847.742 405.176 847.443 405.176C846.956 405.176 846.526 405.091 846.151 404.921C845.776 404.745 845.483 404.461 845.272 404.068C845.061 403.676 844.955 403.154 844.955 402.504V393.161Z" fill="#20244F"/>
<path opacity="0.298007" d="M917.452 392.203V405H915.246L909.507 395.833V405H907.301V392.203H909.507L915.264 401.388V392.203H917.452ZM919.218 400.351V400.148C919.218 399.463 919.318 398.827 919.517 398.241C919.716 397.649 920.003 397.137 920.378 396.703C920.759 396.264 921.222 395.924 921.767 395.684C922.318 395.438 922.939 395.314 923.63 395.314C924.327 395.314 924.948 395.438 925.493 395.684C926.044 395.924 926.51 396.264 926.891 396.703C927.272 397.137 927.562 397.649 927.761 398.241C927.96 398.827 928.06 399.463 928.06 400.148V400.351C928.06 401.036 927.96 401.672 927.761 402.258C927.562 402.844 927.272 403.356 926.891 403.796C926.51 404.229 926.047 404.569 925.502 404.815C924.957 405.056 924.339 405.176 923.648 405.176C922.95 405.176 922.326 405.056 921.776 404.815C921.231 404.569 920.768 404.229 920.387 403.796C920.006 403.356 919.716 402.844 919.517 402.258C919.318 401.672 919.218 401.036 919.218 400.351ZM921.336 400.148V400.351C921.336 400.778 921.38 401.183 921.468 401.563C921.556 401.944 921.694 402.278 921.881 402.565C922.069 402.853 922.309 403.078 922.602 403.242C922.895 403.406 923.243 403.488 923.648 403.488C924.04 403.488 924.38 403.406 924.667 403.242C924.96 403.078 925.2 402.853 925.388 402.565C925.575 402.278 925.713 401.944 925.801 401.563C925.895 401.183 925.942 400.778 925.942 400.351V400.148C925.942 399.727 925.895 399.328 925.801 398.953C925.713 398.572 925.572 398.235 925.379 397.942C925.192 397.649 924.951 397.421 924.658 397.257C924.371 397.087 924.028 397.002 923.63 397.002C923.232 397.002 922.886 397.087 922.593 397.257C922.306 397.421 922.069 397.649 921.881 397.942C921.694 398.235 921.556 398.572 921.468 398.953C921.38 399.328 921.336 399.727 921.336 400.148ZM932.541 403.321L934.87 395.49H937.068L933.763 405H932.392L932.541 403.321ZM930.757 395.49L933.13 403.356L933.244 405H931.873L928.551 395.49H930.757Z" fill="#20244F"/>
<path opacity="0.298007" d="M995.019 405H992.285L992.303 403.251H995.019C995.81 403.251 996.472 403.078 997.005 402.732C997.544 402.387 997.948 401.892 998.218 401.247C998.493 400.603 998.631 399.835 998.631 398.944V398.25C998.631 397.559 998.552 396.946 998.394 396.413C998.241 395.88 998.013 395.432 997.708 395.068C997.409 394.705 997.04 394.43 996.601 394.242C996.167 394.055 995.666 393.961 995.098 393.961H992.232V392.203H995.098C995.947 392.203 996.724 392.347 997.427 392.634C998.13 392.915 998.736 393.322 999.246 393.855C999.762 394.389 1000.16 395.027 1000.43 395.771C1000.71 396.516 1000.85 397.348 1000.85 398.268V398.944C1000.85 399.864 1000.71 400.696 1000.43 401.44C1000.16 402.185 999.762 402.823 999.246 403.356C998.73 403.884 998.115 404.291 997.4 404.578C996.691 404.859 995.897 405 995.019 405ZM993.507 392.203V405H991.301V392.203H993.507ZM1006.8 405.176C1006.09 405.176 1005.46 405.062 1004.89 404.833C1004.33 404.599 1003.84 404.273 1003.45 403.857C1003.05 403.441 1002.75 402.952 1002.54 402.39C1002.33 401.827 1002.22 401.221 1002.22 400.57V400.219C1002.22 399.475 1002.33 398.801 1002.55 398.197C1002.77 397.594 1003.07 397.078 1003.46 396.65C1003.84 396.217 1004.3 395.886 1004.83 395.657C1005.35 395.429 1005.92 395.314 1006.54 395.314C1007.22 395.314 1007.81 395.429 1008.32 395.657C1008.83 395.886 1009.26 396.208 1009.59 396.624C1009.93 397.034 1010.18 397.523 1010.35 398.092C1010.52 398.66 1010.6 399.287 1010.6 399.973V400.878H1003.25V399.357H1008.51V399.19C1008.5 398.81 1008.42 398.452 1008.28 398.118C1008.15 397.784 1007.94 397.515 1007.66 397.31C1007.38 397.104 1007 397.002 1006.53 397.002C1006.18 397.002 1005.87 397.078 1005.59 397.23C1005.32 397.377 1005.1 397.591 1004.91 397.872C1004.73 398.153 1004.59 398.493 1004.49 398.892C1004.4 399.284 1004.35 399.727 1004.35 400.219V400.57C1004.35 400.986 1004.41 401.373 1004.52 401.73C1004.64 402.082 1004.81 402.39 1005.03 402.653C1005.25 402.917 1005.52 403.125 1005.84 403.277C1006.15 403.424 1006.51 403.497 1006.92 403.497C1007.43 403.497 1007.88 403.395 1008.28 403.189C1008.68 402.984 1009.02 402.694 1009.32 402.319L1010.43 403.4C1010.23 403.699 1009.96 403.986 1009.63 404.262C1009.31 404.531 1008.9 404.751 1008.43 404.921C1007.96 405.091 1007.42 405.176 1006.8 405.176ZM1015.89 403.488C1016.24 403.488 1016.55 403.421 1016.82 403.286C1017.1 403.146 1017.33 402.952 1017.5 402.706C1017.68 402.46 1017.77 402.176 1017.79 401.854H1019.78C1019.77 402.469 1019.59 403.028 1019.24 403.532C1018.89 404.036 1018.42 404.438 1017.84 404.736C1017.26 405.029 1016.62 405.176 1015.92 405.176C1015.19 405.176 1014.56 405.053 1014.02 404.807C1013.48 404.555 1013.03 404.209 1012.67 403.77C1012.32 403.33 1012.05 402.823 1011.87 402.249C1011.69 401.675 1011.6 401.06 1011.6 400.403V400.096C1011.6 399.439 1011.69 398.824 1011.87 398.25C1012.05 397.67 1012.32 397.16 1012.67 396.721C1013.03 396.281 1013.48 395.938 1014.02 395.692C1014.56 395.44 1015.19 395.314 1015.91 395.314C1016.67 395.314 1017.34 395.467 1017.91 395.771C1018.49 396.07 1018.94 396.489 1019.27 397.028C1019.6 397.562 1019.77 398.183 1019.78 398.892H1017.79C1017.77 398.54 1017.68 398.224 1017.53 397.942C1017.37 397.655 1017.16 397.427 1016.88 397.257C1016.6 397.087 1016.27 397.002 1015.88 397.002C1015.45 397.002 1015.1 397.09 1014.82 397.266C1014.54 397.436 1014.32 397.67 1014.16 397.969C1014 398.262 1013.89 398.593 1013.82 398.962C1013.75 399.325 1013.72 399.703 1013.72 400.096V400.403C1013.72 400.796 1013.75 401.177 1013.82 401.546C1013.88 401.915 1013.99 402.246 1014.15 402.539C1014.31 402.826 1014.54 403.058 1014.82 403.233C1015.1 403.403 1015.46 403.488 1015.89 403.488Z" fill="#20244F"/>
<path opacity="0.499535" d="M3.26074 399.173L1.23926 398.689L1.96875 392.203H9.1582V394.251H4.05176L3.73535 397.09C3.90527 396.99 4.16309 396.885 4.50879 396.773C4.85449 396.656 5.24121 396.598 5.66895 396.598C6.29004 396.598 6.84082 396.694 7.32129 396.888C7.80176 397.081 8.20898 397.362 8.54297 397.731C8.88281 398.101 9.14062 398.552 9.31641 399.085C9.49219 399.618 9.58008 400.222 9.58008 400.896C9.58008 401.464 9.49219 402.006 9.31641 402.521C9.14062 403.031 8.87402 403.488 8.5166 403.893C8.15918 404.291 7.71094 404.604 7.17188 404.833C6.63281 405.062 5.99414 405.176 5.25586 405.176C4.70508 405.176 4.17188 405.094 3.65625 404.93C3.14648 404.766 2.68652 404.522 2.27637 404.2C1.87207 403.878 1.54688 403.488 1.30078 403.031C1.06055 402.568 0.93457 402.041 0.922852 401.449H3.43652C3.47168 401.812 3.56543 402.126 3.71777 402.39C3.87598 402.647 4.08398 402.847 4.3418 402.987C4.59961 403.128 4.90137 403.198 5.24707 403.198C5.56934 403.198 5.84473 403.137 6.07324 403.014C6.30176 402.891 6.48633 402.721 6.62695 402.504C6.76758 402.281 6.87012 402.023 6.93457 401.73C7.00488 401.432 7.04004 401.109 7.04004 400.764C7.04004 400.418 6.99902 400.104 6.91699 399.823C6.83496 399.542 6.70898 399.299 6.53906 399.094C6.36914 398.889 6.15234 398.73 5.88867 398.619C5.63086 398.508 5.3291 398.452 4.9834 398.452C4.51465 398.452 4.15137 398.525 3.89355 398.672C3.6416 398.818 3.43066 398.985 3.26074 399.173ZM19.5812 397.477V399.691C19.5812 400.652 19.4787 401.481 19.2736 402.179C19.0685 402.87 18.7726 403.438 18.3859 403.884C18.005 404.323 17.5509 404.648 17.0236 404.859C16.4962 405.07 15.9103 405.176 15.2658 405.176C14.7502 405.176 14.2697 405.111 13.8244 404.982C13.3791 404.848 12.9777 404.64 12.6203 404.358C12.2687 404.077 11.964 403.723 11.7062 403.295C11.4543 402.861 11.2609 402.346 11.1261 401.748C10.9914 401.15 10.924 400.465 10.924 399.691V397.477C10.924 396.516 11.0265 395.692 11.2316 395.007C11.4425 394.315 11.7384 393.75 12.1193 393.311C12.506 392.871 12.963 392.549 13.4904 392.344C14.0177 392.133 14.6037 392.027 15.2482 392.027C15.7638 392.027 16.2414 392.095 16.6808 392.229C17.1261 392.358 17.5275 392.561 17.8849 392.836C18.2423 393.111 18.547 393.466 18.799 393.899C19.0509 394.327 19.2443 394.84 19.3791 395.438C19.5138 396.029 19.5812 396.709 19.5812 397.477ZM17.0412 400.025V397.134C17.0412 396.671 17.0148 396.267 16.9621 395.921C16.9152 395.575 16.842 395.282 16.7423 395.042C16.6427 394.796 16.5197 394.597 16.3732 394.444C16.2267 394.292 16.0597 394.181 15.8722 394.11C15.6847 394.04 15.4767 394.005 15.2482 394.005C14.9611 394.005 14.7062 394.061 14.4836 394.172C14.2668 394.283 14.0822 394.462 13.9298 394.708C13.7775 394.948 13.6603 395.271 13.5783 395.675C13.5021 396.073 13.464 396.56 13.464 397.134V400.025C13.464 400.488 13.4875 400.896 13.5343 401.247C13.5871 401.599 13.6632 401.9 13.7628 402.152C13.8683 402.398 13.9914 402.601 14.132 402.759C14.2785 402.911 14.4455 403.022 14.633 403.093C14.8263 403.163 15.0373 403.198 15.2658 403.198C15.547 403.198 15.7961 403.143 16.0128 403.031C16.2355 402.914 16.423 402.732 16.5753 402.486C16.7336 402.234 16.8507 401.906 16.9269 401.502C17.0031 401.098 17.0412 400.605 17.0412 400.025ZM29.6702 397.477V399.691C29.6702 400.652 29.5677 401.481 29.3626 402.179C29.1575 402.87 28.8616 403.438 28.4749 403.884C28.0941 404.323 27.64 404.648 27.1126 404.859C26.5853 405.07 25.9993 405.176 25.3548 405.176C24.8392 405.176 24.3587 405.111 23.9134 404.982C23.4681 404.848 23.0667 404.64 22.7093 404.358C22.3577 404.077 22.053 403.723 21.7952 403.295C21.5433 402.861 21.3499 402.346 21.2152 401.748C21.0804 401.15 21.013 400.465 21.013 399.691V397.477C21.013 396.516 21.1155 395.692 21.3206 395.007C21.5316 394.315 21.8275 393.75 22.2083 393.311C22.595 392.871 23.0521 392.549 23.5794 392.344C24.1068 392.133 24.6927 392.027 25.3372 392.027C25.8528 392.027 26.3304 392.095 26.7698 392.229C27.2152 392.358 27.6165 392.561 27.9739 392.836C28.3314 393.111 28.636 393.466 28.888 393.899C29.14 394.327 29.3333 394.84 29.4681 395.438C29.6028 396.029 29.6702 396.709 29.6702 397.477ZM27.1302 400.025V397.134C27.1302 396.671 27.1038 396.267 27.0511 395.921C27.0042 395.575 26.931 395.282 26.8314 395.042C26.7318 394.796 26.6087 394.597 26.4622 394.444C26.3157 394.292 26.1487 394.181 25.9612 394.11C25.7737 394.04 25.5657 394.005 25.3372 394.005C25.0501 394.005 24.7952 394.061 24.5726 394.172C24.3558 394.283 24.1712 394.462 24.0189 394.708C23.8665 394.948 23.7493 395.271 23.6673 395.675C23.5911 396.073 23.553 396.56 23.553 397.134V400.025C23.553 400.488 23.5765 400.896 23.6234 401.247C23.6761 401.599 23.7523 401.9 23.8519 402.152C23.9573 402.398 24.0804 402.601 24.221 402.759C24.3675 402.911 24.5345 403.022 24.722 403.093C24.9153 403.163 25.1263 403.198 25.3548 403.198C25.636 403.198 25.8851 403.143 26.1019 403.031C26.3245 402.914 26.512 402.732 26.6644 402.486C26.8226 402.234 26.9398 401.906 27.0159 401.502C27.0921 401.098 27.1302 400.605 27.1302 400.025Z" fill="#20244F"/>
<path opacity="0.499535" d="M7.04883 330.177V343H4.51758V333.095L1.47656 334.062V332.066L6.77637 330.177H7.04883ZM13.6046 329.491V343H11.0734V329.491H13.6046ZM19.5988 333.49L15.4679 338.201L13.2531 340.442L12.3302 338.614L14.088 336.382L16.5578 333.49H19.5988ZM16.9709 343L14.1584 338.605L15.9074 337.076L19.8888 343H16.9709Z" fill="#20244F"/>
<path opacity="0.499535" d="M9.63281 279.022V281H0.878906V279.312L5.01855 274.874C5.43457 274.411 5.7627 274.004 6.00293 273.652C6.24316 273.295 6.41602 272.976 6.52148 272.694C6.63281 272.407 6.68848 272.135 6.68848 271.877C6.68848 271.49 6.62402 271.159 6.49512 270.884C6.36621 270.603 6.17578 270.386 5.92383 270.233C5.67773 270.081 5.37305 270.005 5.00977 270.005C4.62305 270.005 4.28906 270.099 4.00781 270.286C3.73242 270.474 3.52148 270.734 3.375 271.068C3.23438 271.402 3.16406 271.78 3.16406 272.202H0.624023C0.624023 271.44 0.805664 270.743 1.16895 270.11C1.53223 269.472 2.04492 268.965 2.70703 268.59C3.36914 268.209 4.1543 268.019 5.0625 268.019C5.95898 268.019 6.71484 268.165 7.33008 268.458C7.95117 268.745 8.41992 269.161 8.73633 269.706C9.05859 270.245 9.21973 270.89 9.21973 271.64C9.21973 272.062 9.15234 272.475 9.01758 272.879C8.88281 273.277 8.68945 273.676 8.4375 274.074C8.19141 274.467 7.89258 274.865 7.54102 275.27C7.18945 275.674 6.7998 276.093 6.37207 276.526L4.14844 279.022H9.63281ZM13.6046 267.491V281H11.0734V267.491H13.6046ZM19.5988 271.49L15.4679 276.201L13.2531 278.442L12.3302 276.614L14.088 274.382L16.5578 271.49H19.5988ZM16.9709 281L14.1584 276.605L15.9074 275.076L19.8888 281H16.9709Z" fill="#20244F"/>
<path opacity="0.499535" d="M3.47168 211.503H4.8252C5.25879 211.503 5.61621 211.43 5.89746 211.283C6.17871 211.131 6.38672 210.92 6.52148 210.65C6.66211 210.375 6.73242 210.056 6.73242 209.692C6.73242 209.364 6.66797 209.074 6.53906 208.822C6.41602 208.564 6.22559 208.365 5.96777 208.225C5.70996 208.078 5.38477 208.005 4.99219 208.005C4.68164 208.005 4.39453 208.066 4.13086 208.189C3.86719 208.312 3.65625 208.485 3.49805 208.708C3.33984 208.931 3.26074 209.2 3.26074 209.517H0.720703C0.720703 208.813 0.908203 208.201 1.2832 207.68C1.66406 207.158 2.17383 206.751 2.8125 206.458C3.45117 206.165 4.1543 206.019 4.92188 206.019C5.78906 206.019 6.54785 206.159 7.19824 206.44C7.84863 206.716 8.35547 207.123 8.71875 207.662C9.08203 208.201 9.26367 208.869 9.26367 209.666C9.26367 210.07 9.16992 210.463 8.98242 210.844C8.79492 211.219 8.52539 211.559 8.17383 211.863C7.82812 212.162 7.40625 212.402 6.9082 212.584C6.41016 212.76 5.85059 212.848 5.22949 212.848H3.47168V211.503ZM3.47168 213.428V212.118H5.22949C5.92676 212.118 6.53906 212.197 7.06641 212.355C7.59375 212.514 8.03613 212.742 8.39355 213.041C8.75098 213.334 9.02051 213.683 9.20215 214.087C9.38379 214.485 9.47461 214.928 9.47461 215.414C9.47461 216.012 9.36035 216.545 9.13184 217.014C8.90332 217.477 8.58105 217.869 8.16504 218.191C7.75488 218.514 7.27441 218.76 6.72363 218.93C6.17285 219.094 5.57227 219.176 4.92188 219.176C4.38281 219.176 3.85254 219.103 3.33105 218.956C2.81543 218.804 2.34668 218.578 1.9248 218.279C1.50879 217.975 1.1748 217.594 0.922852 217.137C0.676758 216.674 0.553711 216.126 0.553711 215.493H3.09375C3.09375 215.821 3.17578 216.114 3.33984 216.372C3.50391 216.63 3.72949 216.832 4.0166 216.979C4.30957 217.125 4.63477 217.198 4.99219 217.198C5.39648 217.198 5.74219 217.125 6.0293 216.979C6.32227 216.826 6.54492 216.615 6.69727 216.346C6.85547 216.07 6.93457 215.751 6.93457 215.388C6.93457 214.919 6.84961 214.544 6.67969 214.263C6.50977 213.976 6.2666 213.765 5.9502 213.63C5.63379 213.495 5.25879 213.428 4.8252 213.428H3.47168ZM13.6046 205.491V219H11.0734V205.491H13.6046ZM19.5988 209.49L15.4679 214.201L13.2531 216.442L12.3302 214.614L14.088 212.382L16.5578 209.49H19.5988ZM16.9709 219L14.1584 214.605L15.9074 213.076L19.8888 219H16.9709Z" fill="#20244F"/>
<path opacity="0.499535" d="M9.84375 152.219V154.205H0.624023L0.500977 152.667L5.83594 144.203H7.84863L5.66895 147.851L3.01465 152.219H9.84375ZM8.39355 144.203V157H5.8623V144.203H8.39355ZM13.6046 143.491V157H11.0734V143.491H13.6046ZM19.5988 147.49L15.4679 152.201L13.2531 154.442L12.3302 152.614L14.088 150.382L16.5578 147.49H19.5988ZM16.9709 157L14.1584 152.605L15.9074 151.076L19.8888 157H16.9709Z" fill="#20244F"/>
<path opacity="0.499535" d="M3.26074 89.1729L1.23926 88.6895L1.96875 82.2031H9.1582V84.251H4.05176L3.73535 87.0898C3.90527 86.9902 4.16309 86.8848 4.50879 86.7734C4.85449 86.6562 5.24121 86.5977 5.66895 86.5977C6.29004 86.5977 6.84082 86.6943 7.32129 86.8877C7.80176 87.0811 8.20898 87.3623 8.54297 87.7314C8.88281 88.1006 9.14062 88.5518 9.31641 89.085C9.49219 89.6182 9.58008 90.2217 9.58008 90.8955C9.58008 91.4639 9.49219 92.0059 9.31641 92.5215C9.14062 93.0312 8.87402 93.4883 8.5166 93.8926C8.15918 94.291 7.71094 94.6045 7.17188 94.833C6.63281 95.0615 5.99414 95.1758 5.25586 95.1758C4.70508 95.1758 4.17188 95.0938 3.65625 94.9297C3.14648 94.7656 2.68652 94.5225 2.27637 94.2002C1.87207 93.8779 1.54688 93.4883 1.30078 93.0312C1.06055 92.5684 0.93457 92.041 0.922852 91.4492H3.43652C3.47168 91.8125 3.56543 92.126 3.71777 92.3896C3.87598 92.6475 4.08398 92.8467 4.3418 92.9873C4.59961 93.1279 4.90137 93.1982 5.24707 93.1982C5.56934 93.1982 5.84473 93.1367 6.07324 93.0137C6.30176 92.8906 6.48633 92.7207 6.62695 92.5039C6.76758 92.2812 6.87012 92.0234 6.93457 91.7305C7.00488 91.4316 7.04004 91.1094 7.04004 90.7637C7.04004 90.418 6.99902 90.1045 6.91699 89.8232C6.83496 89.542 6.70898 89.2988 6.53906 89.0938C6.36914 88.8887 6.15234 88.7305 5.88867 88.6191C5.63086 88.5078 5.3291 88.4521 4.9834 88.4521C4.51465 88.4521 4.15137 88.5254 3.89355 88.6719C3.6416 88.8184 3.43066 88.9854 3.26074 89.1729ZM13.6046 81.4912V95H11.0734V81.4912H13.6046ZM19.5988 85.4902L15.4679 90.2012L13.2531 92.4424L12.3302 90.6143L14.088 88.3818L16.5578 85.4902H19.5988ZM16.9709 95L14.1584 90.6055L15.9074 89.0762L19.8888 95H16.9709Z" fill="#20244F"/>
<path opacity="0.499535" d="M7.40918 20.0713H7.77832V22.0928H7.62891C6.96094 22.0928 6.36621 22.1924 5.84473 22.3916C5.32324 22.5908 4.88086 22.875 4.51758 23.2441C4.16016 23.6074 3.88477 24.0469 3.69141 24.5625C3.50391 25.0781 3.41016 25.6553 3.41016 26.2939V28.4209C3.41016 28.8779 3.4541 29.2822 3.54199 29.6338C3.63574 29.9795 3.76758 30.2695 3.9375 30.5039C4.11328 30.7324 4.31836 30.9053 4.55273 31.0225C4.78711 31.1338 5.05078 31.1895 5.34375 31.1895C5.61914 31.1895 5.86816 31.1309 6.09082 31.0137C6.31934 30.8965 6.5127 30.7324 6.6709 30.5215C6.83496 30.3047 6.95801 30.0527 7.04004 29.7656C7.12793 29.4727 7.17188 29.1533 7.17188 28.8076C7.17188 28.4619 7.12793 28.1426 7.04004 27.8496C6.95801 27.5566 6.83496 27.3047 6.6709 27.0938C6.50684 26.877 6.30762 26.71 6.07324 26.5928C5.83887 26.4756 5.5752 26.417 5.28223 26.417C4.88379 26.417 4.53223 26.5107 4.22754 26.6982C3.92871 26.8799 3.69434 27.1143 3.52441 27.4014C3.35449 27.6885 3.26367 27.9902 3.25195 28.3066L2.4873 27.8145C2.50488 27.3633 2.59863 26.9355 2.76855 26.5312C2.94434 26.127 3.18457 25.7695 3.48926 25.459C3.7998 25.1426 4.17188 24.8965 4.60547 24.7207C5.03906 24.5391 5.52832 24.4482 6.07324 24.4482C6.6709 24.4482 7.19531 24.5625 7.64648 24.791C8.10352 25.0195 8.48438 25.333 8.78906 25.7314C9.09375 26.1299 9.32227 26.5898 9.47461 27.1113C9.62695 27.6328 9.70312 28.1895 9.70312 28.7812C9.70312 29.4023 9.60059 29.9795 9.39551 30.5127C9.19629 31.0459 8.90625 31.5117 8.52539 31.9102C8.15039 32.3086 7.69922 32.6191 7.17188 32.8418C6.64453 33.0645 6.05273 33.1758 5.39648 33.1758C4.7168 33.1758 4.09863 33.0527 3.54199 32.8066C2.99121 32.5547 2.5166 32.2031 2.11816 31.752C1.71973 31.3008 1.41211 30.7646 1.19531 30.1436C0.984375 29.5225 0.878906 28.8428 0.878906 28.1045V27.1201C0.878906 26.0889 1.02832 25.1455 1.32715 24.29C1.63184 23.4287 2.06836 22.6846 2.63672 22.0576C3.20508 21.4248 3.89062 20.9355 4.69336 20.5898C5.49609 20.2441 6.40137 20.0713 7.40918 20.0713ZM13.6046 19.4912V33H11.0734V19.4912H13.6046ZM19.5988 23.4902L15.4679 28.2012L13.2531 30.4424L12.3302 28.6143L14.088 26.3818L16.5578 23.4902H19.5988ZM16.9709 33L14.1584 28.6055L15.9074 27.0762L19.8888 33H16.9709Z" fill="#20244F"/>
<rect x="82" y="336" width="928" height="2" rx="1" fill="#797C95" fill-opacity="0.0904071"/>
<rect x="82" y="274" width="928" height="2" rx="1" fill="#797C95" fill-opacity="0.0904071"/>
<rect x="82" y="212" width="928" height="2" rx="1" fill="#797C95" fill-opacity="0.0904071"/>
<rect x="82" y="150" width="928" height="2" rx="1" fill="#797C95" fill-opacity="0.0904071"/>
<rect x="82" y="88" width="928" height="2" rx="1" fill="#797C95" fill-opacity="0.0904071"/>
<rect x="82" y="26" width="928" height="2" rx="1" fill="#797C95" fill-opacity="0.0904071"/>
<g opacity="0.384932">
<rect x="503" y="339" width="312" height="2" rx="1" transform="rotate(-90 503 339)" fill="#797C95" fill-opacity="0.0904071"/>
<rect x="419" y="339" width="312" height="2" rx="1" transform="rotate(-90 419 339)" fill="#797C95" fill-opacity="0.0904071"/>
<rect x="335" y="339" width="312" height="2" rx="1" transform="rotate(-90 335 339)" fill="#797C95" fill-opacity="0.0904071"/>
<rect x="251" y="339" width="312" height="2" rx="1" transform="rotate(-90 251 339)" fill="#797C95" fill-opacity="0.0904071"/>
<rect x="167" y="339" width="312" height="2" rx="1" transform="rotate(-90 167 339)" fill="#797C95" fill-opacity="0.0904071"/>
<rect x="83" y="339" width="312" height="2" rx="1" transform="rotate(-90 83 339)" fill="#797C95" fill-opacity="0.0904071"/>
<rect x="1007" y="339" width="312" height="2" rx="1" transform="rotate(-90 1007 339)" fill="#797C95" fill-opacity="0.0904071"/>
<rect x="923" y="339" width="312" height="2" rx="1" transform="rotate(-90 923 339)" fill="#797C95" fill-opacity="0.0904071"/>
<rect x="839" y="339" width="312" height="2" rx="1" transform="rotate(-90 839 339)" fill="#797C95" fill-opacity="0.0904071"/>
<rect x="755" y="339" width="312" height="2" rx="1" transform="rotate(-90 755 339)" fill="#797C95" fill-opacity="0.0904071"/>
<rect x="671" y="339" width="312" height="2" rx="1" transform="rotate(-90 671 339)" fill="#797C95" fill-opacity="0.0904071"/>
<rect x="587" y="339" width="312" height="2" rx="1" transform="rotate(-90 587 339)" fill="#797C95" fill-opacity="0.0904071"/>
</g>
<path fill-rule="evenodd" clip-rule="evenodd" d="M82 337L168 288.254L253 299.479L337 262L420 292.344L503 262L589 256L672 168.8L755 250L840 212L924 88L1010 76V338L82 337Z" fill="url(#paint0_linear_274_140)" fill-opacity="0.08"/>
<path d="M82 337L168 288.254L253 299.479L337 262L420 292.344L503 262L589 256L672 168.8L755 250L840 212L924 88L1009 76" stroke="#7682F9" stroke-width="6" stroke-linecap="round" stroke-linejoin="round"/>
<g filter="url(#filter0_b_274_140)">
<rect x="668" width="8" height="366" rx="4" fill="url(#paint1_linear_274_140)"/>
</g>
<circle cx="673" cy="169" r="11" fill="#3F4267" stroke="white" stroke-width="4"/>
<g clip-path="url(#clip0_274_140)">
<g filter="url(#filter1_bd_274_140)">
<path fill-rule="evenodd" clip-rule="evenodd" d="M611.09 85.4601C610 87.5992 610 90.3995 610 96V106C610 111.601 610 114.401 611.09 116.54C612.049 118.422 613.578 119.951 615.46 120.91C617.599 122 620.399 122 626 122H662L669.218 126.819C670.563 127.716 672.316 127.716 673.66 126.819L680.879 122H716C721.601 122 724.401 122 726.54 120.91C728.422 119.951 729.951 118.422 730.91 116.54C732 114.401 732 111.601 732 106V96C732 90.3995 732 87.5992 730.91 85.4601C729.951 83.5785 728.422 82.0487 726.54 81.0899C724.401 80 721.601 80 716 80H626C620.399 80 617.599 80 615.46 81.0899C613.578 82.0487 612.049 83.5785 611.09 85.4601Z" fill="#20244F" fill-opacity="0.86"/>
</g>
<path d="M634.066 91.4766L633.588 94.4551H632.152L632.631 91.4766H634.066ZM631.4 107.424L630.99 110.031H629.564L629.975 107.424H631.4ZM633.764 104.27C633.822 103.794 633.751 103.394 633.549 103.068C633.347 102.743 633.07 102.473 632.719 102.258C632.367 102.036 631.996 101.851 631.605 101.701C630.954 101.454 630.368 101.151 629.848 100.793C629.333 100.435 628.933 99.9922 628.646 99.4648C628.367 98.9375 628.253 98.293 628.305 97.5312C628.363 96.7109 628.601 96.0013 629.018 95.4023C629.434 94.8034 629.975 94.3444 630.639 94.0254C631.303 93.7064 632.038 93.5566 632.846 93.5762C633.516 93.5892 634.086 93.7194 634.555 93.9668C635.03 94.2142 635.408 94.5495 635.688 94.9727C635.974 95.3893 636.173 95.8711 636.283 96.418C636.394 96.9648 636.43 97.5443 636.391 98.1562H634.633C634.659 97.8177 634.649 97.4759 634.604 97.1309C634.564 96.7793 634.477 96.457 634.34 96.1641C634.203 95.8711 634.005 95.6335 633.744 95.4512C633.484 95.2689 633.148 95.1712 632.738 95.1582C632.25 95.1452 631.814 95.2331 631.43 95.4219C631.052 95.6107 630.746 95.8809 630.512 96.2324C630.277 96.584 630.131 97.0007 630.072 97.4824C630.02 97.9837 630.092 98.3971 630.287 98.7227C630.489 99.0482 630.769 99.3184 631.127 99.5332C631.485 99.748 631.869 99.9368 632.279 100.1C632.924 100.354 633.5 100.66 634.008 101.018C634.522 101.369 634.916 101.809 635.189 102.336C635.469 102.857 635.583 103.495 635.531 104.25C635.466 105.129 635.202 105.865 634.74 106.457C634.278 107.049 633.686 107.495 632.963 107.795C632.247 108.088 631.472 108.228 630.639 108.215C629.981 108.202 629.402 108.088 628.9 107.873C628.406 107.652 627.992 107.346 627.66 106.955C627.335 106.558 627.094 106.096 626.938 105.568C626.788 105.035 626.732 104.449 626.771 103.811H628.549C628.523 104.195 628.542 104.556 628.607 104.895C628.679 105.227 628.799 105.523 628.969 105.783C629.145 106.037 629.376 106.239 629.662 106.389C629.955 106.532 630.31 106.61 630.727 106.623C631.228 106.63 631.697 106.548 632.133 106.379C632.576 106.203 632.943 105.939 633.236 105.588C633.529 105.23 633.705 104.79 633.764 104.27ZM645.168 99.8262H646.574C647.121 99.8262 647.574 99.7318 647.932 99.543C648.296 99.3542 648.567 99.0938 648.742 98.7617C648.918 98.4297 649.006 98.0488 649.006 97.6191C649.006 97.1699 648.925 96.7858 648.762 96.4668C648.606 96.1413 648.365 95.8906 648.039 95.7148C647.72 95.5391 647.313 95.4512 646.818 95.4512C646.402 95.4512 646.024 95.5358 645.686 95.7051C645.354 95.8678 645.09 96.1022 644.895 96.4082C644.699 96.7077 644.602 97.0658 644.602 97.4824H642.238C642.238 96.7272 642.437 96.0566 642.834 95.4707C643.231 94.8848 643.772 94.4258 644.455 94.0938C645.145 93.7552 645.92 93.5859 646.779 93.5859C647.697 93.5859 648.498 93.7389 649.182 94.0449C649.872 94.3444 650.409 94.7936 650.793 95.3926C651.177 95.9915 651.369 96.7337 651.369 97.6191C651.369 98.0228 651.275 98.4329 651.086 98.8496C650.897 99.2663 650.617 99.6471 650.246 99.9922C649.875 100.331 649.413 100.607 648.859 100.822C648.306 101.031 647.665 101.135 646.936 101.135H645.168V99.8262ZM645.168 101.662V100.373H646.936C647.769 100.373 648.479 100.471 649.065 100.666C649.657 100.861 650.139 101.132 650.51 101.477C650.881 101.815 651.151 102.202 651.32 102.639C651.496 103.075 651.584 103.537 651.584 104.025C651.584 104.689 651.464 105.282 651.223 105.803C650.988 106.317 650.653 106.753 650.217 107.111C649.781 107.469 649.27 107.74 648.684 107.922C648.104 108.104 647.473 108.195 646.789 108.195C646.177 108.195 645.591 108.111 645.031 107.941C644.471 107.772 643.97 107.521 643.527 107.189C643.085 106.851 642.733 106.431 642.473 105.93C642.219 105.422 642.092 104.836 642.092 104.172H644.445C644.445 104.595 644.543 104.969 644.738 105.295C644.94 105.614 645.22 105.865 645.578 106.047C645.943 106.229 646.359 106.32 646.828 106.32C647.323 106.32 647.749 106.232 648.108 106.057C648.466 105.881 648.739 105.62 648.928 105.275C649.123 104.93 649.221 104.514 649.221 104.025C649.221 103.472 649.113 103.023 648.899 102.678C648.684 102.333 648.378 102.079 647.981 101.916C647.583 101.747 647.115 101.662 646.574 101.662H645.168ZM653.732 106.828C653.732 106.464 653.855 106.158 654.103 105.91C654.35 105.656 654.685 105.529 655.109 105.529C655.538 105.529 655.874 105.656 656.114 105.91C656.362 106.158 656.486 106.464 656.486 106.828C656.486 107.193 656.362 107.499 656.114 107.746C655.874 107.993 655.538 108.117 655.109 108.117C654.685 108.117 654.35 107.993 654.103 107.746C653.855 107.499 653.732 107.193 653.732 106.828ZM668.321 106.125V108H658.789V106.389L663.418 101.34C663.926 100.767 664.326 100.272 664.619 99.8555C664.912 99.4388 665.117 99.0645 665.235 98.7324C665.358 98.3939 665.42 98.0651 665.42 97.7461C665.42 97.2969 665.336 96.903 665.166 96.5645C665.004 96.2194 664.763 95.9492 664.444 95.7539C664.125 95.5521 663.737 95.4512 663.281 95.4512C662.754 95.4512 662.311 95.5651 661.953 95.793C661.595 96.0208 661.325 96.3366 661.143 96.7402C660.961 97.1374 660.869 97.5931 660.869 98.1074H658.516C658.516 97.2806 658.705 96.5254 659.082 95.8418C659.46 95.1517 660.007 94.6048 660.723 94.2012C661.439 93.791 662.302 93.5859 663.311 93.5859C664.261 93.5859 665.069 93.7454 665.733 94.0645C666.397 94.3835 666.901 94.8359 667.246 95.4219C667.598 96.0078 667.774 96.7012 667.774 97.502C667.774 97.9447 667.702 98.3841 667.559 98.8203C667.416 99.2565 667.211 99.6927 666.944 100.129C666.683 100.559 666.374 100.992 666.016 101.428C665.658 101.857 665.264 102.294 664.834 102.736L661.758 106.125H668.321ZM676.308 93.7324V108H673.954V96.5254L670.468 97.707V95.7637L676.025 93.7324H676.308ZM687.401 93.7324V108H685.047V96.5254L681.561 97.707V95.7637L687.118 93.7324H687.401ZM694.412 105.734L694.402 107.414C694.402 108.078 694.236 108.762 693.904 109.465C693.572 110.168 693.132 110.747 692.585 111.203L691.326 110.471C691.508 110.178 691.674 109.882 691.824 109.582C691.973 109.283 692.094 108.964 692.185 108.625C692.276 108.286 692.322 107.912 692.322 107.502V105.734H694.412ZM702.692 93.7324V108H700.338V96.5254L696.852 97.707V95.7637L702.409 93.7324H702.692ZM714.468 93.6934H714.761V95.6172H714.595C713.755 95.6172 713.03 95.7474 712.418 96.0078C711.812 96.2682 711.314 96.6263 710.923 97.082C710.533 97.5378 710.24 98.0716 710.045 98.6836C709.856 99.2891 709.761 99.9336 709.761 100.617V102.854C709.761 103.42 709.823 103.921 709.947 104.357C710.071 104.787 710.243 105.148 710.464 105.441C710.692 105.728 710.953 105.946 711.246 106.096C711.539 106.245 711.854 106.32 712.193 106.32C712.545 106.32 712.864 106.249 713.15 106.105C713.436 105.956 713.681 105.751 713.882 105.49C714.084 105.23 714.237 104.921 714.341 104.562C714.446 104.204 714.498 103.814 714.498 103.391C714.498 102.987 714.446 102.609 714.341 102.258C714.244 101.9 714.097 101.587 713.902 101.32C713.707 101.047 713.462 100.835 713.17 100.686C712.883 100.529 712.551 100.451 712.173 100.451C711.705 100.451 711.278 100.562 710.894 100.783C710.517 101.005 710.211 101.294 709.976 101.652C709.748 102.004 709.625 102.378 709.605 102.775L708.707 102.482C708.759 101.877 708.892 101.333 709.107 100.852C709.328 100.37 709.618 99.9596 709.976 99.6211C710.334 99.2826 710.748 99.0254 711.216 98.8496C711.692 98.6673 712.212 98.5762 712.779 98.5762C713.469 98.5762 714.068 98.7064 714.576 98.9668C715.084 99.2272 715.503 99.582 715.836 100.031C716.174 100.474 716.425 100.982 716.587 101.555C716.757 102.121 716.841 102.714 716.841 103.332C716.841 104.016 716.737 104.654 716.529 105.246C716.321 105.832 716.015 106.346 715.611 106.789C715.214 107.232 714.729 107.577 714.156 107.824C713.589 108.072 712.945 108.195 712.222 108.195C711.461 108.195 710.78 108.049 710.181 107.756C709.589 107.463 709.084 107.059 708.668 106.545C708.257 106.031 707.945 105.438 707.73 104.768C707.515 104.097 707.408 103.387 707.408 102.639V101.662C707.408 100.581 707.545 99.5625 707.818 98.6055C708.091 97.6419 708.511 96.7923 709.078 96.0566C709.651 95.321 710.383 94.7448 711.275 94.3281C712.167 93.9049 713.231 93.6934 714.468 93.6934Z" fill="white"/>
</g>
<defs>
<filter id="filter0_b_274_140" x="640.817" y="-27.1828" width="62.3656" height="420.366" filterUnits="userSpaceOnUse" color-interpolation-filters="sRGB">
<feFlood flood-opacity="0" result="BackgroundImageFix"/>
<feGaussianBlur in="BackgroundImage" stdDeviation="13.5914"/>
<feComposite in2="SourceAlpha" operator="in" result="effect1_backgroundBlur_274_140"/>
<feBlend mode="normal" in="SourceGraphic" in2="effect1_backgroundBlur_274_140" result="shape"/>
</filter>
<filter id="filter1_bd_274_140" x="565.99" y="35.9897" width="210.021" height="135.512" filterUnits="userSpaceOnUse" color-interpolation-filters="sRGB">
<feFlood flood-opacity="0" result="BackgroundImageFix"/>
<feGaussianBlur in="BackgroundImage" stdDeviation="22.0051"/>
<feComposite in2="SourceAlpha" operator="in" result="effect1_backgroundBlur_274_140"/>
<feColorMatrix in="SourceAlpha" type="matrix" values="0 0 0 0 0 0 0 0 0 0 0 0 0 0 0 0 0 0 127 0" result="hardAlpha"/>
<feOffset dy="18"/>
<feGaussianBlur stdDeviation="10"/>
<feColorMatrix type="matrix" values="0 0 0 0 0.36634 0 0 0 0 0.36634 0 0 0 0 0.484754 0 0 0 0.240543 0"/>
<feBlend mode="normal" in2="effect1_backgroundBlur_274_140" result="effect2_dropShadow_274_140"/>
<feBlend mode="normal" in="SourceGraphic" in2="effect2_dropShadow_274_140" result="shape"/>
</filter>
<linearGradient id="paint0_linear_274_140" x1="325" y1="229.079" x2="326.797" y2="341.504" gradientUnits="userSpaceOnUse">
<stop stop-color="#7682F9"/>
<stop offset="1" stop-color="white" stop-opacity="0.01"/>
</linearGradient>
<linearGradient id="paint1_linear_274_140" x1="668" y1="0" x2="668" y2="366" gradientUnits="userSpaceOnUse">
<stop stop-color="#DDDFF0" stop-opacity="0.148995"/>
<stop offset="0.302444" stop-color="#9A9DBC" stop-opacity="0.138697"/>
<stop offset="0.620684" stop-color="#C7C9DA" stop-opacity="0.319976"/>
<stop offset="1" stop-color="#DDDFF0" stop-opacity="0.01"/>
</linearGradient>
<clipPath id="clip0_274_140">
<rect width="122" height="47.4916" fill="white" transform="translate(610 80)"/>
</clipPath>
</defs>
</svg>
