<svg width="1088" height="528" viewBox="0 0 1088 528" fill="none" xmlns="http://www.w3.org/2000/svg">
<g clip-path="url(#clip0_0_93)">
<rect x="-0.566667" y="-0.566667" width="1089.13" height="529.133" rx="10.5667" fill="white" stroke="#DDDDE1" stroke-width="1.13333"/>
<path opacity="0.298007" d="M104.565 489.159V480.203H106.763V489.159C106.763 490.009 106.581 490.732 106.218 491.33C105.854 491.928 105.359 492.385 104.732 492.701C104.105 493.018 103.394 493.176 102.597 493.176C101.782 493.176 101.059 493.038 100.426 492.763C99.7988 492.487 99.3066 492.065 98.9492 491.497C98.5918 490.929 98.4131 490.208 98.4131 489.335H100.628C100.628 489.839 100.707 490.246 100.865 490.557C101.029 490.861 101.258 491.084 101.551 491.225C101.85 491.359 102.198 491.427 102.597 491.427C102.978 491.427 103.314 491.342 103.607 491.172C103.906 490.996 104.141 490.741 104.311 490.407C104.48 490.067 104.565 489.651 104.565 489.159ZM114.206 491.093V486.558C114.206 486.218 114.145 485.925 114.022 485.679C113.899 485.433 113.711 485.242 113.459 485.107C113.213 484.973 112.902 484.905 112.527 484.905C112.182 484.905 111.883 484.964 111.631 485.081C111.379 485.198 111.183 485.356 111.042 485.556C110.902 485.755 110.831 485.98 110.831 486.232H108.722C108.722 485.857 108.813 485.494 108.994 485.143C109.176 484.791 109.44 484.478 109.785 484.202C110.131 483.927 110.544 483.71 111.025 483.552C111.505 483.394 112.044 483.314 112.642 483.314C113.357 483.314 113.989 483.435 114.54 483.675C115.097 483.915 115.533 484.278 115.85 484.765C116.172 485.245 116.333 485.849 116.333 486.575V490.803C116.333 491.236 116.362 491.626 116.421 491.972C116.486 492.312 116.576 492.607 116.694 492.859V493H114.523C114.423 492.771 114.344 492.481 114.285 492.13C114.233 491.772 114.206 491.427 114.206 491.093ZM114.514 487.217L114.531 488.526H113.011C112.618 488.526 112.273 488.564 111.974 488.641C111.675 488.711 111.426 488.816 111.227 488.957C111.027 489.098 110.878 489.268 110.778 489.467C110.679 489.666 110.629 489.892 110.629 490.144C110.629 490.396 110.688 490.627 110.805 490.838C110.922 491.043 111.092 491.204 111.315 491.321C111.543 491.438 111.819 491.497 112.141 491.497C112.574 491.497 112.952 491.409 113.275 491.233C113.603 491.052 113.861 490.832 114.048 490.574C114.236 490.311 114.335 490.062 114.347 489.827L115.032 490.768C114.962 491.008 114.842 491.266 114.672 491.541C114.502 491.816 114.279 492.08 114.004 492.332C113.735 492.578 113.409 492.78 113.028 492.938C112.653 493.097 112.22 493.176 111.728 493.176C111.107 493.176 110.553 493.053 110.067 492.807C109.58 492.555 109.199 492.218 108.924 491.796C108.649 491.368 108.511 490.885 108.511 490.346C108.511 489.842 108.605 489.396 108.792 489.01C108.986 488.617 109.267 488.289 109.636 488.025C110.011 487.762 110.468 487.562 111.007 487.428C111.546 487.287 112.161 487.217 112.853 487.217H114.514ZM120.402 485.521V493H118.284V483.49H120.279L120.402 485.521ZM120.024 487.894L119.338 487.885C119.344 487.211 119.438 486.593 119.619 486.03C119.807 485.468 120.065 484.984 120.393 484.58C120.727 484.176 121.125 483.865 121.588 483.648C122.051 483.426 122.567 483.314 123.135 483.314C123.592 483.314 124.005 483.379 124.374 483.508C124.749 483.631 125.069 483.833 125.332 484.114C125.602 484.396 125.807 484.762 125.948 485.213C126.088 485.658 126.159 486.206 126.159 486.856V493H124.032V486.848C124.032 486.391 123.964 486.03 123.829 485.767C123.701 485.497 123.51 485.307 123.258 485.195C123.012 485.078 122.704 485.02 122.335 485.02C121.972 485.02 121.647 485.096 121.36 485.248C121.073 485.4 120.829 485.608 120.63 485.872C120.437 486.136 120.287 486.44 120.182 486.786C120.076 487.132 120.024 487.501 120.024 487.894Z" fill="#20244F"/>
<path opacity="0.298007" d="M185.507 480.203V493H183.301V480.203H185.507ZM190.728 485.802V487.551H184.944V485.802H190.728ZM191.457 480.203V481.961H184.944V480.203H191.457ZM196.756 493.176C196.053 493.176 195.417 493.062 194.849 492.833C194.286 492.599 193.806 492.273 193.407 491.857C193.015 491.441 192.713 490.952 192.502 490.39C192.291 489.827 192.186 489.221 192.186 488.57V488.219C192.186 487.475 192.294 486.801 192.511 486.197C192.728 485.594 193.029 485.078 193.416 484.65C193.803 484.217 194.26 483.886 194.787 483.657C195.315 483.429 195.886 483.314 196.501 483.314C197.181 483.314 197.776 483.429 198.285 483.657C198.795 483.886 199.217 484.208 199.551 484.624C199.891 485.034 200.143 485.523 200.307 486.092C200.477 486.66 200.562 487.287 200.562 487.973V488.878H193.214V487.357H198.47V487.19C198.458 486.81 198.382 486.452 198.241 486.118C198.107 485.784 197.899 485.515 197.617 485.31C197.336 485.104 196.961 485.002 196.492 485.002C196.141 485.002 195.827 485.078 195.552 485.23C195.282 485.377 195.057 485.591 194.875 485.872C194.694 486.153 194.553 486.493 194.453 486.892C194.36 487.284 194.313 487.727 194.313 488.219V488.57C194.313 488.986 194.368 489.373 194.48 489.73C194.597 490.082 194.767 490.39 194.989 490.653C195.212 490.917 195.482 491.125 195.798 491.277C196.114 491.424 196.475 491.497 196.879 491.497C197.389 491.497 197.843 491.395 198.241 491.189C198.64 490.984 198.986 490.694 199.278 490.319L200.395 491.4C200.19 491.699 199.923 491.986 199.595 492.262C199.267 492.531 198.865 492.751 198.391 492.921C197.922 493.091 197.377 493.176 196.756 493.176ZM201.976 479.5H204.094V490.97L203.892 493H201.976V479.5ZM210.299 488.157V488.342C210.299 489.045 210.22 489.692 210.062 490.284C209.909 490.87 209.675 491.38 209.359 491.813C209.048 492.247 208.661 492.584 208.199 492.824C207.742 493.059 207.211 493.176 206.608 493.176C206.016 493.176 205.5 493.064 205.061 492.842C204.621 492.619 204.252 492.303 203.953 491.893C203.66 491.482 203.423 490.993 203.242 490.425C203.06 489.856 202.931 489.229 202.855 488.544V487.955C202.931 487.264 203.06 486.637 203.242 486.074C203.423 485.506 203.66 485.017 203.953 484.606C204.252 484.19 204.618 483.871 205.052 483.648C205.492 483.426 206.004 483.314 206.59 483.314C207.2 483.314 207.736 483.432 208.199 483.666C208.667 483.9 209.057 484.234 209.367 484.668C209.678 485.096 209.909 485.605 210.062 486.197C210.22 486.789 210.299 487.442 210.299 488.157ZM208.181 488.342V488.157C208.181 487.729 208.146 487.328 208.076 486.953C208.005 486.572 207.888 486.238 207.724 485.951C207.566 485.664 207.349 485.438 207.074 485.274C206.804 485.104 206.467 485.02 206.063 485.02C205.688 485.02 205.366 485.084 205.096 485.213C204.826 485.342 204.601 485.518 204.419 485.74C204.238 485.963 204.094 486.221 203.989 486.514C203.889 486.807 203.822 487.123 203.786 487.463V489.054C203.839 489.493 203.951 489.897 204.12 490.267C204.296 490.63 204.542 490.923 204.859 491.146C205.175 491.362 205.582 491.471 206.08 491.471C206.473 491.471 206.804 491.392 207.074 491.233C207.343 491.075 207.557 490.855 207.715 490.574C207.879 490.287 207.996 489.953 208.067 489.572C208.143 489.191 208.181 488.781 208.181 488.342Z" fill="#20244F"/>
<path opacity="0.298007" d="M268.197 480.203H270.166L273.866 490.073L277.558 480.203H279.526L274.64 493H273.075L268.197 480.203ZM267.301 480.203H269.173L269.498 488.746V493H267.301V480.203ZM278.551 480.203H280.432V493H278.226V488.746L278.551 480.203ZM287.954 491.093V486.558C287.954 486.218 287.893 485.925 287.77 485.679C287.647 485.433 287.459 485.242 287.207 485.107C286.961 484.973 286.651 484.905 286.276 484.905C285.93 484.905 285.631 484.964 285.379 485.081C285.127 485.198 284.931 485.356 284.79 485.556C284.65 485.755 284.579 485.98 284.579 486.232H282.47C282.47 485.857 282.561 485.494 282.742 485.143C282.924 484.791 283.188 484.478 283.533 484.202C283.879 483.927 284.292 483.71 284.773 483.552C285.253 483.394 285.792 483.314 286.39 483.314C287.105 483.314 287.737 483.435 288.288 483.675C288.845 483.915 289.281 484.278 289.598 484.765C289.92 485.245 290.081 485.849 290.081 486.575V490.803C290.081 491.236 290.111 491.626 290.169 491.972C290.234 492.312 290.324 492.607 290.442 492.859V493H288.271C288.171 492.771 288.092 492.481 288.033 492.13C287.981 491.772 287.954 491.427 287.954 491.093ZM288.262 487.217L288.279 488.526H286.759C286.366 488.526 286.021 488.564 285.722 488.641C285.423 488.711 285.174 488.816 284.975 488.957C284.776 489.098 284.626 489.268 284.527 489.467C284.427 489.666 284.377 489.892 284.377 490.144C284.377 490.396 284.436 490.627 284.553 490.838C284.67 491.043 284.84 491.204 285.063 491.321C285.291 491.438 285.567 491.497 285.889 491.497C286.322 491.497 286.7 491.409 287.023 491.233C287.351 491.052 287.609 490.832 287.796 490.574C287.984 490.311 288.083 490.062 288.095 489.827L288.78 490.768C288.71 491.008 288.59 491.266 288.42 491.541C288.25 491.816 288.027 492.08 287.752 492.332C287.483 492.578 287.157 492.78 286.777 492.938C286.402 493.097 285.968 493.176 285.476 493.176C284.855 493.176 284.301 493.053 283.815 492.807C283.328 492.555 282.947 492.218 282.672 491.796C282.397 491.368 282.259 490.885 282.259 490.346C282.259 489.842 282.353 489.396 282.54 489.01C282.734 488.617 283.015 488.289 283.384 488.025C283.759 487.762 284.216 487.562 284.755 487.428C285.294 487.287 285.909 487.217 286.601 487.217H288.262ZM294.176 485.301V493H292.058V483.49H294.079L294.176 485.301ZM297.085 483.429L297.068 485.397C296.939 485.374 296.798 485.356 296.646 485.345C296.499 485.333 296.353 485.327 296.206 485.327C295.843 485.327 295.524 485.38 295.248 485.485C294.973 485.585 294.742 485.731 294.554 485.925C294.372 486.112 294.232 486.341 294.132 486.61C294.033 486.88 293.974 487.182 293.956 487.516L293.473 487.551C293.473 486.953 293.532 486.399 293.649 485.89C293.766 485.38 293.942 484.932 294.176 484.545C294.416 484.158 294.715 483.856 295.073 483.64C295.436 483.423 295.855 483.314 296.329 483.314C296.458 483.314 296.596 483.326 296.742 483.35C296.895 483.373 297.009 483.399 297.085 483.429Z" fill="#20244F"/>
<path opacity="0.298007" d="M356.284 481.908L352.461 493H350.149L354.966 480.203H356.442L356.284 481.908ZM359.483 493L355.651 481.908L355.484 480.203H356.97L361.804 493H359.483ZM359.299 488.254V490.003H352.338V488.254H359.299ZM364.747 485.318V496.656H362.629V483.49H364.58L364.747 485.318ZM370.944 488.157V488.342C370.944 489.033 370.861 489.675 370.697 490.267C370.539 490.853 370.302 491.365 369.986 491.805C369.675 492.238 369.291 492.575 368.834 492.815C368.377 493.056 367.85 493.176 367.252 493.176C366.66 493.176 366.142 493.067 365.696 492.851C365.257 492.628 364.885 492.314 364.58 491.91C364.276 491.506 364.029 491.031 363.842 490.486C363.66 489.936 363.531 489.332 363.455 488.676V487.964C363.531 487.267 363.66 486.634 363.842 486.065C364.029 485.497 364.276 485.008 364.58 484.598C364.885 484.188 365.257 483.871 365.696 483.648C366.136 483.426 366.649 483.314 367.235 483.314C367.832 483.314 368.362 483.432 368.825 483.666C369.288 483.895 369.678 484.223 369.994 484.65C370.311 485.072 370.548 485.582 370.706 486.18C370.864 486.771 370.944 487.431 370.944 488.157ZM368.825 488.342V488.157C368.825 487.718 368.784 487.311 368.702 486.936C368.62 486.555 368.491 486.221 368.316 485.934C368.14 485.646 367.914 485.424 367.639 485.266C367.369 485.102 367.044 485.02 366.663 485.02C366.288 485.02 365.966 485.084 365.696 485.213C365.427 485.336 365.201 485.509 365.02 485.731C364.838 485.954 364.697 486.215 364.598 486.514C364.498 486.807 364.428 487.126 364.387 487.472V489.177C364.457 489.599 364.577 489.985 364.747 490.337C364.917 490.688 365.157 490.97 365.468 491.181C365.784 491.386 366.189 491.488 366.681 491.488C367.062 491.488 367.387 491.406 367.656 491.242C367.926 491.078 368.146 490.853 368.316 490.565C368.491 490.272 368.62 489.936 368.702 489.555C368.784 489.174 368.825 488.77 368.825 488.342ZM374.625 485.301V493H372.507V483.49H374.529L374.625 485.301ZM377.534 483.429L377.517 485.397C377.388 485.374 377.247 485.356 377.095 485.345C376.949 485.333 376.802 485.327 376.656 485.327C376.292 485.327 375.973 485.38 375.698 485.485C375.422 485.585 375.191 485.731 375.003 485.925C374.822 486.112 374.681 486.341 374.581 486.61C374.482 486.88 374.423 487.182 374.406 487.516L373.922 487.551C373.922 486.953 373.981 486.399 374.098 485.89C374.215 485.38 374.391 484.932 374.625 484.545C374.866 484.158 375.164 483.856 375.522 483.64C375.885 483.423 376.304 483.314 376.779 483.314C376.908 483.314 377.045 483.326 377.192 483.35C377.344 483.373 377.458 483.399 377.534 483.429Z" fill="#20244F"/>
<path opacity="0.298007" d="M436.197 480.203H438.166L441.866 490.073L445.558 480.203H447.526L442.64 493H441.075L436.197 480.203ZM435.301 480.203H437.173L437.498 488.746V493H435.301V480.203ZM446.551 480.203H448.432V493H446.226V488.746L446.551 480.203ZM455.954 491.093V486.558C455.954 486.218 455.893 485.925 455.77 485.679C455.647 485.433 455.459 485.242 455.207 485.107C454.961 484.973 454.651 484.905 454.276 484.905C453.93 484.905 453.631 484.964 453.379 485.081C453.127 485.198 452.931 485.356 452.79 485.556C452.65 485.755 452.579 485.98 452.579 486.232H450.47C450.47 485.857 450.561 485.494 450.742 485.143C450.924 484.791 451.188 484.478 451.533 484.202C451.879 483.927 452.292 483.71 452.773 483.552C453.253 483.394 453.792 483.314 454.39 483.314C455.105 483.314 455.737 483.435 456.288 483.675C456.845 483.915 457.281 484.278 457.598 484.765C457.92 485.245 458.081 485.849 458.081 486.575V490.803C458.081 491.236 458.111 491.626 458.169 491.972C458.234 492.312 458.324 492.607 458.442 492.859V493H456.271C456.171 492.771 456.092 492.481 456.033 492.13C455.981 491.772 455.954 491.427 455.954 491.093ZM456.262 487.217L456.279 488.526H454.759C454.366 488.526 454.021 488.564 453.722 488.641C453.423 488.711 453.174 488.816 452.975 488.957C452.776 489.098 452.626 489.268 452.527 489.467C452.427 489.666 452.377 489.892 452.377 490.144C452.377 490.396 452.436 490.627 452.553 490.838C452.67 491.043 452.84 491.204 453.063 491.321C453.291 491.438 453.567 491.497 453.889 491.497C454.322 491.497 454.7 491.409 455.023 491.233C455.351 491.052 455.609 490.832 455.796 490.574C455.984 490.311 456.083 490.062 456.095 489.827L456.78 490.768C456.71 491.008 456.59 491.266 456.42 491.541C456.25 491.816 456.027 492.08 455.752 492.332C455.483 492.578 455.157 492.78 454.777 492.938C454.402 493.097 453.968 493.176 453.476 493.176C452.855 493.176 452.301 493.053 451.815 492.807C451.328 492.555 450.947 492.218 450.672 491.796C450.397 491.368 450.259 490.885 450.259 490.346C450.259 489.842 450.353 489.396 450.54 489.01C450.734 488.617 451.015 488.289 451.384 488.025C451.759 487.762 452.216 487.562 452.755 487.428C453.294 487.287 453.909 487.217 454.601 487.217H456.262ZM462.668 491.963L465.252 483.49H467.52L463.705 494.45C463.617 494.685 463.503 494.939 463.363 495.215C463.222 495.49 463.037 495.751 462.809 495.997C462.586 496.249 462.308 496.451 461.974 496.604C461.64 496.762 461.236 496.841 460.761 496.841C460.574 496.841 460.392 496.823 460.216 496.788C460.046 496.759 459.885 496.727 459.733 496.691L459.724 495.074C459.783 495.08 459.853 495.086 459.935 495.092C460.023 495.098 460.093 495.101 460.146 495.101C460.497 495.101 460.79 495.057 461.025 494.969C461.259 494.887 461.45 494.752 461.596 494.564C461.748 494.377 461.877 494.125 461.983 493.809L462.668 491.963ZM461.209 483.49L463.468 490.609L463.846 492.842L462.378 493.22L458.924 483.49H461.209Z" fill="#20244F"/>
<path opacity="0.298007" d="M524.565 489.159V480.203H526.763V489.159C526.763 490.009 526.581 490.732 526.218 491.33C525.854 491.928 525.359 492.385 524.732 492.701C524.105 493.018 523.394 493.176 522.597 493.176C521.782 493.176 521.059 493.038 520.426 492.763C519.799 492.487 519.307 492.065 518.949 491.497C518.592 490.929 518.413 490.208 518.413 489.335H520.628C520.628 489.839 520.707 490.246 520.865 490.557C521.029 490.861 521.258 491.084 521.551 491.225C521.85 491.359 522.198 491.427 522.597 491.427C522.978 491.427 523.314 491.342 523.607 491.172C523.906 490.996 524.141 490.741 524.311 490.407C524.48 490.067 524.565 489.651 524.565 489.159ZM534.567 490.759V483.49H536.694V493H534.69L534.567 490.759ZM534.865 488.781L535.577 488.764C535.577 489.402 535.507 489.991 535.366 490.53C535.226 491.063 535.009 491.529 534.716 491.928C534.423 492.32 534.048 492.628 533.591 492.851C533.134 493.067 532.586 493.176 531.947 493.176C531.485 493.176 531.06 493.108 530.673 492.974C530.286 492.839 529.952 492.631 529.671 492.35C529.396 492.068 529.182 491.702 529.029 491.251C528.877 490.8 528.801 490.261 528.801 489.634V483.49H530.919V489.651C530.919 489.997 530.96 490.287 531.042 490.521C531.124 490.75 531.236 490.935 531.376 491.075C531.517 491.216 531.681 491.315 531.868 491.374C532.056 491.433 532.255 491.462 532.466 491.462C533.069 491.462 533.544 491.345 533.89 491.11C534.241 490.87 534.49 490.548 534.637 490.144C534.789 489.739 534.865 489.285 534.865 488.781ZM540.718 485.521V493H538.6V483.49H540.595L540.718 485.521ZM540.34 487.894L539.655 487.885C539.66 487.211 539.754 486.593 539.936 486.03C540.123 485.468 540.381 484.984 540.709 484.58C541.043 484.176 541.442 483.865 541.905 483.648C542.367 483.426 542.883 483.314 543.451 483.314C543.909 483.314 544.322 483.379 544.691 483.508C545.066 483.631 545.385 483.833 545.649 484.114C545.918 484.396 546.123 484.762 546.264 485.213C546.405 485.658 546.475 486.206 546.475 486.856V493H544.348V486.848C544.348 486.391 544.281 486.03 544.146 485.767C544.017 485.497 543.826 485.307 543.575 485.195C543.328 485.078 543.021 485.02 542.652 485.02C542.288 485.02 541.963 485.096 541.676 485.248C541.389 485.4 541.146 485.608 540.947 485.872C540.753 486.136 540.604 486.44 540.498 486.786C540.393 487.132 540.34 487.501 540.34 487.894Z" fill="#20244F"/>
<path opacity="0.298007" d="M608.565 489.159V480.203H610.763V489.159C610.763 490.009 610.581 490.732 610.218 491.33C609.854 491.928 609.359 492.385 608.732 492.701C608.105 493.018 607.394 493.176 606.597 493.176C605.782 493.176 605.059 493.038 604.426 492.763C603.799 492.487 603.307 492.065 602.949 491.497C602.592 490.929 602.413 490.208 602.413 489.335H604.628C604.628 489.839 604.707 490.246 604.865 490.557C605.029 490.861 605.258 491.084 605.551 491.225C605.85 491.359 606.198 491.427 606.597 491.427C606.978 491.427 607.314 491.342 607.607 491.172C607.906 490.996 608.141 490.741 608.311 490.407C608.48 490.067 608.565 489.651 608.565 489.159ZM618.567 490.759V483.49H620.694V493H618.69L618.567 490.759ZM618.865 488.781L619.577 488.764C619.577 489.402 619.507 489.991 619.366 490.53C619.226 491.063 619.009 491.529 618.716 491.928C618.423 492.32 618.048 492.628 617.591 492.851C617.134 493.067 616.586 493.176 615.947 493.176C615.485 493.176 615.06 493.108 614.673 492.974C614.286 492.839 613.952 492.631 613.671 492.35C613.396 492.068 613.182 491.702 613.029 491.251C612.877 490.8 612.801 490.261 612.801 489.634V483.49H614.919V489.651C614.919 489.997 614.96 490.287 615.042 490.521C615.124 490.75 615.236 490.935 615.376 491.075C615.517 491.216 615.681 491.315 615.868 491.374C616.056 491.433 616.255 491.462 616.466 491.462C617.069 491.462 617.544 491.345 617.89 491.11C618.241 490.87 618.49 490.548 618.637 490.144C618.789 489.739 618.865 489.285 618.865 488.781ZM624.885 479.5V493H622.758V479.5H624.885Z" fill="#20244F"/>
<path opacity="0.298007" d="M692.284 481.908L688.461 493H686.149L690.966 480.203H692.442L692.284 481.908ZM695.483 493L691.651 481.908L691.484 480.203H692.97L697.804 493H695.483ZM695.299 488.254V490.003H688.338V488.254H695.299ZM704.395 490.759V483.49H706.522V493H704.518L704.395 490.759ZM704.694 488.781L705.405 488.764C705.405 489.402 705.335 489.991 705.194 490.53C705.054 491.063 704.837 491.529 704.544 491.928C704.251 492.32 703.876 492.628 703.419 492.851C702.962 493.067 702.414 493.176 701.776 493.176C701.313 493.176 700.888 493.108 700.501 492.974C700.114 492.839 699.78 492.631 699.499 492.35C699.224 492.068 699.01 491.702 698.858 491.251C698.705 490.8 698.629 490.261 698.629 489.634V483.49H700.747V489.651C700.747 489.997 700.788 490.287 700.87 490.521C700.952 490.75 701.064 490.935 701.204 491.075C701.345 491.216 701.509 491.315 701.696 491.374C701.884 491.433 702.083 491.462 702.294 491.462C702.898 491.462 703.372 491.345 703.718 491.11C704.069 490.87 704.319 490.548 704.465 490.144C704.617 489.739 704.694 489.285 704.694 488.781ZM714.536 483.49H716.461V492.736C716.461 493.592 716.28 494.318 715.916 494.916C715.553 495.514 715.046 495.968 714.396 496.278C713.745 496.595 712.992 496.753 712.137 496.753C711.774 496.753 711.369 496.7 710.924 496.595C710.485 496.489 710.057 496.319 709.641 496.085C709.231 495.856 708.888 495.555 708.613 495.18L709.606 493.932C709.946 494.336 710.321 494.632 710.731 494.819C711.141 495.007 711.572 495.101 712.023 495.101C712.509 495.101 712.922 495.01 713.262 494.828C713.608 494.652 713.874 494.392 714.062 494.046C714.249 493.7 714.343 493.278 714.343 492.78V485.644L714.536 483.49ZM708.076 488.351V488.166C708.076 487.445 708.164 486.789 708.34 486.197C708.516 485.6 708.768 485.087 709.096 484.659C709.424 484.226 709.823 483.895 710.291 483.666C710.76 483.432 711.29 483.314 711.882 483.314C712.497 483.314 713.022 483.426 713.455 483.648C713.895 483.871 714.261 484.19 714.554 484.606C714.847 485.017 715.076 485.509 715.24 486.083C715.409 486.651 715.535 487.284 715.617 487.981V488.57C715.541 489.25 715.412 489.871 715.231 490.434C715.049 490.996 714.809 491.482 714.51 491.893C714.211 492.303 713.842 492.619 713.403 492.842C712.969 493.064 712.456 493.176 711.865 493.176C711.284 493.176 710.76 493.056 710.291 492.815C709.828 492.575 709.43 492.238 709.096 491.805C708.768 491.371 708.516 490.861 708.34 490.275C708.164 489.684 708.076 489.042 708.076 488.351ZM710.195 488.166V488.351C710.195 488.784 710.236 489.188 710.318 489.563C710.406 489.938 710.537 490.27 710.713 490.557C710.895 490.838 711.123 491.061 711.399 491.225C711.68 491.383 712.011 491.462 712.392 491.462C712.89 491.462 713.297 491.356 713.614 491.146C713.936 490.935 714.182 490.65 714.352 490.293C714.528 489.93 714.651 489.525 714.721 489.08V487.489C714.686 487.144 714.613 486.821 714.501 486.522C714.396 486.224 714.252 485.963 714.071 485.74C713.889 485.512 713.66 485.336 713.385 485.213C713.11 485.084 712.784 485.02 712.409 485.02C712.029 485.02 711.698 485.102 711.416 485.266C711.135 485.43 710.904 485.655 710.722 485.942C710.546 486.229 710.414 486.563 710.326 486.944C710.239 487.325 710.195 487.732 710.195 488.166Z" fill="#20244F"/>
<path opacity="0.298007" d="M778.033 489.704C778.033 489.44 777.992 489.206 777.91 489.001C777.834 488.796 777.696 488.608 777.497 488.438C777.298 488.269 777.017 488.104 776.653 487.946C776.296 487.782 775.839 487.615 775.282 487.445C774.673 487.258 774.11 487.05 773.595 486.821C773.085 486.587 772.64 486.317 772.259 486.013C771.878 485.702 771.582 485.348 771.371 484.949C771.16 484.545 771.055 484.079 771.055 483.552C771.055 483.03 771.163 482.556 771.38 482.128C771.603 481.7 771.916 481.331 772.32 481.021C772.73 480.704 773.214 480.461 773.771 480.291C774.327 480.115 774.942 480.027 775.616 480.027C776.565 480.027 777.383 480.203 778.068 480.555C778.76 480.906 779.29 481.378 779.659 481.97C780.034 482.562 780.222 483.215 780.222 483.93H778.033C778.033 483.508 777.942 483.136 777.761 482.813C777.585 482.485 777.315 482.228 776.952 482.04C776.595 481.853 776.141 481.759 775.59 481.759C775.068 481.759 774.635 481.838 774.289 481.996C773.943 482.154 773.686 482.368 773.516 482.638C773.346 482.907 773.261 483.212 773.261 483.552C773.261 483.792 773.316 484.012 773.428 484.211C773.539 484.404 773.709 484.586 773.938 484.756C774.166 484.92 774.453 485.075 774.799 485.222C775.145 485.368 775.552 485.509 776.021 485.644C776.729 485.854 777.348 486.089 777.875 486.347C778.402 486.599 778.842 486.886 779.193 487.208C779.545 487.53 779.809 487.896 779.984 488.307C780.16 488.711 780.248 489.171 780.248 489.687C780.248 490.226 780.14 490.712 779.923 491.146C779.706 491.573 779.396 491.939 778.991 492.244C778.593 492.543 778.112 492.774 777.55 492.938C776.993 493.097 776.372 493.176 775.687 493.176C775.071 493.176 774.465 493.094 773.867 492.93C773.275 492.766 772.736 492.517 772.25 492.183C771.764 491.843 771.377 491.421 771.09 490.917C770.803 490.407 770.659 489.812 770.659 489.133H772.865C772.865 489.549 772.936 489.903 773.076 490.196C773.223 490.489 773.425 490.729 773.683 490.917C773.94 491.099 774.239 491.233 774.579 491.321C774.925 491.409 775.294 491.453 775.687 491.453C776.202 491.453 776.633 491.38 776.979 491.233C777.33 491.087 777.594 490.882 777.77 490.618C777.945 490.354 778.033 490.05 778.033 489.704ZM785.934 493.176C785.231 493.176 784.595 493.062 784.027 492.833C783.464 492.599 782.984 492.273 782.585 491.857C782.193 491.441 781.891 490.952 781.68 490.39C781.469 489.827 781.363 489.221 781.363 488.57V488.219C781.363 487.475 781.472 486.801 781.689 486.197C781.905 485.594 782.207 485.078 782.594 484.65C782.981 484.217 783.438 483.886 783.965 483.657C784.492 483.429 785.064 483.314 785.679 483.314C786.359 483.314 786.953 483.429 787.463 483.657C787.973 483.886 788.395 484.208 788.729 484.624C789.069 485.034 789.32 485.523 789.485 486.092C789.654 486.66 789.739 487.287 789.739 487.973V488.878H782.392V487.357H787.648V487.19C787.636 486.81 787.56 486.452 787.419 486.118C787.284 485.784 787.076 485.515 786.795 485.31C786.514 485.104 786.139 485.002 785.67 485.002C785.319 485.002 785.005 485.078 784.73 485.23C784.46 485.377 784.235 485.591 784.053 485.872C783.871 486.153 783.731 486.493 783.631 486.892C783.537 487.284 783.49 487.727 783.49 488.219V488.57C783.49 488.986 783.546 489.373 783.657 489.73C783.775 490.082 783.944 490.39 784.167 490.653C784.39 490.917 784.659 491.125 784.976 491.277C785.292 491.424 785.652 491.497 786.057 491.497C786.567 491.497 787.021 491.395 787.419 491.189C787.818 490.984 788.163 490.694 788.456 490.319L789.572 491.4C789.367 491.699 789.101 491.986 788.773 492.262C788.444 492.531 788.043 492.751 787.569 492.921C787.1 493.091 786.555 493.176 785.934 493.176ZM793.272 485.318V496.656H791.154V483.49H793.105L793.272 485.318ZM799.468 488.157V488.342C799.468 489.033 799.386 489.675 799.222 490.267C799.064 490.853 798.826 491.365 798.51 491.805C798.2 492.238 797.816 492.575 797.359 492.815C796.902 493.056 796.374 493.176 795.777 493.176C795.185 493.176 794.666 493.067 794.221 492.851C793.782 492.628 793.409 492.314 793.105 491.91C792.8 491.506 792.554 491.031 792.367 490.486C792.185 489.936 792.056 489.332 791.98 488.676V487.964C792.056 487.267 792.185 486.634 792.367 486.065C792.554 485.497 792.8 485.008 793.105 484.598C793.409 484.188 793.782 483.871 794.221 483.648C794.66 483.426 795.173 483.314 795.759 483.314C796.357 483.314 796.887 483.432 797.35 483.666C797.813 483.895 798.202 484.223 798.519 484.65C798.835 485.072 799.073 485.582 799.231 486.18C799.389 486.771 799.468 487.431 799.468 488.157ZM797.35 488.342V488.157C797.35 487.718 797.309 487.311 797.227 486.936C797.145 486.555 797.016 486.221 796.84 485.934C796.664 485.646 796.439 485.424 796.163 485.266C795.894 485.102 795.569 485.02 795.188 485.02C794.813 485.02 794.491 485.084 794.221 485.213C793.951 485.336 793.726 485.509 793.544 485.731C793.363 485.954 793.222 486.215 793.122 486.514C793.023 486.807 792.952 487.126 792.911 487.472V489.177C792.982 489.599 793.102 489.985 793.272 490.337C793.442 490.688 793.682 490.97 793.992 491.181C794.309 491.386 794.713 491.488 795.205 491.488C795.586 491.488 795.911 491.406 796.181 491.242C796.451 491.078 796.67 490.853 796.84 490.565C797.016 490.272 797.145 489.936 797.227 489.555C797.309 489.174 797.35 488.77 797.35 488.342Z" fill="#20244F"/>
<path opacity="0.298007" d="M865.505 486.25V486.953C865.505 487.92 865.379 488.787 865.127 489.555C864.875 490.322 864.515 490.976 864.046 491.515C863.583 492.054 863.026 492.467 862.376 492.754C861.726 493.035 861.005 493.176 860.214 493.176C859.429 493.176 858.711 493.035 858.061 492.754C857.416 492.467 856.856 492.054 856.382 491.515C855.907 490.976 855.538 490.322 855.274 489.555C855.017 488.787 854.888 487.92 854.888 486.953V486.25C854.888 485.283 855.017 484.419 855.274 483.657C855.532 482.89 855.896 482.236 856.364 481.697C856.839 481.152 857.398 480.739 858.043 480.458C858.693 480.171 859.411 480.027 860.196 480.027C860.987 480.027 861.708 480.171 862.358 480.458C863.009 480.739 863.568 481.152 864.037 481.697C864.506 482.236 864.866 482.89 865.118 483.657C865.376 484.419 865.505 485.283 865.505 486.25ZM863.299 486.953V486.232C863.299 485.518 863.229 484.888 863.088 484.343C862.953 483.792 862.751 483.332 862.481 482.963C862.218 482.588 861.893 482.307 861.506 482.119C861.119 481.926 860.683 481.829 860.196 481.829C859.71 481.829 859.276 481.926 858.896 482.119C858.515 482.307 858.189 482.588 857.92 482.963C857.656 483.332 857.454 483.792 857.313 484.343C857.173 484.888 857.103 485.518 857.103 486.232V486.953C857.103 487.668 857.173 488.301 857.313 488.852C857.454 489.402 857.659 489.868 857.929 490.249C858.204 490.624 858.532 490.908 858.913 491.102C859.294 491.289 859.728 491.383 860.214 491.383C860.706 491.383 861.143 491.289 861.523 491.102C861.904 490.908 862.227 490.624 862.49 490.249C862.754 489.868 862.953 489.402 863.088 488.852C863.229 488.301 863.299 487.668 863.299 486.953ZM871.138 491.488C871.484 491.488 871.794 491.421 872.069 491.286C872.351 491.146 872.576 490.952 872.746 490.706C872.922 490.46 873.019 490.176 873.036 489.854H875.031C875.02 490.469 874.838 491.028 874.486 491.532C874.135 492.036 873.669 492.438 873.089 492.736C872.509 493.029 871.867 493.176 871.164 493.176C870.438 493.176 869.805 493.053 869.266 492.807C868.727 492.555 868.278 492.209 867.921 491.77C867.564 491.33 867.294 490.823 867.112 490.249C866.937 489.675 866.849 489.06 866.849 488.403V488.096C866.849 487.439 866.937 486.824 867.112 486.25C867.294 485.67 867.564 485.16 867.921 484.721C868.278 484.281 868.727 483.938 869.266 483.692C869.805 483.44 870.435 483.314 871.155 483.314C871.917 483.314 872.585 483.467 873.159 483.771C873.734 484.07 874.185 484.489 874.513 485.028C874.847 485.562 875.02 486.183 875.031 486.892H873.036C873.019 486.54 872.931 486.224 872.773 485.942C872.62 485.655 872.403 485.427 872.122 485.257C871.847 485.087 871.516 485.002 871.129 485.002C870.701 485.002 870.347 485.09 870.066 485.266C869.784 485.436 869.565 485.67 869.406 485.969C869.248 486.262 869.134 486.593 869.064 486.962C868.999 487.325 868.967 487.703 868.967 488.096V488.403C868.967 488.796 868.999 489.177 869.064 489.546C869.128 489.915 869.239 490.246 869.398 490.539C869.562 490.826 869.784 491.058 870.066 491.233C870.347 491.403 870.704 491.488 871.138 491.488ZM880.77 483.49V485.037H875.409V483.49H880.77ZM876.955 481.161H879.074V490.372C879.074 490.665 879.115 490.891 879.197 491.049C879.284 491.201 879.405 491.304 879.557 491.356C879.709 491.409 879.888 491.436 880.093 491.436C880.24 491.436 880.38 491.427 880.515 491.409C880.65 491.392 880.758 491.374 880.84 491.356L880.849 492.974C880.673 493.026 880.468 493.073 880.234 493.114C880.005 493.155 879.742 493.176 879.443 493.176C878.956 493.176 878.526 493.091 878.151 492.921C877.776 492.745 877.483 492.461 877.272 492.068C877.061 491.676 876.955 491.154 876.955 490.504V481.161Z" fill="#20244F"/>
<path opacity="0.298007" d="M949.452 480.203V493H947.246L941.507 483.833V493H939.301V480.203H941.507L947.264 489.388V480.203H949.452ZM951.218 488.351V488.148C951.218 487.463 951.318 486.827 951.517 486.241C951.716 485.649 952.003 485.137 952.378 484.703C952.759 484.264 953.222 483.924 953.767 483.684C954.318 483.438 954.939 483.314 955.63 483.314C956.327 483.314 956.948 483.438 957.493 483.684C958.044 483.924 958.51 484.264 958.891 484.703C959.272 485.137 959.562 485.649 959.761 486.241C959.96 486.827 960.06 487.463 960.06 488.148V488.351C960.06 489.036 959.96 489.672 959.761 490.258C959.562 490.844 959.272 491.356 958.891 491.796C958.51 492.229 958.047 492.569 957.502 492.815C956.957 493.056 956.339 493.176 955.648 493.176C954.95 493.176 954.326 493.056 953.776 492.815C953.231 492.569 952.768 492.229 952.387 491.796C952.006 491.356 951.716 490.844 951.517 490.258C951.318 489.672 951.218 489.036 951.218 488.351ZM953.336 488.148V488.351C953.336 488.778 953.38 489.183 953.468 489.563C953.556 489.944 953.694 490.278 953.881 490.565C954.069 490.853 954.309 491.078 954.602 491.242C954.895 491.406 955.243 491.488 955.648 491.488C956.04 491.488 956.38 491.406 956.667 491.242C956.96 491.078 957.2 490.853 957.388 490.565C957.575 490.278 957.713 489.944 957.801 489.563C957.895 489.183 957.942 488.778 957.942 488.351V488.148C957.942 487.727 957.895 487.328 957.801 486.953C957.713 486.572 957.572 486.235 957.379 485.942C957.192 485.649 956.951 485.421 956.658 485.257C956.371 485.087 956.028 485.002 955.63 485.002C955.232 485.002 954.886 485.087 954.593 485.257C954.306 485.421 954.069 485.649 953.881 485.942C953.694 486.235 953.556 486.572 953.468 486.953C953.38 487.328 953.336 487.727 953.336 488.148ZM964.541 491.321L966.87 483.49H969.068L965.763 493H964.392L964.541 491.321ZM962.757 483.49L965.13 491.356L965.244 493H963.873L960.551 483.49H962.757Z" fill="#20244F"/>
<path opacity="0.298007" d="M1027.02 493H1024.29L1024.3 491.251H1027.02C1027.81 491.251 1028.47 491.078 1029 490.732C1029.54 490.387 1029.95 489.892 1030.22 489.247C1030.49 488.603 1030.63 487.835 1030.63 486.944V486.25C1030.63 485.559 1030.55 484.946 1030.39 484.413C1030.24 483.88 1030.01 483.432 1029.71 483.068C1029.41 482.705 1029.04 482.43 1028.6 482.242C1028.17 482.055 1027.67 481.961 1027.1 481.961H1024.23V480.203H1027.1C1027.95 480.203 1028.72 480.347 1029.43 480.634C1030.13 480.915 1030.74 481.322 1031.25 481.855C1031.76 482.389 1032.16 483.027 1032.43 483.771C1032.71 484.516 1032.85 485.348 1032.85 486.268V486.944C1032.85 487.864 1032.71 488.696 1032.43 489.44C1032.16 490.185 1031.76 490.823 1031.25 491.356C1030.73 491.884 1030.12 492.291 1029.4 492.578C1028.69 492.859 1027.9 493 1027.02 493ZM1025.51 480.203V493H1023.3V480.203H1025.51ZM1038.8 493.176C1038.09 493.176 1037.46 493.062 1036.89 492.833C1036.33 492.599 1035.84 492.273 1035.45 491.857C1035.05 491.441 1034.75 490.952 1034.54 490.39C1034.33 489.827 1034.22 489.221 1034.22 488.57V488.219C1034.22 487.475 1034.33 486.801 1034.55 486.197C1034.77 485.594 1035.07 485.078 1035.46 484.65C1035.84 484.217 1036.3 483.886 1036.83 483.657C1037.35 483.429 1037.92 483.314 1038.54 483.314C1039.22 483.314 1039.81 483.429 1040.32 483.657C1040.83 483.886 1041.26 484.208 1041.59 484.624C1041.93 485.034 1042.18 485.523 1042.35 486.092C1042.52 486.66 1042.6 487.287 1042.6 487.973V488.878H1035.25V487.357H1040.51V487.19C1040.5 486.81 1040.42 486.452 1040.28 486.118C1040.15 485.784 1039.94 485.515 1039.66 485.31C1039.38 485.104 1039 485.002 1038.53 485.002C1038.18 485.002 1037.87 485.078 1037.59 485.23C1037.32 485.377 1037.1 485.591 1036.91 485.872C1036.73 486.153 1036.59 486.493 1036.49 486.892C1036.4 487.284 1036.35 487.727 1036.35 488.219V488.57C1036.35 488.986 1036.41 489.373 1036.52 489.73C1036.64 490.082 1036.81 490.39 1037.03 490.653C1037.25 490.917 1037.52 491.125 1037.84 491.277C1038.15 491.424 1038.51 491.497 1038.92 491.497C1039.43 491.497 1039.88 491.395 1040.28 491.189C1040.68 490.984 1041.02 490.694 1041.32 490.319L1042.43 491.4C1042.23 491.699 1041.96 491.986 1041.63 492.262C1041.31 492.531 1040.9 492.751 1040.43 492.921C1039.96 493.091 1039.42 493.176 1038.8 493.176ZM1047.89 491.488C1048.24 491.488 1048.55 491.421 1048.82 491.286C1049.1 491.146 1049.33 490.952 1049.5 490.706C1049.68 490.46 1049.77 490.176 1049.79 489.854H1051.78C1051.77 490.469 1051.59 491.028 1051.24 491.532C1050.89 492.036 1050.42 492.438 1049.84 492.736C1049.26 493.029 1048.62 493.176 1047.92 493.176C1047.19 493.176 1046.56 493.053 1046.02 492.807C1045.48 492.555 1045.03 492.209 1044.67 491.77C1044.32 491.33 1044.05 490.823 1043.87 490.249C1043.69 489.675 1043.6 489.06 1043.6 488.403V488.096C1043.6 487.439 1043.69 486.824 1043.87 486.25C1044.05 485.67 1044.32 485.16 1044.67 484.721C1045.03 484.281 1045.48 483.938 1046.02 483.692C1046.56 483.44 1047.19 483.314 1047.91 483.314C1048.67 483.314 1049.34 483.467 1049.91 483.771C1050.49 484.07 1050.94 484.489 1051.27 485.028C1051.6 485.562 1051.77 486.183 1051.78 486.892H1049.79C1049.77 486.54 1049.68 486.224 1049.53 485.942C1049.37 485.655 1049.16 485.427 1048.88 485.257C1048.6 485.087 1048.27 485.002 1047.88 485.002C1047.45 485.002 1047.1 485.09 1046.82 485.266C1046.54 485.436 1046.32 485.67 1046.16 485.969C1046 486.262 1045.89 486.593 1045.82 486.962C1045.75 487.325 1045.72 487.703 1045.72 488.096V488.403C1045.72 488.796 1045.75 489.177 1045.82 489.546C1045.88 489.915 1045.99 490.246 1046.15 490.539C1046.31 490.826 1046.54 491.058 1046.82 491.233C1047.1 491.403 1047.46 491.488 1047.89 491.488Z" fill="#20244F"/>
<path opacity="0.499535" d="M35.2607 487.173L33.2393 486.689L33.9688 480.203H41.1582V482.251H36.0518L35.7354 485.09C35.9053 484.99 36.1631 484.885 36.5088 484.773C36.8545 484.656 37.2412 484.598 37.6689 484.598C38.29 484.598 38.8408 484.694 39.3213 484.888C39.8018 485.081 40.209 485.362 40.543 485.731C40.8828 486.101 41.1406 486.552 41.3164 487.085C41.4922 487.618 41.5801 488.222 41.5801 488.896C41.5801 489.464 41.4922 490.006 41.3164 490.521C41.1406 491.031 40.874 491.488 40.5166 491.893C40.1592 492.291 39.7109 492.604 39.1719 492.833C38.6328 493.062 37.9941 493.176 37.2559 493.176C36.7051 493.176 36.1719 493.094 35.6562 492.93C35.1465 492.766 34.6865 492.522 34.2764 492.2C33.8721 491.878 33.5469 491.488 33.3008 491.031C33.0605 490.568 32.9346 490.041 32.9229 489.449H35.4365C35.4717 489.812 35.5654 490.126 35.7178 490.39C35.876 490.647 36.084 490.847 36.3418 490.987C36.5996 491.128 36.9014 491.198 37.2471 491.198C37.5693 491.198 37.8447 491.137 38.0732 491.014C38.3018 490.891 38.4863 490.721 38.627 490.504C38.7676 490.281 38.8701 490.023 38.9346 489.73C39.0049 489.432 39.04 489.109 39.04 488.764C39.04 488.418 38.999 488.104 38.917 487.823C38.835 487.542 38.709 487.299 38.5391 487.094C38.3691 486.889 38.1523 486.73 37.8887 486.619C37.6309 486.508 37.3291 486.452 36.9834 486.452C36.5146 486.452 36.1514 486.525 35.8936 486.672C35.6416 486.818 35.4307 486.985 35.2607 487.173ZM51.5812 485.477V487.691C51.5812 488.652 51.4787 489.481 51.2736 490.179C51.0685 490.87 50.7726 491.438 50.3859 491.884C50.005 492.323 49.5509 492.648 49.0236 492.859C48.4962 493.07 47.9103 493.176 47.2658 493.176C46.7502 493.176 46.2697 493.111 45.8244 492.982C45.3791 492.848 44.9777 492.64 44.6203 492.358C44.2687 492.077 43.964 491.723 43.7062 491.295C43.4543 490.861 43.2609 490.346 43.1261 489.748C42.9914 489.15 42.924 488.465 42.924 487.691V485.477C42.924 484.516 43.0265 483.692 43.2316 483.007C43.4425 482.315 43.7384 481.75 44.1193 481.311C44.506 480.871 44.963 480.549 45.4904 480.344C46.0177 480.133 46.6037 480.027 47.2482 480.027C47.7638 480.027 48.2414 480.095 48.6808 480.229C49.1261 480.358 49.5275 480.561 49.8849 480.836C50.2423 481.111 50.547 481.466 50.799 481.899C51.0509 482.327 51.2443 482.84 51.3791 483.438C51.5138 484.029 51.5812 484.709 51.5812 485.477ZM49.0412 488.025V485.134C49.0412 484.671 49.0148 484.267 48.9621 483.921C48.9152 483.575 48.842 483.282 48.7423 483.042C48.6427 482.796 48.5197 482.597 48.3732 482.444C48.2267 482.292 48.0597 482.181 47.8722 482.11C47.6847 482.04 47.4767 482.005 47.2482 482.005C46.9611 482.005 46.7062 482.061 46.4836 482.172C46.2668 482.283 46.0822 482.462 45.9298 482.708C45.7775 482.948 45.6603 483.271 45.5783 483.675C45.5021 484.073 45.464 484.56 45.464 485.134V488.025C45.464 488.488 45.4875 488.896 45.5343 489.247C45.5871 489.599 45.6632 489.9 45.7628 490.152C45.8683 490.398 45.9914 490.601 46.132 490.759C46.2785 490.911 46.4455 491.022 46.633 491.093C46.8263 491.163 47.0373 491.198 47.2658 491.198C47.547 491.198 47.7961 491.143 48.0128 491.031C48.2355 490.914 48.423 490.732 48.5753 490.486C48.7336 490.234 48.8507 489.906 48.9269 489.502C49.0031 489.098 49.0412 488.605 49.0412 488.025ZM61.6702 485.477V487.691C61.6702 488.652 61.5677 489.481 61.3626 490.179C61.1575 490.87 60.8616 491.438 60.4749 491.884C60.0941 492.323 59.64 492.648 59.1126 492.859C58.5853 493.07 57.9993 493.176 57.3548 493.176C56.8392 493.176 56.3587 493.111 55.9134 492.982C55.4681 492.848 55.0667 492.64 54.7093 492.358C54.3577 492.077 54.053 491.723 53.7952 491.295C53.5433 490.861 53.3499 490.346 53.2152 489.748C53.0804 489.15 53.013 488.465 53.013 487.691V485.477C53.013 484.516 53.1155 483.692 53.3206 483.007C53.5316 482.315 53.8275 481.75 54.2083 481.311C54.595 480.871 55.0521 480.549 55.5794 480.344C56.1068 480.133 56.6927 480.027 57.3372 480.027C57.8528 480.027 58.3304 480.095 58.7698 480.229C59.2152 480.358 59.6165 480.561 59.9739 480.836C60.3314 481.111 60.636 481.466 60.888 481.899C61.14 482.327 61.3333 482.84 61.4681 483.438C61.6028 484.029 61.6702 484.709 61.6702 485.477ZM59.1302 488.025V485.134C59.1302 484.671 59.1038 484.267 59.0511 483.921C59.0042 483.575 58.931 483.282 58.8314 483.042C58.7318 482.796 58.6087 482.597 58.4622 482.444C58.3157 482.292 58.1487 482.181 57.9612 482.11C57.7737 482.04 57.5657 482.005 57.3372 482.005C57.0501 482.005 56.7952 482.061 56.5726 482.172C56.3558 482.283 56.1712 482.462 56.0189 482.708C55.8665 482.948 55.7493 483.271 55.6673 483.675C55.5911 484.073 55.553 484.56 55.553 485.134V488.025C55.553 488.488 55.5765 488.896 55.6234 489.247C55.6761 489.599 55.7523 489.9 55.8519 490.152C55.9573 490.398 56.0804 490.601 56.221 490.759C56.3675 490.911 56.5345 491.022 56.722 491.093C56.9153 491.163 57.1263 491.198 57.3548 491.198C57.636 491.198 57.8851 491.143 58.1019 491.031C58.3245 490.914 58.512 490.732 58.6644 490.486C58.8226 490.234 58.9398 489.906 59.0159 489.502C59.0921 489.098 59.1302 488.605 59.1302 488.025Z" fill="#20244F"/>
<path opacity="0.499535" d="M39.0488 418.177V431H36.5176V421.095L33.4766 422.062V420.066L38.7764 418.177H39.0488ZM45.6046 417.491V431H43.0734V417.491H45.6046ZM51.5988 421.49L47.4679 426.201L45.2531 428.442L44.3302 426.614L46.088 424.382L48.5578 421.49H51.5988ZM48.9709 431L46.1584 426.605L47.9074 425.076L51.8888 431H48.9709Z" fill="#20244F"/>
<path opacity="0.499535" d="M41.6328 367.022V369H32.8789V367.312L37.0186 362.874C37.4346 362.411 37.7627 362.004 38.0029 361.652C38.2432 361.295 38.416 360.976 38.5215 360.694C38.6328 360.407 38.6885 360.135 38.6885 359.877C38.6885 359.49 38.624 359.159 38.4951 358.884C38.3662 358.603 38.1758 358.386 37.9238 358.233C37.6777 358.081 37.373 358.005 37.0098 358.005C36.623 358.005 36.2891 358.099 36.0078 358.286C35.7324 358.474 35.5215 358.734 35.375 359.068C35.2344 359.402 35.1641 359.78 35.1641 360.202H32.624C32.624 359.44 32.8057 358.743 33.1689 358.11C33.5322 357.472 34.0449 356.965 34.707 356.59C35.3691 356.209 36.1543 356.019 37.0625 356.019C37.959 356.019 38.7148 356.165 39.3301 356.458C39.9512 356.745 40.4199 357.161 40.7363 357.706C41.0586 358.245 41.2197 358.89 41.2197 359.64C41.2197 360.062 41.1523 360.475 41.0176 360.879C40.8828 361.277 40.6895 361.676 40.4375 362.074C40.1914 362.467 39.8926 362.865 39.541 363.27C39.1895 363.674 38.7998 364.093 38.3721 364.526L36.1484 367.022H41.6328ZM45.6046 355.491V369H43.0734V355.491H45.6046ZM51.5988 359.49L47.4679 364.201L45.2531 366.442L44.3302 364.614L46.088 362.382L48.5578 359.49H51.5988ZM48.9709 369L46.1584 364.605L47.9074 363.076L51.8888 369H48.9709Z" fill="#20244F"/>
<path opacity="0.499535" d="M35.4717 299.503H36.8252C37.2588 299.503 37.6162 299.43 37.8975 299.283C38.1787 299.131 38.3867 298.92 38.5215 298.65C38.6621 298.375 38.7324 298.056 38.7324 297.692C38.7324 297.364 38.668 297.074 38.5391 296.822C38.416 296.564 38.2256 296.365 37.9678 296.225C37.71 296.078 37.3848 296.005 36.9922 296.005C36.6816 296.005 36.3945 296.066 36.1309 296.189C35.8672 296.312 35.6562 296.485 35.498 296.708C35.3398 296.931 35.2607 297.2 35.2607 297.517H32.7207C32.7207 296.813 32.9082 296.201 33.2832 295.68C33.6641 295.158 34.1738 294.751 34.8125 294.458C35.4512 294.165 36.1543 294.019 36.9219 294.019C37.7891 294.019 38.5479 294.159 39.1982 294.44C39.8486 294.716 40.3555 295.123 40.7188 295.662C41.082 296.201 41.2637 296.869 41.2637 297.666C41.2637 298.07 41.1699 298.463 40.9824 298.844C40.7949 299.219 40.5254 299.559 40.1738 299.863C39.8281 300.162 39.4062 300.402 38.9082 300.584C38.4102 300.76 37.8506 300.848 37.2295 300.848H35.4717V299.503ZM35.4717 301.428V300.118H37.2295C37.9268 300.118 38.5391 300.197 39.0664 300.355C39.5938 300.514 40.0361 300.742 40.3936 301.041C40.751 301.334 41.0205 301.683 41.2021 302.087C41.3838 302.485 41.4746 302.928 41.4746 303.414C41.4746 304.012 41.3604 304.545 41.1318 305.014C40.9033 305.477 40.5811 305.869 40.165 306.191C39.7549 306.514 39.2744 306.76 38.7236 306.93C38.1729 307.094 37.5723 307.176 36.9219 307.176C36.3828 307.176 35.8525 307.103 35.3311 306.956C34.8154 306.804 34.3467 306.578 33.9248 306.279C33.5088 305.975 33.1748 305.594 32.9229 305.137C32.6768 304.674 32.5537 304.126 32.5537 303.493H35.0938C35.0938 303.821 35.1758 304.114 35.3398 304.372C35.5039 304.63 35.7295 304.832 36.0166 304.979C36.3096 305.125 36.6348 305.198 36.9922 305.198C37.3965 305.198 37.7422 305.125 38.0293 304.979C38.3223 304.826 38.5449 304.615 38.6973 304.346C38.8555 304.07 38.9346 303.751 38.9346 303.388C38.9346 302.919 38.8496 302.544 38.6797 302.263C38.5098 301.976 38.2666 301.765 37.9502 301.63C37.6338 301.495 37.2588 301.428 36.8252 301.428H35.4717ZM45.6046 293.491V307H43.0734V293.491H45.6046ZM51.5988 297.49L47.4679 302.201L45.2531 304.442L44.3302 302.614L46.088 300.382L48.5578 297.49H51.5988ZM48.9709 307L46.1584 302.605L47.9074 301.076L51.8888 307H48.9709Z" fill="#20244F"/>
<path opacity="0.499535" d="M41.8438 240.219V242.205H32.624L32.501 240.667L37.8359 232.203H39.8486L37.6689 235.851L35.0146 240.219H41.8438ZM40.3936 232.203V245H37.8623V232.203H40.3936ZM45.6046 231.491V245H43.0734V231.491H45.6046ZM51.5988 235.49L47.4679 240.201L45.2531 242.442L44.3302 240.614L46.088 238.382L48.5578 235.49H51.5988ZM48.9709 245L46.1584 240.605L47.9074 239.076L51.8888 245H48.9709Z" fill="#20244F"/>
<path opacity="0.499535" d="M35.2607 177.173L33.2393 176.689L33.9688 170.203H41.1582V172.251H36.0518L35.7354 175.09C35.9053 174.99 36.1631 174.885 36.5088 174.773C36.8545 174.656 37.2412 174.598 37.6689 174.598C38.29 174.598 38.8408 174.694 39.3213 174.888C39.8018 175.081 40.209 175.362 40.543 175.731C40.8828 176.101 41.1406 176.552 41.3164 177.085C41.4922 177.618 41.5801 178.222 41.5801 178.896C41.5801 179.464 41.4922 180.006 41.3164 180.521C41.1406 181.031 40.874 181.488 40.5166 181.893C40.1592 182.291 39.7109 182.604 39.1719 182.833C38.6328 183.062 37.9941 183.176 37.2559 183.176C36.7051 183.176 36.1719 183.094 35.6562 182.93C35.1465 182.766 34.6865 182.522 34.2764 182.2C33.8721 181.878 33.5469 181.488 33.3008 181.031C33.0605 180.568 32.9346 180.041 32.9229 179.449H35.4365C35.4717 179.812 35.5654 180.126 35.7178 180.39C35.876 180.647 36.084 180.847 36.3418 180.987C36.5996 181.128 36.9014 181.198 37.2471 181.198C37.5693 181.198 37.8447 181.137 38.0732 181.014C38.3018 180.891 38.4863 180.721 38.627 180.504C38.7676 180.281 38.8701 180.023 38.9346 179.73C39.0049 179.432 39.04 179.109 39.04 178.764C39.04 178.418 38.999 178.104 38.917 177.823C38.835 177.542 38.709 177.299 38.5391 177.094C38.3691 176.889 38.1523 176.73 37.8887 176.619C37.6309 176.508 37.3291 176.452 36.9834 176.452C36.5146 176.452 36.1514 176.525 35.8936 176.672C35.6416 176.818 35.4307 176.985 35.2607 177.173ZM45.6046 169.491V183H43.0734V169.491H45.6046ZM51.5988 173.49L47.4679 178.201L45.2531 180.442L44.3302 178.614L46.088 176.382L48.5578 173.49H51.5988ZM48.9709 183L46.1584 178.605L47.9074 177.076L51.8888 183H48.9709Z" fill="#20244F"/>
<path opacity="0.499535" d="M39.4092 108.071H39.7783V110.093H39.6289C38.9609 110.093 38.3662 110.192 37.8447 110.392C37.3232 110.591 36.8809 110.875 36.5176 111.244C36.1602 111.607 35.8848 112.047 35.6914 112.562C35.5039 113.078 35.4102 113.655 35.4102 114.294V116.421C35.4102 116.878 35.4541 117.282 35.542 117.634C35.6357 117.979 35.7676 118.27 35.9375 118.504C36.1133 118.732 36.3184 118.905 36.5527 119.022C36.7871 119.134 37.0508 119.189 37.3438 119.189C37.6191 119.189 37.8682 119.131 38.0908 119.014C38.3193 118.896 38.5127 118.732 38.6709 118.521C38.835 118.305 38.958 118.053 39.04 117.766C39.1279 117.473 39.1719 117.153 39.1719 116.808C39.1719 116.462 39.1279 116.143 39.04 115.85C38.958 115.557 38.835 115.305 38.6709 115.094C38.5068 114.877 38.3076 114.71 38.0732 114.593C37.8389 114.476 37.5752 114.417 37.2822 114.417C36.8838 114.417 36.5322 114.511 36.2275 114.698C35.9287 114.88 35.6943 115.114 35.5244 115.401C35.3545 115.688 35.2637 115.99 35.252 116.307L34.4873 115.814C34.5049 115.363 34.5986 114.936 34.7686 114.531C34.9443 114.127 35.1846 113.77 35.4893 113.459C35.7998 113.143 36.1719 112.896 36.6055 112.721C37.0391 112.539 37.5283 112.448 38.0732 112.448C38.6709 112.448 39.1953 112.562 39.6465 112.791C40.1035 113.02 40.4844 113.333 40.7891 113.731C41.0938 114.13 41.3223 114.59 41.4746 115.111C41.627 115.633 41.7031 116.189 41.7031 116.781C41.7031 117.402 41.6006 117.979 41.3955 118.513C41.1963 119.046 40.9062 119.512 40.5254 119.91C40.1504 120.309 39.6992 120.619 39.1719 120.842C38.6445 121.064 38.0527 121.176 37.3965 121.176C36.7168 121.176 36.0986 121.053 35.542 120.807C34.9912 120.555 34.5166 120.203 34.1182 119.752C33.7197 119.301 33.4121 118.765 33.1953 118.144C32.9844 117.522 32.8789 116.843 32.8789 116.104V115.12C32.8789 114.089 33.0283 113.146 33.3271 112.29C33.6318 111.429 34.0684 110.685 34.6367 110.058C35.2051 109.425 35.8906 108.936 36.6934 108.59C37.4961 108.244 38.4014 108.071 39.4092 108.071ZM45.6046 107.491V121H43.0734V107.491H45.6046ZM51.5988 111.49L47.4679 116.201L45.2531 118.442L44.3302 116.614L46.088 114.382L48.5578 111.49H51.5988ZM48.9709 121L46.1584 116.605L47.9074 115.076L51.8888 121H48.9709Z" fill="#20244F"/>
<rect x="114" y="424" width="928" height="2" rx="1" fill="#797C95" fill-opacity="0.0904071"/>
<rect x="114" y="362" width="928" height="2" rx="1" fill="#797C95" fill-opacity="0.0904071"/>
<rect x="114" y="300" width="928" height="2" rx="1" fill="#797C95" fill-opacity="0.0904071"/>
<rect x="114" y="238" width="928" height="2" rx="1" fill="#797C95" fill-opacity="0.0904071"/>
<rect x="114" y="176" width="928" height="2" rx="1" fill="#797C95" fill-opacity="0.0904071"/>
<rect x="114" y="114" width="928" height="2" rx="1" fill="#797C95" fill-opacity="0.0904071"/>
<g opacity="0.384932">
<rect x="535" y="427" width="312" height="2" rx="1" transform="rotate(-90 535 427)" fill="#797C95" fill-opacity="0.0904071"/>
<rect x="451" y="427" width="312" height="2" rx="1" transform="rotate(-90 451 427)" fill="#797C95" fill-opacity="0.0904071"/>
<rect x="367" y="427" width="312" height="2" rx="1" transform="rotate(-90 367 427)" fill="#797C95" fill-opacity="0.0904071"/>
<rect x="283" y="427" width="312" height="2" rx="1" transform="rotate(-90 283 427)" fill="#797C95" fill-opacity="0.0904071"/>
<rect x="199" y="427" width="312" height="2" rx="1" transform="rotate(-90 199 427)" fill="#797C95" fill-opacity="0.0904071"/>
<rect x="115" y="427" width="312" height="2" rx="1" transform="rotate(-90 115 427)" fill="#797C95" fill-opacity="0.0904071"/>
<rect x="1039" y="427" width="312" height="2" rx="1" transform="rotate(-90 1039 427)" fill="#797C95" fill-opacity="0.0904071"/>
<rect x="955" y="427" width="312" height="2" rx="1" transform="rotate(-90 955 427)" fill="#797C95" fill-opacity="0.0904071"/>
<rect x="871" y="427" width="312" height="2" rx="1" transform="rotate(-90 871 427)" fill="#797C95" fill-opacity="0.0904071"/>
<rect x="787" y="427" width="312" height="2" rx="1" transform="rotate(-90 787 427)" fill="#797C95" fill-opacity="0.0904071"/>
<rect x="703" y="427" width="312" height="2" rx="1" transform="rotate(-90 703 427)" fill="#797C95" fill-opacity="0.0904071"/>
<rect x="619" y="427" width="312" height="2" rx="1" transform="rotate(-90 619 427)" fill="#797C95" fill-opacity="0.0904071"/>
</g>
<path fill-rule="evenodd" clip-rule="evenodd" d="M114 425L200 376.254L285 387.479L369 350L452 380.344L535 350L621 344L704 256.8L787 338L872 300L956 176L1042 164V426L114 425Z" fill="url(#paint0_linear_0_93)" fill-opacity="0.08"/>
<path d="M114 425L200 376.254L285 387.479L369 350L452 380.344L535 350L621 344L704 256.8L787 338L872 300L956 176L1041 164" stroke="#7682F9" stroke-width="6" stroke-linecap="round" stroke-linejoin="round"/>
<g filter="url(#filter0_b_0_93)">
<rect x="700" y="88" width="8" height="366" rx="4" fill="url(#paint1_linear_0_93)"/>
</g>
<circle cx="705" cy="257" r="11" fill="#3F4267" stroke="white" stroke-width="4"/>
<g clip-path="url(#clip1_0_93)">
<g filter="url(#filter1_bd_0_93)">
<path fill-rule="evenodd" clip-rule="evenodd" d="M643.09 173.46C642 175.599 642 178.399 642 184V194C642 199.601 642 202.401 643.09 204.54C644.049 206.422 645.578 207.951 647.46 208.91C649.599 210 652.399 210 658 210H694L701.218 214.819C702.563 215.716 704.316 215.716 705.66 214.819L712.879 210H748C753.601 210 756.401 210 758.54 208.91C760.422 207.951 761.951 206.422 762.91 204.54C764 202.401 764 199.601 764 194V184C764 178.399 764 175.599 762.91 173.46C761.951 171.578 760.422 170.049 758.54 169.09C756.401 168 753.601 168 748 168H658C652.399 168 649.599 168 647.46 169.09C645.578 170.049 644.049 171.578 643.09 173.46Z" fill="#20244F" fill-opacity="0.86"/>
</g>
<path d="M666.066 179.477L665.588 182.455H664.152L664.631 179.477H666.066ZM663.4 195.424L662.99 198.031H661.564L661.975 195.424H663.4ZM665.764 192.27C665.822 191.794 665.751 191.394 665.549 191.068C665.347 190.743 665.07 190.473 664.719 190.258C664.367 190.036 663.996 189.851 663.605 189.701C662.954 189.454 662.368 189.151 661.848 188.793C661.333 188.435 660.933 187.992 660.646 187.465C660.367 186.938 660.253 186.293 660.305 185.531C660.363 184.711 660.601 184.001 661.018 183.402C661.434 182.803 661.975 182.344 662.639 182.025C663.303 181.706 664.038 181.557 664.846 181.576C665.516 181.589 666.086 181.719 666.555 181.967C667.03 182.214 667.408 182.549 667.688 182.973C667.974 183.389 668.173 183.871 668.283 184.418C668.394 184.965 668.43 185.544 668.391 186.156H666.633C666.659 185.818 666.649 185.476 666.604 185.131C666.564 184.779 666.477 184.457 666.34 184.164C666.203 183.871 666.005 183.633 665.744 183.451C665.484 183.269 665.148 183.171 664.738 183.158C664.25 183.145 663.814 183.233 663.43 183.422C663.052 183.611 662.746 183.881 662.512 184.232C662.277 184.584 662.131 185.001 662.072 185.482C662.02 185.984 662.092 186.397 662.287 186.723C662.489 187.048 662.769 187.318 663.127 187.533C663.485 187.748 663.869 187.937 664.279 188.1C664.924 188.354 665.5 188.66 666.008 189.018C666.522 189.369 666.916 189.809 667.189 190.336C667.469 190.857 667.583 191.495 667.531 192.25C667.466 193.129 667.202 193.865 666.74 194.457C666.278 195.049 665.686 195.495 664.963 195.795C664.247 196.088 663.472 196.228 662.639 196.215C661.981 196.202 661.402 196.088 660.9 195.873C660.406 195.652 659.992 195.346 659.66 194.955C659.335 194.558 659.094 194.096 658.938 193.568C658.788 193.035 658.732 192.449 658.771 191.811H660.549C660.523 192.195 660.542 192.556 660.607 192.895C660.679 193.227 660.799 193.523 660.969 193.783C661.145 194.037 661.376 194.239 661.662 194.389C661.955 194.532 662.31 194.61 662.727 194.623C663.228 194.63 663.697 194.548 664.133 194.379C664.576 194.203 664.943 193.939 665.236 193.588C665.529 193.23 665.705 192.79 665.764 192.27ZM677.168 187.826H678.574C679.121 187.826 679.574 187.732 679.932 187.543C680.296 187.354 680.567 187.094 680.742 186.762C680.918 186.43 681.006 186.049 681.006 185.619C681.006 185.17 680.925 184.786 680.762 184.467C680.606 184.141 680.365 183.891 680.039 183.715C679.72 183.539 679.313 183.451 678.818 183.451C678.402 183.451 678.024 183.536 677.686 183.705C677.354 183.868 677.09 184.102 676.895 184.408C676.699 184.708 676.602 185.066 676.602 185.482H674.238C674.238 184.727 674.437 184.057 674.834 183.471C675.231 182.885 675.772 182.426 676.455 182.094C677.145 181.755 677.92 181.586 678.779 181.586C679.697 181.586 680.498 181.739 681.182 182.045C681.872 182.344 682.409 182.794 682.793 183.393C683.177 183.992 683.369 184.734 683.369 185.619C683.369 186.023 683.275 186.433 683.086 186.85C682.897 187.266 682.617 187.647 682.246 187.992C681.875 188.331 681.413 188.607 680.859 188.822C680.306 189.031 679.665 189.135 678.936 189.135H677.168V187.826ZM677.168 189.662V188.373H678.936C679.769 188.373 680.479 188.471 681.065 188.666C681.657 188.861 682.139 189.132 682.51 189.477C682.881 189.815 683.151 190.202 683.32 190.639C683.496 191.075 683.584 191.537 683.584 192.025C683.584 192.689 683.464 193.282 683.223 193.803C682.988 194.317 682.653 194.753 682.217 195.111C681.781 195.469 681.27 195.74 680.684 195.922C680.104 196.104 679.473 196.195 678.789 196.195C678.177 196.195 677.591 196.111 677.031 195.941C676.471 195.772 675.97 195.521 675.527 195.189C675.085 194.851 674.733 194.431 674.473 193.93C674.219 193.422 674.092 192.836 674.092 192.172H676.445C676.445 192.595 676.543 192.969 676.738 193.295C676.94 193.614 677.22 193.865 677.578 194.047C677.943 194.229 678.359 194.32 678.828 194.32C679.323 194.32 679.749 194.232 680.108 194.057C680.466 193.881 680.739 193.62 680.928 193.275C681.123 192.93 681.221 192.514 681.221 192.025C681.221 191.472 681.113 191.023 680.899 190.678C680.684 190.333 680.378 190.079 679.981 189.916C679.583 189.747 679.115 189.662 678.574 189.662H677.168ZM685.732 194.828C685.732 194.464 685.855 194.158 686.103 193.91C686.35 193.656 686.685 193.529 687.109 193.529C687.538 193.529 687.874 193.656 688.114 193.91C688.362 194.158 688.486 194.464 688.486 194.828C688.486 195.193 688.362 195.499 688.114 195.746C687.874 195.993 687.538 196.117 687.109 196.117C686.685 196.117 686.35 195.993 686.103 195.746C685.855 195.499 685.732 195.193 685.732 194.828ZM700.321 194.125V196H690.789V194.389L695.418 189.34C695.926 188.767 696.326 188.272 696.619 187.855C696.912 187.439 697.117 187.064 697.235 186.732C697.358 186.394 697.42 186.065 697.42 185.746C697.42 185.297 697.336 184.903 697.166 184.564C697.004 184.219 696.763 183.949 696.444 183.754C696.125 183.552 695.737 183.451 695.281 183.451C694.754 183.451 694.311 183.565 693.953 183.793C693.595 184.021 693.325 184.337 693.143 184.74C692.961 185.137 692.869 185.593 692.869 186.107H690.516C690.516 185.281 690.705 184.525 691.082 183.842C691.46 183.152 692.007 182.605 692.723 182.201C693.439 181.791 694.302 181.586 695.311 181.586C696.261 181.586 697.069 181.745 697.733 182.064C698.397 182.383 698.901 182.836 699.246 183.422C699.598 184.008 699.774 184.701 699.774 185.502C699.774 185.945 699.702 186.384 699.559 186.82C699.416 187.257 699.211 187.693 698.944 188.129C698.683 188.559 698.374 188.992 698.016 189.428C697.658 189.857 697.264 190.294 696.834 190.736L693.758 194.125H700.321ZM708.308 181.732V196H705.954V184.525L702.468 185.707V183.764L708.025 181.732H708.308ZM719.401 181.732V196H717.047V184.525L713.561 185.707V183.764L719.118 181.732H719.401ZM726.412 193.734L726.402 195.414C726.402 196.078 726.236 196.762 725.904 197.465C725.572 198.168 725.132 198.747 724.585 199.203L723.326 198.471C723.508 198.178 723.674 197.882 723.824 197.582C723.973 197.283 724.094 196.964 724.185 196.625C724.276 196.286 724.322 195.912 724.322 195.502V193.734H726.412ZM734.692 181.732V196H732.338V184.525L728.852 185.707V183.764L734.409 181.732H734.692ZM746.468 181.693H746.761V183.617H746.595C745.755 183.617 745.03 183.747 744.418 184.008C743.812 184.268 743.314 184.626 742.923 185.082C742.533 185.538 742.24 186.072 742.045 186.684C741.856 187.289 741.761 187.934 741.761 188.617V190.854C741.761 191.42 741.823 191.921 741.947 192.357C742.071 192.787 742.243 193.148 742.464 193.441C742.692 193.728 742.953 193.946 743.246 194.096C743.539 194.245 743.854 194.32 744.193 194.32C744.545 194.32 744.864 194.249 745.15 194.105C745.436 193.956 745.681 193.751 745.882 193.49C746.084 193.23 746.237 192.921 746.341 192.562C746.446 192.204 746.498 191.814 746.498 191.391C746.498 190.987 746.446 190.609 746.341 190.258C746.244 189.9 746.097 189.587 745.902 189.32C745.707 189.047 745.462 188.835 745.17 188.686C744.883 188.529 744.551 188.451 744.173 188.451C743.705 188.451 743.278 188.562 742.894 188.783C742.517 189.005 742.211 189.294 741.976 189.652C741.748 190.004 741.625 190.378 741.605 190.775L740.707 190.482C740.759 189.877 740.892 189.333 741.107 188.852C741.328 188.37 741.618 187.96 741.976 187.621C742.334 187.283 742.748 187.025 743.216 186.85C743.692 186.667 744.212 186.576 744.779 186.576C745.469 186.576 746.068 186.706 746.576 186.967C747.084 187.227 747.503 187.582 747.836 188.031C748.174 188.474 748.425 188.982 748.587 189.555C748.757 190.121 748.841 190.714 748.841 191.332C748.841 192.016 748.737 192.654 748.529 193.246C748.321 193.832 748.015 194.346 747.611 194.789C747.214 195.232 746.729 195.577 746.156 195.824C745.589 196.072 744.945 196.195 744.222 196.195C743.461 196.195 742.78 196.049 742.181 195.756C741.589 195.463 741.084 195.059 740.668 194.545C740.257 194.031 739.945 193.438 739.73 192.768C739.515 192.097 739.408 191.387 739.408 190.639V189.662C739.408 188.581 739.545 187.562 739.818 186.605C740.091 185.642 740.511 184.792 741.078 184.057C741.651 183.321 742.383 182.745 743.275 182.328C744.167 181.905 745.231 181.693 746.468 181.693Z" fill="white"/>
</g>
<rect x="943.9" y="30.5" width="99.4064" height="41" rx="4.5" fill="white" stroke="#DDDDE1"/>
<path opacity="0.747338" d="M961.755 50.6609H962.88C963.318 50.6609 963.68 50.5854 963.966 50.4344C964.258 50.2833 964.474 50.075 964.615 49.8094C964.755 49.5438 964.825 49.2391 964.825 48.8953C964.825 48.5359 964.76 48.2287 964.63 47.9734C964.505 47.713 964.312 47.5125 964.052 47.3719C963.797 47.2313 963.471 47.1609 963.075 47.1609C962.742 47.1609 962.44 47.2287 962.169 47.3641C961.904 47.4943 961.693 47.6818 961.536 47.9266C961.38 48.1662 961.302 48.4526 961.302 48.7859H959.411C959.411 48.1818 959.57 47.6453 959.888 47.1766C960.206 46.7078 960.638 46.3406 961.185 46.075C961.737 45.8042 962.357 45.6688 963.044 45.6688C963.779 45.6688 964.419 45.7912 964.966 46.0359C965.518 46.2755 965.948 46.6349 966.255 47.1141C966.562 47.5932 966.716 48.187 966.716 48.8953C966.716 49.2182 966.641 49.5464 966.49 49.8797C966.338 50.213 966.115 50.5177 965.818 50.7938C965.521 51.0646 965.151 51.2859 964.708 51.4578C964.266 51.6245 963.753 51.7078 963.169 51.7078H961.755V50.6609ZM961.755 52.1297V51.0984H963.169C963.836 51.0984 964.404 51.1766 964.872 51.3328C965.346 51.4891 965.732 51.7052 966.029 51.9813C966.325 52.2521 966.542 52.562 966.677 52.9109C966.818 53.2599 966.888 53.6297 966.888 54.0203C966.888 54.5516 966.792 55.0255 966.599 55.4422C966.411 55.8537 966.143 56.2026 965.794 56.4891C965.445 56.7755 965.036 56.9917 964.568 57.1375C964.104 57.2833 963.599 57.3563 963.052 57.3563C962.562 57.3563 962.094 57.2886 961.646 57.1531C961.198 57.0177 960.797 56.8172 960.443 56.5516C960.088 56.2807 959.807 55.9448 959.599 55.5438C959.396 55.1375 959.294 54.6688 959.294 54.1375H961.177C961.177 54.4761 961.255 54.7755 961.411 55.0359C961.573 55.2912 961.797 55.4917 962.083 55.6375C962.375 55.7833 962.708 55.8563 963.083 55.8563C963.479 55.8563 963.82 55.7859 964.107 55.6453C964.393 55.5047 964.612 55.2964 964.763 55.0203C964.919 54.7443 964.997 54.4109 964.997 54.0203C964.997 53.5776 964.911 53.2182 964.74 52.9422C964.568 52.6662 964.323 52.463 964.005 52.3328C963.687 52.1974 963.312 52.1297 962.88 52.1297H961.755ZM975.833 50.5594V52.4188C975.833 53.3094 975.744 54.0698 975.567 54.7C975.395 55.325 975.145 55.8328 974.817 56.2234C974.489 56.6141 974.096 56.9005 973.637 57.0828C973.184 57.2651 972.676 57.3563 972.114 57.3563C971.666 57.3563 971.249 57.299 970.864 57.1844C970.484 57.0698 970.14 56.8901 969.833 56.6453C969.525 56.4005 969.262 56.0854 969.043 55.7C968.83 55.3094 968.663 54.8432 968.543 54.3016C968.429 53.7599 968.372 53.1323 968.372 52.4188V50.5594C968.372 49.6636 968.46 48.9083 968.637 48.2938C968.814 47.674 969.067 47.1714 969.395 46.7859C969.723 46.3953 970.114 46.1115 970.567 45.9344C971.025 45.7573 971.536 45.6688 972.098 45.6688C972.551 45.6688 972.968 45.7261 973.348 45.8406C973.734 45.95 974.077 46.1245 974.379 46.3641C974.687 46.6037 974.947 46.9162 975.161 47.3016C975.379 47.6818 975.546 48.1427 975.661 48.6844C975.775 49.2208 975.833 49.8458 975.833 50.5594ZM973.95 52.6844V50.2781C973.95 49.825 973.924 49.4266 973.872 49.0828C973.819 48.7339 973.741 48.4396 973.637 48.2C973.538 47.9552 973.413 47.7573 973.262 47.6063C973.111 47.45 972.939 47.338 972.747 47.2703C972.554 47.1974 972.338 47.1609 972.098 47.1609C971.806 47.1609 971.546 47.2182 971.317 47.3328C971.088 47.4422 970.895 47.6193 970.739 47.8641C970.583 48.1089 970.463 48.4318 970.379 48.8328C970.301 49.2287 970.262 49.7104 970.262 50.2781V52.6844C970.262 53.1427 970.288 53.5464 970.34 53.8953C970.392 54.2443 970.471 54.5438 970.575 54.7938C970.679 55.0386 970.804 55.2417 970.95 55.4031C971.101 55.5594 971.273 55.674 971.465 55.7469C971.663 55.8198 971.879 55.8563 972.114 55.8563C972.411 55.8563 972.674 55.799 972.903 55.6844C973.132 55.5698 973.325 55.3875 973.481 55.1375C973.637 54.8823 973.754 54.5516 973.833 54.1453C973.911 53.7391 973.95 53.2521 973.95 52.6844ZM986.323 55.45V45.2H988.214V57.2H986.503L986.323 55.45ZM980.823 53.0672V52.9031C980.823 52.2625 980.899 51.6792 981.05 51.1531C981.201 50.6219 981.42 50.1662 981.706 49.7859C981.993 49.4005 982.341 49.1063 982.753 48.9031C983.164 48.6948 983.628 48.5906 984.144 48.5906C984.654 48.5906 985.102 48.6896 985.487 48.8875C985.873 49.0854 986.201 49.3693 986.472 49.7391C986.743 50.1037 986.959 50.5412 987.12 51.0516C987.282 51.5568 987.396 52.1193 987.464 52.7391V53.2625C987.396 53.8667 987.282 54.4188 987.12 54.9188C986.959 55.4188 986.743 55.8511 986.472 56.2156C986.201 56.5802 985.87 56.8615 985.479 57.0594C985.094 57.2573 984.644 57.3563 984.128 57.3563C983.618 57.3563 983.157 57.2495 982.745 57.0359C982.339 56.8224 981.993 56.5229 981.706 56.1375C981.42 55.7521 981.201 55.299 981.05 54.7781C980.899 54.2521 980.823 53.6818 980.823 53.0672ZM982.706 52.9031V53.0672C982.706 53.4526 982.74 53.812 982.808 54.1453C982.881 54.4787 982.993 54.7729 983.144 55.0281C983.295 55.2781 983.49 55.4761 983.729 55.6219C983.974 55.7625 984.266 55.8328 984.604 55.8328C985.032 55.8328 985.383 55.7391 985.659 55.5516C985.935 55.3641 986.151 55.1115 986.308 54.7938C986.469 54.4708 986.578 54.1115 986.636 53.7156V52.3016C986.604 51.9943 986.539 51.7078 986.44 51.4422C986.347 51.1766 986.219 50.9448 986.058 50.7469C985.896 50.5438 985.696 50.3875 985.456 50.2781C985.222 50.1636 984.943 50.1063 984.62 50.1063C984.276 50.1063 983.985 50.1792 983.745 50.325C983.506 50.4708 983.308 50.6714 983.151 50.9266C983 51.1818 982.888 51.4787 982.815 51.8172C982.743 52.1557 982.706 52.5177 982.706 52.9031ZM994.729 55.5047V51.4734C994.729 51.1714 994.674 50.9109 994.565 50.6922C994.455 50.4734 994.289 50.3042 994.065 50.1844C993.846 50.0646 993.57 50.0047 993.237 50.0047C992.929 50.0047 992.664 50.0568 992.44 50.1609C992.216 50.2651 992.041 50.4057 991.916 50.5828C991.791 50.7599 991.729 50.9604 991.729 51.1844H989.854C989.854 50.8511 989.934 50.5281 990.096 50.2156C990.257 49.9031 990.492 49.6245 990.799 49.3797C991.106 49.1349 991.474 48.9422 991.901 48.8016C992.328 48.6609 992.807 48.5906 993.338 48.5906C993.974 48.5906 994.536 48.6974 995.026 48.9109C995.52 49.1245 995.908 49.4474 996.19 49.8797C996.476 50.3068 996.619 50.8432 996.619 51.4891V55.2469C996.619 55.6323 996.645 55.9787 996.698 56.2859C996.755 56.588 996.836 56.8511 996.94 57.075V57.2H995.01C994.921 56.9969 994.851 56.7391 994.799 56.4266C994.752 56.1089 994.729 55.8016 994.729 55.5047ZM995.002 52.0594L995.018 53.2234H993.666C993.317 53.2234 993.01 53.2573 992.744 53.325C992.479 53.3875 992.257 53.4813 992.08 53.6063C991.903 53.7313 991.77 53.8823 991.682 54.0594C991.593 54.2365 991.549 54.437 991.549 54.6609C991.549 54.8849 991.601 55.0906 991.705 55.2781C991.809 55.4604 991.961 55.6037 992.158 55.7078C992.362 55.812 992.606 55.8641 992.893 55.8641C993.278 55.8641 993.614 55.7859 993.901 55.6297C994.192 55.4682 994.421 55.2729 994.588 55.0438C994.755 54.8094 994.843 54.588 994.854 54.3797L995.463 55.2156C995.401 55.4292 995.294 55.6583 995.143 55.9031C994.992 56.1479 994.794 56.3823 994.549 56.6063C994.309 56.825 994.02 57.0047 993.682 57.1453C993.349 57.2859 992.963 57.3563 992.526 57.3563C991.974 57.3563 991.481 57.2469 991.049 57.0281C990.617 56.8042 990.278 56.5047 990.033 56.1297C989.789 55.7495 989.666 55.3198 989.666 54.8406C989.666 54.3927 989.75 53.9969 989.916 53.6531C990.088 53.3042 990.338 53.0125 990.666 52.7781C991 52.5438 991.406 52.3667 991.885 52.2469C992.364 52.1219 992.911 52.0594 993.526 52.0594H995.002ZM1000.7 56.2781L1002.99 48.7469H1005.01L1001.62 58.4891C1001.54 58.6974 1001.44 58.924 1001.31 59.1688C1001.19 59.4136 1001.02 59.6453 1000.82 59.8641C1000.62 60.088 1000.38 60.2677 1000.08 60.4031C999.783 60.5438 999.423 60.6141 999.001 60.6141C998.835 60.6141 998.673 60.5984 998.517 60.5672C998.366 60.5412 998.223 60.5125 998.087 60.4813L998.08 59.0438C998.132 59.049 998.194 59.0542 998.267 59.0594C998.345 59.0646 998.408 59.0672 998.455 59.0672C998.767 59.0672 999.028 59.0281 999.236 58.95C999.444 58.8771 999.613 58.7573 999.744 58.5906C999.879 58.424 999.994 58.2 1000.09 57.9188L1000.7 56.2781ZM999.4 48.7469L1001.41 55.075L1001.74 57.0594L1000.44 57.3953L997.369 48.7469H999.4ZM1010.61 54.9109C1010.61 54.7234 1010.56 54.5542 1010.47 54.4031C1010.38 54.2469 1010.2 54.1063 1009.93 53.9813C1009.67 53.8563 1009.28 53.7417 1008.77 53.6375C1008.33 53.5386 1007.91 53.4214 1007.54 53.2859C1007.17 53.1453 1006.85 52.9761 1006.59 52.7781C1006.32 52.5802 1006.12 52.3458 1005.97 52.075C1005.82 51.8042 1005.75 51.4917 1005.75 51.1375C1005.75 50.7938 1005.83 50.4682 1005.98 50.1609C1006.13 49.8537 1006.34 49.5828 1006.63 49.3484C1006.91 49.1141 1007.25 48.9292 1007.65 48.7938C1008.06 48.6583 1008.51 48.5906 1009.01 48.5906C1009.72 48.5906 1010.32 48.7104 1010.83 48.95C1011.34 49.1844 1011.73 49.5047 1012 49.9109C1012.27 50.312 1012.41 50.7651 1012.41 51.2703H1010.52C1010.52 51.0464 1010.47 50.838 1010.35 50.6453C1010.24 50.4474 1010.08 50.2886 1009.85 50.1688C1009.63 50.0438 1009.35 49.9813 1009.01 49.9813C1008.69 49.9813 1008.42 50.0333 1008.2 50.1375C1008 50.2365 1007.84 50.3667 1007.74 50.5281C1007.64 50.6896 1007.59 50.8667 1007.59 51.0594C1007.59 51.2 1007.61 51.3276 1007.66 51.4422C1007.72 51.5516 1007.82 51.6531 1007.95 51.7469C1008.08 51.8354 1008.25 51.9188 1008.48 51.9969C1008.71 52.075 1008.99 52.1505 1009.34 52.2234C1009.98 52.3589 1010.54 52.5333 1011 52.7469C1011.47 52.9552 1011.83 53.2261 1012.08 53.5594C1012.33 53.8875 1012.45 54.3042 1012.45 54.8094C1012.45 55.1844 1012.37 55.5281 1012.21 55.8406C1012.06 56.1479 1011.83 56.4162 1011.52 56.6453C1011.22 56.8693 1010.86 57.0438 1010.44 57.1688C1010.02 57.2938 1009.55 57.3563 1009.03 57.3563C1008.27 57.3563 1007.62 57.2208 1007.09 56.95C1006.56 56.674 1006.15 56.3224 1005.88 55.8953C1005.6 55.463 1005.47 55.0151 1005.47 54.5516H1007.29C1007.31 54.9005 1007.41 55.1792 1007.58 55.3875C1007.76 55.5906 1007.97 55.7391 1008.24 55.8328C1008.5 55.9214 1008.77 55.9656 1009.06 55.9656C1009.39 55.9656 1009.68 55.9214 1009.91 55.8328C1010.14 55.7391 1010.31 55.6141 1010.43 55.4578C1010.55 55.2964 1010.61 55.1141 1010.61 54.9109Z" fill="#20244F"/>
<path fill-rule="evenodd" clip-rule="evenodd" d="M1022.45 49.4H1032.52L1027.48 54.1003L1022.45 49.4Z" fill="#585B7B"/>
<path d="M43.3511 46.6006V49H35.4043V46.6006H43.3511ZM36.4092 34.0703V49H33.333V34.0703H36.4092ZM42.3154 40.1509V42.4888H35.4043V40.1509H42.3154ZM43.3408 34.0703V36.48H35.4043V34.0703H43.3408ZM50.6611 46.498V41.5557C50.6611 41.2002 50.603 40.896 50.4868 40.6431C50.3706 40.3833 50.1895 40.1816 49.9434 40.0381C49.7041 39.8945 49.3931 39.8228 49.0103 39.8228C48.6821 39.8228 48.3985 39.8809 48.1592 39.9971C47.9199 40.1064 47.7354 40.2671 47.6055 40.479C47.4756 40.6841 47.4107 40.9268 47.4107 41.207H44.4575C44.4575 40.7354 44.5669 40.2876 44.7857 39.8638C45.0044 39.4399 45.3223 39.0674 45.7393 38.7461C46.1563 38.418 46.6519 38.1616 47.2261 37.9771C47.8071 37.7925 48.4566 37.7002 49.1743 37.7002C50.0357 37.7002 50.8013 37.8438 51.4712 38.1309C52.1411 38.418 52.6675 38.8486 53.0503 39.4229C53.44 39.9971 53.6348 40.7148 53.6348 41.5762V46.3237C53.6348 46.9321 53.6724 47.4312 53.7476 47.8208C53.8228 48.2036 53.9321 48.5386 54.0757 48.8257V49H51.0918C50.9483 48.6992 50.8389 48.3232 50.7637 47.8721C50.6953 47.4141 50.6611 46.9561 50.6611 46.498ZM51.0508 42.2427L51.0713 43.9141H49.4204C49.0308 43.9141 48.6924 43.9585 48.4053 44.0474C48.1182 44.1362 47.8823 44.2627 47.6978 44.4268C47.5132 44.584 47.3765 44.7686 47.2876 44.9805C47.2056 45.1924 47.1646 45.4248 47.1646 45.6777C47.1646 45.9307 47.2227 46.1597 47.3389 46.3647C47.4551 46.563 47.6226 46.7202 47.8413 46.8364C48.0601 46.9458 48.3164 47.0005 48.6104 47.0005C49.0547 47.0005 49.4409 46.9116 49.7691 46.7339C50.0972 46.5562 50.3501 46.3374 50.5278 46.0776C50.7124 45.8179 50.8081 45.5718 50.815 45.3394L51.5943 46.5903C51.4849 46.8706 51.3345 47.1611 51.1431 47.4619C50.9585 47.7627 50.7227 48.0464 50.4356 48.313C50.1485 48.5728 49.8032 48.7881 49.3999 48.959C48.9966 49.123 48.5181 49.2051 47.9644 49.2051C47.2603 49.2051 46.6211 49.0649 46.0469 48.7847C45.4795 48.4976 45.0283 48.1045 44.6934 47.6055C44.3653 47.0996 44.2012 46.5254 44.2012 45.8828C44.2012 45.3018 44.3106 44.7856 44.5293 44.3345C44.7481 43.8833 45.0694 43.5039 45.4932 43.1963C45.9238 42.8818 46.4605 42.646 47.103 42.4888C47.7456 42.3247 48.4907 42.2427 49.3384 42.2427H51.0508ZM58.5762 40.3252V49H55.6231V37.9053H58.4019L58.5762 40.3252ZM61.919 37.8335L61.8677 40.5713C61.7242 40.5508 61.5498 40.5337 61.3448 40.52C61.1465 40.4995 60.9654 40.4893 60.8013 40.4893C60.3843 40.4893 60.022 40.5439 59.7144 40.6533C59.4136 40.7559 59.1607 40.9097 58.9556 41.1147C58.7574 41.3198 58.607 41.5693 58.5044 41.8633C58.4087 42.1572 58.354 42.4922 58.3404 42.8682L57.7456 42.6836C57.7456 41.9658 57.8174 41.3062 57.961 40.7046C58.1045 40.0962 58.313 39.5664 58.5865 39.1152C58.8667 38.6641 59.2085 38.3154 59.6118 38.0693C60.0152 37.8232 60.4766 37.7002 60.9961 37.7002C61.1602 37.7002 61.3277 37.7139 61.4986 37.7412C61.6695 37.7617 61.8096 37.7925 61.919 37.8335ZM65.917 40.2739V49H62.9639V37.9053H65.7325L65.917 40.2739ZM65.4864 43.063H64.6866C64.6866 42.2427 64.7925 41.5044 65.0044 40.8481C65.2164 40.1851 65.5137 39.6211 65.8965 39.1562C66.2793 38.6846 66.7339 38.3257 67.2603 38.0796C67.7935 37.8267 68.3882 37.7002 69.0445 37.7002C69.564 37.7002 70.0391 37.7754 70.4698 37.9258C70.9004 38.0762 71.2696 38.3154 71.5772 38.6436C71.8917 38.9717 72.1309 39.4058 72.295 39.9458C72.4659 40.4858 72.5513 41.1455 72.5513 41.9248V49H69.5777V41.9146C69.5777 41.4224 69.5093 41.0396 69.3726 40.7661C69.2359 40.4927 69.0342 40.3013 68.7676 40.1919C68.5079 40.0757 68.1866 40.0176 67.8038 40.0176C67.4073 40.0176 67.0621 40.0962 66.7681 40.2534C66.481 40.4106 66.2417 40.6294 66.0503 40.9097C65.8658 41.1831 65.7256 41.5044 65.6299 41.8735C65.5342 42.2427 65.4864 42.6392 65.4864 43.063ZM77.626 37.9053V49H74.6627V37.9053H77.626ZM74.4781 35.0137C74.4781 34.583 74.6285 34.2275 74.9293 33.9473C75.23 33.667 75.6334 33.5269 76.1392 33.5269C76.6382 33.5269 77.0382 33.667 77.3389 33.9473C77.6465 34.2275 77.8004 34.583 77.8004 35.0137C77.8004 35.4443 77.6465 35.7998 77.3389 36.0801C77.0382 36.3604 76.6382 36.5005 76.1392 36.5005C75.6334 36.5005 75.23 36.3604 74.9293 36.0801C74.6285 35.7998 74.4781 35.4443 74.4781 35.0137ZM82.67 40.2739V49H79.7169V37.9053H82.4854L82.67 40.2739ZM82.2393 43.063H81.4395C81.4395 42.2427 81.5455 41.5044 81.7574 40.8481C81.9693 40.1851 82.2667 39.6211 82.6495 39.1562C83.0323 38.6846 83.4869 38.3257 84.0133 38.0796C84.5465 37.8267 85.1412 37.7002 85.7974 37.7002C86.317 37.7002 86.7921 37.7754 87.2227 37.9258C87.6534 38.0762 88.0225 38.3154 88.3302 38.6436C88.6446 38.9717 88.8839 39.4058 89.0479 39.9458C89.2188 40.4858 89.3043 41.1455 89.3043 41.9248V49H86.3307V41.9146C86.3307 41.4224 86.2623 41.0396 86.1256 40.7661C85.9889 40.4927 85.7872 40.3013 85.5206 40.1919C85.2608 40.0757 84.9395 40.0176 84.5567 40.0176C84.1602 40.0176 83.815 40.0962 83.5211 40.2534C83.234 40.4106 82.9947 40.6294 82.8033 40.9097C82.6187 41.1831 82.4786 41.5044 82.3829 41.8735C82.2872 42.2427 82.2393 42.6392 82.2393 43.063ZM98.2857 37.9053H100.962V48.6309C100.962 49.6426 100.736 50.5005 100.285 51.2046C99.8409 51.9155 99.2188 52.4521 98.419 52.8145C97.6192 53.1836 96.6896 53.3682 95.63 53.3682C95.1651 53.3682 94.673 53.3066 94.1534 53.1836C93.6407 53.0605 93.1485 52.8691 92.6769 52.6094C92.212 52.3496 91.8224 52.0215 91.5079 51.625L92.8102 49.8818C93.152 50.2783 93.5484 50.5859 93.9996 50.8047C94.4508 51.0303 94.9498 51.1431 95.4967 51.1431C96.0299 51.1431 96.4811 51.0439 96.8502 50.8457C97.2193 50.6543 97.503 50.3706 97.7013 49.9946C97.8995 49.6255 97.9986 49.1777 97.9986 48.6514V40.4688L98.2857 37.9053ZM90.8209 43.5859V43.3706C90.8209 42.5229 90.9234 41.7539 91.1285 41.0635C91.3404 40.3662 91.6378 39.7681 92.0206 39.269C92.4103 38.77 92.8819 38.3838 93.4356 38.1104C93.9894 37.8369 94.6148 37.7002 95.3121 37.7002C96.0504 37.7002 96.669 37.8369 97.1681 38.1104C97.6671 38.3838 98.0772 38.7734 98.3985 39.2793C98.7198 39.7783 98.9693 40.3696 99.1471 41.0532C99.3316 41.73 99.4752 42.4717 99.5777 43.2783V43.75C99.4752 44.5225 99.3214 45.2402 99.1163 45.9033C98.9112 46.5664 98.6412 47.1475 98.3063 47.6465C97.9713 48.1387 97.5543 48.5215 97.0553 48.7949C96.5631 49.0684 95.9752 49.2051 95.2916 49.2051C94.608 49.2051 93.9894 49.0649 93.4356 48.7847C92.8888 48.5044 92.4205 48.1113 92.0309 47.6055C91.6412 47.0996 91.3404 46.5049 91.1285 45.8213C90.9234 45.1377 90.8209 44.3926 90.8209 43.5859ZM93.774 43.3706V43.5859C93.774 44.0439 93.8185 44.4712 93.9073 44.8677C93.9962 45.2642 94.1329 45.6162 94.3175 45.9238C94.5089 46.2246 94.7447 46.4604 95.025 46.6313C95.3121 46.7954 95.6505 46.8774 96.0401 46.8774C96.5802 46.8774 97.0211 46.7646 97.3629 46.5391C97.7047 46.3066 97.961 45.9888 98.1319 45.5854C98.3028 45.1821 98.402 44.7173 98.4293 44.1909V42.8477C98.4156 42.417 98.3575 42.0308 98.255 41.689C98.1524 41.3403 98.0089 41.043 97.8243 40.7969C97.6397 40.5508 97.4005 40.3594 97.1065 40.2227C96.8126 40.0859 96.464 40.0176 96.0606 40.0176C95.671 40.0176 95.3326 40.1064 95.0455 40.2842C94.7652 40.4551 94.5294 40.6909 94.338 40.9917C94.1534 41.2925 94.0133 41.6479 93.9176 42.0581C93.8219 42.4614 93.774 42.8989 93.774 43.3706ZM108.969 45.9341C108.969 45.7222 108.908 45.5308 108.785 45.3599C108.662 45.189 108.433 45.0317 108.098 44.8882C107.77 44.7378 107.295 44.6011 106.672 44.478C106.112 44.355 105.589 44.2012 105.104 44.0166C104.625 43.8252 104.208 43.5962 103.853 43.3296C103.504 43.063 103.231 42.7485 103.032 42.3862C102.834 42.0171 102.735 41.5967 102.735 41.125C102.735 40.6602 102.834 40.2227 103.032 39.8125C103.237 39.4023 103.528 39.04 103.904 38.7256C104.287 38.4043 104.752 38.1548 105.298 37.9771C105.852 37.7925 106.474 37.7002 107.165 37.7002C108.129 37.7002 108.956 37.854 109.646 38.1616C110.343 38.4692 110.877 38.8931 111.246 39.4331C111.622 39.9663 111.81 40.5747 111.81 41.2583H108.857C108.857 40.9712 108.795 40.7148 108.672 40.4893C108.556 40.2568 108.371 40.0757 108.118 39.9458C107.872 39.8091 107.551 39.7407 107.154 39.7407C106.826 39.7407 106.543 39.7988 106.303 39.915C106.064 40.0244 105.88 40.1748 105.75 40.3662C105.627 40.5508 105.565 40.7559 105.565 40.9814C105.565 41.1523 105.599 41.3062 105.668 41.4429C105.743 41.5728 105.862 41.6924 106.026 41.8018C106.191 41.9111 106.402 42.0137 106.662 42.1094C106.929 42.1982 107.257 42.2803 107.647 42.3555C108.446 42.5195 109.161 42.7349 109.79 43.0015C110.419 43.2612 110.918 43.6167 111.287 44.0679C111.656 44.5122 111.84 45.0967 111.84 45.8213C111.84 46.3135 111.731 46.7646 111.512 47.1748C111.294 47.585 110.979 47.9438 110.569 48.2515C110.159 48.5522 109.667 48.7881 109.092 48.959C108.525 49.123 107.886 49.2051 107.175 49.2051C106.143 49.2051 105.268 49.0205 104.55 48.6514C103.839 48.2822 103.299 47.814 102.93 47.2466C102.567 46.6724 102.386 46.0845 102.386 45.4829H105.186C105.199 45.8862 105.302 46.2109 105.493 46.457C105.692 46.7031 105.941 46.8809 106.242 46.9902C106.549 47.0996 106.881 47.1543 107.236 47.1543C107.619 47.1543 107.937 47.103 108.19 47.0005C108.443 46.8911 108.634 46.7476 108.764 46.5698C108.901 46.3853 108.969 46.1733 108.969 45.9341Z" fill="#20244F"/>
</g>
<defs>
<filter id="filter0_b_0_93" x="672.817" y="60.8172" width="62.3656" height="420.366" filterUnits="userSpaceOnUse" color-interpolation-filters="sRGB">
<feFlood flood-opacity="0" result="BackgroundImageFix"/>
<feGaussianBlur in="BackgroundImage" stdDeviation="13.5914"/>
<feComposite in2="SourceAlpha" operator="in" result="effect1_backgroundBlur_0_93"/>
<feBlend mode="normal" in="SourceGraphic" in2="effect1_backgroundBlur_0_93" result="shape"/>
</filter>
<filter id="filter1_bd_0_93" x="597.99" y="123.99" width="210.021" height="135.512" filterUnits="userSpaceOnUse" color-interpolation-filters="sRGB">
<feFlood flood-opacity="0" result="BackgroundImageFix"/>
<feGaussianBlur in="BackgroundImage" stdDeviation="22.0051"/>
<feComposite in2="SourceAlpha" operator="in" result="effect1_backgroundBlur_0_93"/>
<feColorMatrix in="SourceAlpha" type="matrix" values="0 0 0 0 0 0 0 0 0 0 0 0 0 0 0 0 0 0 127 0" result="hardAlpha"/>
<feOffset dy="18"/>
<feGaussianBlur stdDeviation="10"/>
<feColorMatrix type="matrix" values="0 0 0 0 0.36634 0 0 0 0 0.36634 0 0 0 0 0.484754 0 0 0 0.240543 0"/>
<feBlend mode="normal" in2="effect1_backgroundBlur_0_93" result="effect2_dropShadow_0_93"/>
<feBlend mode="normal" in="SourceGraphic" in2="effect2_dropShadow_0_93" result="shape"/>
</filter>
<linearGradient id="paint0_linear_0_93" x1="357" y1="317.079" x2="358.797" y2="429.504" gradientUnits="userSpaceOnUse">
<stop stop-color="#7682F9"/>
<stop offset="1" stop-color="white" stop-opacity="0.01"/>
</linearGradient>
<linearGradient id="paint1_linear_0_93" x1="700" y1="88" x2="700" y2="454" gradientUnits="userSpaceOnUse">
<stop stop-color="#DDDFF0" stop-opacity="0.148995"/>
<stop offset="0.302444" stop-color="#9A9DBC" stop-opacity="0.138697"/>
<stop offset="0.620684" stop-color="#C7C9DA" stop-opacity="0.319976"/>
<stop offset="1" stop-color="#DDDFF0" stop-opacity="0.01"/>
</linearGradient>
<clipPath id="clip0_0_93">
<rect width="1088" height="528" fill="white"/>
</clipPath>
<clipPath id="clip1_0_93">
<rect width="122" height="47.4916" fill="white" transform="translate(642 168)"/>
</clipPath>
</defs>
</svg>
