<svg xmlns="http://www.w3.org/2000/svg" width="1021" height="409" fill="none" xmlns:v="https://vecta.io/nano"><style><![CDATA[.B{fill-opacity:.09}.C{fill-rule:evenodd}.D{color-interpolation-filters:sRGB}]]></style><g fill="#20244f"><path opacity=".298" d="M72.565 401.159v-8.956h2.197v8.956c0 .85-.182 1.573-.545 2.171a3.6 3.6 0 0 1-1.485 1.371c-.627.317-1.339.475-2.136.475-.814 0-1.538-.138-2.171-.413a3.25 3.25 0 0 1-1.477-1.266c-.357-.568-.536-1.289-.536-2.162h2.215c0 .504.079.911.237 1.222.164.304.393.527.686.668.299.134.647.202 1.046.202.381 0 .718-.085 1.011-.255a1.82 1.82 0 0 0 .703-.765c.17-.34.255-.756.255-1.248zm9.641 1.934v-4.535c0-.34-.061-.633-.185-.879s-.311-.437-.562-.572-.557-.202-.932-.202c-.346 0-.645.059-.897.176s-.448.275-.589.475a1.14 1.14 0 0 0-.211.676h-2.109a2.34 2.34 0 0 1 .272-1.089c.182-.352.445-.665.791-.941a3.94 3.94 0 0 1 1.239-.65 5.16 5.16 0 0 1 1.617-.238c.715 0 1.348.121 1.898.361a2.88 2.88 0 0 1 1.31 1.09c.322.48.483 1.084.483 1.81v4.228a7 7 0 0 0 .088 1.169c.064.34.155.635.272.887V405H82.52c-.1-.229-.179-.519-.237-.87-.053-.358-.079-.703-.079-1.037zm.308-3.876l.018 1.309h-1.52c-.393 0-.738.038-1.037.115-.299.07-.548.175-.747.316a1.38 1.38 0 0 0-.448.51c-.1.199-.149.425-.149.677s.059.483.176.694a1.23 1.23 0 0 0 .51.483c.228.117.504.176.826.176.434 0 .811-.088 1.134-.264.328-.181.586-.401.773-.659s.287-.512.299-.747l.686.941a3.21 3.21 0 0 1-.36.773c-.17.275-.392.539-.668.791-.27.246-.595.448-.976.606-.375.159-.809.238-1.301.238-.621 0-1.175-.123-1.661-.369-.486-.252-.867-.589-1.143-1.011a2.62 2.62 0 0 1-.413-1.45c0-.504.094-.95.281-1.336a2.62 2.62 0 0 1 .844-.985c.375-.263.832-.463 1.371-.597.539-.141 1.154-.211 1.846-.211h1.661zm5.888-1.696V405h-2.118v-9.51h1.995l.123 2.031zm-.378 2.373l-.686-.009c.006-.674.1-1.292.281-1.855a4.58 4.58 0 0 1 .773-1.45 3.42 3.42 0 0 1 1.195-.932 3.53 3.53 0 0 1 1.547-.334c.457 0 .87.065 1.239.194.375.123.694.325.958.606.27.282.475.648.615 1.099.141.445.211.993.211 1.643V405H92.03v-6.152c0-.457-.067-.818-.202-1.081-.129-.27-.319-.46-.571-.572-.246-.117-.554-.175-.923-.175-.363 0-.689.076-.976.228s-.53.36-.73.624a3.02 3.02 0 0 0-.448.914 3.78 3.78 0 0 0-.158 1.108zm65.483-7.691V405h-2.206v-12.797h2.206zm5.221 5.599v1.749h-5.784v-1.749h5.784zm.729-5.599v1.758h-6.513v-1.758h6.513zm5.299 12.973c-.703 0-1.339-.114-1.907-.343a4.21 4.21 0 0 1-1.442-.976c-.392-.416-.694-.905-.905-1.467s-.316-1.169-.316-1.82v-.351c0-.744.108-1.418.325-2.022s.518-1.119.905-1.547a3.91 3.91 0 0 1 1.371-.993c.528-.228 1.099-.343 1.714-.343.68 0 1.275.115 1.784.343a3.36 3.36 0 0 1 1.266.967c.34.41.592.899.756 1.468.17.568.255 1.195.255 1.881v.905h-7.348v-1.521h5.256v-.167c-.012-.38-.088-.738-.229-1.072a1.81 1.81 0 0 0-.624-.808c-.281-.206-.656-.308-1.125-.308-.351 0-.665.076-.94.228s-.495.361-.677.642-.322.621-.422 1.02c-.093.392-.14.835-.14 1.327v.351c0 .416.055.803.167 1.16a2.77 2.77 0 0 0 .509.923 2.42 2.42 0 0 0 .809.624c.316.147.677.22 1.081.22.51 0 .964-.102 1.362-.308s.745-.495 1.037-.87l1.117 1.081a4.37 4.37 0 0 1-.8.862c-.328.269-.73.489-1.204.659-.469.17-1.014.255-1.635.255zm5.22-13.676h2.118v11.47l-.202 2.03h-1.916v-13.5zm8.323 8.657v.185c0 .703-.079 1.35-.237 1.942-.153.586-.387 1.096-.703 1.529a3.26 3.26 0 0 1-1.16 1.011c-.457.235-.988.352-1.591.352-.592 0-1.108-.112-1.547-.334a3.08 3.08 0 0 1-1.108-.949c-.293-.411-.53-.9-.711-1.468s-.311-1.196-.387-1.881v-.589c.076-.691.205-1.318.387-1.881s.418-1.057.711-1.468a3.07 3.07 0 0 1 1.099-.958c.44-.222.952-.334 1.538-.334.61 0 1.146.118 1.609.352s.858.568 1.168 1.002c.311.428.542.937.695 1.529s.237 1.245.237 1.96zm-2.118.185v-.185c0-.428-.035-.829-.105-1.204a3.18 3.18 0 0 0-.352-1.002c-.158-.287-.375-.513-.65-.677-.27-.17-.607-.254-1.011-.254-.375 0-.697.064-.967.193a1.95 1.95 0 0 0-.677.527 2.62 2.62 0 0 0-.43.774c-.1.293-.167.609-.203.949v1.591c.053.439.165.843.334 1.213.176.363.422.656.739.879.316.216.723.325 1.221.325.393 0 .724-.079.994-.238s.483-.378.641-.659a3.18 3.18 0 0 0 .352-1.002c.076-.381.114-.791.114-1.23zm60.016-8.139h1.969l3.7 9.87 3.692-9.87h1.968L242.64 405h-1.565l-4.878-12.797zm-.896 0h1.872l.325 8.543V405h-2.197v-12.797zm11.25 0h1.881V405h-2.206v-4.254l.325-8.543zm9.403 10.89v-4.535c0-.34-.061-.633-.184-.879s-.311-.437-.563-.572c-.246-.134-.556-.202-.931-.202-.346 0-.645.059-.897.176s-.448.275-.589.475a1.14 1.14 0 0 0-.211.676h-2.109a2.35 2.35 0 0 1 .272-1.089 2.93 2.93 0 0 1 .791-.941c.346-.275.759-.492 1.24-.65a5.16 5.16 0 0 1 1.617-.238c.715 0 1.347.121 1.898.361.557.24.993.603 1.31 1.09.322.48.483 1.084.483 1.81v4.228a7.11 7.11 0 0 0 .088 1.169c.065.34.155.635.273.887V405h-2.171c-.1-.229-.179-.519-.238-.87-.052-.358-.079-.703-.079-1.037zm.308-3.876l.017 1.309h-1.52c-.393 0-.738.038-1.037.115-.299.07-.548.175-.747.316s-.349.311-.448.51a1.5 1.5 0 0 0-.15.677c0 .252.059.483.176.694.117.205.287.366.51.483.228.117.504.176.826.176.433 0 .811-.088 1.134-.264s.586-.401.773-.659.287-.512.299-.747l.685.941c-.07.24-.19.498-.36.773s-.393.539-.668.791c-.269.246-.595.448-.975.606s-.809.238-1.301.238c-.621 0-1.175-.123-1.661-.369-.487-.252-.868-.589-1.143-1.011-.275-.428-.413-.911-.413-1.45 0-.504.094-.95.281-1.336.194-.393.475-.721.844-.985.375-.263.832-.463 1.371-.597.539-.141 1.154-.211 1.846-.211h1.661zm5.914-1.916V405h-2.118v-9.51h2.021l.097 1.811zm2.909-1.872l-.017 1.968a4.09 4.09 0 0 0-.422-.052l-.44-.018c-.363 0-.682.053-.958.158a1.81 1.81 0 0 0-.694.44c-.182.187-.322.416-.422.685a3.07 3.07 0 0 0-.176.906l-.483.035c0-.598.059-1.152.176-1.661s.293-.958.527-1.345c.24-.387.539-.689.897-.905s.782-.326 1.256-.326c.129 0 .267.012.413.036.153.023.267.049.343.079zm59.199-1.521L320.461 405h-2.312l4.817-12.797h1.476l-.158 1.705zM327.483 405l-3.832-11.092-.167-1.705h1.486L329.804 405h-2.321zm-.184-4.746v1.749h-6.961v-1.749h6.961zm5.448-2.936v11.338h-2.118V395.49h1.951l.167 1.828zm6.197 2.839v.185a7.19 7.19 0 0 1-.247 1.925 4.71 4.71 0 0 1-.711 1.538c-.311.433-.695.77-1.152 1.01s-.984.361-1.582.361c-.592 0-1.11-.109-1.556-.325-.439-.223-.811-.537-1.116-.941a5.08 5.08 0 0 1-.738-1.424 9.09 9.09 0 0 1-.387-1.81v-.712c.076-.697.205-1.33.387-1.899s.434-1.057.738-1.467.677-.727 1.116-.95.953-.334 1.539-.334c.597 0 1.127.118 1.59.352s.853.557 1.169.984.554.932.712 1.53c.158.591.238 1.251.238 1.977zm-2.119.185v-.185c0-.439-.041-.846-.123-1.221-.082-.381-.211-.715-.386-1.002a1.89 1.89 0 0 0-.677-.668c-.27-.164-.595-.246-.976-.246-.375 0-.697.064-.967.193-.269.123-.495.296-.676.518s-.323.484-.422.783c-.1.293-.17.612-.211.958v1.705a4.25 4.25 0 0 0 .36 1.16 2.11 2.11 0 0 0 .721.844c.316.205.721.307 1.213.307.381 0 .706-.082.975-.246a1.92 1.92 0 0 0 .66-.677c.175-.293.304-.629.386-1.01s.123-.785.123-1.213zm5.8-3.041V405h-2.118v-9.51h2.022l.096 1.811zm2.909-1.872l-.017 1.968a4.09 4.09 0 0 0-.422-.052l-.439-.018c-.364 0-.683.053-.958.158s-.507.246-.695.44c-.181.187-.322.416-.422.685s-.158.572-.175.906l-.484.035c0-.598.059-1.152.176-1.661s.293-.958.527-1.345c.241-.387.539-.689.897-.905s.782-.326 1.257-.326c.129 0 .266.012.413.036a1.68 1.68 0 0 1 .342.079zm58.663-3.226h1.969l3.7 9.87 3.692-9.87h1.968L410.64 405h-1.565l-4.878-12.797zm-.896 0h1.872l.325 8.543V405h-2.197v-12.797zm11.25 0h1.881V405h-2.206v-4.254l.325-8.543zm9.403 10.89v-4.535c0-.34-.061-.633-.184-.879s-.311-.437-.563-.572c-.246-.134-.556-.202-.931-.202-.346 0-.645.059-.897.176s-.448.275-.589.475a1.14 1.14 0 0 0-.211.676h-2.109a2.35 2.35 0 0 1 .272-1.089 2.93 2.93 0 0 1 .791-.941c.346-.275.759-.492 1.24-.65a5.16 5.16 0 0 1 1.617-.238c.715 0 1.347.121 1.898.361.557.24.993.603 1.31 1.09.322.48.483 1.084.483 1.81v4.228a7.11 7.11 0 0 0 .088 1.169c.065.34.155.635.273.887V405h-2.171c-.1-.229-.179-.519-.238-.87-.052-.358-.079-.703-.079-1.037zm.308-3.876l.017 1.309h-1.52c-.393 0-.738.038-1.037.115-.299.07-.548.175-.747.316s-.349.311-.448.51a1.5 1.5 0 0 0-.15.677c0 .252.059.483.176.694.117.205.287.366.51.483s.504.176.826.176c.433 0 .811-.088 1.134-.264s.586-.401.773-.659.287-.512.299-.747l.685.941c-.07.24-.19.498-.36.773s-.393.539-.668.791c-.269.246-.595.448-.975.606s-.809.238-1.301.238c-.621 0-1.175-.123-1.661-.369-.487-.252-.868-.589-1.143-1.011-.275-.428-.413-.911-.413-1.45 0-.504.094-.95.281-1.336.194-.393.475-.721.844-.985.375-.263.832-.463 1.371-.597.539-.141 1.154-.211 1.846-.211h1.661zm6.406 4.746l2.584-8.473h2.268l-3.815 10.96a7.6 7.6 0 0 1-.342.765c-.141.275-.326.536-.554.782a2.47 2.47 0 0 1-.835.607c-.334.158-.738.237-1.213.237a2.79 2.79 0 0 1-.545-.053l-.483-.097-.009-1.617.211.018.211.009c.351 0 .644-.044.879-.132.234-.082.425-.217.571-.405.152-.187.281-.439.387-.755l.685-1.846zm-1.459-8.473l2.259 7.119.378 2.233-1.468.378-3.454-9.73h2.285zm63.356 5.669v-8.956h2.198v8.956c0 .85-.182 1.573-.545 2.171a3.6 3.6 0 0 1-1.486 1.371c-.627.316-1.338.475-2.135.475-.815 0-1.538-.138-2.171-.413-.627-.276-1.119-.698-1.477-1.266s-.536-1.289-.536-2.162h2.215c0 .504.079.911.237 1.222.164.304.393.527.686.668.299.134.647.202 1.046.202.381 0 .717-.085 1.01-.255a1.82 1.82 0 0 0 .704-.765c.169-.34.254-.756.254-1.248zm10.002 1.6v-7.269h2.127V405h-2.004l-.123-2.241zm.298-1.978l.712-.017c0 .638-.07 1.227-.211 1.766-.14.533-.357.999-.65 1.398a3.05 3.05 0 0 1-1.125.923c-.457.216-1.005.325-1.644.325-.462 0-.887-.068-1.274-.202s-.721-.343-1.002-.624c-.275-.282-.489-.648-.642-1.099s-.228-.99-.228-1.617v-6.144h2.118v6.161c0 .346.041.636.123.87s.194.414.334.554a1.2 1.2 0 0 0 .492.299 1.98 1.98 0 0 0 .598.088c.603 0 1.078-.117 1.424-.352a1.95 1.95 0 0 0 .747-.966c.152-.405.228-.859.228-1.363zm5.853-3.26V405H506.6v-9.51h1.995l.123 2.031zm-.378 2.373l-.685-.009c.005-.674.099-1.292.281-1.855a4.56 4.56 0 0 1 .773-1.45 3.42 3.42 0 0 1 1.196-.932c.462-.222.978-.334 1.546-.334.458 0 .871.065 1.24.194.375.123.694.325.958.606s.474.648.615 1.099c.141.445.211.993.211 1.643V405h-2.127v-6.152c0-.457-.067-.818-.202-1.081-.129-.27-.32-.46-.571-.572a2.24 2.24 0 0 0-.923-.175c-.364 0-.689.076-.976.228s-.53.36-.729.624a2.91 2.91 0 0 0-.449.914 3.76 3.76 0 0 0-.158 1.108zm68.225 1.265v-8.956h2.198v8.956c0 .85-.182 1.573-.545 2.171a3.6 3.6 0 0 1-1.486 1.371c-.627.316-1.338.475-2.135.475-.815 0-1.538-.138-2.171-.413-.627-.276-1.119-.698-1.477-1.266s-.536-1.289-.536-2.162h2.215c0 .504.079.911.237 1.222.164.304.393.527.686.668.299.134.647.202 1.046.202.381 0 .717-.085 1.01-.255a1.82 1.82 0 0 0 .704-.765c.169-.34.254-.756.254-1.248zm10.002 1.6v-7.269h2.127V405h-2.004l-.123-2.241zm.298-1.978l.712-.017c0 .638-.07 1.227-.211 1.766-.14.533-.357.999-.65 1.398a3.05 3.05 0 0 1-1.125.923c-.457.216-1.005.325-1.644.325-.462 0-.887-.068-1.274-.202s-.721-.343-1.002-.624c-.275-.282-.489-.648-.642-1.099s-.228-.99-.228-1.617v-6.144h2.118v6.161c0 .346.041.636.123.87s.194.414.334.554a1.2 1.2 0 0 0 .492.299 1.98 1.98 0 0 0 .598.088c.603 0 1.078-.117 1.424-.352a1.95 1.95 0 0 0 .747-.966c.152-.405.228-.859.228-1.363zm6.02-9.281V405h-2.127v-13.5h2.127zm67.399 2.408L656.461 405h-2.312l4.817-12.797h1.476l-.158 1.705zM663.483 405l-3.832-11.092-.167-1.705h1.486L665.804 405h-2.321zm-.184-4.746v1.749h-6.961v-1.749h6.961zm9.096 2.505v-7.269h2.127V405h-2.004l-.123-2.241zm.299-1.978l.711-.017c0 .638-.07 1.227-.211 1.766-.14.533-.357.999-.65 1.398a3.05 3.05 0 0 1-1.125.923c-.457.216-1.005.325-1.643.325-.463 0-.888-.068-1.275-.202s-.721-.343-1.002-.624c-.275-.282-.489-.648-.641-1.099s-.229-.99-.229-1.617v-6.144h2.118v6.161c0 .346.041.636.123.87s.194.414.334.554a1.2 1.2 0 0 0 .492.299 1.98 1.98 0 0 0 .598.088c.604 0 1.078-.117 1.424-.352a1.94 1.94 0 0 0 .747-.966c.152-.405.229-.859.229-1.363zm9.842-5.291h1.925v9.246c0 .856-.181 1.582-.545 2.18a3.5 3.5 0 0 1-1.52 1.362c-.651.317-1.404.475-2.259.475-.363 0-.768-.053-1.213-.158a5.01 5.01 0 0 1-1.283-.51c-.41-.229-.753-.53-1.028-.905l.993-1.248c.34.404.715.7 1.125.887a3.08 3.08 0 0 0 1.292.282c.486 0 .899-.091 1.239-.273a1.84 1.84 0 0 0 .8-.782c.187-.346.281-.768.281-1.266v-7.136l.193-2.154zm-6.46 4.861v-.185c0-.721.088-1.377.264-1.969s.428-1.11.756-1.538a3.31 3.31 0 0 1 1.195-.993c.469-.234.999-.352 1.591-.352.615 0 1.14.112 1.573.334a2.97 2.97 0 0 1 1.099.958c.293.411.522.903.686 1.477a11.3 11.3 0 0 1 .377 1.898v.589c-.076.68-.205 1.301-.386 1.864s-.422 1.048-.721 1.459-.668.726-1.107.949-.947.334-1.538.334a3.39 3.39 0 0 1-1.574-.361 3.58 3.58 0 0 1-1.195-1.01c-.328-.434-.58-.944-.756-1.53s-.264-1.233-.264-1.924zm2.119-.185v.185a5.67 5.67 0 0 0 .123 1.212c.088.375.219.707.395.994.182.281.41.504.686.668.281.158.612.237.993.237.498 0 .905-.106 1.222-.316s.568-.496.738-.853c.176-.363.299-.768.369-1.213v-1.591a3.86 3.86 0 0 0-.22-.967 2.6 2.6 0 0 0-.43-.782 1.81 1.81 0 0 0-.686-.527c-.275-.129-.601-.193-.976-.193a1.94 1.94 0 0 0-.993.246 2.02 2.02 0 0 0-.694.676c-.176.287-.308.621-.396 1.002a5.42 5.42 0 0 0-.131 1.222zm67.838 1.538a1.88 1.88 0 0 0-.123-.703c-.076-.205-.214-.393-.413-.563s-.48-.334-.844-.492c-.357-.164-.814-.331-1.371-.501-.609-.187-1.172-.395-1.687-.624a6.43 6.43 0 0 1-1.336-.808c-.381-.311-.677-.665-.888-1.064s-.316-.87-.316-1.397a3.1 3.1 0 0 1 .325-1.424 3.32 3.32 0 0 1 .94-1.107c.41-.317.894-.56 1.451-.73.556-.176 1.171-.264 1.845-.264.949 0 1.767.176 2.452.528.692.351 1.222.823 1.591 1.415a3.59 3.59 0 0 1 .563 1.96h-2.189c0-.422-.091-.794-.272-1.117s-.446-.585-.809-.773c-.357-.187-.811-.281-1.362-.281-.522 0-.955.079-1.301.237s-.603.372-.773.642-.255.574-.255.914a1.32 1.32 0 0 0 .167.659c.111.193.281.375.51.545.228.164.515.319.861.466s.753.287 1.222.422c.708.21 1.327.445 1.854.703.527.252.967.539 1.318.861a3.16 3.16 0 0 1 .791 1.099c.176.404.264.864.264 1.38 0 .539-.108 1.025-.325 1.459a3.15 3.15 0 0 1-.932 1.098c-.398.299-.879.53-1.441.694a6.78 6.78 0 0 1-1.863.238c-.616 0-1.222-.082-1.82-.246-.592-.164-1.131-.413-1.617-.747-.486-.34-.873-.762-1.16-1.266-.287-.51-.431-1.105-.431-1.784h2.206c0 .416.071.77.211 1.063a1.97 1.97 0 0 0 .607.721c.257.182.556.316.896.404a4.48 4.48 0 0 0 1.108.132c.515 0 .946-.073 1.292-.22s.615-.351.791-.615.263-.568.263-.914zm7.901 3.472c-.703 0-1.339-.114-1.907-.343a4.21 4.21 0 0 1-1.442-.976c-.392-.416-.694-.905-.905-1.467s-.317-1.169-.317-1.82v-.351c0-.744.109-1.418.326-2.022s.518-1.119.905-1.547a3.91 3.91 0 0 1 1.371-.993c.527-.228 1.099-.343 1.714-.343.68 0 1.274.115 1.784.343a3.36 3.36 0 0 1 1.266.967c.34.41.591.899.756 1.468s.254 1.195.254 1.881v.905h-7.347v-1.521h5.256v-.167c-.012-.38-.088-.738-.229-1.072-.135-.334-.343-.603-.624-.808s-.656-.308-1.125-.308c-.351 0-.665.076-.94.228-.27.147-.495.361-.677.642s-.322.621-.422 1.02a5.71 5.71 0 0 0-.141 1.327v.351a3.89 3.89 0 0 0 .167 1.16 2.77 2.77 0 0 0 .51.923 2.41 2.41 0 0 0 .809.624c.316.147.676.22 1.081.22.51 0 .964-.102 1.362-.308s.744-.495 1.037-.87l1.116 1.081c-.205.299-.471.586-.799.862-.329.269-.73.489-1.204.659s-1.014.255-1.635.255zm7.338-7.858v11.338h-2.118V395.49h1.951l.167 1.828zm6.196 2.839v.185a7.19 7.19 0 0 1-.246 1.925c-.158.586-.396 1.098-.712 1.538-.31.433-.694.77-1.151 1.01s-.985.361-1.582.361-1.111-.109-1.556-.325c-.439-.223-.812-.537-1.116-.941a5.08 5.08 0 0 1-.738-1.424 9.09 9.09 0 0 1-.387-1.81v-.712c.076-.697.205-1.33.387-1.899a5.12 5.12 0 0 1 .738-1.467c.304-.41.677-.727 1.116-.95s.952-.334 1.538-.334c.598 0 1.128.118 1.591.352s.852.557 1.169.984.554.932.712 1.53c.158.591.237 1.251.237 1.977zm-2.118.185v-.185c0-.439-.041-.846-.123-1.221-.082-.381-.211-.715-.387-1.002a1.89 1.89 0 0 0-.677-.668c-.269-.164-.594-.246-.975-.246-.375 0-.697.064-.967.193a1.86 1.86 0 0 0-.677.518c-.181.223-.322.484-.422.783-.099.293-.17.612-.211.958v1.705c.071.422.191.808.361 1.16a2.11 2.11 0 0 0 .72.844c.317.205.721.307 1.213.307.381 0 .706-.082.976-.246a1.91 1.91 0 0 0 .659-.677c.176-.293.305-.629.387-1.01s.123-.785.123-1.213zm68.155-2.092v.703c0 .967-.126 1.834-.378 2.602s-.612 1.421-1.081 1.96a4.65 4.65 0 0 1-1.67 1.239c-.65.281-1.371.422-2.162.422-.785 0-1.503-.141-2.153-.422-.645-.287-1.205-.7-1.679-1.239s-.844-1.193-1.108-1.96c-.257-.768-.386-1.635-.386-2.602v-.703c0-.967.129-1.831.386-2.593s.622-1.421 1.09-1.96a4.69 4.69 0 0 1 1.679-1.239c.65-.287 1.368-.431 2.153-.431.791 0 1.512.144 2.162.431a4.59 4.59 0 0 1 1.679 1.239c.469.539.829 1.193 1.081 1.96.258.762.387 1.626.387 2.593zm-2.206.703v-.721c0-.714-.07-1.344-.211-1.889-.135-.551-.337-1.011-.607-1.38-.263-.375-.588-.656-.975-.844s-.823-.29-1.31-.29a2.83 2.83 0 0 0-1.3.29c-.381.188-.707.469-.976.844-.264.369-.466.829-.607 1.38-.14.545-.21 1.175-.21 1.889v.721c0 .715.07 1.348.21 1.899s.346 1.016.616 1.397c.275.375.603.659.984.853.381.187.815.281 1.301.281.492 0 .929-.094 1.309-.281a2.63 2.63 0 0 0 .967-.853c.264-.381.463-.847.598-1.397.141-.551.211-1.184.211-1.899zm7.839 4.535c.346 0 .656-.067.931-.202.282-.14.507-.334.677-.58.176-.246.273-.53.29-.852h1.995a2.96 2.96 0 0 1-.545 1.678c-.351.504-.817.906-1.397 1.204s-1.222.44-1.925.44c-.726 0-1.359-.123-1.898-.369-.539-.252-.988-.598-1.345-1.037a4.59 4.59 0 0 1-.809-1.521c-.175-.574-.263-1.189-.263-1.846v-.307c0-.657.088-1.272.263-1.846a4.56 4.56 0 0 1 .809-1.529 3.66 3.66 0 0 1 1.345-1.029c.539-.252 1.169-.378 1.889-.378.762 0 1.43.153 2.004.457s1.026.718 1.354 1.257c.334.534.507 1.155.518 1.864h-1.995c-.017-.352-.105-.668-.263-.95a1.75 1.75 0 0 0-.651-.685c-.275-.17-.606-.255-.993-.255-.428 0-.782.088-1.063.264-.282.17-.501.404-.66.703-.158.293-.272.624-.342.993-.065.363-.097.741-.097 1.134v.307a6.58 6.58 0 0 0 .097 1.143 3.22 3.22 0 0 0 .334.993 1.93 1.93 0 0 0 .668.694c.281.17.638.255 1.072.255zm9.632-7.998v1.547h-5.361v-1.547h5.361zm-3.815-2.329h2.119v9.211c0 .293.041.519.123.677.087.152.208.255.36.307a1.63 1.63 0 0 0 .536.08c.147 0 .287-.009.422-.027l.325-.053.009 1.618a5.6 5.6 0 0 1-.615.14 4.52 4.52 0 0 1-.791.062c-.487 0-.917-.085-1.292-.255-.375-.176-.668-.46-.879-.853s-.317-.914-.317-1.564v-9.343zm72.497-.958V405h-2.206l-5.739-9.167V405h-2.206v-12.797h2.206l5.757 9.185v-9.185h2.188zm1.766 8.148v-.203c0-.685.1-1.321.299-1.907.199-.592.486-1.104.861-1.538a3.89 3.89 0 0 1 1.389-1.019c.551-.246 1.172-.37 1.863-.37.697 0 1.318.124 1.863.37a3.87 3.87 0 0 1 1.398 1.019c.381.434.671.946.87 1.538.199.586.299 1.222.299 1.907v.203c0 .685-.1 1.321-.299 1.907a4.56 4.56 0 0 1-.87 1.538 4.04 4.04 0 0 1-1.389 1.019c-.545.241-1.163.361-1.854.361-.698 0-1.322-.12-1.872-.361a4.04 4.04 0 0 1-1.389-1.019 4.56 4.56 0 0 1-.87-1.538c-.199-.586-.299-1.222-.299-1.907zm2.118-.203v.203c0 .427.044.832.132 1.212s.226.715.413 1.002a2.04 2.04 0 0 0 .721.677c.293.164.641.246 1.046.246.392 0 .732-.082 1.019-.246a2.04 2.04 0 0 0 .721-.677c.187-.287.325-.621.413-1.002a5.04 5.04 0 0 0 .141-1.212v-.203c0-.421-.047-.82-.141-1.195a3.08 3.08 0 0 0-.422-1.011 2.01 2.01 0 0 0-.721-.685c-.287-.17-.63-.255-1.028-.255s-.744.085-1.037.255c-.287.164-.524.392-.712.685a3.18 3.18 0 0 0-.413 1.011c-.088.375-.132.774-.132 1.195zm11.205 3.173l2.329-7.831h2.198l-3.305 9.51h-1.371l.149-1.679zm-1.784-7.831l2.373 7.866.114 1.644h-1.371l-3.322-9.51h2.206zm64.262 9.51h-2.734l.018-1.749h2.716c.791 0 1.453-.173 1.986-.519.539-.345.943-.84 1.213-1.485s.413-1.412.413-2.303v-.694c0-.691-.079-1.304-.237-1.837s-.381-.981-.686-1.345a2.88 2.88 0 0 0-1.107-.826c-.434-.187-.935-.281-1.503-.281h-2.866v-1.758h2.866c.849 0 1.626.144 2.329.431a5.11 5.11 0 0 1 1.819 1.221c.516.534.914 1.172 1.184 1.916.28.745.42 1.577.42 2.497v.676c0 .92-.14 1.752-.42 2.496a5.33 5.33 0 0 1-1.184 1.916c-.516.528-1.131.935-1.846 1.222-.709.281-1.503.422-2.381.422zm-1.512-12.797V405h-2.206v-12.797h2.206zm13.293 12.973c-.71 0-1.34-.114-1.91-.343-.56-.234-1.05-.56-1.44-.976a4.21 4.21 0 0 1-.91-1.467c-.21-.563-.32-1.169-.32-1.82v-.351c0-.744.11-1.418.33-2.022s.52-1.119.91-1.547c.38-.433.84-.764 1.37-.993.52-.228 1.09-.343 1.71-.343.68 0 1.27.115 1.78.343s.94.551 1.27.967c.34.41.59.899.76 1.468s.25 1.195.25 1.881v.905h-7.35v-1.521h5.26v-.167c-.01-.38-.09-.738-.23-1.072-.13-.334-.34-.603-.62-.808s-.66-.308-1.13-.308c-.35 0-.66.076-.94.228a1.94 1.94 0 0 0-.68.642c-.18.281-.32.621-.42 1.02a5.94 5.94 0 0 0-.14 1.327v.351a3.92 3.92 0 0 0 .17 1.16c.12.352.29.66.51.923s.49.472.81.624c.31.147.67.22 1.08.22.51 0 .96-.102 1.36-.308s.74-.495 1.04-.87l1.11 1.081c-.2.299-.47.586-.8.862-.32.269-.73.489-1.2.659s-1.01.255-1.63.255zm9.09-1.688c.35 0 .66-.067.93-.202a1.78 1.78 0 0 0 .68-.58c.18-.246.27-.53.29-.852h1.99a2.96 2.96 0 0 1-.54 1.678c-.35.504-.82.906-1.4 1.204s-1.22.44-1.92.44c-.73 0-1.36-.123-1.9-.369-.54-.252-.99-.598-1.35-1.037-.35-.44-.62-.947-.8-1.521s-.27-1.189-.27-1.846v-.307c0-.657.09-1.272.27-1.846.18-.58.45-1.09.8-1.529.36-.44.81-.783 1.35-1.029.54-.252 1.17-.378 1.89-.378.76 0 1.43.153 2 .457a3.37 3.37 0 0 1 1.36 1.257c.33.534.5 1.155.51 1.864h-1.99c-.02-.352-.11-.668-.26-.95-.16-.287-.37-.515-.65-.685s-.61-.255-1-.255c-.43 0-.78.088-1.06.264-.28.17-.5.404-.66.703-.16.293-.27.624-.34.993a5.98 5.98 0 0 0-.1 1.134v.307c0 .393.03.774.1 1.143a3.09 3.09 0 0 0 .33.993 1.92 1.92 0 0 0 .67.694c.28.17.64.255 1.07.255z"/><path opacity=".5" d="M3.261 399.173l-2.021-.484.729-6.486h7.189v2.048H4.052l-.316 2.839c.17-.1.428-.205.773-.317s.732-.175 1.16-.175c.621 0 1.172.096 1.652.29a3.28 3.28 0 0 1 1.222.843c.34.37.598.821.773 1.354s.264 1.137.264 1.811a4.99 4.99 0 0 1-.264 1.625 4.04 4.04 0 0 1-.8 1.372 3.74 3.74 0 0 1-1.345.94c-.539.229-1.178.343-1.916.343a5.25 5.25 0 0 1-1.6-.246c-.51-.164-.97-.408-1.38-.73-.404-.322-.729-.712-.976-1.169-.24-.463-.366-.99-.378-1.582h2.514a2.31 2.31 0 0 0 .281.941 1.65 1.65 0 0 0 .624.597c.258.141.56.211.905.211.322 0 .598-.061.826-.184a1.49 1.49 0 0 0 .554-.51c.141-.223.243-.481.308-.774.07-.298.105-.621.105-.966a3.36 3.36 0 0 0-.123-.941 2.01 2.01 0 0 0-.378-.729 1.67 1.67 0 0 0-.65-.475c-.258-.111-.56-.167-.905-.167-.469 0-.832.073-1.09.22-.252.146-.463.313-.633.501zm16.32-1.696v2.214c0 .961-.102 1.79-.308 2.488-.205.691-.501 1.259-.888 1.705a3.51 3.51 0 0 1-1.362.975c-.527.211-1.113.317-1.758.317a5.16 5.16 0 0 1-1.441-.194 3.6 3.6 0 0 1-1.204-.624c-.352-.281-.656-.635-.914-1.063-.252-.434-.445-.949-.58-1.547s-.202-1.283-.202-2.057v-2.214c0-.961.103-1.785.308-2.47.211-.692.507-1.257.888-1.696a3.49 3.49 0 0 1 1.371-.967c.527-.211 1.113-.317 1.758-.317a4.89 4.89 0 0 1 1.433.202 3.6 3.6 0 0 1 1.204.607c.357.275.662.63.914 1.063s.445.941.58 1.539c.135.591.202 1.271.202 2.039zm-2.54 2.548v-2.891c0-.463-.026-.867-.079-1.213-.047-.346-.12-.639-.22-.879a1.88 1.88 0 0 0-.369-.598c-.146-.153-.314-.263-.501-.334a1.75 1.75 0 0 0-.624-.105 1.69 1.69 0 0 0-.765.167 1.42 1.42 0 0 0-.554.536c-.152.24-.27.563-.351.967-.076.398-.114.885-.114 1.459v2.891a9.51 9.51 0 0 0 .07 1.222 4.15 4.15 0 0 0 .229.905 2.23 2.23 0 0 0 .369.607 1.35 1.35 0 0 0 .501.334c.193.07.404.105.633.105.281 0 .53-.055.747-.167.223-.117.41-.299.563-.545.158-.252.275-.58.352-.984s.114-.897.114-1.477zm12.629-2.548v2.214c0 .961-.103 1.79-.308 2.488-.205.691-.501 1.259-.888 1.705a3.51 3.51 0 0 1-1.362.975c-.527.211-1.113.317-1.758.317a5.16 5.16 0 0 1-1.441-.194 3.6 3.6 0 0 1-1.204-.624c-.352-.281-.656-.635-.914-1.063-.252-.434-.445-.949-.58-1.547s-.202-1.283-.202-2.057v-2.214c0-.961.102-1.785.308-2.47.211-.692.507-1.257.888-1.696a3.49 3.49 0 0 1 1.371-.967c.527-.211 1.113-.317 1.758-.317a4.89 4.89 0 0 1 1.433.202c.445.129.847.332 1.204.607s.662.63.914 1.063.445.941.58 1.539c.135.591.202 1.271.202 2.039zm-2.54 2.548v-2.891c0-.463-.026-.867-.079-1.213-.047-.346-.12-.639-.22-.879a1.88 1.88 0 0 0-.369-.598c-.146-.153-.313-.263-.501-.334s-.396-.105-.624-.105a1.69 1.69 0 0 0-.765.167c-.217.111-.401.29-.554.536-.152.24-.27.563-.352.967-.076.398-.114.885-.114 1.459v2.891c0 .463.023.871.07 1.222.053.352.129.653.229.905a2.23 2.23 0 0 0 .369.607c.146.152.314.263.501.334.193.07.404.105.633.105.281 0 .53-.055.747-.167a1.47 1.47 0 0 0 .563-.545c.158-.252.275-.58.351-.984s.114-.897.114-1.477zM7.049 330.177V343H4.518v-9.905l-3.041.967v-1.996l5.3-1.889h.272zm6.556-.686V343h-2.531v-13.509h2.531zm5.994 3.999l-4.131 4.711-2.215 2.241-.923-1.828 1.758-2.232 2.47-2.892h3.041zM16.971 343l-2.812-4.395 1.749-1.529L19.889 343h-2.918zm-7.338-63.978V281H.879v-1.688l4.14-4.438c.416-.463.744-.87.984-1.222s.413-.676.519-.958a2.26 2.26 0 0 0 .167-.817c0-.387-.064-.718-.193-.993-.129-.281-.319-.498-.571-.651-.246-.152-.551-.228-.914-.228-.387 0-.721.094-1.002.281a1.79 1.79 0 0 0-.633.782c-.141.334-.211.712-.211 1.134H.624a4.13 4.13 0 0 1 .545-2.092 4 4 0 0 1 1.538-1.52c.662-.381 1.447-.571 2.355-.571.896 0 1.652.146 2.268.439.621.287 1.09.703 1.406 1.248.322.539.483 1.184.483 1.934a3.89 3.89 0 0 1-.202 1.239c-.135.398-.328.797-.58 1.195a9.65 9.65 0 0 1-.896 1.196l-1.169 1.256-2.224 2.496h5.484zm3.972-11.531V281h-2.531v-13.509h2.531zm5.994 3.999l-4.131 4.711-2.215 2.241-.923-1.828 1.758-2.232 2.47-2.892h3.041zM16.971 281l-2.812-4.395 1.749-1.529L19.889 281h-2.918zM3.472 211.503h1.354c.434 0 .791-.073 1.072-.22a1.44 1.44 0 0 0 .624-.633c.141-.275.211-.594.211-.958 0-.328-.064-.618-.193-.87-.123-.258-.313-.457-.571-.597-.258-.147-.583-.22-.976-.22a2.01 2.01 0 0 0-.861.184 1.57 1.57 0 0 0-.633.519 1.36 1.36 0 0 0-.237.809H.721c0-.704.188-1.316.562-1.837a3.82 3.82 0 0 1 1.529-1.222c.639-.293 1.342-.439 2.109-.439.867 0 1.626.14 2.276.421s1.157.683 1.521 1.222.545 1.207.545 2.004a2.64 2.64 0 0 1-.281 1.178c-.187.375-.457.715-.809 1.019-.346.299-.768.539-1.266.721-.498.176-1.058.264-1.679.264H3.472v-1.345zm0 1.925v-1.31H5.23c.697 0 1.31.079 1.837.237s.97.387 1.327.686c.357.293.627.642.809 1.046.182.398.272.841.272 1.327 0 .598-.114 1.131-.343 1.6a3.35 3.35 0 0 1-.967 1.177 4.4 4.4 0 0 1-1.441.739 6.29 6.29 0 0 1-1.802.246 5.84 5.84 0 0 1-1.591-.22c-.516-.152-.984-.378-1.406-.677-.416-.304-.75-.685-1.002-1.142-.246-.463-.369-1.011-.369-1.644h2.54c0 .328.082.621.246.879s.39.46.677.607c.293.146.618.219.976.219.404 0 .75-.073 1.037-.219a1.59 1.59 0 0 0 .668-.633c.158-.276.237-.595.237-.958 0-.469-.085-.844-.255-1.125-.17-.287-.413-.498-.729-.633s-.691-.202-1.125-.202H3.472zm10.133-7.937V219h-2.531v-13.509h2.531zm5.994 3.999l-4.131 4.711-2.215 2.241-.923-1.828 1.758-2.232 2.47-2.892h3.041zM16.971 219l-2.812-4.395 1.749-1.529L19.889 219h-2.918zm-7.127-66.781v1.986H.624l-.123-1.538 5.335-8.464h2.013l-2.18 3.648-2.654 4.368h6.829zm-1.45-8.016V157H5.862v-12.797h2.531zm5.211-.712V157h-2.531v-13.509h2.531zm5.994 3.999l-4.131 4.711-2.215 2.241-.923-1.828 1.758-2.232 2.47-2.892h3.041zM16.971 157l-2.812-4.395 1.749-1.529L19.889 157h-2.918zM3.261 89.173L1.24 88.69l.729-6.486h7.189v2.048H4.052l-.316 2.839c.17-.1.428-.205.773-.316a3.6 3.6 0 0 1 1.16-.176c.621 0 1.172.097 1.652.29a3.27 3.27 0 0 1 1.222.844c.34.369.598.82.773 1.354s.264 1.137.264 1.811a5 5 0 0 1-.264 1.626 4.04 4.04 0 0 1-.8 1.371c-.357.398-.806.712-1.345.94s-1.178.343-1.916.343a5.25 5.25 0 0 1-1.6-.246 4.39 4.39 0 0 1-1.38-.73c-.404-.322-.729-.712-.976-1.169-.24-.463-.366-.99-.378-1.582h2.514c.035.363.129.677.281.94a1.65 1.65 0 0 0 .624.598c.258.141.56.211.905.211.322 0 .598-.061.826-.184a1.5 1.5 0 0 0 .554-.51c.141-.223.243-.481.308-.773.07-.299.105-.621.105-.967a3.36 3.36 0 0 0-.123-.941 2.01 2.01 0 0 0-.378-.729c-.17-.205-.387-.363-.65-.475a2.27 2.27 0 0 0-.905-.167c-.469 0-.832.073-1.09.22-.252.147-.463.314-.633.501zm10.344-7.682V95h-2.531V81.491h2.531zm5.994 3.999l-4.131 4.711-2.215 2.241-.923-1.828 1.758-2.233 2.47-2.892h3.041zM16.971 95l-2.812-4.394 1.749-1.529L19.889 95h-2.918zM7.409 20.071h.369v2.021h-.149c-.668 0-1.263.1-1.784.299a3.67 3.67 0 0 0-1.327.852 3.71 3.71 0 0 0-.826 1.318c-.187.516-.281 1.093-.281 1.731v2.127c0 .457.044.861.132 1.213.094.346.226.636.396.87a1.78 1.78 0 0 0 .615.519 1.82 1.82 0 0 0 .791.167 1.58 1.58 0 0 0 .747-.176 1.67 1.67 0 0 0 .58-.492c.164-.217.287-.469.369-.756a3.32 3.32 0 0 0 .132-.958 3.32 3.32 0 0 0-.132-.958 2.17 2.17 0 0 0-.369-.756 1.69 1.69 0 0 0-.598-.501c-.234-.117-.498-.176-.791-.176-.398 0-.75.094-1.055.281a2.02 2.02 0 0 0-.703.703c-.17.287-.261.589-.272.905l-.765-.492a3.65 3.65 0 0 1 .281-1.283 3.52 3.52 0 0 1 .721-1.072 3.26 3.26 0 0 1 1.116-.738c.434-.182.923-.273 1.468-.273.598 0 1.122.114 1.573.343.457.229.838.542 1.143.94s.533.858.686 1.38a5.93 5.93 0 0 1 .229 1.67 4.79 4.79 0 0 1-.308 1.732 4.05 4.05 0 0 1-.87 1.398c-.375.398-.826.709-1.354.932s-1.119.334-1.775.334c-.68 0-1.298-.123-1.854-.369a4.22 4.22 0 0 1-1.424-1.055c-.398-.451-.706-.987-.923-1.608-.211-.621-.316-1.301-.316-2.039v-.984c0-1.031.149-1.975.448-2.83.305-.861.741-1.605 1.31-2.232a5.82 5.82 0 0 1 2.057-1.468c.803-.346 1.708-.518 2.716-.518zm6.195-.58V33h-2.531V19.491h2.531zm5.994 3.999l-4.131 4.711-2.215 2.241-.923-1.828 1.758-2.233 2.47-2.892h3.041zM16.971 33l-2.812-4.395 1.749-1.529L19.889 33h-2.918z"/></g><g fill="#797c95" class="B"><rect x="82" y="336" width="928" height="2" rx="1"/><rect x="82" y="274" width="928" height="2" rx="1"/><rect x="82" y="212" width="928" height="2" rx="1"/><rect x="82" y="150" width="928" height="2" rx="1"/><rect x="82" y="88" width="928" height="2" rx="1"/><rect x="82" y="26" width="928" height="2" rx="1"/></g><g opacity=".385" class="B"><g fill="#797c95"><rect x="503" y="339" width="312" height="2" rx="1" transform="rotate(270 503 339)"/><rect x="419" y="339" width="312" height="2" rx="1" transform="rotate(270 419 339)"/><rect x="335" y="339" width="312" height="2" rx="1" transform="rotate(270 335 339)"/><rect x="251" y="339" width="312" height="2" rx="1" transform="rotate(270 251 339)"/><rect x="167" y="339" width="312" height="2" rx="1" transform="rotate(270 167 339)"/><rect x="83" y="339" width="312" height="2" rx="1" transform="rotate(270 83 339)"/><rect x="1007" y="339" width="312" height="2" rx="1" transform="rotate(270 1007 339)"/><rect x="923" y="339" width="312" height="2" rx="1" transform="rotate(270 923 339)"/><rect x="839" y="339" width="312" height="2" rx="1" transform="rotate(270 839 339)"/><rect x="755" y="339" width="312" height="2" rx="1" transform="rotate(270 755 339)"/><rect x="671" y="339" width="312" height="2" rx="1" transform="rotate(270 671 339)"/><rect x="587" y="339" width="312" height="2" rx="1" transform="rotate(270 587 339)"/></g></g><path d="M82 337l86-48.746 85 11.225L337 262l83 30.344L503 262l86-6 83-87.2 83 81.2 85-38 84-124 86-12v262l-928-1z" fill="url(#C)" fill-opacity=".08" class="C"/><path d="M82 337l86-48.746 85 11.225L337 262l83 30.344L503 262l86-6 83-87.2 83 81.2 85-38 84-124 85-12" stroke="#7682f9" stroke-width="6" stroke-linecap="round" stroke-linejoin="round"/><g filter="url(#A)"><rect x="668" width="8" height="366" rx="4" fill="url(#D)"/></g><circle cx="673" cy="169" r="11" fill="#3f4267" stroke="#fff" stroke-width="4"/><g clip-path="url(#E)"><g filter="url(#B)" class="C"><path d="M611.09 85.46C610 87.599 610 90.4 610 96v10c0 5.601 0 8.401 1.09 10.54a10 10 0 0 0 4.37 4.37C617.599 122 620.399 122 626 122h36l7.218 4.819c1.345.897 3.098.897 4.442 0l7.219-4.819H716c5.601 0 8.401 0 10.54-1.09a10 10 0 0 0 4.37-4.37C732 114.401 732 111.601 732 106V96c0-5.6 0-8.401-1.09-10.54a10 10 0 0 0-4.37-4.37C724.401 80 721.601 80 716 80h-90c-5.601 0-8.401 0-10.54 1.09a10 10 0 0 0-4.37 4.37z" fill="#20244f" fill-opacity=".86"/></g><path d="M634.066 91.477l-.478 2.978h-1.436l.479-2.978h1.435zm-2.666 15.947l-.41 2.607h-1.426l.411-2.607h1.425zm2.364-3.154c.058-.476-.013-.876-.215-1.202s-.479-.595-.83-.81c-.352-.222-.723-.407-1.114-.557-.651-.247-1.237-.55-1.757-.908-.515-.358-.915-.801-1.202-1.328-.279-.527-.393-1.172-.341-1.934.058-.82.296-1.53.713-2.129s.957-1.058 1.621-1.377 1.399-.469 2.207-.449c.67.013 1.24.143 1.709.391a2.98 2.98 0 0 1 1.133 1.006c.286.417.485.898.595 1.445a6.6 6.6 0 0 1 .108 1.738h-1.758c.026-.338.016-.68-.029-1.025a3.09 3.09 0 0 0-.264-.967c-.137-.293-.335-.531-.596-.713s-.596-.28-1.006-.293c-.488-.013-.924.075-1.308.264a2.34 2.34 0 0 0-.918.811c-.235.352-.381.768-.44 1.25-.052.501.02.915.215 1.24a2.45 2.45 0 0 0 .84.81c.358.215.742.404 1.152.567.645.254 1.221.56 1.729.918a3.57 3.57 0 0 1 1.181 1.318c.28.521.394 1.159.342 1.914-.065.879-.329 1.615-.791 2.207s-1.054 1.038-1.777 1.338c-.716.293-1.491.433-2.324.42-.658-.013-1.237-.127-1.739-.342-.494-.221-.908-.527-1.24-.918-.325-.397-.566-.859-.722-1.387-.15-.533-.206-1.119-.167-1.757h1.778c-.026.384-.007.745.058 1.084a2.62 2.62 0 0 0 .362.888c.176.254.407.456.693.606.293.143.648.221 1.065.234.501.007.97-.075 1.406-.244.443-.176.81-.44 1.103-.791.293-.358.469-.798.528-1.318zm11.404-4.444h1.406c.547 0 1-.094 1.358-.283.364-.189.635-.449.81-.781s.264-.713.264-1.143c0-.449-.081-.833-.244-1.152-.156-.326-.397-.576-.723-.752-.319-.176-.726-.264-1.221-.264-.416 0-.794.085-1.132.254a1.92 1.92 0 0 0-.791.703c-.196.3-.293.658-.293 1.074h-2.364c0-.755.199-1.426.596-2.012s.938-1.045 1.621-1.377c.69-.339 1.465-.508 2.324-.508.918 0 1.719.153 2.403.459a3.53 3.53 0 0 1 1.611 1.348c.384.599.576 1.341.576 2.227 0 .404-.094.814-.283 1.23a3.58 3.58 0 0 1-.84 1.143c-.371.339-.833.615-1.387.83-.553.209-1.194.313-1.923.313h-1.768v-1.309zm0 1.836v-1.289h1.768c.833 0 1.543.098 2.129.293.592.195 1.074.466 1.445.811.371.338.641.725.81 1.162.176.436.264.898.264 1.386 0 .664-.12 1.257-.361 1.778-.235.514-.57.95-1.006 1.308s-.947.629-1.533.811c-.58.182-1.211.273-1.895.273a6.02 6.02 0 0 1-1.758-.254c-.56-.169-1.061-.42-1.504-.752-.442-.338-.794-.758-1.054-1.259-.254-.508-.381-1.094-.381-1.758h2.353c0 .423.098.797.293 1.123.202.319.482.57.84.752.365.182.781.273 1.25.273.495 0 .921-.088 1.28-.263s.631-.437.82-.782c.195-.345.293-.761.293-1.25 0-.553-.108-1.002-.322-1.347s-.521-.599-.918-.762c-.398-.169-.866-.254-1.407-.254h-1.406zm8.564 5.166c0-.364.123-.67.371-.918.247-.254.582-.381 1.006-.381s.765.127 1.005.381c.248.248.372.554.372.918s-.124.671-.372.918c-.24.247-.576.371-1.005.371s-.759-.124-1.006-.371-.371-.553-.371-.918zm14.589-.703V108h-9.532v-1.611l4.629-5.049 1.201-1.484c.293-.417.498-.791.616-1.123a2.88 2.88 0 0 0 .185-.986c0-.449-.084-.843-.254-1.182a1.85 1.85 0 0 0-.722-.811c-.319-.202-.707-.303-1.163-.303-.527 0-.97.114-1.328.342s-.628.544-.81.947c-.182.397-.274.853-.274 1.367h-2.353c0-.827.189-1.582.566-2.266.378-.69.925-1.237 1.641-1.641.716-.41 1.579-.615 2.588-.615.95 0 1.758.16 2.422.479s1.168.771 1.513 1.357c.352.586.528 1.279.528 2.08a4.21 4.21 0 0 1-.215 1.318 6.23 6.23 0 0 1-.615 1.309c-.261.43-.57.863-.928 1.299l-1.182 1.308-3.076 3.389h6.563zm7.987-12.393V108h-2.354V96.525l-3.486 1.182v-1.943l5.557-2.031h.283zm11.093 0V108h-2.354V96.525l-3.486 1.182v-1.943l5.557-2.031h.283zm7.011 12.002l-.01 1.68c0 .664-.166 1.348-.498 2.051s-.772 1.282-1.319 1.738l-1.259-.732.498-.889a5.11 5.11 0 0 0 .361-.957c.091-.339.137-.713.137-1.123v-1.768h2.09zm8.28-12.002V108h-2.354V96.525l-3.486 1.182v-1.943l5.557-2.031h.283zm11.776-.039h.293v1.924h-.166c-.84 0-1.565.13-2.177.391-.606.26-1.104.618-1.495 1.074s-.683.99-.878 1.602c-.189.606-.284 1.25-.284 1.933v2.237c0 .566.062 1.067.186 1.503a3.3 3.3 0 0 0 .517 1.084 2.39 2.39 0 0 0 .782.655c.293.149.608.224.947.224.352 0 .671-.071.957-.215.286-.149.531-.354.732-.615s.355-.569.459-.928.157-.748.157-1.171c0-.404-.052-.782-.157-1.133a2.83 2.83 0 0 0-.439-.938c-.195-.273-.44-.485-.732-.634-.287-.157-.619-.235-.997-.235a2.52 2.52 0 0 0-1.279.332 2.75 2.75 0 0 0-.918.869c-.228.352-.351.726-.371 1.123l-.898-.293c.052-.605.185-1.149.4-1.63.221-.482.511-.892.869-1.231a3.66 3.66 0 0 1 1.24-.772c.476-.182.996-.273 1.563-.273.69 0 1.289.13 1.797.391s.927.615 1.26 1.064c.338.443.589.951.751 1.524.17.566.254 1.159.254 1.777 0 .684-.104 1.322-.312 1.914-.208.586-.514 1.1-.918 1.543a4.11 4.11 0 0 1-1.455 1.035c-.567.248-1.211.371-1.934.371-.761 0-1.442-.146-2.041-.439-.592-.293-1.097-.697-1.513-1.211s-.723-1.107-.938-1.777-.322-1.381-.322-2.129v-.977c0-1.081.137-2.1.41-3.056.273-.964.693-1.813 1.26-2.549.573-.736 1.305-1.312 2.197-1.728.892-.423 1.956-.635 3.193-.635z" fill="#fff"/></g><defs><filter id="A" x="640.817" y="-27.183" width="62.366" height="420.366" filterUnits="userSpaceOnUse" class="D"><feFlood flood-opacity="0"/><feGaussianBlur in="BackgroundImage" stdDeviation="13.591"/><feComposite in2="SourceAlpha" operator="in"/><feBlend in="SourceGraphic"/></filter><filter id="B" x="565.99" y="35.99" width="210.021" height="135.512" filterUnits="userSpaceOnUse" class="D"><feFlood flood-opacity="0"/><feGaussianBlur in="BackgroundImage" stdDeviation="22.005"/><feComposite in2="SourceAlpha" operator="in" result="B"/><feColorMatrix in="SourceAlpha" values="0 0 0 0 0 0 0 0 0 0 0 0 0 0 0 0 0 0 127 0"/><feOffset dy="18"/><feGaussianBlur stdDeviation="10"/><feColorMatrix values="0 0 0 0 0.36634 0 0 0 0 0.36634 0 0 0 0 0.484754 0 0 0 0.240543 0"/><feBlend in2="B"/><feBlend in="SourceGraphic"/></filter><linearGradient id="C" x1="325" y1="229.079" x2="326.797" y2="341.504" gradientUnits="userSpaceOnUse"><stop stop-color="#7682f9"/><stop offset="1" stop-color="#fff" stop-opacity=".01"/></linearGradient><linearGradient id="D" x1="668" y1="0" x2="668" y2="366" gradientUnits="userSpaceOnUse"><stop stop-color="#dddff0" stop-opacity=".149"/><stop offset=".302" stop-color="#9a9dbc" stop-opacity=".139"/><stop offset=".621" stop-color="#c7c9da" stop-opacity=".32"/><stop offset="1" stop-color="#dddff0" stop-opacity=".01"/></linearGradient><clipPath id="E"><path fill="#fff" transform="translate(610 80)" d="M0 0h122v47.492H0z"/></clipPath></defs></svg>