<svg width="448" height="207" viewBox="0 0 448 207" fill="none" xmlns="http://www.w3.org/2000/svg">
<path opacity="0.151481" fill-rule="evenodd" clip-rule="evenodd" d="M22.206 205.243C22.206 205.243 -15.3216 161.613 7.19429 120.095C29.7134 78.5773 72.4956 88.429 132.542 46.2071C205.441 -5.05061 256.627 -7.86719 321.691 14.5404C358.473 27.2069 364.476 79.2808 423.022 111.651C475.799 140.832 432.779 190.465 405.009 198.206C377.235 205.947 358.473 205.947 358.473 205.947L22.206 205.243Z" fill="#E7F3FE"/>
<path fill-rule="evenodd" clip-rule="evenodd" d="M245.645 105.159C236.277 124.172 224.534 176.124 221.329 178.97C218.125 181.817 199.62 192.848 196.416 198.186C193.215 203.523 194.639 201.744 196.062 202.1C197.486 202.456 277.915 202.812 277.915 202.812C277.915 202.812 268.662 147.657 267.595 147.301C266.528 146.945 245.645 105.159 245.645 105.159Z" fill="#A2DFF2"/>
<path fill-rule="evenodd" clip-rule="evenodd" d="M232.325 202.554C247.099 202.657 262.686 202.738 271.267 202.78L259.517 132.528C253.254 120.381 245.646 105.159 245.646 105.159C244.464 107.556 243.246 110.477 242.012 113.756C240.794 166.522 248.394 181.311 242.683 190.713C238.229 198.05 234.163 201.332 232.325 202.554Z" fill="#96CFE0"/>
<path fill-rule="evenodd" clip-rule="evenodd" d="M399.327 206.333H13.1081C11.4626 206.333 10.1289 204.999 10.1289 203.354C10.1289 201.709 11.4626 200.375 13.1081 200.375H399.327C400.973 200.375 402.307 201.709 402.307 203.354C402.307 204.999 400.973 206.333 399.327 206.333Z" fill="#2E5B9A"/>
<path fill-rule="evenodd" clip-rule="evenodd" d="M294.972 82.2126C308.328 94.542 338.065 106.234 338.065 106.234C338.065 106.234 342.581 147.97 339.499 171.602C336.417 195.234 338.13 200.029 338.13 200.029H276.817C276.817 200.029 268.586 188.611 253.523 153.108C243.933 130.503 245.646 105.159 245.646 105.159L282.981 88.3772L294.972 82.2126Z" fill="#A2DFF2"/>
<path fill-rule="evenodd" clip-rule="evenodd" d="M276.817 200.029H338.13C338.13 200.029 336.417 195.234 339.499 171.602C342.038 152.143 339.422 120.41 338.422 109.81L332.843 107.42C318.847 111.453 310.777 132.33 308.405 152.733C306.817 166.384 284.199 179.822 269.402 187.221C274.265 196.486 276.817 200.029 276.817 200.029Z" fill="#96CFE0"/>
<path fill-rule="evenodd" clip-rule="evenodd" d="M261.782 39.3738C254.394 55.833 263.264 71.0801 262.994 70.4371C262.727 69.7944 274.181 42.6479 274.181 42.6479L261.782 39.3738Z" fill="#2E5B9A"/>
<path fill-rule="evenodd" clip-rule="evenodd" d="M289.79 51.5447L299.165 85.8014C299.429 86.7683 299.204 87.7985 298.574 88.5765C296.372 91.2844 293.242 96.8544 286.927 98.6414C285.699 98.9887 284.189 99.0816 282.964 99.0861C281.676 99.0909 280.567 98.1848 280.323 96.9209L274.043 64.4293L289.79 51.5447Z" fill="#F09959"/>
<path fill-rule="evenodd" clip-rule="evenodd" d="M288 54.4077L284.574 55.812L274.043 64.4292L279.696 93.2358C289.286 87.2583 290.684 83.2242 288 54.4077Z" fill="#E38540"/>
<path fill-rule="evenodd" clip-rule="evenodd" d="M289.447 66.6981C287.375 77.9673 278.938 85.5888 270.611 83.7212C262.281 81.8539 258.309 74.5599 259.286 59.9352C260.054 48.4619 265.71 35.9908 274.04 37.8584C282.371 39.7257 291.524 55.4285 289.447 66.6981Z" fill="#F09959"/>
<path fill-rule="evenodd" clip-rule="evenodd" d="M338.064 106.234C350.469 109.035 352.774 134.228 356.807 160.799C357.273 163.857 359.655 189.742 359.655 189.742C359.655 189.742 359.892 194.487 355.146 196.859C351.093 198.886 349.451 200.418 325.961 200.655C303.403 200.883 274.315 199.943 274.315 199.943C274.315 199.943 274.058 191.55 276.372 187.449C279.853 181.281 315.523 172.424 318.846 171.949C319.318 165.307 315.568 141.272 320.742 124.976C324.303 113.766 328.127 107.895 332.922 106.36C334.519 105.849 336.226 105.819 338.064 106.234Z" fill="#A2DFF2"/>
<path fill-rule="evenodd" clip-rule="evenodd" d="M287.075 200.454C298.195 200.621 313.457 200.781 325.962 200.655C349.452 200.418 351.094 198.886 355.147 196.859C359.894 194.487 360.131 190.454 360.131 190.454C360.131 190.454 357.734 162.91 357.284 159.85C354.674 142.057 351.853 121.697 345.29 111.869C351.461 129.95 352.454 145.205 352.563 151.721C352.621 155.021 352.315 159.54 351.351 162.697C350.284 166.196 347.556 168.391 343.285 167.204C334.742 164.832 324.066 169.814 324.066 169.814C324.066 169.814 332.133 166.967 339.724 169.577C347.318 172.186 362.979 189.505 345.894 195.91C340.665 197.87 309.353 199.468 287.075 200.454Z" fill="#96CFE0"/>
<path fill-rule="evenodd" clip-rule="evenodd" d="M278.273 188.239C278.273 188.239 281.435 182.862 287.921 182.862C294.406 182.862 293.934 193.458 292.982 196.938C292.034 200.418 288.239 200.576 288.239 200.576L274.317 199.943L278.273 188.239Z" fill="#96CFE0"/>
<path fill-rule="evenodd" clip-rule="evenodd" d="M264.161 202.991H176.411C175.087 202.991 174.004 201.908 174.004 200.585V199.894C174.004 198.57 175.087 197.488 176.411 197.488H264.161C265.485 197.488 266.568 198.57 266.568 199.894V200.585C266.568 201.908 265.485 202.991 264.161 202.991Z" fill="#75A1DE"/>
<path fill-rule="evenodd" clip-rule="evenodd" d="M276.534 188.872C262.93 183.969 259.36 185.815 256.287 184.918C248.693 182.704 246.794 184.602 241.893 198.045C240.916 200.724 243.789 200.892 246.636 200.892C249.484 200.892 252.964 195.357 254.07 194.724C255.179 194.091 258.184 193.775 258.184 193.775C258.184 193.775 257.236 193.775 255.812 196.622C254.388 199.468 252.646 200.576 254.864 200.576C257.078 200.576 257.393 196.938 261.507 197.729C265.617 198.519 264.036 200.576 274.317 200.418C284.601 200.259 292.359 200.417 292.192 194.249C292.035 188.397 292.684 185.471 287.13 184.444C282.859 183.653 276.534 188.872 276.534 188.872Z" fill="#F09959"/>
<path fill-rule="evenodd" clip-rule="evenodd" d="M276.711 188.872C285.806 187.844 283.136 199.172 282.187 200.121C281.239 201.07 287.252 200.454 287.252 200.454C287.252 200.454 290.077 195.91 287.706 190.691C285.331 185.472 280.587 185.234 280.587 185.234L276.554 187.449L276.711 188.872Z" fill="#A86B48"/>
<path fill-rule="evenodd" clip-rule="evenodd" d="M286.208 187.886C286.089 189.29 283.705 190.237 280.88 190.001C278.051 189.764 275.856 188.435 275.975 187.031C276.091 185.627 278.476 184.68 281.304 184.916C284.129 185.153 286.324 186.482 286.208 187.886Z" fill="#2E5B9A"/>
<path fill-rule="evenodd" clip-rule="evenodd" d="M285.483 187.188C285.377 188.442 283.247 189.288 280.72 189.077C278.198 188.866 276.234 187.678 276.34 186.424C276.443 185.17 278.577 184.324 281.1 184.535C283.626 184.746 285.586 185.933 285.483 187.188Z" fill="#3E6BAB"/>
<path fill-rule="evenodd" clip-rule="evenodd" d="M283.906 186.607C283.832 187.51 282.296 188.118 280.48 187.967C278.661 187.815 277.25 186.959 277.324 186.057C277.398 185.154 278.934 184.545 280.753 184.697C282.569 184.848 283.98 185.704 283.906 186.607Z" fill="#F0CEB4"/>
<path fill-rule="evenodd" clip-rule="evenodd" d="M173.201 185.611H84.8022C80.1518 185.611 76.1667 182.244 75.3247 177.608L63.7967 113.977C62.7105 107.976 67.2548 102.445 73.2743 102.445H161.673C166.324 102.445 170.309 105.812 171.148 110.448L182.679 174.079C183.765 180.08 179.221 185.611 173.201 185.611Z" fill="#75A1DE"/>
<path fill-rule="evenodd" clip-rule="evenodd" d="M177.331 174.317L165.565 112.003C164.707 107.463 160.638 104.166 155.891 104.166H66.0591C64.1726 106.355 63.2278 109.352 63.803 112.474L75.7359 177.44C76.6068 182.174 80.7334 185.611 85.5477 185.611H167.66C173.802 185.611 178.44 180.194 177.331 174.317Z" fill="#A8CEFF"/>
<path fill-rule="evenodd" clip-rule="evenodd" d="M156.016 194.132H139.234C136.242 194.132 133.815 191.467 133.815 188.179V157.502C133.815 152.269 129.952 148.028 125.19 148.028H116.426C111.66 148.028 107.8 152.269 107.8 157.502V191.858C107.8 197.733 112.151 202.485 117.502 202.448L163.299 202.134C163.299 197.714 160.037 194.132 156.016 194.132Z" fill="#75A1DE"/>
<path fill-rule="evenodd" clip-rule="evenodd" d="M108.464 158.19V192.02C108.464 197.527 112.735 202.029 118.137 202.418L162.832 202.138C162.829 201.406 159.306 200.072 154.952 200.072H136.8C133.564 200.072 130.938 197.448 130.938 194.211V158.19C130.938 153.038 126.76 148.862 121.608 148.862H117.797C112.642 148.862 108.464 153.038 108.464 158.19Z" fill="#A8CEFF"/>
<path fill-rule="evenodd" clip-rule="evenodd" d="M202.022 190.234C208.778 186.482 217.034 187.732 220.036 191.484C223.037 195.236 223.539 197.738 216.783 197.738C210.028 197.738 196.52 198.238 194.267 197.988C192.018 197.738 202.022 190.234 202.022 190.234Z" fill="#F09959"/>
<path fill-rule="evenodd" clip-rule="evenodd" d="M212.029 187.983C219.283 186.232 224.242 190.453 230.293 194.486C235.545 197.988 236.602 201.392 230.791 198.488C222.288 194.236 217.284 193.736 217.284 193.736L212.029 187.983Z" fill="#F09959"/>
<path fill-rule="evenodd" clip-rule="evenodd" d="M205.421 190.211C201.758 190.211 198.56 189.043 195.973 189.258C193.386 189.474 185.197 197.878 186.489 198.524C186.582 198.571 186.682 198.613 186.791 198.653C188.735 199.368 190.93 198.575 192.026 196.817C193.186 194.957 195.07 192.793 197.265 193.568C200.928 194.861 204.775 194.736 204.775 194.736L205.421 190.211Z" fill="#F09959"/>
<path fill-rule="evenodd" clip-rule="evenodd" d="M203.272 199.239C199.521 197.738 205.525 185.231 207.527 185.231C209.529 185.231 217.033 191.234 217.033 191.234C217.033 191.234 215.269 192.23 209.278 190.234C207.778 189.733 206.527 198.238 204.776 199.239C203.024 200.239 203.272 199.239 203.272 199.239Z" fill="#F7A96F"/>
<path fill-rule="evenodd" clip-rule="evenodd" d="M259.279 66.5217C258.932 80.2939 263.625 82.623 266.906 84.4931C270.19 86.3633 284.331 83.274 286.407 79.8678C291.716 71.1535 287.246 63.0275 288.435 63.1503C289.624 63.2733 290.711 66.6657 293.805 71.0683C294.095 71.4784 296.106 74.1994 296.213 73.2945C297.649 60.9616 304.074 57.132 302.544 44.6583C301.416 35.4626 295.579 36.1924 295.579 36.1924C295.579 36.1924 291.813 28.4977 280.089 29.3717C272.234 29.9568 265.231 33.0166 257.136 35.1005C249.037 37.184 266.713 55.5346 277.216 48.8302C287.718 42.1262 282.535 56.8935 284.19 58.0388C285.848 59.184 284.987 58.1908 285.748 65.7476C286.507 73.3042 276.91 78.238 274.159 78.8848C265.363 80.9533 263.891 79.5025 261.966 76.1908C260.295 73.317 259.279 66.5217 259.279 66.5217Z" fill="#2E5B9A"/>
<path fill-rule="evenodd" clip-rule="evenodd" d="M295.688 62.2574C294.679 65.7285 292.211 67.9708 290.18 67.2658C288.146 66.5611 288.088 63.7404 288.325 59.7047C288.541 56.0665 291.8 53.9914 293.834 54.6964C295.865 55.4014 296.697 58.7863 295.688 62.2574Z" fill="#F09959"/>
<path fill-rule="evenodd" clip-rule="evenodd" d="M103.483 52.9389H28.3956C27.5761 52.9389 26.9141 52.2763 26.9141 51.4592V19.151C26.9141 18.3339 27.5761 17.6713 28.3956 17.6713H103.483C104.303 17.6713 104.965 18.3339 104.965 19.151V51.4592C104.965 52.2763 104.303 52.9389 103.483 52.9389Z" fill="#B7E1FF"/>
<path fill-rule="evenodd" clip-rule="evenodd" d="M101.636 51.2837H30.2444C29.5855 51.2837 29.0488 50.7487 29.0488 50.0884V28.1321C29.0488 27.472 29.5855 26.937 30.2444 26.937H101.636C102.295 26.937 102.831 27.472 102.831 28.1321V50.0884C102.831 50.7487 102.295 51.2837 101.636 51.2837Z" fill="white"/>
<path fill-rule="evenodd" clip-rule="evenodd" d="M32.5286 23.0183H30.7963C30.43 23.0183 30.1311 22.7214 30.1311 22.3557V20.929C30.1311 20.5633 30.43 20.2667 30.7963 20.2667H32.5286C32.8917 20.2667 33.1906 20.5633 33.1906 20.929V22.3557C33.1906 22.7214 32.8917 23.0183 32.5286 23.0183Z" fill="white"/>
<path fill-rule="evenodd" clip-rule="evenodd" d="M38.0849 23.0183H36.3527C35.9895 23.0183 35.6906 22.7214 35.6906 22.3557V20.929C35.6906 20.5633 35.9895 20.2667 36.3527 20.2667H38.0849C38.4513 20.2667 38.7502 20.5633 38.7502 20.929V22.3557C38.7502 22.7214 38.4513 23.0183 38.0849 23.0183Z" fill="white"/>
<path fill-rule="evenodd" clip-rule="evenodd" d="M43.6462 23.0183H41.914C41.5476 23.0183 41.252 22.7214 41.252 22.3557V20.929C41.252 20.5633 41.5476 20.2667 41.914 20.2667H43.6462C44.0126 20.2667 44.3115 20.5633 44.3115 20.929V22.3557C44.3115 22.7214 44.0126 23.0183 43.6462 23.0183Z" fill="white"/>
<path fill-rule="evenodd" clip-rule="evenodd" d="M99.8299 32.273H60.8014C60.1619 32.273 59.6348 31.7479 59.6348 31.1059C59.6348 30.4639 60.1619 29.9385 60.8014 29.9385H99.8299C100.473 29.9385 100.997 30.4639 100.997 31.1059C100.997 31.7479 100.473 32.273 99.8299 32.273Z" fill="#B7E1FF"/>
<path fill-rule="evenodd" clip-rule="evenodd" d="M70.4734 50.283H31.4481C30.8054 50.283 30.2783 49.7576 30.2783 49.1156C30.2783 48.4736 30.8054 47.9485 31.4481 47.9485H70.4734C71.1161 47.9485 71.64 48.4736 71.64 49.1156C71.64 49.7576 71.1161 50.283 70.4734 50.283Z" fill="#B7E1FF"/>
<path fill-rule="evenodd" clip-rule="evenodd" d="M77.6627 50.283H73.6261C73.4044 50.283 73.2276 50.1034 73.2276 49.8839V48.3476C73.2276 48.1281 73.4044 47.9485 73.6261 47.9485H77.6627C77.8844 47.9485 78.0612 48.1281 78.0612 48.3476V49.8839C78.0612 50.1034 77.8844 50.283 77.6627 50.283Z" fill="#B7E1FF"/>
<path fill-rule="evenodd" clip-rule="evenodd" d="M83.7505 50.283H79.714C79.4954 50.283 79.3154 50.1034 79.3154 49.8839V48.3476C79.3154 48.1281 79.4954 47.9485 79.714 47.9485H83.7505C83.9722 47.9485 84.1522 48.1281 84.1522 48.3476V49.8839C84.1522 50.1034 83.9722 50.283 83.7505 50.283Z" fill="#B7E1FF"/>
<path fill-rule="evenodd" clip-rule="evenodd" d="M100.201 37.3591H35.5746C35.1407 37.3591 34.784 37.0027 34.784 36.567C34.784 36.1316 35.1407 35.7749 35.5746 35.7749H100.201C100.638 35.7749 100.995 36.1316 100.995 36.567C100.995 37.0027 100.638 37.3591 100.201 37.3591Z" fill="#B7E1FF"/>
<path fill-rule="evenodd" clip-rule="evenodd" d="M100.201 40.7779H35.5746C35.1407 40.7779 34.784 40.4212 34.784 39.9858C34.784 39.5501 35.1407 39.1937 35.5746 39.1937H100.201C100.638 39.1937 100.995 39.5501 100.995 39.9858C100.995 40.4212 100.638 40.7779 100.201 40.7779Z" fill="#B7E1FF"/>
<path fill-rule="evenodd" clip-rule="evenodd" d="M121.12 77.701H46.0291C45.2127 77.701 44.5507 77.0384 44.5507 76.2216V43.9131C44.5507 43.0959 45.2127 42.4333 46.0291 42.4333H121.12C121.936 42.4333 122.601 43.0959 122.601 43.9131V76.2216C122.601 77.0384 121.936 77.701 121.12 77.701Z" fill="#9EC8FF"/>
<path fill-rule="evenodd" clip-rule="evenodd" d="M119.273 76.0459H47.8811C47.219 76.0459 46.6855 75.5108 46.6855 74.8508V52.8945C46.6855 52.2345 47.219 51.6995 47.8811 51.6995H119.273C119.931 51.6995 120.468 52.2345 120.468 52.8945V74.8508C120.468 75.5108 119.931 76.0459 119.273 76.0459Z" fill="white"/>
<path fill-rule="evenodd" clip-rule="evenodd" d="M50.163 47.7805H48.4307C48.0643 47.7805 47.7687 47.4839 47.7687 47.1183V45.6915C47.7687 45.3255 48.0643 45.0289 48.4307 45.0289H50.163C50.5293 45.0289 50.825 45.3255 50.825 45.6915V47.1183C50.825 47.4839 50.5293 47.7805 50.163 47.7805Z" fill="white"/>
<path fill-rule="evenodd" clip-rule="evenodd" d="M55.7225 47.7805H53.9903C53.6239 47.7805 53.3282 47.4839 53.3282 47.1183V45.6915C53.3282 45.3255 53.6239 45.0289 53.9903 45.0289H55.7225C56.0889 45.0289 56.3845 45.3255 56.3845 45.6915V47.1183C56.3845 47.4839 56.0889 47.7805 55.7225 47.7805Z" fill="white"/>
<path fill-rule="evenodd" clip-rule="evenodd" d="M61.2821 47.7805H59.5498C59.1834 47.7805 58.8878 47.4839 58.8878 47.1183V45.6915C58.8878 45.3255 59.1834 45.0289 59.5498 45.0289H61.2821C61.6484 45.0289 61.9441 45.3255 61.9441 45.6915V47.1183C61.9441 47.4839 61.6484 47.7805 61.2821 47.7805Z" fill="white"/>
<path fill-rule="evenodd" clip-rule="evenodd" d="M117.463 57.0354H78.4381C77.7953 57.0354 77.2715 56.5104 77.2715 55.8683C77.2715 55.2263 77.7953 54.7009 78.4381 54.7009H117.463C118.106 54.7009 118.633 55.2263 118.633 55.8683C118.633 56.5104 118.106 57.0354 117.463 57.0354Z" fill="#9EC8FF"/>
<path fill-rule="evenodd" clip-rule="evenodd" d="M88.111 75.0453H49.0825C48.4429 75.0453 47.9159 74.5203 47.9159 73.8782C47.9159 73.2362 48.4429 72.7108 49.0825 72.7108H88.111C88.7537 72.7108 89.2776 73.2362 89.2776 73.8782C89.2776 74.5203 88.7537 75.0453 88.111 75.0453Z" fill="#9EC8FF"/>
<path fill-rule="evenodd" clip-rule="evenodd" d="M95.3007 75.0453H91.2609C91.0424 75.0453 90.8624 74.866 90.8624 74.6462V73.1099C90.8624 72.8904 91.0424 72.7108 91.2609 72.7108H95.3007C95.5192 72.7108 95.6992 72.8904 95.6992 73.1099V74.6462C95.6992 74.866 95.5192 75.0453 95.3007 75.0453Z" fill="#9EC8FF"/>
<path fill-rule="evenodd" clip-rule="evenodd" d="M101.387 75.0452H97.3509C97.1292 75.0452 96.9492 74.8659 96.9492 74.6461V73.1098C96.9492 72.8903 97.1292 72.7107 97.3509 72.7107H101.387C101.606 72.7107 101.786 72.8903 101.786 73.1098V74.6461C101.786 74.8659 101.606 75.0452 101.387 75.0452Z" fill="#9EC8FF"/>
<path fill-rule="evenodd" clip-rule="evenodd" d="M117.839 62.1218H53.2126C52.7756 62.1218 52.4188 61.7651 52.4188 61.3297C52.4188 60.894 52.7756 60.5376 53.2126 60.5376H117.839C118.276 60.5376 118.633 60.894 118.633 61.3297C118.633 61.7651 118.276 62.1218 117.839 62.1218Z" fill="#9EC8FF"/>
<path fill-rule="evenodd" clip-rule="evenodd" d="M117.839 65.5402H53.2126C52.7756 65.5402 52.4188 65.1838 52.4188 64.7481C52.4188 64.3123 52.7756 63.9563 53.2126 63.9563H117.839C118.276 63.9563 118.633 64.3123 118.633 64.7481C118.633 65.1838 118.276 65.5402 117.839 65.5402Z" fill="#9EC8FF"/>
<path fill-rule="evenodd" clip-rule="evenodd" d="M155.62 70.8218C155.62 76.4166 151.083 80.9519 145.487 80.9519C139.892 80.9519 135.357 76.4166 135.357 70.8218C135.357 65.227 139.892 60.6917 145.487 60.6917C151.083 60.6917 155.62 65.227 155.62 70.8218Z" fill="#4FD248"/>
<path fill-rule="evenodd" clip-rule="evenodd" d="M144.482 74.5646L144.453 74.5643C144.245 74.5566 144.045 74.4621 143.904 74.303L141.153 71.1764C140.87 70.8564 140.902 70.3692 141.224 70.0877C141.542 69.8066 142.03 69.8377 142.31 70.1575L144.524 72.6735L149.824 67.4891C150.126 67.1912 150.614 67.1963 150.913 67.501C151.212 67.8053 151.206 68.2934 150.904 68.5916L145.022 74.3448C144.878 74.4862 144.685 74.5646 144.482 74.5646Z" fill="white"/>
<path fill-rule="evenodd" clip-rule="evenodd" d="M215.283 29.0159H150.865C149.213 29.0159 147.863 27.665 147.863 26.014V3.00148C147.863 1.35078 149.213 -0.00012207 150.865 -0.00012207H215.283C216.934 -0.00012207 218.284 1.35078 218.284 3.00148V26.014C218.284 27.665 216.934 29.0159 215.283 29.0159Z" fill="#9EC8FF"/>
<path fill-rule="evenodd" clip-rule="evenodd" d="M156.367 24.6383V40.6473L174.817 22.1997C174.817 22.1997 156.743 24.6383 156.367 24.6383Z" fill="#9EC8FF"/>
<path fill-rule="evenodd" clip-rule="evenodd" d="M212.098 26.1393H154.05C152.649 26.1393 151.505 24.9941 151.505 23.5943V5.42145C151.505 4.02171 152.649 2.87646 154.05 2.87646H212.098C213.499 2.87646 214.643 4.02171 214.643 5.42145V23.5943C214.643 24.9941 213.499 26.1393 212.098 26.1393Z" fill="white"/>
<path fill-rule="evenodd" clip-rule="evenodd" d="M185.889 8.62978H157.37C156.682 8.62978 156.116 8.06712 156.116 7.37914C156.116 6.69116 156.682 6.12817 157.37 6.12817H185.889C186.577 6.12817 187.139 6.69116 187.139 7.37914C187.139 8.06712 186.577 8.62978 185.889 8.62978Z" fill="#9EC8FF"/>
<path fill-rule="evenodd" clip-rule="evenodd" d="M209.71 13.4116H156.814C156.431 13.4116 156.116 13.0986 156.116 12.7162V12.7017C156.116 12.3197 156.431 12.0063 156.814 12.0063H209.71C210.092 12.0063 210.404 12.3197 210.404 12.7017V12.7162C210.404 13.0986 210.092 13.4116 209.71 13.4116Z" fill="#9EC8FF"/>
<path fill-rule="evenodd" clip-rule="evenodd" d="M171.665 18.6615H156.319C156.208 18.6615 156.116 18.2717 156.116 17.7955V17.7775C156.116 17.3017 156.208 16.9115 156.319 16.9115H171.665C171.776 16.9115 171.866 17.3017 171.866 17.7775V17.7955C171.866 18.2717 171.776 18.6615 171.665 18.6615Z" fill="#9EC8FF"/>
</svg>
