<svg xmlns="http://www.w3.org/2000/svg" width="448" height="207" fill="none" fill-rule="evenodd" xmlns:v="https://vecta.io/nano"><path opacity=".151" d="M22.206 205.243s-37.528-43.63-15.012-85.148 65.301-31.666 125.348-73.888C205.441-5.051 256.627-7.867 321.691 14.54c36.782 12.667 42.785 64.74 101.331 97.111 52.777 29.181 9.757 78.814-18.013 86.555s-46.536 7.741-46.536 7.741l-336.267-.704z" fill="#e7f3fe"/><path d="M245.645 105.159c-9.368 19.013-21.111 70.965-24.316 73.811s-21.709 13.878-24.913 19.216-1.777 3.558-.354 3.914 81.853.712 81.853.712-9.253-55.155-10.32-55.511-21.95-42.142-21.95-42.142z" fill="#a2dff2"/><path d="M232.325 202.554l38.942.226-11.75-70.252-13.871-27.369c-1.182 2.397-2.4 5.318-3.634 8.597-1.218 52.766 6.382 67.555.671 76.957-4.454 7.337-8.52 10.619-10.358 11.841z" fill="#96cfe0"/><path d="M399.327 206.333H13.108a2.98 2.98 0 0 1-2.979-2.979 2.98 2.98 0 0 1 2.979-2.979h386.219a2.98 2.98 0 0 1 2.98 2.979 2.98 2.98 0 0 1-2.98 2.979z" fill="#2e5b9a"/><path d="M294.972 82.213c13.356 12.329 43.093 24.021 43.093 24.021s4.516 41.736 1.434 65.368-1.369 28.427-1.369 28.427h-61.313s-8.231-11.418-23.294-46.921c-9.59-22.605-7.877-47.949-7.877-47.949l37.335-16.782 11.991-6.165z" fill="#a2dff2"/><path d="M276.817 200.029h61.313s-1.713-4.795 1.369-28.427c2.539-19.459-.077-51.192-1.077-61.792l-5.579-2.39c-13.996 4.033-22.066 24.91-24.438 45.313-1.588 13.651-24.206 27.089-39.003 34.488 4.863 9.265 7.415 12.808 7.415 12.808z" fill="#96cfe0"/><path d="M261.782 39.374c-7.388 16.459 1.482 31.706 1.212 31.063s11.187-27.789 11.187-27.789l-12.399-3.274z" fill="#2e5b9a"/><path d="M289.79 51.545l9.375 34.257c.264.967.039 1.997-.591 2.775-2.202 2.708-5.332 8.278-11.647 10.065-1.228.347-2.738.44-3.963.445-1.288.005-2.397-.901-2.641-2.165l-6.28-32.492 15.747-12.885z" fill="#f09959"/><path d="M288 54.408l-3.426 1.404-10.531 8.617 5.653 28.807c9.59-5.977 10.988-10.012 8.304-38.828z" fill="#e38540"/><path d="M289.447 66.698c-2.072 11.269-10.509 18.891-18.836 17.023s-12.302-9.161-11.325-23.786c.768-11.473 6.424-23.944 14.754-22.077s17.484 17.57 15.407 28.84z" fill="#f09959"/><path d="M338.064 106.234c12.405 2.801 14.71 27.994 18.743 54.565.466 3.058 2.848 28.943 2.848 28.943s.237 4.745-4.509 7.117c-4.053 2.027-5.695 3.559-29.185 3.796-22.558.228-51.646-.712-51.646-.712s-.257-8.393 2.057-12.494c3.481-6.168 39.151-15.025 42.474-15.5.472-6.642-3.278-30.677 1.896-46.973 3.561-11.21 7.385-17.081 12.18-18.616 1.597-.511 3.304-.541 5.142-.126z" fill="#a2dff2"/><g fill="#96cfe0"><path d="M287.075 200.454l38.887.201c23.49-.237 25.132-1.769 29.185-3.796 4.747-2.372 4.984-6.405 4.984-6.405l-2.847-30.604c-2.61-17.793-5.431-38.153-11.994-47.981 6.171 18.081 7.164 33.336 7.273 39.852.058 3.3-.248 7.819-1.212 10.976-1.067 3.499-3.795 5.694-8.066 4.507-8.543-2.372-19.219 2.61-19.219 2.61s8.067-2.847 15.658-.237 23.255 19.928 6.17 26.333c-5.229 1.96-36.541 3.558-58.819 4.544z"/><path d="M278.273 188.239s3.162-5.377 9.648-5.377 6.013 10.596 5.061 14.076-4.743 3.638-4.743 3.638l-13.922-.633 3.956-11.704z"/></g><path d="M264.161 202.991h-87.75c-1.324 0-2.407-1.083-2.407-2.406v-.691c0-1.324 1.083-2.406 2.407-2.406h87.75c1.324 0 2.407 1.082 2.407 2.406v.691c0 1.323-1.083 2.406-2.407 2.406z" fill="#75a1de"/><path d="M276.534 188.872c-13.604-4.903-17.174-3.057-20.247-3.954-7.594-2.214-9.493-.316-14.394 13.127-.977 2.679 1.896 2.847 4.743 2.847s6.328-5.535 7.434-6.168 4.114-.949 4.114-.949-.948 0-2.372 2.847-3.166 3.954-.948 3.954 2.529-3.638 6.643-2.847 2.529 2.847 12.81 2.689 18.042-.001 17.875-6.169c-.157-5.852.492-8.778-5.062-9.805-4.271-.791-10.596 4.428-10.596 4.428z" fill="#f09959"/><path d="M276.711 188.872c9.095-1.028 6.425 10.3 5.476 11.249s5.065.333 5.065.333 2.825-4.544.454-9.763-7.119-5.457-7.119-5.457l-4.033 2.215.157 1.423z" fill="#a86b48"/><path d="M286.208 187.886c-.119 1.404-2.503 2.351-5.328 2.115s-5.024-1.566-4.905-2.97 2.501-2.351 5.329-2.115 5.02 1.566 4.904 2.97z" fill="#2e5b9a"/><path d="M285.483 187.188c-.106 1.254-2.236 2.1-4.763 1.889s-4.486-1.399-4.38-2.653 2.237-2.1 4.76-1.889 4.486 1.398 4.383 2.653z" fill="#3e6bab"/><path d="M283.906 186.607c-.074.903-1.61 1.511-3.426 1.36s-3.23-1.008-3.156-1.91 1.61-1.512 3.429-1.36 3.227 1.007 3.153 1.91z" fill="#f0ceb4"/><path d="M173.201 185.611H84.802c-4.65 0-8.635-3.367-9.477-8.003l-11.528-63.631c-1.086-6.001 3.458-11.532 9.478-11.532h88.399c4.651 0 8.636 3.367 9.475 8.003l11.531 63.631c1.086 6.001-3.458 11.532-9.478 11.532z" fill="#75a1de"/><path d="M177.331 174.317l-11.766-62.314c-.858-4.54-4.927-7.837-9.674-7.837H66.059c-1.886 2.189-2.831 5.186-2.256 8.308l11.933 64.966c.871 4.734 4.998 8.171 9.812 8.171h82.112c6.142 0 10.78-5.417 9.671-11.294z" fill="#a8ceff"/><path d="M156.016 194.132h-16.782c-2.992 0-5.419-2.665-5.419-5.953v-30.677c0-5.233-3.863-9.474-8.625-9.474h-8.764c-4.766 0-8.626 4.241-8.626 9.474v34.356c0 5.875 4.351 10.627 9.702 10.59l45.797-.314c0-4.42-3.262-8.002-7.283-8.002z" fill="#75a1de"/><path d="M108.464 158.19v33.83c0 5.507 4.271 10.009 9.673 10.398l44.695-.28c-.003-.732-3.526-2.066-7.88-2.066H136.8c-3.236 0-5.862-2.624-5.862-5.861V158.19a9.33 9.33 0 0 0-9.33-9.328h-3.811c-5.155 0-9.333 4.176-9.333 9.328z" fill="#a8ceff"/><g fill="#f09959"><path d="M202.022 190.234c6.756-3.752 15.012-2.502 18.014 1.25s3.503 6.254-3.253 6.254l-22.516.25c-2.249-.25 7.755-7.754 7.755-7.754z"/><path d="M212.029 187.983c7.254-1.751 12.213 2.47 18.264 6.503 5.252 3.502 6.309 6.906.498 4.002-8.503-4.252-13.507-4.752-13.507-4.752l-5.255-5.753zm-6.608 2.228c-3.663 0-6.861-1.168-9.448-.953s-10.776 8.62-9.484 9.266c.093.047.193.089.302.129 1.944.715 4.139-.078 5.235-1.836 1.16-1.86 3.044-4.024 5.239-3.249 3.663 1.293 7.51 1.168 7.51 1.168l.646-4.525z"/></g><path d="M203.272 199.239c-3.751-1.501 2.253-14.008 4.255-14.008s9.506 6.003 9.506 6.003-1.764.996-7.755-1c-1.5-.501-2.751 8.004-4.502 9.005s-1.504 0-1.504 0z" fill="#f7a96f"/><path d="M259.279 66.522c-.347 13.772 4.346 16.101 7.627 17.971s17.425-1.219 19.501-4.625c5.309-8.714.839-16.84 2.028-16.717s2.276 3.515 5.37 7.918c.29.41 2.301 3.131 2.408 2.226 1.436-12.333 7.861-16.163 6.331-28.636-1.128-9.196-6.965-8.466-6.965-8.466s-3.766-7.695-15.49-6.821c-7.855.585-14.858 3.645-22.953 5.729s9.577 20.434 20.08 13.73 5.319 8.063 6.974 9.209.797.152 1.558 7.709-8.838 12.49-11.589 13.137c-8.796 2.069-10.268.618-12.193-2.694-1.671-2.874-2.687-9.669-2.687-9.669z" fill="#2e5b9a"/><path d="M295.688 62.257c-1.009 3.471-3.477 5.713-5.508 5.008s-2.092-3.525-1.855-7.561c.216-3.638 3.475-5.713 5.509-5.008s2.863 4.09 1.854 7.561z" fill="#f09959"/><path d="M103.483 52.939H28.396a1.48 1.48 0 0 1-1.482-1.48V19.151a1.48 1.48 0 0 1 1.482-1.48h75.087a1.48 1.48 0 0 1 1.482 1.48v32.308a1.48 1.48 0 0 1-1.482 1.48z" fill="#b7e1ff"/><path d="M101.636 51.284H30.244c-.659 0-1.196-.535-1.196-1.195V28.132c0-.66.537-1.195 1.196-1.195h71.392c.659 0 1.195.535 1.195 1.195v21.956c0 .66-.536 1.195-1.195 1.195zM32.529 23.018h-1.732c-.366 0-.665-.297-.665-.663v-1.427c0-.366.299-.662.665-.662h1.732c.363 0 .662.297.662.662v1.427c0 .366-.299.663-.662.663zm5.556 0h-1.732c-.363 0-.662-.297-.662-.663v-1.427c0-.366.299-.662.662-.662h1.732c.366 0 .665.297.665.662v1.427c0 .366-.299.663-.665.663zm5.561 0h-1.732a.66.66 0 0 1-.662-.663v-1.427a.66.66 0 0 1 .662-.662h1.732c.366 0 .665.297.665.662v1.427c0 .366-.299.663-.665.663z" fill="#fff"/><path d="M99.83 32.273H60.801a1.17 1.17 0 0 1-1.167-1.167 1.17 1.17 0 0 1 1.167-1.167H99.83a1.17 1.17 0 0 1 1.167 1.167 1.17 1.17 0 0 1-1.167 1.167zm-29.357 18.01H31.448c-.643 0-1.17-.525-1.17-1.167s.527-1.167 1.17-1.167h39.025a1.17 1.17 0 0 1 1.167 1.167 1.17 1.17 0 0 1-1.167 1.167zm7.19 0h-4.037a.4.4 0 0 1-.398-.399v-1.536a.4.4 0 0 1 .398-.399h4.037a.4.4 0 0 1 .398.399v1.536a.4.4 0 0 1-.398.399zm6.088 0h-4.037a.4.4 0 0 1-.399-.399v-1.536a.4.4 0 0 1 .399-.399h4.037a.4.4 0 0 1 .402.399v1.536a.4.4 0 0 1-.402.399zm16.45-12.924H35.575c-.434 0-.791-.356-.791-.792s.357-.792.791-.792h64.626c.437 0 .794.357.794.792s-.357.792-.794.792zm0 3.419H35.575c-.434 0-.791-.357-.791-.792s.357-.792.791-.792h64.626c.437 0 .794.356.794.792s-.357.792-.794.792z" fill="#b7e1ff"/><path d="M121.12 77.701H46.029a1.48 1.48 0 0 1-1.478-1.479V43.913a1.48 1.48 0 0 1 1.478-1.48h75.091a1.48 1.48 0 0 1 1.481 1.48v32.308a1.48 1.48 0 0 1-1.481 1.479z" fill="#9ec8ff"/><path d="M119.273 76.046H47.881c-.662 0-1.196-.535-1.196-1.195V52.895c0-.66.534-1.195 1.196-1.195h71.392c.658 0 1.195.535 1.195 1.195v21.956c0 .66-.537 1.195-1.195 1.195zm-69.11-28.265h-1.732a.66.66 0 0 1-.662-.662v-1.427a.66.66 0 0 1 .662-.663h1.732a.66.66 0 0 1 .662.663v1.427a.66.66 0 0 1-.662.662zm5.56 0H53.99a.66.66 0 0 1-.662-.662v-1.427a.66.66 0 0 1 .662-.663h1.732a.66.66 0 0 1 .662.663v1.427a.66.66 0 0 1-.662.662zm5.559 0H59.55a.66.66 0 0 1-.662-.662v-1.427a.66.66 0 0 1 .662-.663h1.732a.66.66 0 0 1 .662.663v1.427a.66.66 0 0 1-.662.662z" fill="#fff"/><path d="M117.463 57.035H78.438a1.17 1.17 0 0 1-1.167-1.167 1.17 1.17 0 0 1 1.167-1.167h39.025c.643 0 1.17.525 1.17 1.167s-.527 1.167-1.17 1.167zm-29.352 18.01H49.083a1.17 1.17 0 0 1-1.167-1.167 1.17 1.17 0 0 1 1.167-1.167h39.029a1.17 1.17 0 0 1 1.167 1.167 1.17 1.17 0 0 1-1.167 1.167zm7.19 0h-4.04a.4.4 0 0 1-.399-.399V73.11a.4.4 0 0 1 .399-.399h4.04a.4.4 0 0 1 .398.399v1.536a.4.4 0 0 1-.398.399zm6.086 0h-4.036a.4.4 0 0 1-.402-.399V73.11a.4.4 0 0 1 .402-.399h4.036a.4.4 0 0 1 .399.399v1.536a.4.4 0 0 1-.399.399zm16.452-12.923H53.213c-.437 0-.794-.357-.794-.792s.357-.792.794-.792h64.626c.437 0 .794.356.794.792s-.357.792-.794.792zm0 3.418H53.213c-.437 0-.794-.356-.794-.792s.357-.792.794-.792h64.626c.437 0 .794.356.794.792s-.357.792-.794.792z" fill="#9ec8ff"/><path d="M155.62 70.822c0 5.595-4.537 10.13-10.133 10.13a10.13 10.13 0 1 1 0-20.26c5.596 0 10.133 4.535 10.133 10.13z" fill="#4fd248"/><path d="M144.482 74.565h-.029c-.208-.008-.408-.102-.549-.261l-2.751-3.127a.77.77 0 1 1 1.157-1.019l2.214 2.516 5.3-5.184a.77.77 0 0 1 1.089.012c.299.304.293.792-.009 1.091l-5.882 5.753a.77.77 0 0 1-.54.22z" fill="#fff"/><g fill="#9ec8ff"><path d="M215.283 29.016h-64.418a3.01 3.01 0 0 1-3.002-3.002V3.001A3.01 3.01 0 0 1 150.865 0h64.418a3.01 3.01 0 0 1 3.001 3.002v23.013a3.01 3.01 0 0 1-3.001 3.002z"/><path d="M156.367 24.638v16.009l18.45-18.448-18.45 2.439z"/></g><path d="M212.098 26.139H154.05c-1.401 0-2.545-1.145-2.545-2.545V5.421c0-1.4 1.144-2.545 2.545-2.545h58.048c1.401 0 2.545 1.145 2.545 2.545v18.173c0 1.4-1.144 2.545-2.545 2.545z" fill="#fff"/><path d="M185.889 8.63H157.37a1.26 1.26 0 0 1-1.254-1.251 1.26 1.26 0 0 1 1.254-1.251h28.519c.688 0 1.25.563 1.25 1.251s-.562 1.251-1.25 1.251zm23.821 4.782h-52.896a.7.7 0 0 1-.698-.695v-.014a.7.7 0 0 1 .698-.695h52.896c.382 0 .694.313.694.695v.014c0 .382-.312.695-.694.695zm-38.045 5.25h-15.346c-.111 0-.203-.39-.203-.866v-.018c0-.476.092-.866.203-.866h15.346c.111 0 .201.39.201.866v.018c0 .476-.09.866-.201.866z" fill="#9ec8ff"/></svg>