<svg width="513" height="236" viewBox="0 0 513 236" fill="none" xmlns="http://www.w3.org/2000/svg">
<path opacity="0.151481" fill-rule="evenodd" clip-rule="evenodd" d="M26.1146 234.754C26.1146 234.754 -16.7741 184.892 8.95838 137.443C34.6945 89.9937 83.5885 101.253 152.213 52.9992C235.526 -5.58101 294.025 -8.79996 368.383 16.8087C410.42 31.2847 417.281 90.7978 484.19 127.792C544.507 161.142 495.341 217.865 463.604 226.712C431.862 235.559 410.42 235.559 410.42 235.559L26.1146 234.754Z" fill="#E7F3FE"/>
<path fill-rule="evenodd" clip-rule="evenodd" d="M281.474 120.373C270.768 142.101 257.347 201.476 253.685 204.729C250.023 207.982 228.874 220.589 225.213 226.689C221.554 232.789 223.181 230.756 224.809 231.163C226.436 231.569 318.354 231.976 318.354 231.976C318.354 231.976 307.78 168.942 306.56 168.535C305.341 168.128 281.474 120.373 281.474 120.373Z" fill="#A2DFF2"/>
<path fill-rule="evenodd" clip-rule="evenodd" d="M266.25 231.681C283.134 231.799 300.948 231.892 310.755 231.94L297.327 151.652C290.168 137.769 281.474 120.373 281.474 120.373C280.123 123.112 278.731 126.451 277.32 130.198C275.928 190.502 284.615 207.404 278.088 218.149C272.997 226.534 268.351 230.285 266.25 231.681Z" fill="#96CFE0"/>
<path fill-rule="evenodd" clip-rule="evenodd" d="M457.11 236H15.7163C13.8358 236 12.3115 234.476 12.3115 232.596C12.3115 230.715 13.8358 229.191 15.7163 229.191H457.11C458.99 229.191 460.514 230.715 460.514 232.596C460.514 234.476 458.99 236 457.11 236Z" fill="#2E5B9A"/>
<path fill-rule="evenodd" clip-rule="evenodd" d="M337.847 94.1484C353.111 108.239 387.097 121.602 387.097 121.602C387.097 121.602 392.257 169.3 388.735 196.308C385.213 223.316 387.17 228.795 387.17 228.795H317.098C317.098 228.795 307.692 215.747 290.477 175.172C279.517 149.338 281.474 120.373 281.474 120.373L324.143 101.194L337.847 94.1484Z" fill="#A2DFF2"/>
<path fill-rule="evenodd" clip-rule="evenodd" d="M317.098 228.795H387.17C387.17 228.795 385.212 223.316 388.735 196.308C391.636 174.069 388.646 137.802 387.504 125.688L381.128 122.957C365.132 127.566 355.91 151.426 353.199 174.743C351.385 190.344 325.535 205.703 308.625 214.158C314.182 224.747 317.098 228.795 317.098 228.795Z" fill="#96CFE0"/>
<path fill-rule="evenodd" clip-rule="evenodd" d="M299.916 45.1896C291.472 64.0001 301.61 81.4253 301.301 80.6905C300.996 79.956 314.087 48.9314 314.087 48.9314L299.916 45.1896Z" fill="#2E5B9A"/>
<path fill-rule="evenodd" clip-rule="evenodd" d="M331.926 59.0992L342.639 98.2498C342.941 99.3548 342.684 100.532 341.964 101.421C339.448 104.516 335.87 110.882 328.653 112.924C327.25 113.321 325.524 113.427 324.124 113.432C322.651 113.438 321.384 112.402 321.105 110.958L313.928 73.8245L331.926 59.0992Z" fill="#F09959"/>
<path fill-rule="evenodd" clip-rule="evenodd" d="M329.88 62.3714L325.964 63.9762L313.928 73.8245L320.389 106.746C331.349 99.9149 332.947 95.3045 329.88 62.3714Z" fill="#E38540"/>
<path fill-rule="evenodd" clip-rule="evenodd" d="M331.533 76.4176C329.164 89.2968 319.522 98.007 310.006 95.8726C300.486 93.7386 295.946 85.4026 297.062 68.6887C297.94 55.5763 304.405 41.3236 313.925 43.458C323.445 45.5921 333.906 63.5381 331.533 76.4176Z" fill="#F09959"/>
<path fill-rule="evenodd" clip-rule="evenodd" d="M387.097 121.602C401.274 124.802 403.908 153.595 408.517 183.961C409.05 187.456 411.771 217.039 411.771 217.039C411.771 217.039 412.043 222.462 406.618 225.173C401.987 227.489 400.11 229.24 373.265 229.511C347.484 229.771 314.241 228.697 314.241 228.697C314.241 228.697 313.947 219.105 316.591 214.418C320.569 207.369 361.335 197.246 365.133 196.704C365.673 189.113 361.386 161.645 367.3 143.021C371.369 130.21 375.74 123.5 381.22 121.746C383.046 121.161 384.996 121.127 387.097 121.602Z" fill="#A2DFF2"/>
<path fill-rule="evenodd" clip-rule="evenodd" d="M328.822 229.282C341.531 229.473 358.973 229.655 373.265 229.511C400.11 229.24 401.987 227.489 406.618 225.173C412.043 222.462 412.315 217.852 412.315 217.852C412.315 217.852 409.575 186.374 409.061 182.877C406.079 162.542 402.854 139.273 395.354 128.041C402.406 148.705 403.541 166.14 403.665 173.587C403.732 177.358 403.383 182.523 402.281 186.13C401.061 190.129 397.943 192.638 393.062 191.282C383.299 188.57 371.098 194.264 371.098 194.264C371.098 194.264 380.317 191.01 388.992 193.993C397.671 196.975 415.569 216.768 396.044 224.088C390.068 226.328 354.283 228.155 328.822 229.282Z" fill="#96CFE0"/>
<path fill-rule="evenodd" clip-rule="evenodd" d="M318.762 215.322C318.762 215.322 322.376 209.176 329.788 209.176C337.2 209.176 336.66 221.286 335.573 225.263C334.49 229.24 330.152 229.421 330.152 229.421L314.241 228.697L318.762 215.322Z" fill="#96CFE0"/>
<path fill-rule="evenodd" clip-rule="evenodd" d="M302.634 232.18H202.349C200.835 232.18 199.598 230.943 199.598 229.431V228.641C199.598 227.129 200.835 225.891 202.349 225.891H302.634C304.147 225.891 305.385 227.129 305.385 228.641V229.431C305.385 230.943 304.147 232.18 302.634 232.18Z" fill="#75A1DE"/>
<path fill-rule="evenodd" clip-rule="evenodd" d="M316.775 216.045C301.227 210.441 297.147 212.551 293.635 211.526C284.956 208.996 282.786 211.165 277.184 226.528C276.068 229.59 279.351 229.782 282.606 229.782C285.86 229.782 289.838 223.456 291.101 222.733C292.368 222.01 295.803 221.648 295.803 221.648C295.803 221.648 294.719 221.648 293.092 224.902C291.465 228.155 289.474 229.421 292.008 229.421C294.539 229.421 294.899 225.263 299.6 226.167C304.298 227.071 302.491 229.421 314.241 229.24C325.994 229.059 334.86 229.239 334.669 222.19C334.489 215.502 335.231 212.158 328.885 210.984C324.003 210.08 316.775 216.045 316.775 216.045Z" fill="#F09959"/>
<path fill-rule="evenodd" clip-rule="evenodd" d="M316.977 216.045C327.371 214.87 324.319 227.816 323.236 228.901C322.152 229.985 329.024 229.282 329.024 229.282C329.024 229.282 332.253 224.088 329.542 218.123C326.828 212.159 321.406 211.888 321.406 211.888L316.797 214.418L316.977 216.045Z" fill="#A86B48"/>
<path fill-rule="evenodd" clip-rule="evenodd" d="M327.83 214.918C327.694 216.522 324.969 217.604 321.741 217.335C318.508 217.065 316 215.545 316.136 213.941C316.268 212.336 318.993 211.254 322.225 211.524C325.454 211.794 327.962 213.313 327.83 214.918Z" fill="#2E5B9A"/>
<path fill-rule="evenodd" clip-rule="evenodd" d="M327.004 214.12C326.883 215.553 324.448 216.52 321.561 216.279C318.677 216.038 316.433 214.681 316.554 213.247C316.672 211.813 319.111 210.847 321.994 211.088C324.881 211.329 327.121 212.686 327.004 214.12Z" fill="#3E6BAB"/>
<path fill-rule="evenodd" clip-rule="evenodd" d="M325.201 213.456C325.116 214.488 323.36 215.183 321.285 215.01C319.206 214.836 317.594 213.859 317.678 212.827C317.763 211.795 319.519 211.1 321.597 211.273C323.673 211.446 325.285 212.424 325.201 213.456Z" fill="#F0CEB4"/>
<path fill-rule="evenodd" clip-rule="evenodd" d="M198.68 212.318H97.6523C92.3375 212.318 87.7831 208.47 86.8208 203.172L73.646 130.451C72.4046 123.593 77.5981 117.271 84.4775 117.271H185.505C190.82 117.271 195.374 121.119 196.333 126.418L209.511 199.138C210.753 205.997 205.559 212.318 198.68 212.318Z" fill="#75A1DE"/>
<path fill-rule="evenodd" clip-rule="evenodd" d="M203.399 199.411L189.953 128.195C188.972 123.006 184.322 119.238 178.897 119.238H76.2316C74.0756 121.74 72.9958 125.165 73.6533 128.733L87.2908 202.98C88.2862 208.39 93.0022 212.318 98.5042 212.318H192.347C199.366 212.318 204.666 206.127 203.399 199.411Z" fill="#A8CEFF"/>
<path fill-rule="evenodd" clip-rule="evenodd" d="M179.04 222.056H159.86C156.441 222.056 153.668 219.011 153.668 215.253V180.193C153.668 174.213 149.253 169.366 143.81 169.366H133.794C128.347 169.366 123.936 174.213 123.936 180.193V219.457C123.936 226.171 128.909 231.602 135.024 231.56L187.363 231.201C187.363 226.15 183.635 222.056 179.04 222.056Z" fill="#75A1DE"/>
<path fill-rule="evenodd" clip-rule="evenodd" d="M124.696 180.98V219.642C124.696 225.936 129.577 231.082 135.751 231.526L186.831 231.206C186.827 230.37 182.801 228.845 177.825 228.845H157.08C153.381 228.845 150.381 225.846 150.381 222.147V180.98C150.381 175.092 145.606 170.319 139.718 170.319H135.362C129.471 170.319 124.696 175.092 124.696 180.98Z" fill="#A8CEFF"/>
<path fill-rule="evenodd" clip-rule="evenodd" d="M231.618 217.601C239.339 213.313 248.775 214.742 252.205 219.031C255.636 223.318 256.209 226.177 248.488 226.177C240.768 226.177 225.33 226.749 222.756 226.463C220.185 226.177 231.618 217.601 231.618 217.601Z" fill="#F09959"/>
<path fill-rule="evenodd" clip-rule="evenodd" d="M243.056 215.028C251.345 213.027 257.013 217.851 263.929 222.461C269.93 226.463 271.139 230.354 264.498 227.035C254.78 222.175 249.061 221.603 249.061 221.603L243.056 215.028Z" fill="#F09959"/>
<path fill-rule="evenodd" clip-rule="evenodd" d="M235.504 217.575C231.317 217.575 227.662 216.24 224.706 216.486C221.749 216.732 212.39 226.337 213.867 227.076C213.973 227.129 214.087 227.177 214.212 227.223C216.434 228.04 218.943 227.134 220.195 225.125C221.521 222.999 223.674 220.526 226.182 221.411C230.369 222.889 234.766 222.747 234.766 222.747L235.504 217.575Z" fill="#F09959"/>
<path fill-rule="evenodd" clip-rule="evenodd" d="M233.047 227.892C228.761 226.177 235.622 211.884 237.91 211.884C240.198 211.884 248.775 218.744 248.775 218.744C248.775 218.744 246.758 219.883 239.912 217.601C238.197 217.029 236.768 226.749 234.766 227.892C232.764 229.036 233.047 227.892 233.047 227.892Z" fill="#F7A96F"/>
<path fill-rule="evenodd" clip-rule="evenodd" d="M297.055 76.216C296.658 91.9556 302.021 94.6174 305.771 96.7547C309.524 98.8921 325.685 95.3614 328.058 91.4687C334.126 81.5094 329.017 72.2226 330.376 72.3629C331.735 72.5036 332.976 76.3805 336.513 81.4121C336.844 81.8807 339.143 84.9905 339.264 83.9564C340.906 69.8616 348.248 65.4848 346.5 51.2292C345.211 40.7199 338.541 41.5539 338.541 41.5539C338.541 41.5539 334.236 32.7599 320.837 33.7588C311.86 34.4276 303.857 37.9244 294.605 40.306C285.349 42.6872 305.55 63.6593 317.553 55.9971C329.557 48.3354 323.632 65.2123 325.524 66.5212C327.419 67.83 326.435 66.6949 327.305 75.3313C328.172 83.9674 317.205 89.606 314.061 90.3453C304.008 92.7092 302.326 91.0511 300.125 87.2663C298.216 83.9821 297.055 76.216 297.055 76.216Z" fill="#2E5B9A"/>
<path fill-rule="evenodd" clip-rule="evenodd" d="M338.666 71.3424C337.512 75.3093 334.691 77.8719 332.37 77.0662C330.045 76.2608 329.979 73.0372 330.251 68.425C330.497 64.2671 334.221 61.8954 336.546 62.7012C338.868 63.5069 339.819 67.3754 338.666 71.3424Z" fill="#F09959"/>
<path fill-rule="evenodd" clip-rule="evenodd" d="M119.003 60.6927H33.1888C32.2522 60.6927 31.4956 59.9354 31.4956 59.0015V22.0779C31.4956 21.144 32.2522 20.3868 33.1888 20.3868H119.003C119.94 20.3868 120.696 21.144 120.696 22.0779V59.0015C120.696 59.9354 119.94 60.6927 119.003 60.6927Z" fill="#B7E1FF"/>
<path fill-rule="evenodd" clip-rule="evenodd" d="M116.891 58.801H35.3004C34.5475 58.801 33.9341 58.1896 33.9341 57.4349V32.342C33.9341 31.5877 34.5475 30.9762 35.3004 30.9762H116.891C117.644 30.9762 118.257 31.5877 118.257 32.342V57.4349C118.257 58.1896 117.644 58.801 116.891 58.801Z" fill="white"/>
<path fill-rule="evenodd" clip-rule="evenodd" d="M37.9119 26.4977H35.9322C35.5135 26.4977 35.1719 26.1584 35.1719 25.7405V24.1099C35.1719 23.692 35.5135 23.353 35.9322 23.353H37.9119C38.3269 23.353 38.6685 23.692 38.6685 24.1099V25.7405C38.6685 26.1584 38.3269 26.4977 37.9119 26.4977Z" fill="white"/>
<path fill-rule="evenodd" clip-rule="evenodd" d="M44.2627 26.4977H42.283C41.8679 26.4977 41.5264 26.1584 41.5264 25.7405V24.1099C41.5264 23.692 41.8679 23.353 42.283 23.353H44.2627C44.6814 23.353 45.023 23.692 45.023 24.1099V25.7405C45.023 26.1584 44.6814 26.4977 44.2627 26.4977Z" fill="white"/>
<path fill-rule="evenodd" clip-rule="evenodd" d="M50.6167 26.4977H48.637C48.2183 26.4977 47.8804 26.1584 47.8804 25.7405V24.1099C47.8804 23.692 48.2183 23.353 48.637 23.353H50.6167C51.0354 23.353 51.377 23.692 51.377 24.1099V25.7405C51.377 26.1584 51.0354 26.4977 50.6167 26.4977Z" fill="white"/>
<path fill-rule="evenodd" clip-rule="evenodd" d="M114.827 37.0746H70.2229C69.492 37.0746 68.8896 36.4746 68.8896 35.7408C68.8896 35.0071 69.492 34.4066 70.2229 34.4066H114.827C115.561 34.4066 116.16 35.0071 116.16 35.7408C116.16 36.4746 115.561 37.0746 114.827 37.0746Z" fill="#B7E1FF"/>
<path fill-rule="evenodd" clip-rule="evenodd" d="M81.2781 57.6575H36.6778C35.9432 57.6575 35.3408 57.057 35.3408 56.3233C35.3408 55.5895 35.9432 54.9894 36.6778 54.9894H81.2781C82.0126 54.9894 82.6113 55.5895 82.6113 56.3233C82.6113 57.057 82.0126 57.6575 81.2781 57.6575Z" fill="#B7E1FF"/>
<path fill-rule="evenodd" clip-rule="evenodd" d="M89.4944 57.6575H84.8812C84.6278 57.6575 84.4258 57.4522 84.4258 57.2013V55.4456C84.4258 55.1947 84.6278 54.9894 84.8812 54.9894H89.4944C89.7478 54.9894 89.9499 55.1947 89.9499 55.4456V57.2013C89.9499 57.4522 89.7478 57.6575 89.4944 57.6575Z" fill="#B7E1FF"/>
<path fill-rule="evenodd" clip-rule="evenodd" d="M96.451 57.6575H91.8378C91.588 57.6575 91.3823 57.4522 91.3823 57.2013V55.4456C91.3823 55.1947 91.588 54.9894 91.8378 54.9894H96.451C96.7044 54.9894 96.9101 55.1947 96.9101 55.4456V57.2013C96.9101 57.4522 96.7044 57.6575 96.451 57.6575Z" fill="#B7E1FF"/>
<path fill-rule="evenodd" clip-rule="evenodd" d="M115.253 42.8873H41.3938C40.8979 42.8873 40.4902 42.4801 40.4902 41.9821C40.4902 41.4845 40.8979 41.0768 41.3938 41.0768H115.253C115.752 41.0768 116.16 41.4845 116.16 41.9821C116.16 42.4801 115.752 42.8873 115.253 42.8873Z" fill="#B7E1FF"/>
<path fill-rule="evenodd" clip-rule="evenodd" d="M115.253 46.7944H41.3938C40.8979 46.7944 40.4902 46.3868 40.4902 45.8892C40.4902 45.3912 40.8979 44.9839 41.3938 44.9839H115.253C115.752 44.9839 116.16 45.3912 116.16 45.8892C116.16 46.3868 115.752 46.7944 115.253 46.7944Z" fill="#B7E1FF"/>
<path fill-rule="evenodd" clip-rule="evenodd" d="M139.16 88.9924H53.3419C52.409 88.9924 51.6523 88.2351 51.6523 87.3016V50.3776C51.6523 49.4437 52.409 48.6865 53.3419 48.6865H139.16C140.093 48.6865 140.853 49.4437 140.853 50.3776V87.3016C140.853 88.2351 140.093 88.9924 139.16 88.9924Z" fill="#9EC8FF"/>
<path fill-rule="evenodd" clip-rule="evenodd" d="M137.048 87.1007H55.4576C54.701 87.1007 54.0913 86.4892 54.0913 85.7349V60.642C54.0913 59.8877 54.701 59.2762 55.4576 59.2762H137.048C137.801 59.2762 138.414 59.8877 138.414 60.642V85.7349C138.414 86.4892 137.801 87.1007 137.048 87.1007Z" fill="white"/>
<path fill-rule="evenodd" clip-rule="evenodd" d="M58.0654 54.7974H56.0857C55.667 54.7974 55.3291 54.4584 55.3291 54.0405V52.4099C55.3291 51.9916 55.667 51.6527 56.0857 51.6527H58.0654C58.4841 51.6527 58.8221 51.9916 58.8221 52.4099V54.0405C58.8221 54.4584 58.4841 54.7974 58.0654 54.7974Z" fill="white"/>
<path fill-rule="evenodd" clip-rule="evenodd" d="M64.4194 54.7974H62.4397C62.021 54.7974 61.6831 54.4584 61.6831 54.0405V52.4099C61.6831 51.9916 62.021 51.6527 62.4397 51.6527H64.4194C64.8381 51.6527 65.1761 51.9916 65.1761 52.4099V54.0405C65.1761 54.4584 64.8381 54.7974 64.4194 54.7974Z" fill="white"/>
<path fill-rule="evenodd" clip-rule="evenodd" d="M70.7734 54.7974H68.7937C68.375 54.7974 68.0371 54.4584 68.0371 54.0405V52.4099C68.0371 51.9916 68.375 51.6527 68.7937 51.6527H70.7734C71.1921 51.6527 71.5301 51.9916 71.5301 52.4099V54.0405C71.5301 54.4584 71.1921 54.7974 70.7734 54.7974Z" fill="white"/>
<path fill-rule="evenodd" clip-rule="evenodd" d="M134.98 65.3743H90.3797C89.6451 65.3743 89.0464 64.7742 89.0464 64.0405C89.0464 63.3067 89.6451 62.7063 90.3797 62.7063H134.98C135.715 62.7063 136.317 63.3067 136.317 64.0405C136.317 64.7742 135.715 65.3743 134.98 65.3743Z" fill="#9EC8FF"/>
<path fill-rule="evenodd" clip-rule="evenodd" d="M101.435 85.9571H56.8313C56.1004 85.9571 55.498 85.357 55.498 84.6233C55.498 83.8895 56.1004 83.2891 56.8313 83.2891H101.435C102.17 83.2891 102.769 83.8895 102.769 84.6233C102.769 85.357 102.17 85.9571 101.435 85.9571Z" fill="#9EC8FF"/>
<path fill-rule="evenodd" clip-rule="evenodd" d="M109.651 85.9571H105.035C104.785 85.9571 104.579 85.7522 104.579 85.501V83.7452C104.579 83.4944 104.785 83.2891 105.035 83.2891H109.651C109.901 83.2891 110.107 83.4944 110.107 83.7452V85.501C110.107 85.7522 109.901 85.9571 109.651 85.9571Z" fill="#9EC8FF"/>
<path fill-rule="evenodd" clip-rule="evenodd" d="M116.608 85.9571H111.995C111.741 85.9571 111.536 85.7522 111.536 85.501V83.7452C111.536 83.4944 111.741 83.2891 111.995 83.2891H116.608C116.858 83.2891 117.063 83.4944 117.063 83.7452V85.501C117.063 85.7522 116.858 85.9571 116.608 85.9571Z" fill="#9EC8FF"/>
<path fill-rule="evenodd" clip-rule="evenodd" d="M135.41 71.1874H61.5508C61.0512 71.1874 60.6436 70.7797 60.6436 70.2821C60.6436 69.7841 61.0512 69.3769 61.5508 69.3769H135.41C135.909 69.3769 136.317 69.7841 136.317 70.2821C136.317 70.7797 135.909 71.1874 135.41 71.1874Z" fill="#9EC8FF"/>
<path fill-rule="evenodd" clip-rule="evenodd" d="M135.41 75.0941H61.5508C61.0512 75.0941 60.6436 74.6868 60.6436 74.1888C60.6436 73.6908 61.0512 73.2839 61.5508 73.2839H135.41C135.909 73.2839 136.317 73.6908 136.317 74.1888C136.317 74.6868 135.909 75.0941 135.41 75.0941Z" fill="#9EC8FF"/>
<path fill-rule="evenodd" clip-rule="evenodd" d="M178.587 81.1304C178.587 87.5245 173.401 92.7077 167.006 92.7077C160.612 92.7077 155.429 87.5245 155.429 81.1304C155.429 74.7364 160.612 69.5531 167.006 69.5531C173.401 69.5531 178.587 74.7364 178.587 81.1304Z" fill="#4FD248"/>
<path fill-rule="evenodd" clip-rule="evenodd" d="M165.857 85.4081L165.824 85.4077C165.585 85.3989 165.357 85.2909 165.195 85.1091L162.051 81.5359C161.728 81.1701 161.765 80.6133 162.132 80.2916C162.496 79.9703 163.054 80.0059 163.374 80.3713L165.904 83.2468L171.961 77.3218C172.306 76.9813 172.865 76.9872 173.206 77.3353C173.548 77.6831 173.54 78.241 173.195 78.5818L166.474 85.1569C166.308 85.3184 166.088 85.4081 165.857 85.4081Z" fill="white"/>
<path fill-rule="evenodd" clip-rule="evenodd" d="M246.773 33.3523H173.153C171.265 33.3523 169.722 31.8084 169.722 29.9215V3.62148C169.722 1.73496 171.265 0.191071 173.153 0.191071H246.773C248.661 0.191071 250.203 1.73496 250.203 3.62148V29.9215C250.203 31.8084 248.661 33.3523 246.773 33.3523Z" fill="#9EC8FF"/>
<path fill-rule="evenodd" clip-rule="evenodd" d="M179.441 28.3493V46.6453L200.527 25.5623C200.527 25.5623 179.871 28.3493 179.441 28.3493Z" fill="#9EC8FF"/>
<path fill-rule="evenodd" clip-rule="evenodd" d="M243.133 30.0647H176.793C175.191 30.0647 173.884 28.7559 173.884 27.1562V6.38718C173.884 4.78747 175.191 3.47862 176.793 3.47862H243.133C244.734 3.47862 246.042 4.78747 246.042 6.38718V27.1562C246.042 28.7559 244.734 30.0647 243.133 30.0647Z" fill="white"/>
<path fill-rule="evenodd" clip-rule="evenodd" d="M213.18 10.0537H180.587C179.801 10.0537 179.154 9.41067 179.154 8.62441C179.154 7.83814 179.801 7.19473 180.587 7.19473H213.18C213.966 7.19473 214.609 7.83814 214.609 8.62441C214.609 9.41067 213.966 10.0537 213.18 10.0537Z" fill="#9EC8FF"/>
<path fill-rule="evenodd" clip-rule="evenodd" d="M240.404 15.5186H179.951C179.514 15.5186 179.154 15.1609 179.154 14.7239V14.7074C179.154 14.2708 179.514 13.9127 179.951 13.9127H240.404C240.841 13.9127 241.197 14.2708 241.197 14.7074V14.7239C241.197 15.1609 240.841 15.5186 240.404 15.5186Z" fill="#9EC8FF"/>
<path fill-rule="evenodd" clip-rule="evenodd" d="M196.924 21.5186H179.386C179.259 21.5186 179.154 21.0732 179.154 20.5289V20.5084C179.154 19.9646 179.259 19.5186 179.386 19.5186H196.924C197.051 19.5186 197.154 19.9646 197.154 20.5084V20.5289C197.154 21.0732 197.051 21.5186 196.924 21.5186Z" fill="#9EC8FF"/>
</svg>
