<svg xmlns="http://www.w3.org/2000/svg" xmlns:xlink="http://www.w3.org/1999/xlink" width="513" height="236" fill="none" xmlns:v="https://vecta.io/nano"><g fill-rule="evenodd"><path opacity=".151" d="M26.115 234.754s-42.889-49.862-17.156-97.311 74.63-36.19 143.255-84.444c83.313-58.58 141.812-61.799 216.17-36.19 42.037 14.476 48.898 73.989 115.807 110.983 60.317 33.35 11.151 90.073-20.586 98.92s-53.184 8.847-53.184 8.847l-384.305-.805z" fill="#e7f3fe"/><path d="M281.474 120.373c-10.706 21.728-24.127 81.103-27.789 84.356s-24.811 15.86-28.472 21.96-2.032 4.067-.404 4.474 93.545.813 93.545.813-10.574-63.034-11.794-63.441-25.086-48.162-25.086-48.162z" fill="#a2dff2"/><path d="M266.25 231.681l44.505.259-13.428-80.288-15.853-31.279c-1.351 2.739-2.743 6.078-4.154 9.825-1.392 60.304 7.295 77.206.768 87.951-5.091 8.385-9.737 12.136-11.838 13.532z" fill="#96cfe0"/><path d="M457.11 236H15.716c-1.88 0-3.405-1.524-3.405-3.404s1.524-3.405 3.405-3.405H457.11c1.88 0 3.404 1.524 3.404 3.405S458.99 236 457.11 236z" fill="#2e5b9a"/><path d="M337.847 94.148c15.264 14.091 49.25 27.454 49.25 27.454s5.16 47.698 1.638 74.706-1.565 32.487-1.565 32.487h-70.072s-9.406-13.048-26.621-53.623c-10.96-25.834-9.003-54.799-9.003-54.799l42.669-19.179 13.704-7.046z" fill="#a2dff2"/><path d="M317.098 228.795h70.072s-1.958-5.479 1.565-32.487c2.901-22.239-.089-58.506-1.231-70.62l-6.376-2.731c-15.996 4.609-25.218 28.469-27.929 51.786-1.814 15.601-27.664 30.96-44.574 39.415 5.557 10.589 8.473 14.637 8.473 14.637z" fill="#96cfe0"/><path d="M299.916 45.19c-8.444 18.811 1.694 36.236 1.385 35.501s12.786-31.759 12.786-31.759l-14.171-3.742z" fill="#2e5b9a"/><path d="M331.926 59.099l10.713 39.151a3.55 3.55 0 0 1-.675 3.171c-2.516 3.095-6.094 9.461-13.311 11.503-1.403.397-3.129.503-4.529.508-1.473.006-2.74-1.03-3.019-2.474l-7.177-37.133 17.998-14.725z" fill="#f09959"/><path d="M329.88 62.371l-3.916 1.605-12.036 9.848 6.461 32.921c10.96-6.831 12.558-11.441 9.491-44.375z" fill="#e38540"/><path d="M331.533 76.418c-2.369 12.879-12.011 21.589-21.527 19.455s-14.06-10.47-12.944-27.184c.878-13.112 7.343-27.365 16.863-25.231s19.981 20.08 17.608 32.96z" fill="#f09959"/><path d="M387.097 121.602c14.177 3.2 16.811 31.993 21.42 62.359.533 3.495 3.254 33.078 3.254 33.078s.272 5.423-5.153 8.134c-4.631 2.316-6.508 4.067-33.353 4.338-25.781.26-59.024-.814-59.024-.814s-.294-9.592 2.35-14.279c3.978-7.049 44.744-17.172 48.542-17.714.54-7.591-3.747-35.059 2.167-53.683 4.069-12.811 8.44-19.521 13.92-21.275 1.826-.585 3.776-.619 5.877-.144z" fill="#a2dff2"/><g fill="#96cfe0"><path d="M328.822 229.282l44.443.229c26.845-.271 28.722-2.022 33.353-4.338 5.425-2.711 5.697-7.321 5.697-7.321l-3.254-34.975c-2.982-20.335-6.207-43.604-13.707-54.836 7.052 20.664 8.187 38.099 8.311 45.546.067 3.771-.282 8.936-1.384 12.543-1.22 3.999-4.338 6.508-9.219 5.152-9.763-2.712-21.964 2.982-21.964 2.982s9.219-3.254 17.894-.271 26.577 22.775 7.052 30.095c-5.976 2.24-41.761 4.067-67.222 5.194z"/><path d="M318.762 215.322s3.614-6.146 11.026-6.146 6.872 12.11 5.785 16.087-5.421 4.158-5.421 4.158l-15.911-.724 4.521-13.375z"/></g><path d="M302.634 232.18H202.349a2.76 2.76 0 0 1-2.751-2.749v-.79a2.76 2.76 0 0 1 2.751-2.75h100.285a2.76 2.76 0 0 1 2.751 2.75v.79a2.76 2.76 0 0 1-2.751 2.749z" fill="#75a1de"/><path d="M316.775 216.045c-15.548-5.604-19.628-3.494-23.14-4.519-8.679-2.53-10.849-.361-16.451 15.002-1.116 3.062 2.167 3.254 5.422 3.254s7.232-6.326 8.495-7.049 4.702-1.085 4.702-1.085-1.084 0-2.711 3.254-3.618 4.519-1.084 4.519 2.891-4.158 7.592-3.254 2.891 3.254 14.641 3.073 20.619-.001 20.428-7.05c-.18-6.688.562-10.032-5.784-11.206-4.882-.904-12.11 5.061-12.11 5.061z" fill="#f09959"/><path d="M316.977 216.045c10.394-1.175 7.342 11.771 6.259 12.856s5.788.381 5.788.381 3.229-5.194.518-11.159-8.136-6.235-8.136-6.235l-4.609 2.53.18 1.627z" fill="#a86b48"/><path d="M327.83 214.918c-.136 1.604-2.861 2.686-6.089 2.417s-5.741-1.79-5.605-3.394 2.857-2.687 6.089-2.417 5.737 1.789 5.605 3.394z" fill="#2e5b9a"/><path d="M327.004 214.12c-.121 1.433-2.556 2.4-5.443 2.159s-5.128-1.598-5.007-3.032 2.557-2.4 5.44-2.159 5.127 1.598 5.01 3.032z" fill="#3e6bab"/><path d="M325.201 213.456c-.085 1.032-1.841 1.727-3.916 1.554s-3.691-1.151-3.607-2.183 1.841-1.727 3.919-1.554 3.688 1.151 3.604 2.183z" fill="#f0ceb4"/><path d="M198.68 212.318H97.652c-5.315 0-9.869-3.848-10.831-9.146l-13.175-72.721c-1.241-6.858 3.952-13.18 10.832-13.18h101.027c5.315 0 9.869 3.848 10.828 9.147l13.178 72.72c1.242 6.859-3.952 13.18-10.831 13.18z" fill="#75a1de"/><path d="M203.399 199.411l-13.446-71.216c-.981-5.189-5.631-8.957-11.056-8.957H76.232c-2.156 2.502-3.236 5.927-2.578 9.495l13.638 74.247a11.4 11.4 0 0 0 11.213 9.338h93.843c7.019 0 12.319-6.191 11.052-12.907z" fill="#a8ceff"/><path d="M179.04 222.056h-19.18c-3.419 0-6.192-3.045-6.192-6.803v-35.06c0-5.98-4.415-10.827-9.858-10.827h-10.016c-5.447 0-9.858 4.847-9.858 10.827v39.264c0 6.714 4.973 12.145 11.088 12.103l52.339-.359c0-5.051-3.728-9.145-8.323-9.145z" fill="#75a1de"/><path d="M124.696 180.98v38.662c0 6.294 4.881 11.44 11.055 11.884l51.08-.32c-.004-.836-4.03-2.361-9.006-2.361H157.08a6.7 6.7 0 0 1-6.699-6.698V180.98c0-5.888-4.775-10.661-10.663-10.661h-4.356c-5.891 0-10.666 4.773-10.666 10.661z" fill="#a8ceff"/><g fill="#f09959"><path d="M231.618 217.601c7.721-4.288 17.157-2.859 20.587 1.43s4.004 7.146-3.717 7.146l-25.732.286c-2.571-.286 8.862-8.862 8.862-8.862z"/><path d="M243.056 215.028c8.289-2.001 13.957 2.823 20.873 7.433 6.001 4.002 7.21 7.893.569 4.574-9.718-4.86-15.437-5.432-15.437-5.432l-6.005-6.575zm-7.552 2.547c-4.187 0-7.842-1.335-10.798-1.089s-12.316 9.851-10.839 10.59c.106.053.22.101.345.147 2.222.817 4.731-.089 5.983-2.098 1.326-2.126 3.479-4.599 5.987-3.714 4.187 1.478 8.584 1.336 8.584 1.336l.738-5.172z"/></g><path d="M233.047 227.892c-4.286-1.715 2.575-16.008 4.863-16.008s10.865 6.86 10.865 6.86-2.017 1.139-8.863-1.143c-1.715-.572-3.144 9.148-5.146 10.291s-1.719 0-1.719 0z" fill="#f7a96f"/><path d="M297.055 76.216c-.397 15.74 4.966 18.401 8.716 20.539s19.914-1.393 22.287-5.286c6.068-9.959.959-19.246 2.318-19.106s2.6 4.018 6.137 9.049c.331.469 2.63 3.578 2.751 2.544 1.642-14.095 8.984-18.472 7.236-32.727-1.289-10.509-7.959-9.675-7.959-9.675s-4.305-8.794-17.704-7.795c-8.977.669-16.98 4.166-26.232 6.547s10.945 23.353 22.948 15.691 6.079 9.215 7.971 10.524.911.174 1.781 8.81-10.1 14.275-13.244 15.014c-10.053 2.364-11.735.706-13.936-3.079-1.909-3.284-3.07-11.05-3.07-11.05z" fill="#2e5b9a"/><path d="M338.666 71.342c-1.154 3.967-3.975 6.529-6.296 5.724s-2.391-4.029-2.119-8.641c.246-4.158 3.97-6.53 6.295-5.724s3.273 4.674 2.12 8.641z" fill="#f09959"/><path d="M119.003 60.693H33.189a1.69 1.69 0 0 1-1.693-1.691V22.078a1.69 1.69 0 0 1 1.693-1.691h85.814a1.69 1.69 0 0 1 1.693 1.691v36.924a1.69 1.69 0 0 1-1.693 1.691z" fill="#b7e1ff"/><path d="M116.891 58.801H35.3a1.37 1.37 0 0 1-1.366-1.366V32.342a1.37 1.37 0 0 1 1.366-1.366h81.591a1.37 1.37 0 0 1 1.366 1.366v25.093c0 .755-.613 1.366-1.366 1.366zM37.912 26.498h-1.98a.76.76 0 0 1-.76-.757V24.11a.76.76 0 0 1 .76-.757h1.98a.76.76 0 0 1 .757.757v1.631a.76.76 0 0 1-.757.757zm6.351 0h-1.98a.76.76 0 0 1-.757-.757V24.11a.76.76 0 0 1 .757-.757h1.98a.76.76 0 0 1 .76.757v1.631a.76.76 0 0 1-.76.757zm6.354 0h-1.98c-.419 0-.757-.339-.757-.757V24.11c0-.418.338-.757.757-.757h1.98a.76.76 0 0 1 .76.757v1.631a.76.76 0 0 1-.76.757z" fill="#fff"/><g fill="#b7e1ff"><path d="M114.827 37.075H70.223a1.34 1.34 0 0 1-1.333-1.334 1.34 1.34 0 0 1 1.333-1.334h44.604a1.34 1.34 0 0 1 1.333 1.334c0 .734-.599 1.334-1.333 1.334zM81.278 57.658h-44.6a1.34 1.34 0 0 1-1.337-1.334 1.34 1.34 0 0 1 1.337-1.334h44.6c.735 0 1.333.6 1.333 1.334s-.599 1.334-1.333 1.334zm8.216 0h-4.613c-.253 0-.455-.205-.455-.456v-1.756c0-.251.202-.456.455-.456h4.613c.253 0 .456.205.456.456v1.756c0 .251-.202.456-.456.456zm6.957 0h-4.613a.46.46 0 0 1-.456-.456v-1.756a.46.46 0 0 1 .456-.456h4.613a.46.46 0 0 1 .459.456v1.756a.46.46 0 0 1-.459.456z"/><use xlink:href="#B"/><use xlink:href="#B" y="3.907"/></g><path d="M139.16 88.992H53.342a1.69 1.69 0 0 1-1.69-1.691V50.378a1.69 1.69 0 0 1 1.69-1.691h85.818c.933 0 1.693.757 1.693 1.691v36.924c0 .934-.76 1.691-1.693 1.691z" fill="#9ec8ff"/><g fill="#fff"><path d="M137.048 87.101h-81.59c-.757 0-1.366-.612-1.366-1.366V60.642c0-.754.61-1.366 1.366-1.366h81.59c.753 0 1.366.611 1.366 1.366v25.093c0 .754-.613 1.366-1.366 1.366z"/><use xlink:href="#C"/><use xlink:href="#C" x="6.354"/><use xlink:href="#C" x="12.708"/></g><g fill="#9ec8ff"><path d="M134.98 65.374h-44.6c-.735 0-1.333-.6-1.333-1.334s.599-1.334 1.333-1.334h44.6a1.34 1.34 0 0 1 1.337 1.334 1.34 1.34 0 0 1-1.337 1.334zm-33.545 20.583H56.831a1.34 1.34 0 0 1-1.333-1.334 1.34 1.34 0 0 1 1.333-1.334h44.604a1.34 1.34 0 0 1 1.334 1.334c0 .734-.599 1.334-1.334 1.334zm8.216 0h-4.616a.46.46 0 0 1-.456-.456v-1.756a.46.46 0 0 1 .456-.456h4.616a.46.46 0 0 1 .456.456v1.756a.46.46 0 0 1-.456.456zm6.957 0h-4.613c-.254 0-.459-.205-.459-.456v-1.756a.46.46 0 0 1 .459-.456h4.613c.25 0 .455.205.455.456v1.756c0 .251-.205.456-.455.456z"/><use xlink:href="#D"/><use xlink:href="#D" y="3.907"/></g><path d="M178.587 81.13c0 6.394-5.186 11.577-11.581 11.577a11.58 11.58 0 0 1-11.577-11.577 11.58 11.58 0 0 1 11.577-11.577c6.395 0 11.581 5.183 11.581 11.577z" fill="#4fd248"/><path d="M165.857 85.408h-.033a.89.89 0 0 1-.629-.299l-3.144-3.573a.88.88 0 0 1 1.323-1.165l2.53 2.875 6.057-5.925a.88.88 0 0 1 1.245.014c.342.348.334.906-.011 1.246l-6.721 6.575a.88.88 0 0 1-.617.251z" fill="#fff"/><g fill="#9ec8ff"><path d="M246.773 33.352h-73.62a3.44 3.44 0 0 1-3.431-3.431v-26.3a3.44 3.44 0 0 1 3.431-3.43h73.62a3.44 3.44 0 0 1 3.43 3.43v26.3a3.44 3.44 0 0 1-3.43 3.431z"/><path d="M179.441 28.349v18.296l21.086-21.083-21.086 2.787z"/></g><path d="M243.133 30.065h-66.34c-1.602 0-2.909-1.309-2.909-2.908V6.387c0-1.6 1.307-2.909 2.909-2.909h66.34a2.92 2.92 0 0 1 2.909 2.909v20.769a2.92 2.92 0 0 1-2.909 2.909z" fill="#fff"/><path d="M213.18 10.054h-32.593c-.786 0-1.433-.643-1.433-1.429a1.44 1.44 0 0 1 1.433-1.43h32.593c.786 0 1.429.643 1.429 1.43s-.643 1.429-1.429 1.429zm27.224 5.465h-60.453a.8.8 0 0 1-.797-.795v-.017a.8.8 0 0 1 .797-.795h60.453c.437 0 .793.358.793.795v.017c0 .437-.356.795-.793.795zm-43.48 6h-17.538c-.127 0-.232-.445-.232-.99v-.02c0-.544.105-.99.232-.99h17.538c.127 0 .23.446.23.99v.02c0 .544-.103.99-.23.99z" fill="#9ec8ff"/></g><defs ><path id="B" d="M115.253 42.887H41.394a.91.91 0 0 1-.904-.905.91.91 0 0 1 .904-.905h73.859a.91.91 0 0 1 .907.905.91.91 0 0 1-.907.905z"/><path id="C" d="M58.065 54.797h-1.98c-.419 0-.757-.339-.757-.757V52.41c0-.418.338-.757.757-.757h1.98c.419 0 .757.339.757.757v1.631c0 .418-.338.757-.757.757z"/><path id="D" d="M135.41 71.187H61.551a.91.91 0 0 1-.907-.905.91.91 0 0 1 .907-.905h73.859a.91.91 0 0 1 .907.905.91.91 0 0 1-.907.905z"/></defs></svg>